<svg xmlns="http://www.w3.org/2000/svg" viewBox="0 0 36.26 38.11"><defs><style>.cls-1{fill:none;stroke:#fff;stroke-linecap:round;stroke-linejoin:round;}</style></defs><g id="Layer_2" data-name="Layer 2"><g id="Layer_1-2" data-name="Layer 1"><polygon class="cls-1" points="0.99 29.14 0.5 8.34 18.82 16.21 18.82 37.61 0.99 29.14"/><polygon class="cls-1" points="18.82 16.21 18.82 37.61 35.76 29.14 35.76 7.75 18.82 16.21"/><polygon class="cls-1" points="35.76 7.75 17.58 0.5 0.5 8.34 18.82 16.21 35.76 7.75"/><polygon class="cls-1" points="28.45 4.83 23.82 2.98 7.24 11.25 11.87 13.24 28.45 4.83"/><polygon class="cls-1" points="7.32 16.14 7.24 11.25 11.87 13.24 11.74 18.02 7.32 16.14"/><polygon class="cls-1" points="7.32 32.13 7.32 27.57 11.74 29.63 11.74 34.23 7.32 32.13"/></g></g></svg>