<svg xmlns="http://www.w3.org/2000/svg" viewBox="0 0 41.33 41.33"><defs><style>.cls-1{fill:#3f37ac;}</style></defs><g id="Layer_2" data-name="Layer 2"><g id="Layer_1-2" data-name="Layer 1"><path class="cls-1" d="M41.31.34s0-.05,0-.07a.26.26,0,0,0,0-.09l0,0L41.12.07l0,0L41,0h-.1A33.17,33.17,0,0,0,34.1,1.27,27,27,0,0,0,22.48,7.8q-1,1-2,2.16H15.89a.43.43,0,0,0-.3.13L4.66,21a.44.44,0,0,0,.31.74l.12,0,.38-.11h0l9.83-2.88.25.25-1.29,1.29a.43.43,0,0,0-.13.3.44.44,0,0,0,.13.31l1.39,1.38L9.27,27.18l-.61,0a4.57,4.57,0,0,0-.6-.76,4.72,4.72,0,1,0-4.58,7.89,5.43,5.43,0,0,0,1.34,2.23,5.54,5.54,0,0,0,2.23,1.34,4.72,4.72,0,1,0,7.88-4.59,4.88,4.88,0,0,0-.75-.59c0-.2,0-.41,0-.61l4.9-6.38,1.39,1.39a.42.42,0,0,0,.3.12.43.43,0,0,0,.31-.12l1.29-1.29.35.35-2.8,9.54-.11.38a.44.44,0,0,0,.2.49.4.4,0,0,0,.22.06.42.42,0,0,0,.3-.12L31.43,25.55a.42.42,0,0,0,.12-.3V20.69c.67-.59,1.34-1.21,2-1.85A26.73,26.73,0,0,0,40.05,7.23h0A33,33,0,0,0,41.33.45s0,0,0,0,0,0,0,0A.25.25,0,0,1,41.31.34ZM39.42,6.28,35,1.9a32.79,32.79,0,0,1,5.39-1A34.27,34.27,0,0,1,39.42,6.28ZM16.07,10.82h3.67a33.53,33.53,0,0,0-4.63,7.08L6.46,20.43ZM15.46,36.6a3.87,3.87,0,0,1-6.6,2.74,3.94,3.94,0,0,1-1-1.92s0,0,0-.05a.36.36,0,0,0,0-.09l0-.06-.07-.06-.06,0-.07,0a4.64,4.64,0,0,1-2.08-1.2,4.55,4.55,0,0,1-1.2-2.08l0-.06a.2.2,0,0,0,0-.08s0,0-.06-.06,0,0-.06,0a.2.2,0,0,0-.08,0l-.06,0A3.86,3.86,0,1,1,7.45,27a2.62,2.62,0,0,1,.22.25l-.46.1a.43.43,0,0,0-.3.53.45.45,0,0,0,.42.32l.11,0a4.74,4.74,0,0,1,1-.17h0a5.35,5.35,0,0,1,.89,0A4.6,4.6,0,0,1,13.28,32h0a4.5,4.5,0,0,1-.13,1.89.42.42,0,0,0,.3.53l.11,0a.45.45,0,0,0,.42-.32c0-.15.07-.3.1-.45l.24.21A3.84,3.84,0,0,1,15.46,36.6Zm-1.54-5.66a5.41,5.41,0,0,0-3.54-3.53l5.88-4.52,2.18,2.17Zm6.82-4.79L16.6,22h0l-1.43-1.43,1-1,5.57,5.57Zm.34,8.53,2.5-8.54a33.73,33.73,0,0,0,7.11-4.71v3.64ZM32.91,18.23c-.67.67-1.36,1.33-2.07,1.95a33.82,33.82,0,0,1-7.59,5.16l-.12,0-.49-.49h0l-6.18-6.17-.52-.52a33.83,33.83,0,0,1,5-7.5h0c.68-.78,1.39-1.54,2.1-2.26a25.84,25.84,0,0,1,11-6.23l5,5A25.73,25.73,0,0,1,32.91,18.23Z" transform="translate(0 0)"/><path class="cls-1" d="M34,7.31h0a4,4,0,1,0-5.6,5.6,4,4,0,0,0,6.76-2.8A3.93,3.93,0,0,0,34,7.31Zm-.61,5a3.1,3.1,0,0,1-5.29-2.19,3.1,3.1,0,0,1,5.29-2.19h0a3.09,3.09,0,0,1,.91,2.19A3.12,3.12,0,0,1,33.41,12.3Z" transform="translate(0 0)"/></g></g></svg>