<svg xmlns="http://www.w3.org/2000/svg" viewBox="0 0 39.22 39.64"><defs><style>.cls-1{fill:#fff;}</style></defs><g id="Layer_2" data-name="Layer 2"><g id="Layer_1-2" data-name="Layer 1"><path class="cls-1" d="M30.07,16a.47.47,0,0,0-.62-.2.46.46,0,0,0-.21.61,15,15,0,1,1-6.42-6.53A.46.46,0,0,0,23.24,9,15.88,15.88,0,0,0,4.29,34c.25.27.52.53.79.78L1.55,38.88a.46.46,0,0,0,.34.76.48.48,0,0,0,.35-.16l3.53-4.12a15.89,15.89,0,0,0,20.36-.12l3.71,4.24a.43.43,0,0,0,.34.16.46.46,0,0,0,.3-.11.47.47,0,0,0,.05-.65l-3.72-4.26h0A16,16,0,0,0,30.07,16Z"/><path class="cls-1" d="M21.46,15.46a.45.45,0,0,0-.13-.63,9.9,9.9,0,1,0,2.83,2.82.46.46,0,0,0-.77.51,9,9,0,1,1-2.56-2.57A.45.45,0,0,0,21.46,15.46Z"/><path class="cls-1" d="M15.89,20.41a3,3,0,0,1,.9.14.46.46,0,0,0,.29-.87,3.75,3.75,0,0,0-1.19-.19,3.79,3.79,0,1,0,3.79,3.79,3.64,3.64,0,0,0-.16-1.09.46.46,0,0,0-.57-.31.47.47,0,0,0-.31.58,2.81,2.81,0,0,1,.12.82,2.88,2.88,0,1,1-2.87-2.87Z"/><path class="cls-1" d="M39.18,4.09a.45.45,0,0,0-.42-.28H35.54a.75.75,0,0,0-.07-.12.56.56,0,0,0-.2-.11L35,.42a.44.44,0,0,0-.3-.39.47.47,0,0,0-.48.1L25.87,8.47a.41.41,0,0,0-.13.36l.31,3.63L15.54,23a.46.46,0,0,0,0,.65.45.45,0,0,0,.32.14.47.47,0,0,0,.33-.14L26.75,13.06h3.67a.43.43,0,0,0,.32-.14l8.34-8.33A.45.45,0,0,0,39.18,4.09ZM26.67,9l7.49-7.49.23,2.64L26.9,11.61Zm3.56,3.17H27.67l7.41-7.41h2.57Z"/></g></g></svg>