<svg xmlns="http://www.w3.org/2000/svg" width="26.5" height="26.5" viewBox="0 0 26.5 26.5">
  <g id="Group_11257" data-name="Group 11257" transform="translate(-1070.5 -24.5)">
    <path id="Path" d="M12.75,0A12.75,12.75,0,1,0,25.5,12.75,12.748,12.748,0,0,0,12.75,0Z" transform="translate(1071 25)" fill="#fff" stroke="#5a5a5a" stroke-width="1"/>
    <path id="Shape" d="M2.354,10.507A1.284,1.284,0,0,1,3.665,9.244a1.263,1.263,0,1,1,0,2.524A1.276,1.276,0,0,1,2.354,10.507Zm.215-2.335L2.55,7.643A2.551,2.551,0,0,1,4,4.947c1.036-.62,1.471-1.012,1.471-1.772A1.488,1.488,0,0,0,3.819,1.858,1.551,1.551,0,0,0,2.176,3.366H0C.042,1.392,1.5,0,3.966,0c2.3,0,3.881,1.275,3.881,3.107A3,3,0,0,1,6.124,5.829C5.057,6.449,4.7,6.9,4.7,7.687v.484Z" transform="translate(1079.827 31.866)" fill="#5a5a5a"/>
  </g>
</svg>
