<svg xmlns="http://www.w3.org/2000/svg" viewBox="0 0 52.44 36.94"><defs><style>.cls-1{fill:#3f37ac;}</style></defs><g id="Layer_2" data-name="Layer 2"><g id="Layer_1-2" data-name="Layer 1"><path class="cls-1" d="M44,10.84H44a8.95,8.95,0,0,0-13.7-6.92A11.58,11.58,0,0,0,10.35,8.77c-.3,0-.6,0-.89,0a9.46,9.46,0,1,0,0,18.91h4.6a.66.66,0,0,0,0-1.32H9.46a8.13,8.13,0,1,1,1.3-16.16.66.66,0,0,0,.76-.53A10.26,10.26,0,0,1,29.63,5.22a.66.66,0,0,0,.91.12,7.63,7.63,0,0,1,12.13,6.15v0a.67.67,0,0,0,.21.5.65.65,0,0,0,.51.17l.65,0a7.08,7.08,0,0,1,0,14.16H37.79a.66.66,0,0,0,0,1.32H44a8.4,8.4,0,0,0,0-16.8Z"/><path class="cls-1" d="M20.94,17.39l0,0a.63.63,0,0,0-.43-.17.68.68,0,0,0-.48.2L15.4,22a.66.66,0,1,0,.94.94l3.46-3.46v16.8a.67.67,0,1,0,1.33,0V19.46l3.47,3.47a.65.65,0,0,0,.93,0,.66.66,0,0,0,0-.94Z"/><path class="cls-1" d="M35.21,31.21l-3.46,3.46V17.86a.67.67,0,0,0-1.33,0V34.67L27,31.21a.66.66,0,0,0-.94.94l4.6,4.59a.5.5,0,0,0,.19.13s0,0,0,0l.09,0h0l.13,0h.13l.09,0h0l.1-.06h0a.52.52,0,0,0,.11-.1l4.59-4.59a.65.65,0,0,0,0-.93A.66.66,0,0,0,35.21,31.21Z"/></g></g></svg>