<svg xmlns="http://www.w3.org/2000/svg" viewBox="0 0 50.17 35.34"><defs><style>.cls-1{fill:#fff;}</style></defs><g id="Layer_2" data-name="Layer 2"><g id="Layer_1-2" data-name="Layer 1"><path class="cls-1" d="M42.13,10.37h-.06A8.56,8.56,0,0,0,29,3.75,11.08,11.08,0,0,0,9.9,8.39c-.28,0-.57,0-.85,0a9,9,0,0,0,0,18.1h4.4a.64.64,0,0,0,.63-.64.63.63,0,0,0-.63-.63H9.05a7.78,7.78,0,0,1,0-15.56,8.89,8.89,0,0,1,1.25.1.63.63,0,0,0,.72-.5A9.81,9.81,0,0,1,28.34,5a.64.64,0,0,0,.88.12,7.21,7.21,0,0,1,4.3-1.41A7.31,7.31,0,0,1,40.82,11v0a.62.62,0,0,0,.69.63c.22,0,.43,0,.62,0a6.77,6.77,0,0,1,0,13.54h-6a.64.64,0,0,0-.64.63.64.64,0,0,0,.64.64h6a8,8,0,0,0,0-16.08Z"/><path class="cls-1" d="M20,16.64l0,0a.69.69,0,0,0-.42-.15.6.6,0,0,0-.45.19L14.73,21a.63.63,0,0,0,0,.9.66.66,0,0,0,.45.18.64.64,0,0,0,.45-.18L19,18.62V34.7a.63.63,0,1,0,1.26,0V18.62l3.32,3.32a.65.65,0,0,0,.9,0,.63.63,0,0,0,0-.9Z"/><path class="cls-1" d="M33.69,29.85l-3.32,3.32V17.09a.63.63,0,1,0-1.26,0V33.17l-3.32-3.31a.63.63,0,0,0-.9,0,.62.62,0,0,0,0,.89l4.4,4.4a1.18,1.18,0,0,0,.18.13h0l.09,0h0l.13,0h.12l.08,0h0l.1,0h0a.28.28,0,0,0,.1-.09l4.4-4.39a.64.64,0,0,0-.9-.9Z"/></g></g></svg>