<svg xmlns="http://www.w3.org/2000/svg" viewBox="0 0 34 34"><defs><style>.cls-1{fill:#fff;}</style></defs><g id="Layer_2" data-name="Layer 2"><g id="Layer_1-2" data-name="Layer 1"><path class="cls-1" d="M17,0A17,17,0,1,0,30.8,7.1,17,17,0,0,0,17,0ZM30.31,26.15a32.37,32.37,0,0,0-5.48-1.71,30.68,30.68,0,0,0,.87-7h7.46A16,16,0,0,1,30.31,26.15Zm-26.62,0A16,16,0,0,1,.84,17.41H8.3a30.68,30.68,0,0,0,.87,7A32.37,32.37,0,0,0,3.69,26.15Zm0-18.3A32.37,32.37,0,0,0,9.17,9.56a30.68,30.68,0,0,0-.87,7H.84A16,16,0,0,1,3.69,7.85ZM24,24.28a37.25,37.25,0,0,0-14,0,30.4,30.4,0,0,1-.86-6.87H24.88A30.47,30.47,0,0,1,24,24.28ZM9.12,16.59A30.4,30.4,0,0,1,10,9.72a37,37,0,0,0,7,.68,37,37,0,0,0,7-.68,30.4,30.4,0,0,1,.86,6.87Zm1.07-7.66c1.42-5,4-8.11,6.81-8.11s5.39,3.1,6.81,8.11A37.12,37.12,0,0,1,10.19,8.93ZM23.81,25.07c-1.42,5-4,8.11-6.81,8.11s-5.39-3.1-6.81-8.11A37.12,37.12,0,0,1,23.81,25.07Zm1.89-8.48a30.68,30.68,0,0,0-.87-7,32.37,32.37,0,0,0,5.48-1.71,16,16,0,0,1,2.85,8.74Zm4.11-9.43a31,31,0,0,1-5.19,1.6c-1-3.55-2.59-6.21-4.48-7.62A16.23,16.23,0,0,1,29.81,7.16Zm-15.95-6C12,2.55,10.38,5.21,9.38,8.76a31,31,0,0,1-5.19-1.6A16.23,16.23,0,0,1,13.86,1.14ZM4.19,26.84a31,31,0,0,1,5.19-1.6c1,3.55,2.59,6.21,4.48,7.62A16.23,16.23,0,0,1,4.19,26.84Zm16,6c1.89-1.41,3.48-4.07,4.48-7.62a31,31,0,0,1,5.19,1.6A16.23,16.23,0,0,1,20.14,32.86Z"/></g></g></svg>