<?xml version="1.0" encoding="utf-8"?>
<svg version="1.1" xmlns:xlink="http://www.w3.org/1999/xlink" width="122px" height="110px" xmlns="http://www.w3.org/2000/svg">
  <defs>
    <filter x="-6px" y="137px" width="122px" height="110px" filterUnits="userSpaceOnUse" id="filter12773">
      <feOffset dx="0" dy="3" in="SourceAlpha" result="shadowOffsetInner" />
      <feGaussianBlur stdDeviation="3" in="shadowOffsetInner" result="shadowGaussian" />
      <feComposite in2="shadowGaussian" operator="atop" in="SourceAlpha" result="shadowComposite" />
      <feColorMatrix type="matrix" values="0 0 0 0 0.2  0 0 0 0 0.2  0 0 0 0 0.2  0 0 0 0.247058823529412 0  " in="shadowComposite" />
    </filter>
    <g id="widget12774">
      <path d="M 1 150  A 9 9 0 0 1 10 141 L 100 141  A 9 9 0 0 1 109 150 L 109 228  A 9 9 0 0 1 100 237 L 10 237  A 9 9 0 0 1 1 228 L 1 150  Z " fill-rule="nonzero" fill="#ffffff" stroke="none" fill-opacity="0" />
      <path d="M 0.5 150  A 9.5 9.5 0 0 1 10 140.5 L 100 140.5  A 9.5 9.5 0 0 1 109.5 150 L 109.5 228  A 9.5 9.5 0 0 1 100 237.5 L 10 237.5  A 9.5 9.5 0 0 1 0.5 228 L 0.5 150  Z " stroke-width="1" stroke="#dddddd" fill="none" stroke-opacity="0.996078431372549" />
    </g>
  </defs>
  <g transform="matrix(1 0 0 1 6 -137 )">
    <use xlink:href="#widget12774" filter="url(#filter12773)" />
    <use xlink:href="#widget12774" />
  </g>
</svg>