<svg xmlns="http://www.w3.org/2000/svg" viewBox="0 0 38.31 43.14"><defs><style>.cls-1{fill:#fff;}</style></defs><g id="Layer_2" data-name="Layer 2"><g id="Layer_1-2" data-name="Layer 1"><path class="cls-1" d="M35.38,4.81H16.88l-1.25-3A2.91,2.91,0,0,0,12.93,0h-10A2.92,2.92,0,0,0,0,2.92V28.36a2.93,2.93,0,0,0,2.92,2.93H18.41v1.62a5.13,5.13,0,0,0-4.34,4.34H5.14a.74.74,0,1,0,0,1.48h8.93a5.14,5.14,0,0,0,10.17,0h8.92a.74.74,0,1,0,0-1.48H24.24a5.14,5.14,0,0,0-4.35-4.34V31.29H35.38a2.93,2.93,0,0,0,2.93-2.93V7.73A2.93,2.93,0,0,0,35.38,4.81ZM22.82,38a3.67,3.67,0,1,1-3.67-3.66A3.68,3.68,0,0,1,22.82,38Zm14-9.63a1.43,1.43,0,0,1-1.44,1.44H2.92a1.44,1.44,0,0,1-1.44-1.44V2.92A1.45,1.45,0,0,1,2.92,1.48h10a1.43,1.43,0,0,1,1.33.89L15.7,5.83a.73.73,0,0,0,.68.46h19a1.44,1.44,0,0,1,1.44,1.44Z"/></g></g></svg>