<svg xmlns="http://www.w3.org/2000/svg" viewBox="0 0 36.35 31.08"><defs><style>.cls-1{fill:#fff;}</style></defs><g id="Layer_2" data-name="Layer 2"><g id="Layer_1-2" data-name="Layer 1"><path class="cls-1" d="M36.22,27.6,33.61,25A.43.43,0,0,0,33,25a.43.43,0,0,0,0,.6l2,2H28V5.41A.43.43,0,0,0,27.6,5H22.48a.43.43,0,0,0-.43.43V27.54H20.56V13.61a.43.43,0,0,0-.43-.43H15a.43.43,0,0,0-.43.43V27.54h-1.5V18.27a.43.43,0,0,0-.42-.43H7.53a.43.43,0,0,0-.42.43v9.27H3.54v-26l2,2a.42.42,0,0,0,.3.12.47.47,0,0,0,.31-.12.45.45,0,0,0,0-.61L3.35.13a.43.43,0,0,0-.61,0L.13,2.74a.42.42,0,0,0,0,.6.42.42,0,0,0,.6,0l2-1.95V28a.42.42,0,0,0,.43.42H34.83l-2,2a.42.42,0,0,0,0,.6.41.41,0,0,0,.6,0l2.59-2.59a.41.41,0,0,0,.29-.39s0,0,0,0A.38.38,0,0,0,36.22,27.6Zm-9-21.77V27.54H22.91V5.83ZM19.7,14v13.5H15.43V14ZM12.23,18.7v8.84H8V18.7Z"/></g></g></svg>