<svg xmlns="http://www.w3.org/2000/svg" viewBox="0 0 39 43.92"><defs><style>.cls-1{fill:#3f37ac;}</style></defs><g id="Layer_2" data-name="Layer 2"><g id="Layer_1-2" data-name="Layer 1"><path class="cls-1" d="M36,4.89H17.18l-1.27-3A3,3,0,0,0,13.16,0H3A3,3,0,0,0,0,3V28.88a3,3,0,0,0,3,3H18.75V33.5a5.25,5.25,0,0,0-4.43,4.43H5.24a.75.75,0,0,0-.76.75.76.76,0,0,0,.76.76h9.08a5.23,5.23,0,0,0,10.36,0h9.08a.76.76,0,0,0,.76-.76.75.75,0,0,0-.76-.75H24.68a5.25,5.25,0,0,0-4.43-4.43V31.85H36a3,3,0,0,0,3-3v-21A3,3,0,0,0,36,4.89ZM23.23,38.68A3.73,3.73,0,1,1,19.5,35,3.73,3.73,0,0,1,23.23,38.68Zm14.26-9.8A1.46,1.46,0,0,1,36,30.34H3a1.46,1.46,0,0,1-1.46-1.46V3A1.47,1.47,0,0,1,3,1.51H13.16a1.46,1.46,0,0,1,1.36.9L16,5.94a.75.75,0,0,0,.7.46H36a1.47,1.47,0,0,1,1.46,1.47Z"/></g></g></svg>