<svg xmlns="http://www.w3.org/2000/svg" viewBox="0 0 41.98 41.3"><defs><style>.cls-1{fill:none;stroke:#fff;stroke-linecap:round;stroke-linejoin:round;}</style></defs><g id="Layer_2" data-name="Layer 2"><g id="Layer_1-2" data-name="Layer 1"><path class="cls-1" d="M30.27,27l6.35-6.35a1.05,1.05,0,0,0,0-1.5L36,18.54a1.07,1.07,0,0,0-1.5,0L28.15,24.9l-.26,2.44Z"/><line class="cls-1" x1="28.83" y1="24.22" x2="30.95" y2="26.34"/><line class="cls-1" x1="33.72" y1="19.33" x2="35.84" y2="21.45"/><path class="cls-1" d="M23,8.74c0,4.55-3.32,8.73-7.41,8.73S8.13,13.29,8.13,8.74,11.44.5,15.54.5,23,4.19,23,8.74Z"/><path class="cls-1" d="M30.58,35v3.87a1.93,1.93,0,0,1-1.93,1.93H2.42A1.93,1.93,0,0,1,.5,38.87V33.3A12.5,12.5,0,0,1,13,20.8h5.08a13.14,13.14,0,0,1,1.89.14"/><line class="cls-1" x1="7.06" y1="32.92" x2="7.06" y2="40.8"/><line class="cls-1" x1="24.02" y1="32.92" x2="24.02" y2="40.8"/><circle class="cls-1" cx="32.41" cy="22.79" r="9.07" transform="translate(-3.07 5.15) rotate(-8.68)"/></g></g></svg>