<svg xmlns="http://www.w3.org/2000/svg" viewBox="0 0 31.32 45.06"><defs><style>.cls-1{fill:#fff;}</style></defs><g id="Layer_2" data-name="Layer 2"><g id="Layer_1-2" data-name="Layer 1"><path class="cls-1" d="M9.07,18.63H20.42a.49.49,0,0,0,0-1H9.07a.49.49,0,1,0,0,1Z"/><path class="cls-1" d="M6.46,17.65H5.94a.49.49,0,1,0,0,1h.52a.49.49,0,0,0,0-1Z"/><path class="cls-1" d="M6.46,21.25H5.94a.49.49,0,0,0,0,1h.52a.49.49,0,1,0,0-1Z"/><path class="cls-1" d="M6.46,24.62H5.94a.49.49,0,1,0,0,1h.52a.49.49,0,0,0,0-1Z"/><path class="cls-1" d="M6.46,28.25H5.94a.49.49,0,0,0,0,1h.52a.49.49,0,0,0,0-1Z"/><path class="cls-1" d="M.49,41.18H18.21a6.9,6.9,0,1,0,8.93-9.37V9.53A.49.49,0,0,0,26.65,9H20V6.26a.49.49,0,0,0-.49-.49h-3.4a3.37,3.37,0,1,0-4.74,0H7.61a.49.49,0,0,0-.49.49V9H.49A.49.49,0,0,0,0,9.53V40.69A.49.49,0,0,0,.49,41.18Zm29.85-3A5.93,5.93,0,0,1,19,40.49a5.87,5.87,0,0,1-.48-2.34,5.93,5.93,0,0,1,11.86,0Zm-19-34.78a2.4,2.4,0,1,1,2.4,2.4A2.4,2.4,0,0,1,11.36,3.37ZM8.09,6.75H19v5.56H8.09V6.75ZM1,10H7.12V12.8a.49.49,0,0,0,.49.49H19.53A.49.49,0,0,0,20,12.8V10h6.14V31.47a6.89,6.89,0,0,0-8.66,6.68,7.07,7.07,0,0,0,.31,2.05H1Z"/><path class="cls-1" d="M9.07,22.23H20.42a.49.49,0,0,0,0-1H9.07a.49.49,0,0,0,0,1Z"/><path class="cls-1" d="M9.07,25.6H20.42a.49.49,0,0,0,0-1H9.07a.49.49,0,0,0,0,1Z"/><path class="cls-1" d="M20.91,28.74a.49.49,0,0,0-.49-.49H9.07a.49.49,0,0,0,0,1H20.42A.49.49,0,0,0,20.91,28.74Z"/><path class="cls-1" d="M23.59,39.87l-1.45-2a.49.49,0,0,0-.68-.11.49.49,0,0,0-.12.68L23.16,41a.51.51,0,0,0,.37.21h0a.53.53,0,0,0,.37-.17L27,37.38l.91-1.07a.49.49,0,0,0-.05-.69.5.5,0,0,0-.69.05l-.91,1.07Z"/></g></g></svg>