<svg xmlns="http://www.w3.org/2000/svg" viewBox="0 0 43.34 42.63"><defs><style>.cls-1{fill:none;stroke:#fff;stroke-linecap:round;stroke-linejoin:round;}</style></defs><g id="Layer_2" data-name="Layer 2"><g id="Layer_1-2" data-name="Layer 1"><path class="cls-1" d="M23.7,9c0,4.7-3.43,9-7.66,9S8.38,13.71,8.38,9,11.81.5,16,.5,23.7,4.31,23.7,9Z"/><path class="cls-1" d="M20.62,21.62a12.65,12.65,0,0,0-2-.15H13.42A12.92,12.92,0,0,0,.5,34.39v5.76a2,2,0,0,0,2,2h27.1a2,2,0,0,0,2-2v-4"/><line class="cls-1" x1="7.27" y1="34" x2="7.27" y2="42.13"/><line class="cls-1" x1="24.8" y1="34" x2="24.8" y2="42.13"/><circle class="cls-1" cx="33.47" cy="23.53" r="9.37" transform="translate(-1.07 45.45) rotate(-67.5)"/><path class="cls-1" d="M39.18,22l-.6-1.43a.27.27,0,0,0-.32-.15l-1.33.44a.28.28,0,0,1-.29-.08,4.16,4.16,0,0,0-.42-.42.28.28,0,0,1-.08-.29l.44-1.33a.26.26,0,0,0-.15-.32L35,17.82a.27.27,0,0,0-.34.13L34,19.2a.27.27,0,0,1-.26.14,5.81,5.81,0,0,0-.59,0,.26.26,0,0,1-.26-.14L32.28,18a.26.26,0,0,0-.33-.13l-1.43.6a.26.26,0,0,0-.15.32l.43,1.34a.25.25,0,0,1-.08.28,4.16,4.16,0,0,0-.42.42.27.27,0,0,1-.28.08l-1.33-.44a.28.28,0,0,0-.33.15L27.77,22a.27.27,0,0,0,.12.34l1.25.63a.26.26,0,0,1,.14.26,4,4,0,0,0,0,.6.26.26,0,0,1-.15.25l-1.25.64a.26.26,0,0,0-.12.33l.59,1.44a.26.26,0,0,0,.33.14L30,26.2a.25.25,0,0,1,.28.08,4.16,4.16,0,0,0,.42.42.25.25,0,0,1,.08.28l-.43,1.34a.26.26,0,0,0,.15.32l1.43.59a.25.25,0,0,0,.33-.12l.64-1.25a.26.26,0,0,1,.26-.14,5.8,5.8,0,0,0,.59,0,.26.26,0,0,1,.26.14l.63,1.25a.26.26,0,0,0,.34.12l1.43-.59a.26.26,0,0,0,.15-.32L36.14,27a.27.27,0,0,1,.08-.28,3.33,3.33,0,0,0,.42-.42.29.29,0,0,1,.29-.08l1.33.43a.25.25,0,0,0,.32-.14l.6-1.44a.26.26,0,0,0-.13-.33l-1.25-.64a.26.26,0,0,1-.14-.25q0-.3,0-.6A.28.28,0,0,1,37.8,23l1.25-.63A.26.26,0,0,0,39.18,22Z"/><path class="cls-1" d="M35.24,22.8a1.91,1.91,0,1,1-2.5-1A1.91,1.91,0,0,1,35.24,22.8Z"/></g></g></svg>