<svg xmlns="http://www.w3.org/2000/svg" viewBox="0 0 43.64 32.74"><defs><style>.cls-1{fill:#3f37ac;}</style></defs><g id="Layer_2" data-name="Layer 2"><g id="Layer_1-2" data-name="Layer 1"><path class="cls-1" d="M7,28.94A15.74,15.74,0,0,0,27,27l7.77,5.26a2.94,2.94,0,0,0,3.3-4.87l-7.77-5.26A15.82,15.82,0,1,0,7,28.94Zm31.55.47a2.08,2.08,0,0,1-3.21,2.12l-7.65-5.19a15.19,15.19,0,0,0,1.3-1.63,14.6,14.6,0,0,0,1-1.81l7.66,5.19A2.07,2.07,0,0,1,38.5,29.41ZM3.43,7.43a15,15,0,0,1,26,14.66,14.29,14.29,0,0,1-1.19,2.14,14.55,14.55,0,0,1-1.54,1.89A15,15,0,0,1,3.43,7.43Z" transform="translate(0)"/><path class="cls-1" d="M15.82,28.52A12.69,12.69,0,0,0,28.29,13.4a.43.43,0,0,0-.85.16A11.83,11.83,0,0,1,18.1,27.44,11.83,11.83,0,1,1,24.46,7.73a.43.43,0,1,0,.63-.59,12.8,12.8,0,0,0-5.88-3.55A12.7,12.7,0,0,0,3.37,18.26,12.72,12.72,0,0,0,15.82,28.52Z" transform="translate(0)"/><path class="cls-1" d="M21.89,16.8l.29,0a2,2,0,0,0,.28-3.93,2,2,0,0,0-1.46.37,1.95,1.95,0,0,0-.58,2.47l-2.21,1.81a2,2,0,0,0-.92-.4,1.93,1.93,0,0,0-1.85.76L11.4,16a.79.79,0,0,0,0-.13,2,2,0,1,0-3,1.36h0a1.92,1.92,0,0,0,.78.3,1.51,1.51,0,0,0,.3,0A2,2,0,0,0,11,16.8l4,1.87a.7.7,0,0,0,0,.14A1.95,1.95,0,0,0,16.71,21l.29,0a2,2,0,0,0,1.18-.39,2,2,0,0,0,.77-1.3,1.9,1.9,0,0,0-.2-1.17L21,16.39A1.93,1.93,0,0,0,21.89,16.8Zm-.82-2.12a1.14,1.14,0,0,1,.44-.73,1.11,1.11,0,0,1,.83-.21A1.13,1.13,0,0,1,23.28,15a1.12,1.12,0,0,1-2,.54A1.15,1.15,0,0,1,21.07,14.68Zm-11.75,2a1,1,0,0,1-.44-.17h0a1.11,1.11,0,0,1,.76-2,1.06,1.06,0,0,1,.73.44,1,1,0,0,1,.21.82.81.81,0,0,1-.1.3h0A1.09,1.09,0,0,1,9.32,16.7Zm8.78,2.55a1.1,1.1,0,0,1-1.26.94,1.11,1.11,0,0,1-.94-1.26.81.81,0,0,1,.1-.3h0A1.1,1.1,0,0,1,17.16,18a1.07,1.07,0,0,1,.69.4h0A1.1,1.1,0,0,1,18.1,19.25Z" transform="translate(0)"/><path class="cls-1" d="M39,12.85a4.67,4.67,0,1,0,4.67,4.67A4.67,4.67,0,0,0,39,12.85Zm0,8.48a3.81,3.81,0,1,1,3.81-3.81A3.82,3.82,0,0,1,39,21.33Z" transform="translate(0)"/><path class="cls-1" d="M40.62,15.91,38.93,18.2,37.81,17a.43.43,0,0,0-.61,0,.44.44,0,0,0,0,.61l1.47,1.58a.43.43,0,0,0,.32.14h0a.4.4,0,0,0,.32-.17l2-2.71a.43.43,0,0,0-.09-.6A.42.42,0,0,0,40.62,15.91Z" transform="translate(0)"/></g></g></svg>