<svg xmlns="http://www.w3.org/2000/svg" viewBox="0 0 41.36 37.58"><defs><style>.cls-1{fill:#3f37ac;}</style></defs><g id="Layer_2" data-name="Layer 2"><g id="Layer_1-2" data-name="Layer 1"><path class="cls-1" d="M11.72,15H16a.45.45,0,0,0,.45-.45.46.46,0,0,0-.45-.46H11.72a.47.47,0,0,0-.46.46A.46.46,0,0,0,11.72,15Z"/><path class="cls-1" d="M11.72,18.28h5.69a.45.45,0,0,0,0-.9H11.72a.45.45,0,1,0,0,.9Z"/><path class="cls-1" d="M23.26,20.6H11.72a.45.45,0,1,0,0,.9H23.26a.45.45,0,0,0,0-.9Z"/><path class="cls-1" d="M29.32,14.05H25.09a.46.46,0,0,0-.45.46.45.45,0,0,0,.45.45h4.23a.45.45,0,0,0,.45-.45A.46.46,0,0,0,29.32,14.05Z"/><path class="cls-1" d="M29.32,20.6H25.09a.45.45,0,0,0,0,.9h4.23a.45.45,0,1,0,0-.9Z"/><path class="cls-1" d="M18.4,15h4.23a.45.45,0,0,0,.45-.45.46.46,0,0,0-.45-.46H18.4a.46.46,0,0,0-.45.46A.45.45,0,0,0,18.4,15Z"/><path class="cls-1" d="M29.32,17.38H20.7a.45.45,0,0,0,0,.9h8.62a.45.45,0,0,0,0-.9Z"/><path class="cls-1" d="M9.67,11.47a.45.45,0,0,0,.45-.45.46.46,0,0,0-.45-.46H6.93a.46.46,0,0,0-.45.46V24.43a.45.45,0,0,0,.45.45H9.67a.45.45,0,0,0,0-.9H7.38V11.47Z"/><path class="cls-1" d="M34.43,10.4H31.69a.45.45,0,1,0,0,.9H34V23.82H31.69a.45.45,0,0,0,0,.9h2.74a.46.46,0,0,0,.46-.45V10.85A.46.46,0,0,0,34.43,10.4Z"/><path class="cls-1" d="M.45,32.22H29.92a3.05,3.05,0,0,0,.82,1.53,3.19,3.19,0,0,0,2.24.92A3.15,3.15,0,0,0,34.87,34l3.41,3.42a.45.45,0,0,0,.32.13.44.44,0,0,0,.32-.13.45.45,0,0,0,0-.64L35.51,33.4A2.94,2.94,0,0,0,36,32.22h4.87a.45.45,0,0,0,.45-.45V.45A.45.45,0,0,0,40.91,0H.45A.45.45,0,0,0,0,.45V31.77A.45.45,0,0,0,.45,32.22Zm30.93.89a2.2,2.2,0,0,1-.64-1.38,2.25,2.25,0,1,1,.64,1.38Zm4.74-1.79a3.11,3.11,0,0,0-.9-2.05,3.18,3.18,0,0,0-4.48,0,3.11,3.11,0,0,0-.9,2.05H.9V4.57H40.46V31.32ZM40.46.9V3.66H.9V.9Z"/></g></g></svg>