<?xml version="1.0" encoding="utf-8"?>
<svg version="1.1" xmlns:xlink="http://www.w3.org/1999/xlink" width="11px" height="20px" xmlns="http://www.w3.org/2000/svg">
  <g transform="matrix(1 0 0 1 -54 -314 )">
    <path d="M 10.4087301587302 13.5687830687831  C 10.1653439153439 13.3227513227513  9.76587301587302 13.3227513227513  9.51984126984127 13.5687830687831  L 6.23412698412698 16.8544973544974  L 6.23412698412698 0.928571428571427  C 6.23412698412698 0.582010582010579  5.9537037037037 0.298941798941797  5.60449735449735 0.298941798941797  C 5.25529100529101 0.298941798941797  4.97486772486772 0.579365079365076  5 0.928571428571427  L 5 16.8571428571429  L 1.68915343915344 13.5714285714286  C 1.44312169312169 13.3253968253968  1.04629629629629 13.3253968253968  0.800264550264551 13.5714285714286  C 0.5542328042328 13.8174603174603  0.5542328042328 14.2142857142857  0.800264550264551 14.4603174603175  L 5.1574074074074 18.8174603174603  C 5.21031746031746 18.8703703703704  5.27116402116402 18.9100529100529  5.33730158730159 18.9417989417989  C 5.34523809523809 18.9444444444444  5.3531746031746 18.9497354497354  5.36111111111111 18.9550264550264  C 5.39021164021164 18.968253968254  5.41931216931217 18.9761904761905  5.4510582010582 18.9814814814815  C 5.46164021164022 18.984126984127  5.46957671957672 18.989417989418  5.48015873015873 18.989417989418  C 5.51984126984127 18.9973544973545  5.56216931216931 19.0026455026455  5.60449735449735 19.0026455026455  C 5.61243386243386 19.0026455026455  5.61772486772487 19  5.62566137566138 19  C 5.66005291005291 19  5.69179894179894 18.9973544973545  5.72619047619047 18.989417989418  C 5.7526455026455 18.984126984127  5.77910052910053 18.973544973545  5.80555555555555 18.9656084656085  C 5.81878306878307 18.9603174603175  5.82936507936508 18.9603174603175  5.84259259259259 18.9550264550265  C 5.87698412698413 18.9417989417989  5.91137566137566 18.9232804232804  5.94312169312169 18.9021164021164  C 5.9457671957672 18.8994708994709  5.9484126984127 18.8994708994709  5.9510582010582 18.8968253968254  C 5.98809523809524 18.8703703703704  6.02513227513228 18.8412698412698  6.05687830687831 18.8095238095238  L 10.4087301587302 14.457671957672  C 10.6547619047619 14.2116402116402  10.6547619047619 13.8148148148148  10.4087301587302 13.5687830687831  Z " fill-rule="nonzero" fill="#3f37ac" stroke="none" transform="matrix(1 0 0 1 54 314 )" />
  </g>
</svg>