<svg xmlns="http://www.w3.org/2000/svg" viewBox="0 0 43.11 43.11"><defs><style>.cls-1{fill:none;stroke:#fff;stroke-linecap:round;stroke-linejoin:round;}</style></defs><g id="Layer_2" data-name="Layer 2"><g id="Layer_1-2" data-name="Layer 1"><path class="cls-1" d="M26.42,12c0,3.19-2.32,6.11-5.19,6.11S16,15.17,16,12a5.5,5.5,0,0,1,5.19-5.76A5.5,5.5,0,0,1,26.42,12Z"/><path class="cls-1" d="M30.14,34.43H12.32a1.63,1.63,0,0,1-1.62-1.62V31A10.53,10.53,0,0,1,21.23,20.43h0A10.52,10.52,0,0,1,31.76,31v1.85A1.62,1.62,0,0,1,30.14,34.43Z"/><line class="cls-1" x1="15.29" y1="28.91" x2="15.29" y2="34.43"/><line class="cls-1" x1="27.17" y1="28.91" x2="27.17" y2="34.43"/><circle class="cls-1" cx="21.56" cy="21.56" r="21.06"/></g></g></svg>