<svg xmlns="http://www.w3.org/2000/svg" width="34.119" height="37.013" viewBox="0 0 34.119 37.013">
  <g id="Group_15060" data-name="Group 15060" transform="translate(-657.273 -199.602)">
    <path id="Path_55494" data-name="Path 55494" d="M691.37,218.094l-.017,0q.01-7.89,0-15.781a2.361,2.361,0,0,0,0-.252,2.583,2.583,0,0,0-2.711-2.448q-14.246-.006-28.49,0a2.722,2.722,0,0,0-.486,0,2.656,2.656,0,0,0-2.379,2.906q0,15.491.01,30.98c0,2.129.942,3.092,3.062,3.092,9.441,0,18.883-.03,28.324.021a2.873,2.873,0,0,0,2.71-2.741C691.335,228.614,691.37,223.354,691.37,218.094ZM687.677,234q-13.367-.03-26.732,0c-.754,0-1.054-.157-1.054-1q.045-14.859,0-29.721c0-.868.29-1.068,1.1-1.068q13.407.033,26.815-.016c.82,0,.951.329.951,1.029-.021,4.953-.011,9.906-.011,14.86v0c0,4.953-.02,9.907.015,14.861C688.768,233.8,688.493,234,687.677,234Z" fill="#bebebe"/>
    <rect id="Rectangle_4981" data-name="Rectangle 4981" width="2.91" height="2.91" transform="translate(664.161 208.796)" fill="#bebebe"/>
    <rect id="Rectangle_4982" data-name="Rectangle 4982" width="14.19" height="2.91" transform="translate(670.148 208.796)" fill="#bebebe"/>
    <rect id="Rectangle_4983" data-name="Rectangle 4983" width="2.91" height="2.91" transform="translate(664.161 216.653)" fill="#bebebe"/>
    <rect id="Rectangle_4984" data-name="Rectangle 4984" width="14.19" height="2.91" transform="translate(670.148 216.653)" fill="#bebebe"/>
    <rect id="Rectangle_4985" data-name="Rectangle 4985" width="2.91" height="2.91" transform="translate(664.161 224.509)" fill="#bebebe"/>
    <rect id="Rectangle_4986" data-name="Rectangle 4986" width="14.19" height="2.91" transform="translate(670.148 224.509)" fill="#bebebe"/>
  </g>
</svg>
