<svg xmlns="http://www.w3.org/2000/svg" width="18.599" height="21.501" viewBox="0 0 18.599 21.501">
  <g id="noun_copy_1115143" transform="translate(-5.4 -1.25)">
    <g id="Group_16676" data-name="Group 16676" transform="translate(5.4 1.25)">
      <path id="Path_67385" data-name="Path 67385" d="M20.526,11.993a1.711,1.711,0,0,0-1.711-1.711H7.086A1.686,1.686,0,0,0,5.4,11.968V26.94a1.686,1.686,0,0,0,1.686,1.686H18.84a1.686,1.686,0,0,0,1.686-1.686V11.993Zm-1.268,1.585V26.385a.971.971,0,0,1-.971.971H7.64a.971.971,0,0,1-.971-.971V12.521a.971.971,0,0,1,.971-.971H18.264a.971.971,0,0,1,.971.951Z" transform="translate(-5.4 -7.124)" fill="#5a5a5a"/>
      <g id="Group_16674" data-name="Group 16674" transform="translate(3.129 7.105)">
        <path id="Path_67386" data-name="Path 67386" d="M22.73,22.549H14.838a.488.488,0,1,1,0-.975H22.73a.488.488,0,1,1,0,.975Z" transform="translate(-14.35 -21.574)" fill="#5a5a5a"/>
        <path id="Path_67387" data-name="Path 67387" d="M22.73,29.322H14.838a.488.488,0,1,1,0-.975H22.73a.488.488,0,1,1,0,.975Z" transform="translate(-14.35 -25.979)" fill="#5a5a5a"/>
        <path id="Path_67388" data-name="Path 67388" d="M22.73,36.1H14.838a.488.488,0,1,1,0-.975H22.73a.488.488,0,1,1,0,.975Z" transform="translate(-14.35 -30.385)" fill="#5a5a5a"/>
        <path id="Path_67389" data-name="Path 67389" d="M22.73,42.869H14.838a.488.488,0,1,1,0-.975H22.73a.488.488,0,0,1,0,.975Z" transform="translate(-14.35 -34.79)" fill="#5a5a5a"/>
        <path id="Path_67390" data-name="Path 67390" d="M22.73,49.643H14.838a.488.488,0,0,1,0-.975H22.73a.488.488,0,0,1,0,.975Z" transform="translate(-14.35 -39.196)" fill="#5a5a5a"/>
      </g>
      <g id="Group_16675" data-name="Group 16675" transform="translate(3.473)">
        <path id="Path_67391" data-name="Path 67391" d="M28.75,1.25H17.021a1.686,1.686,0,0,0-1.686,1.686v.682H16.6V3.49a.971.971,0,0,1,.971-.971H28.2a.971.971,0,0,1,.971.951l.022,1.076V17.354a.971.971,0,0,1-.971.971h-.444v1.268h1a1.686,1.686,0,0,0,1.686-1.686V2.961A1.711,1.711,0,0,0,28.75,1.25Z" transform="translate(-15.335 -1.25)" fill="#5a5a5a"/>
      </g>
    </g>
  </g>
</svg>
