<svg xmlns="http://www.w3.org/2000/svg" width="39.14" height="39.141" viewBox="0 0 39.14 39.141">
  <g id="Group_16671" data-name="Group 16671" transform="translate(-6315.86 15586)">
    <path id="Path_67383" data-name="Path 67383" d="M44.43,26.68A19.57,19.57,0,1,0,64,46.25,19.57,19.57,0,0,0,44.43,26.68Zm0,37.462A17.892,17.892,0,1,1,62.322,46.25,17.892,17.892,0,0,1,44.43,64.142Z" transform="translate(6291 -15612.68)" fill="#a9e206"/>
    <path id="Path_67384" data-name="Path 67384" d="M55.234,42.437,44.106,53.573,37,46.809a.84.84,0,1,0-1.158,1.217l7.7,7.335a.772.772,0,0,0,.176.109l.092.059a.755.755,0,0,0,.311.059.839.839,0,0,0,.319-.067.113.113,0,0,0,.092-.059.839.839,0,0,0,.176-.117L56.459,43.595a.843.843,0,1,0-1.225-1.158Z" transform="translate(6289.276 -15615.169)" fill="#a9e206"/>
  </g>
</svg>
