<svg xmlns="http://www.w3.org/2000/svg" width="15.171" height="18.679" viewBox="0 0 15.171 18.679"><defs><style>.a{fill:#212529;}</style></defs><g transform="translate(0.003 0.001)"><path class="a" d="M222.836,154.7a.437.437,0,0,0-.437.437v8.268a.437.437,0,0,0,.875,0v-8.268A.437.437,0,0,0,222.836,154.7Zm0,0" transform="translate(-212.673 -147.937)"/><path class="a" d="M104.836,154.7a.437.437,0,0,0-.437.437v8.268a.437.437,0,0,0,.875,0v-8.268A.437.437,0,0,0,104.836,154.7Zm0,0" transform="translate(-99.835 -147.937)"/><path class="a" d="M1.239,5.56V16.338A2.413,2.413,0,0,0,1.881,18a2.154,2.154,0,0,0,1.563.676h8.277A2.154,2.154,0,0,0,13.284,18a2.413,2.413,0,0,0,.642-1.665V5.56A1.671,1.671,0,0,0,13.5,2.274h-2.24V1.727A1.718,1.718,0,0,0,9.525,0H5.64A1.718,1.718,0,0,0,3.908,1.727v.547H1.668A1.671,1.671,0,0,0,1.239,5.56ZM11.721,17.8H3.444a1.385,1.385,0,0,1-1.33-1.465V5.6H13.051V16.338A1.385,1.385,0,0,1,11.721,17.8ZM4.783,1.727A.843.843,0,0,1,5.64.874H9.525a.843.843,0,0,1,.857.853v.547h-5.6ZM1.668,3.148H13.5a.787.787,0,0,1,0,1.575H1.668a.787.787,0,0,1,0-1.575Zm0,0" transform="translate(0 0)"/><path class="a" d="M163.836,154.7a.437.437,0,0,0-.437.437v8.268a.437.437,0,0,0,.875,0v-8.268A.437.437,0,0,0,163.836,154.7Zm0,0" transform="translate(-156.254 -147.937)"/></g></svg>