<svg xmlns="http://www.w3.org/2000/svg" width="26" height="26" viewBox="0 0 26 26">
  <g id="Group_16674" data-name="Group 16674" transform="translate(-516 -340)">
    <g id="Ellipse_1185" data-name="Ellipse 1185" transform="translate(516 340)" fill="none" stroke="#e8e8e8" stroke-width="0.8">
      <circle cx="13" cy="13" r="13" stroke="none"/>
      <circle cx="13" cy="13" r="12.6" fill="none"/>
    </g>
    <g id="bin_1_" data-name="bin (1)" transform="translate(522.816 345.002)">
      <path id="Path_49767" data-name="Path 49767" d="M222.78,154.7a.381.381,0,0,0-.382.381V162.3a.381.381,0,1,0,.763,0v-7.211A.381.381,0,0,0,222.78,154.7Zm0,0" transform="translate(-213.916 -148.802)" fill="#e7e7e7"/>
      <path id="Path_49768" data-name="Path 49768" d="M104.78,154.7a.381.381,0,0,0-.382.381V162.3a.382.382,0,1,0,.763,0v-7.211A.381.381,0,0,0,104.78,154.7Zm0,0" transform="translate(-100.418 -148.802)" fill="#e7e7e7"/>
      <path id="Path_49769" data-name="Path 49769" d="M1.08,4.848v9.4A2.1,2.1,0,0,0,1.64,15.7,1.879,1.879,0,0,0,3,16.289h7.218a1.878,1.878,0,0,0,1.363-.589,2.1,2.1,0,0,0,.56-1.452v-9.4a1.457,1.457,0,0,0-.374-2.866H9.817V1.506A1.5,1.5,0,0,0,8.306,0H4.918A1.5,1.5,0,0,0,3.407,1.506v.477H1.454A1.457,1.457,0,0,0,1.08,4.848Zm9.141,10.678H3a1.208,1.208,0,0,1-1.16-1.278V4.882h9.538v9.366a1.208,1.208,0,0,1-1.16,1.278ZM4.17,1.506A.735.735,0,0,1,4.918.762H8.306a.735.735,0,0,1,.748.744v.477H4.17ZM1.454,2.745H11.77a.687.687,0,1,1,0,1.373H1.454a.687.687,0,1,1,0-1.373Zm0,0" transform="translate(0 0)" fill="#e7e7e7"/>
      <path id="Path_49770" data-name="Path 49770" d="M163.78,154.7a.381.381,0,0,0-.382.381V162.3a.382.382,0,1,0,.763,0v-7.211A.381.381,0,0,0,163.78,154.7Zm0,0" transform="translate(-157.167 -148.802)" fill="#e7e7e7"/>
    </g>
  </g>
</svg>
