<svg xmlns="http://www.w3.org/2000/svg" width="30" height="30" viewBox="0 0 30 30">
  <path id="Path_259" data-name="Path 259" d="M18.5,3.5a15,15,0,1,0,15,15,15,15,0,0,0-15-15ZM10.416,29.145a13.945,13.945,0,0,1,4.629-2.126,1.032,1.032,0,0,0,.781-1V23.661a1.29,1.29,0,0,0-.252-.765,6.348,6.348,0,0,1-1.084-2.929.806.806,0,0,0-.323-.568,2.413,2.413,0,0,1-1.035-1.971.461.461,0,0,1,.145-.342.484.484,0,0,1,.348-.135.806.806,0,0,0,.839-.8L14.49,13.9a3.952,3.952,0,0,1,.271-1.455,4.338,4.338,0,0,1,3.719-2.823h.4v.742a.806.806,0,0,0,.723.8,4.01,4.01,0,0,1,2.739,1.729,2.229,2.229,0,0,1,.416,1.29v1.935a.806.806,0,0,0,.806.806h0a.487.487,0,0,1,.339.142.464.464,0,0,1,.135.323,2.416,2.416,0,0,1-1,1.935.806.806,0,0,0-.323.561,6.313,6.313,0,0,1-1.126,3.01,1.29,1.29,0,0,0-.261.777v2.361a1.032,1.032,0,0,0,.771,1,13.961,13.961,0,0,1,4.481,2.11A13.352,13.352,0,0,1,10.416,29.145Zm17.419-1.077A.8.8,0,0,0,27.758,28a15.565,15.565,0,0,0-4.839-2.384v-1.8a7.861,7.861,0,0,0,1.345-3.381,4.032,4.032,0,0,0,1.377-3.023,2.071,2.071,0,0,0-.61-1.474,2.1,2.1,0,0,0-.674-.452V14.2a3.8,3.8,0,0,0-.726-2.258,5.806,5.806,0,0,0-3.152-2.258V8.823a.806.806,0,0,0-.806-.806h-1.21a5.982,5.982,0,0,0-5.213,3.826,5.548,5.548,0,0,0-.39,2.045l-.016,1.594a2.106,2.106,0,0,0-.7.439,2.068,2.068,0,0,0-.645,1.5,4.019,4.019,0,0,0,1.432,3.068,7.742,7.742,0,0,0,1.29,3.271V25.6a15.552,15.552,0,0,0-4.971,2.426.794.794,0,0,0-.077.071,13.387,13.387,0,1,1,18.668,0Z" transform="translate(-3.5 -3.5)" fill="#5a5a5a"/>
</svg>
