<svg xmlns="http://www.w3.org/2000/svg" width="23.841" height="25" viewBox="0 0 23.841 25">
  <g id="Group_25001" data-name="Group 25001" transform="translate(-807.515 -227.035)">
    <g id="Group_24534" data-name="Group 24534" transform="translate(809.707 233.03)">
      <path id="Path_75443" data-name="Path 75443" d="M812.107,236.6a3.389,3.389,0,1,1,3.389-3.389A3.387,3.387,0,0,1,812.107,236.6Z" transform="translate(-808.718 -229.827)" fill="none" stroke="#5b5b5b" stroke-linecap="round" stroke-linejoin="round" stroke-width="1"/>
    </g>
    <path id="Path_75444" data-name="Path 75444" d="M811.246,241.449v-6.7" transform="translate(4.523 10.085)" fill="none" stroke="#5b5b5b" stroke-linecap="round" stroke-linejoin="round" stroke-width="1"/>
    <path id="Path_75445" data-name="Path 75445" d="M809.006,234.752v6.7" transform="translate(1.394 10.085)" fill="none" stroke="#5b5b5b" stroke-linecap="round" stroke-linejoin="round" stroke-width="1"/>
    <path id="Path_75446" data-name="Path 75446" d="M810.385,240.94a1.25,1.25,0,0,1-1.237,1.264,1.168,1.168,0,0,1-1.133-1.264v-3.932a3.682,3.682,0,0,1,3.682-3.68h2.8a3.682,3.682,0,0,1,3.682,3.68v3.932a1.166,1.166,0,0,1-1.131,1.264,1.251,1.251,0,0,1-1.239-1.264" transform="translate(0 8.082)" fill="none" stroke="#5b5b5b" stroke-linecap="round" stroke-linejoin="round" stroke-width="1"/>
    <path id="Path_75447" data-name="Path 75447" d="M813.9,231.4l2.151,2.151,3.515-3.516" transform="translate(8.214 3.501)" fill="none" stroke="#5b5b5b" stroke-linecap="round" stroke-linejoin="round" stroke-width="1"/>
    <path id="Path_75448" data-name="Path 75448" d="M818.563,227.535s-3.324,2.575-6.1,2.575v6.534a4.024,4.024,0,0,0,1.487,3.268c.972.717,3.875,2.633,4,2.712l.611.4.609-.4c.123-.079,3.025-2,4-2.712a4.024,4.024,0,0,0,1.487-3.268V230.11C821.884,230.11,818.563,227.535,818.563,227.535Z" transform="translate(6.199)" fill="none" stroke="#5b5b5b" stroke-linecap="round" stroke-linejoin="round" stroke-width="1"/>
  </g>
</svg>
