<svg xmlns="http://www.w3.org/2000/svg" width="22.376" height="21.707" viewBox="0 0 22.376 21.707">
  <g id="Group_24071" data-name="Group 24071" transform="translate(-448.064 -315.441)">
    <path id="Path_69767" data-name="Path 69767" d="M466.392,365.1H453.2V351.9h12.949l.247,1.1v12.1Zm.864-15.177H452.33a1.116,1.116,0,0,0-1.115,1.116v14.926a1.116,1.116,0,0,0,1.115,1.115h14.926a1.116,1.116,0,0,0,1.116-1.115V351.037a1.117,1.117,0,0,0-1.116-1.116Z" transform="translate(-2.77 -30.311)" fill="#aee0f8"/>
    <path id="Path_69768" data-name="Path 69768" d="M477.644,376.349H465.208V363.915h12.436v12.435Zm.381-13.2h-13.2a.387.387,0,0,0-.27.111.38.38,0,0,0-.111.27v13.2a.38.38,0,0,0,.381.381h13.2a.38.38,0,0,0,.381-.381v-13.2a.38.38,0,0,0-.381-.381Z" transform="translate(-14.402 -41.943)" fill="#34456b"/>
    <path id="Path_69769" data-name="Path 69769" d="M465.222,335.652a.735.735,0,0,1-.735.735H449.56a.737.737,0,0,1-.734-.735V320.725a.736.736,0,0,1,.734-.735h14.926a.736.736,0,0,1,.735.735v14.927Zm3.742-20.211H462.07a.381.381,0,1,0,0,.762h6.894a.714.714,0,0,1,.714.715v14.967a.714.714,0,0,1-.714.713h0l-2.977.018V320.725a1.5,1.5,0,0,0-1.5-1.5h-11.18l-.024-2.311A.714.714,0,0,1,454,316.2h5.027a.381.381,0,1,0,0-.762H454a1.476,1.476,0,0,0-1.476,1.477v0l.025,2.307H449.56a1.5,1.5,0,0,0-1.5,1.5v14.927a1.5,1.5,0,0,0,1.5,1.5h14.926a1.5,1.5,0,0,0,1.5-1.5v-2.275l2.982-.018h0a1.475,1.475,0,0,0,1.476-1.475V316.918a1.475,1.475,0,0,0-1.476-1.477Z" fill="#34456b"/>
    <path id="Path_69770" data-name="Path 69770" d="M490.59,393.729h3.123v3.123a.381.381,0,0,0,.762,0v-3.123H497.6a.381.381,0,0,0,0-.762h-3.124v-3.123a.381.381,0,1,0-.762,0v3.123H490.59a.381.381,0,0,0,0,.762Z" transform="translate(-37.05 -65.073)" fill="#34456b"/>
  </g>
</svg>
