<svg xmlns="http://www.w3.org/2000/svg" width="24.413" height="27.741" viewBox="0 0 24.413 27.741"><defs><style>.a{fill:none;stroke:#ffffff;stroke-linejoin:round;}</style></defs><g transform="translate(-913.213 -316.414)"><path class="a" d="M71.6,235.967l7.78,7.779c.691.692,1.943.514,2.866-.409l.041-.041a2,2,0,0,0,.369-2.825L79.378,237.2" transform="translate(853.911 96.427)"/><path class="a" d="M79.713,225.574l.409-.409a.58.58,0,0,0,0-.819l-1.229-1.228a.579.579,0,0,0-.819,0l-.819.819" transform="translate(851.529 101.908)"/><path class="a" d="M73.647,224.271l1.228-1.229a.579.579,0,0,0,0-.819L73.647,221a.579.579,0,0,0-.819,0L71.6,222.224" transform="translate(853.911 102.801)"/><path class="a" d="M76.828,231.23l1.067,1.049a.58.58,0,0,0,.816,0l2.869-2.87a.578.578,0,0,0,0-.819l-1.228-1.228a.578.578,0,0,0-.819,0L77.895,229" transform="translate(851.71 100.122)"/><path class="a" d="M70.892,245.905l.819-.819c.7-.7,2.284.173,3.276-.819l1.228-1.228" transform="translate(854.208 93.451)"/><path class="a" d="M65.311,232.255c1.765-1.765,1.844-4.708.409-6.142l1.638,1.638a2.309,2.309,0,0,0,3.685-.409l-4.5-4.5a1.936,1.936,0,0,0-1.928-.5,8.6,8.6,0,0,0-2.73.627c-.484.356-.91,2.118-.91,3.475a6.555,6.555,0,0,1-.573,3.36l-.819.819" transform="translate(858.971 102.188)"/><path class="a" d="M82.53,231.018l1.638,1.638a.579.579,0,0,1,0,.819L81.3,236.341a.579.579,0,0,1-.819,0l-1.229-1.229a.579.579,0,0,1,0-.819l.409-.409" transform="translate(850.76 98.511)"/><rect class="a" width="11.579" height="4.63" transform="translate(917.728 331.988) rotate(44.986)"/><line class="a" x2="1.228" y2="1.228" transform="translate(933.699 337.309)"/><line class="a" x2="0.819" y2="0.819" transform="translate(917.321 334.852)"/><path class="a" d="M61.859,217,59.865,215a4.339,4.339,0,0,0-6.017-5.2l3.1,3.1L54.9,214.95l-3.1-3.1a4.335,4.335,0,0,0,4.527,6.164l1.437,1.438" transform="translate(862.423 107.618)"/></g></svg>