<svg xmlns="http://www.w3.org/2000/svg" width="30.888" height="28.713" viewBox="0 0 30.888 28.713"><defs><style>.a{fill:#d3ebff;opacity:0.5;}.b{fill:none;stroke:#003aff;stroke-linecap:round;stroke-linejoin:round;}</style></defs><g transform="translate(0.5 0.5)"><circle class="a" cx="10" cy="10" r="10" transform="translate(5 4)"/><rect class="b" width="2.967" height="2.967" transform="translate(16.368 16.547)"/><path class="b" d="M581.258,328.7a1.627,1.627,0,1,1-1.627-1.627A1.627,1.627,0,0,1,581.258,328.7Z" transform="translate(-567.542 -310.574)"/><path class="b" d="M582.36,320.585v-1.149h5.762v1.149" transform="translate(-570.27 -305.79)"/><line class="b" y1="1.714" transform="translate(14.971 11.932)"/><path class="b" d="M586.059,301.953l-2.393,1.564,2.393,1.564h0l2.393-1.564Z" transform="translate(-571.088 -294.839)"/><path class="b" d="M576.2,320.092h-7.811a1.4,1.4,0,0,1-1.4-1.4V303.6" transform="translate(-560.644 -295.871)"/><path class="b" d="M588.517,291.877h7.657a1.4,1.4,0,0,1,1.4,1.4v15.294" transform="translate(-574.127 -288.527)"/><path class="b" d="M602.436,320.964c3.512.506,6.207,2.933,6.207,5.653v.058c0,3.009-3.3,5.527-7.356,5.612l-1.319.028v2.145l-4.062-4,4.063-4v2.264l1.468-.132c3.349-.3,5.875-2.492,5.875-5.1v0" transform="translate(-578.756 -306.747)"/><path class="b" d="M613.38,330.917a7.016,7.016,0,0,1,3.615,1.828" transform="translate(-589.701 -312.982)"/><path class="b" d="M556.207,296.407c-3.513-.506-6.207-2.933-6.207-5.653V290.7c0-3.009,3.3-5.527,7.356-5.612l1.319-.028v-2.145l4.062,4-4.062,4v-2.264l-1.468.132c-3.349.3-5.875,2.492-5.875,5.1v0" transform="translate(-550 -282.911)"/><path class="b" d="M560.56,306.017a7.016,7.016,0,0,1-3.615-1.828" transform="translate(-554.35 -296.239)"/></g></svg>