<svg xmlns="http://www.w3.org/2000/svg" width="14" height="14" viewBox="0 0 14 14"><defs><style>.a{fill:none;}</style></defs><g transform="translate(0 0.012)"><rect class="a" width="14" height="14" transform="translate(0 -0.012)"/><path d="M13.221,4.264,7.4,10.081a.579.579,0,0,1-.82,0L4.938,8.435a.579.579,0,0,1,0-.82h0a.579.579,0,0,1,.82,0L6.992,8.848l5.4-5.4a.579.579,0,0,1,.82,0h0A.574.574,0,0,1,13.221,4.264ZM10.011,2.432a5.815,5.815,0,1,0,3.426,6.9,5.626,5.626,0,0,0,.122-2.455.585.585,0,0,0-.989-.314h0a.585.585,0,0,0-.157.518,4.374,4.374,0,0,1-.3,2.478,4.728,4.728,0,0,1-3.845,2.891A4.655,4.655,0,1,1,9.941,3.677a.583.583,0,0,0,.681-.1h0a.583.583,0,0,0-.14-.931C10.325,2.572,10.168,2.5,10.011,2.432Z" transform="translate(-0.838 -0.834)"/></g></svg>