<svg xmlns="http://www.w3.org/2000/svg" width="17.859" height="17.859" viewBox="0 0 17.859 17.859">
  <g id="queue-24px" transform="translate(0.25 0.25)">
    <path id="Path_69903" data-name="Path 69903" d="M0,0H17.359V17.359H0Z" fill="none" stroke="#f2f6fb" stroke-width="0.5"/>
    <path id="Path_69904" data-name="Path 69904" d="M3.447,4.893H2V15.02a1.451,1.451,0,0,0,1.447,1.447H13.573V15.02H3.447ZM15.02,2H6.34A1.451,1.451,0,0,0,4.893,3.447v8.68A1.451,1.451,0,0,0,6.34,13.573h8.68a1.451,1.451,0,0,0,1.447-1.447V3.447A1.451,1.451,0,0,0,15.02,2Zm0,10.126H6.34V3.447h8.68ZM9.956,11.4H11.4V8.51H14.3V7.063H11.4V4.17H9.956V7.063H7.063V8.51H9.956Z" transform="translate(-0.553 -0.553)" fill="#004cff" stroke="#f2f6fb" stroke-width="0.5"/>
  </g>
</svg>
