<svg xmlns="http://www.w3.org/2000/svg" xmlns:xlink="http://www.w3.org/1999/xlink" width="42" height="42" viewBox="0 0 42 42"><defs><style>.a,.b{fill:#fff;}.a{clip-rule:evenodd;}.c{fill:#004dff;}.d{clip-path:url(#c);}.e{clip-path:url(#d);}.f{filter:url(#a);}</style><filter id="a" x="0" y="0" width="42" height="42" filterUnits="userSpaceOnUse"><feOffset dy="3" input="SourceAlpha"/><feGaussianBlur stdDeviation="3" result="b"/><feFlood flood-opacity="0.161"/><feComposite operator="in" in2="b"/><feComposite in="SourceGraphic"/></filter><clipPath id="c"><path class="a" d="M844.372-4666.092l-.908-.908-4.279,4.279L834.908-4667l-.908.908,4.278,4.277L834-4657.536l.908.908,4.278-4.278,4.279,4.278.908-.908-4.279-4.279Z" transform="translate(-834 4667)"/></clipPath><clipPath id="d"><path class="b" d="M321-4495.075H885.253V-4688H321Z" transform="translate(-321 4688)"/></clipPath></defs><g transform="translate(-374.158 -422.158)"><g class="f" transform="matrix(1, 0, 0, 1, 374.16, 422.16)"><circle class="c" cx="12" cy="12" r="12" transform="translate(9 6)"/></g><g transform="translate(390.158 435.158)"><g class="d"><g class="e" transform="translate(-532.099 -21.782)"><path class="b" d="M829-4672h20.745v20.745H829Z" transform="translate(-302.087 4688.595)"/></g></g></g></g></svg>