<svg xmlns="http://www.w3.org/2000/svg" width="15.878" height="17.115" viewBox="0 0 15.878 17.115"><g transform="translate(424.3 -243)"><g transform="translate(-424.3 243)"><path d="M-408.8,245.811a1.175,1.175,0,0,0-.855-.36h-1.214v-.922a1.477,1.477,0,0,0-.45-1.08A1.477,1.477,0,0,0-412.4,243h-.607a1.477,1.477,0,0,0-1.079.45,1.477,1.477,0,0,0-.45,1.08v.922h-3.666v-.922a1.477,1.477,0,0,0-.45-1.08,1.477,1.477,0,0,0-1.08-.45h-.607a1.477,1.477,0,0,0-1.08.45,1.477,1.477,0,0,0-.45,1.08v.922h-1.214a1.139,1.139,0,0,0-.855.36,1.139,1.139,0,0,0-.36.855V258.9a1.139,1.139,0,0,0,.36.855,1.139,1.139,0,0,0,.855.36h13.449a1.14,1.14,0,0,0,.855-.36,1.174,1.174,0,0,0,.36-.855V246.666A1.3,1.3,0,0,0-408.8,245.811Zm-4.521-1.259h1.215v2.159h-1.215Zm-7.332-.022h1.215v2.159h-1.215Zm.292,14.371h-2.744v-2.744h2.744Zm0-3.351h-2.744v-3.059h2.744Zm0-3.666h-2.744V249.14h2.744Zm3.666,7.017h-3.059v-2.744h3.059Zm0-3.351h-3.059v-3.059h3.059Zm0-3.666h-3.059V249.14h3.059Zm3.666,7.017h-3.059v-2.744h3.059Zm0-3.351h-3.059v-3.059h3.059Zm0-3.666h-3.059V249.14h3.059Zm3.374,7.017H-412.4v-2.744h2.744Zm0-3.351H-412.4v-3.059h2.744Zm0-3.666H-412.4V249.14h2.744Z" transform="translate(424.3 -243)"/></g></g></svg>