<svg id="today-24px" xmlns="http://www.w3.org/2000/svg" width="20.974" height="20.974" viewBox="0 0 20.974 20.974">
  <path id="Path_67347" data-name="Path 67347" d="M0,0H20.974V20.974H0Z" fill="none"/>
  <path id="Path_67348" data-name="Path 67348" d="M16.983,2.748h-.874V1H14.361V2.748H7.37V1H5.622V2.748H4.748A1.747,1.747,0,0,0,3,4.5V16.73a1.747,1.747,0,0,0,1.748,1.748H16.983A1.753,1.753,0,0,0,18.73,16.73V4.5A1.753,1.753,0,0,0,16.983,2.748Zm0,13.983H4.748V7.991H16.983Zm0-10.487H4.748V4.5H16.983ZM6.5,9.739h4.37v4.37H6.5Z" transform="translate(-0.378 -0.126)" fill="#5a5a5a"/>
</svg>
