<svg xmlns="http://www.w3.org/2000/svg" width="18.158" height="20.784" viewBox="0 0 18.158 20.784"><defs><style>.a{fill:#5b5b5b;}.b{fill:#fff;stroke:#5b5b5b;}</style></defs><g transform="translate(225.173 -729) rotate(90)"><g transform="translate(729 207.515)"><path class="a" d="M5.938,1.945H.742A.881.881,0,0,1,0,.972.881.881,0,0,1,.742,0h5.2A.881.881,0,0,0,5.2.972.881.881,0,0,0,5.938,1.945Z" transform="translate(0 1.467)"/><path class="a" d="M14.845.972a.881.881,0,0,1-.742.972H0A.881.881,0,0,0,.742.972.881.881,0,0,0,0,0H14.1A.881.881,0,0,1,14.845.972Z" transform="translate(5.938 1.467)"/><path class="a" d="M14.845,1.945H.742A.881.881,0,0,1,0,.972.881.881,0,0,1,.742,0h14.1A.881.881,0,0,0,14.1.972.881.881,0,0,0,14.845,1.945Z" transform="translate(0 7.837)"/><path class="a" d="M5.938.972a.881.881,0,0,1-.742.972H0A.881.881,0,0,0,.742.972.881.881,0,0,0,0,0H5.2A.881.881,0,0,1,5.938.972Z" transform="translate(14.845 7.837)"/><path class="a" d="M5.938,1.945H.742A.881.881,0,0,1,0,.972.881.881,0,0,1,.742,0h5.2A.881.881,0,0,0,5.2.972.881.881,0,0,0,5.938,1.945Z" transform="translate(0 14.206)"/><path class="a" d="M14.845.972a.881.881,0,0,1-.742.972H0A.881.881,0,0,0,.742.972.881.881,0,0,0,0,0H14.1A.881.881,0,0,1,14.845.972Z" transform="translate(5.938 14.206)"/><path class="a" d="M.052,1.872a1.483,1.483,0,1,1,1.432,1.1A1.485,1.485,0,0,1,.052,1.872Z" transform="translate(4.454 13.466)"/><path class="b" d="M.133,2.951a2.132,2.132,0,0,1,0-1.484,2.227,2.227,0,0,1,4.187,0,2.132,2.132,0,0,1,0,1.484,2.227,2.227,0,0,1-4.187,0Z" transform="translate(3.711 12.739)"/><path class="a" d="M.052,1.872a1.483,1.483,0,1,1,1.432,1.1A1.485,1.485,0,0,1,.052,1.872Z" transform="translate(13.361 7.096)"/><path class="b" d="M.133,2.951a2.132,2.132,0,0,1,0-1.484,2.227,2.227,0,0,1,4.187,0,2.132,2.132,0,0,1,0,1.484,2.227,2.227,0,0,1-4.187,0Z" transform="translate(12.618 6.37)"/><path class="a" d="M.052,1.872a1.483,1.483,0,1,1,1.432,1.1A1.485,1.485,0,0,1,.052,1.872Z" transform="translate(4.454 0.727)"/><path class="b" d="M.133,2.951a2.132,2.132,0,0,1,0-1.484,2.227,2.227,0,0,1,4.187,0,2.132,2.132,0,0,1,0,1.484,2.227,2.227,0,0,1-4.187,0Z" transform="translate(3.711 0)"/></g></g></svg>