<svg xmlns="http://www.w3.org/2000/svg" xmlns:xlink="http://www.w3.org/1999/xlink" width="435.957" height="415.015" viewBox="0 0 435.957 415.015">
  <defs>
    <filter id="Rectangle_150010" x="0" y="152.747" width="179.031" height="135.458" filterUnits="userSpaceOnUse">
      <feOffset dy="3" input="SourceAlpha"/>
      <feGaussianBlur stdDeviation="3" result="blur"/>
      <feFlood flood-opacity="0.161"/>
      <feComposite operator="in" in2="blur"/>
      <feComposite in="SourceGraphic"/>
    </filter>
    <clipPath id="clip-path">
      <rect id="Rectangle_150008" data-name="Rectangle 150008" width="36.486" height="38.419" fill="none"/>
    </clipPath>
    <clipPath id="clip-path-2">
      <rect id="Rectangle_150009" data-name="Rectangle 150009" width="50.822" height="51.445" fill="none"/>
    </clipPath>
    <filter id="Rectangle_150020" x="323.957" y="120.541" width="110" height="93.681" filterUnits="userSpaceOnUse">
      <feOffset dy="3" input="SourceAlpha"/>
      <feGaussianBlur stdDeviation="3" result="blur-2"/>
      <feFlood flood-opacity="0.161"/>
      <feComposite operator="in" in2="blur-2"/>
      <feComposite in="SourceGraphic"/>
    </filter>
    <clipPath id="clip-path-3">
      <rect id="Rectangle_150018" data-name="Rectangle 150018" width="46.483" height="35.214" fill="none"/>
    </clipPath>
    <filter id="Rectangle_150020-2" x="323.957" y="205.793" width="112" height="93.624" filterUnits="userSpaceOnUse">
      <feOffset dy="3" input="SourceAlpha"/>
      <feGaussianBlur stdDeviation="3" result="blur-3"/>
      <feFlood flood-opacity="0.161"/>
      <feComposite operator="in" in2="blur-3"/>
      <feComposite in="SourceGraphic"/>
    </filter>
    <filter id="Rectangle_150020-3" x="271" y="0" width="114" height="119.556" filterUnits="userSpaceOnUse">
      <feOffset dy="3" input="SourceAlpha"/>
      <feGaussianBlur stdDeviation="3" result="blur-4"/>
      <feFlood flood-opacity="0.161"/>
      <feComposite operator="in" in2="blur-4"/>
      <feComposite in="SourceGraphic"/>
    </filter>
    <clipPath id="clip-path-5">
      <rect id="Rectangle_150019" data-name="Rectangle 150019" width="60.142" height="49.016" fill="none"/>
    </clipPath>
    <filter id="Rectangle_150020-4" x="271" y="295.54" width="116" height="119.475" filterUnits="userSpaceOnUse">
      <feOffset dy="3" input="SourceAlpha"/>
      <feGaussianBlur stdDeviation="3" result="blur-5"/>
      <feFlood flood-opacity="0.161"/>
      <feComposite operator="in" in2="blur-5"/>
      <feComposite in="SourceGraphic"/>
    </filter>
  </defs>
  <g id="Group_25375" data-name="Group 25375" transform="translate(-6012 4811)">
    <g id="Group_25369" data-name="Group 25369" transform="translate(-3 259.254)">
      <g transform="matrix(1, 0, 0, 1, 6015, -5070.25)" filter="url(#Rectangle_150010)">
        <rect id="Rectangle_150010-2" data-name="Rectangle 150010" width="161.031" height="117.458" rx="8" transform="translate(9 158.75)" fill="#fff"/>
      </g>
      <rect id="Rectangle_150011" data-name="Rectangle 150011" width="3.789" height="405.42" rx="1.894" transform="translate(6221.027 -5062.119)" fill="#267db3"/>
      <rect id="Rectangle_150012" data-name="Rectangle 150012" width="3.789" height="405.42" rx="1.894" transform="translate(6234.288 -5062.119)" fill="#e270b3"/>
      <rect id="Rectangle_150013" data-name="Rectangle 150013" width="3.789" height="405.42" rx="1.894" transform="translate(6247.55 -5062.119)" fill="#45beef"/>
      <rect id="Rectangle_150014" data-name="Rectangle 150014" width="3.789" height="405.42" rx="1.894" transform="translate(6260.811 -5062.119)" fill="#9fc036"/>
      <g id="Group_25343" data-name="Group 25343" transform="translate(6041.998 -4884.984)">
        <g id="Group_25340" data-name="Group 25340" transform="translate(0 6.631)">
          <g id="Group_25339" data-name="Group 25339" transform="translate(0 0)" clip-path="url(#clip-path)">
            <path id="Path_75525" data-name="Path 75525" d="M34.215,63.028c-.034-1.029-.867-1.993-2.293-2.827-2.957,1.729-8.48,2.893-14.812,2.893S5.255,61.93,2.3,60.2C.887,61.026.057,61.979.007,63H0v3.58H.01c.217,3.131,7.786,5.648,17.1,5.648s16.883-2.516,17.1-5.648h.01V63.028ZM3.057,64.95a.709.709,0,1,1,.709-.709.709.709,0,0,1-.709.709m2.461.892a.709.709,0,1,1,.709-.709.709.709,0,0,1-.709.709m2.586.446a.709.709,0,1,1,.709-.709.709.709,0,0,1-.709.709" transform="translate(1.133 -45.49)" fill="none" stroke="#333" stroke-width="1"/>
            <path id="Path_75526" data-name="Path 75526" d="M34.215,109.809c-.034-1.03-.867-1.994-2.293-2.827-2.957,1.729-8.48,2.893-14.812,2.893S5.255,108.711,2.3,106.982c-1.411.825-2.241,1.778-2.291,2.8H0v3.58H.01c.217,3.131,7.786,5.648,17.1,5.648s16.883-2.516,17.1-5.648h.01v-3.548ZM3.057,111.731a.709.709,0,1,1,.709-.709.709.709,0,0,1-.709.709m2.461.892a.709.709,0,1,1,.709-.709.709.709,0,0,1-.709.709m2.586.446a.709.709,0,1,1,.709-.709.709.709,0,0,1-.709.709" transform="translate(1.133 -81.72)" fill="none" stroke="#333" stroke-width="1"/>
            <path id="Path_75527" data-name="Path 75527" d="M34.215,5.72C34.11,2.555,26.494,0,17.11,0,7.756,0,.16,2.538.007,5.688H0v3.58H.01C.227,12.4,7.8,14.916,17.11,14.916s16.883-2.517,17.1-5.648h.01V5.72ZM3.057,7.625a.709.709,0,1,1,.709-.709.709.709,0,0,1-.709.709m2.461.892a.709.709,0,1,1,.709-.709.709.709,0,0,1-.709.709M8.1,8.963a.709.709,0,1,1,.709-.709.709.709,0,0,1-.709.709" transform="translate(1.133 1.133)" fill="none" stroke="#333" stroke-width="1"/>
          </g>
        </g>
        <g id="Group_25342" data-name="Group 25342" transform="translate(77.674)">
          <g id="Mask_Group_25341" data-name="Mask Group 25341" transform="translate(0 0)" clip-path="url(#clip-path-2)">
            <path id="Path_75528" data-name="Path 75528" d="M43.586,122.875H1.554A1.554,1.554,0,0,0,0,124.429v7.692a1.554,1.554,0,0,0,1.554,1.553H43.586a1.553,1.553,0,0,0,1.553-1.553v-7.692a1.554,1.554,0,0,0-1.553-1.554M7.275,129.633a.334.334,0,0,1-.334.335H4.229a.334.334,0,0,1-.334-.335v-2.711a.334.334,0,0,1,.334-.334H6.941a.334.334,0,0,1,.334.334Zm26.4-2.169a.912.912,0,1,1,.912-.912.912.912,0,0,1-.912.912m3.713,0a.912.912,0,1,1,.912-.912.911.911,0,0,1-.912.912m3.418,0a.912.912,0,1,1,.912-.912.912.912,0,0,1-.912.912" transform="translate(2.842 -84.123)" fill="none" stroke="#333" stroke-width="1"/>
            <path id="Path_75529" data-name="Path 75529" d="M43.586,81.917H1.554A1.554,1.554,0,0,0,0,83.47v7.691a1.554,1.554,0,0,0,1.554,1.554H43.586a1.553,1.553,0,0,0,1.553-1.554V83.47a1.553,1.553,0,0,0-1.553-1.553M7.275,88.676a.334.334,0,0,1-.334.334H4.229a.334.334,0,0,1-.334-.334V85.964a.333.333,0,0,1,.334-.334H6.941a.334.334,0,0,1,.334.334Zm26.4-2.17a.912.912,0,1,1,.912-.912.912.912,0,0,1-.912.912m3.713,0a.912.912,0,1,1,.912-.912.911.911,0,0,1-.912.912m3.418,0a.912.912,0,1,1,.912-.912.912.912,0,0,1-.912.912" transform="translate(2.842 -55.451)" fill="none" stroke="#2f2f2f" stroke-width="1"/>
            <path id="Path_75530" data-name="Path 75530" d="M43.586,40.959H1.554A1.553,1.553,0,0,0,0,42.512V50.2a1.553,1.553,0,0,0,1.554,1.554H43.586A1.553,1.553,0,0,0,45.139,50.2V42.512a1.553,1.553,0,0,0-1.553-1.553M7.275,47.717a.334.334,0,0,1-.334.334H4.229a.334.334,0,0,1-.334-.334V45.006a.334.334,0,0,1,.334-.334H6.941a.334.334,0,0,1,.334.334Zm26.4-2.169a.912.912,0,1,1,.912-.912.912.912,0,0,1-.912.912m3.713,0a.912.912,0,1,1,.912-.912.911.911,0,0,1-.912.912m3.418,0a.912.912,0,1,1,.912-.912.912.912,0,0,1-.912.912" transform="translate(2.842 -26.778)" fill="none" stroke="#333" stroke-width="1"/>
            <path id="Path_75531" data-name="Path 75531" d="M43.586,0H1.554A1.554,1.554,0,0,0,0,1.553V9.245A1.554,1.554,0,0,0,1.554,10.8H43.586a1.554,1.554,0,0,0,1.553-1.554V1.553A1.553,1.553,0,0,0,43.586,0M7.275,6.758a.334.334,0,0,1-.334.334H4.229A.334.334,0,0,1,3.9,6.758V4.047a.334.334,0,0,1,.334-.334H6.941a.334.334,0,0,1,.334.334Zm26.4-2.17a.912.912,0,1,1,.912-.912.912.912,0,0,1-.912.912m3.713,0a.912.912,0,1,1,.912-.912.911.911,0,0,1-.912.912m3.418,0a.912.912,0,1,1,.912-.912.912.912,0,0,1-.912.912" transform="translate(2.842 1.894)" fill="none" stroke="#333" stroke-width="1"/>
          </g>
        </g>
        <path id="Path_75532" data-name="Path 75532" d="M6084.637-4847.721h35.575" transform="translate(-6044.25 4873.77)" fill="none" stroke="#707070" stroke-linecap="round" stroke-width="1" stroke-dasharray="2 3"/>
        <path id="Path_75533" data-name="Path 75533" d="M6084.636-4847.721h47.475" transform="translate(-5953.314 4873.77)" fill="none" stroke="#707070" stroke-linecap="round" stroke-width="1" stroke-dasharray="2 3"/>
        <g id="Ellipse_4777" data-name="Ellipse 4777" transform="translate(35.995 23.681)" fill="#fff" stroke="#707070" stroke-width="1">
          <circle cx="2.368" cy="2.368" r="2.368" stroke="none"/>
          <circle cx="2.368" cy="2.368" r="1.868" fill="none"/>
        </g>
        <g id="Ellipse_4778" data-name="Ellipse 4778" transform="translate(74.832 23.681)" fill="#fff" stroke="#707070" stroke-width="1">
          <circle cx="2.368" cy="2.368" r="2.368" stroke="none"/>
          <circle cx="2.368" cy="2.368" r="1.868" fill="none"/>
        </g>
        <g id="Ellipse_4779" data-name="Ellipse 4779" transform="translate(127.878 23.681)" fill="#fff" stroke="#707070" stroke-width="1">
          <circle cx="2.368" cy="2.368" r="2.368" stroke="none"/>
          <circle cx="2.368" cy="2.368" r="1.868" fill="none"/>
        </g>
        <g id="Ellipse_4780" data-name="Ellipse 4780" transform="translate(178.555 23.681)" fill="#fff" stroke="#707070" stroke-width="1">
          <circle cx="2.368" cy="2.368" r="2.368" stroke="none"/>
          <circle cx="2.368" cy="2.368" r="1.868" fill="none"/>
        </g>
      </g>
      <g id="Group_25354" data-name="Group 25354" transform="translate(6347.958 -4943.713)">
        <g transform="matrix(1, 0, 0, 1, -332.96, -126.54)" filter="url(#Rectangle_150020)">
          <rect id="Rectangle_150020-5" data-name="Rectangle 150020" width="92" height="75.681" rx="8" transform="translate(332.96 126.54)" fill="#fff"/>
        </g>
        <g id="Group_25345" data-name="Group 25345" transform="translate(24.008 10)">
          <g id="Group_25344" data-name="Group 25344" transform="translate(0 0)" clip-path="url(#clip-path-3)">
            <path id="Path_75534" data-name="Path 75534" d="M16.08,24.894l-1.409,6.339h9.156l-1.408-6.339" transform="translate(1.88 3.189)" fill="none" stroke="#000" stroke-miterlimit="10" stroke-width="1.249"/>
            <line id="Line_1514" data-name="Line 1514" x2="14.79" transform="translate(13.734 34.422)" fill="none" stroke="#000" stroke-miterlimit="10" stroke-width="1.249"/>
            <path id="Path_75535" data-name="Path 75535" d="M28.8,27.993H2.737A1.868,1.868,0,0,1,.624,26.232V2.463A1.76,1.76,0,0,1,2.385.7H28.443" transform="translate(0.08 0.09)" fill="none" stroke="#000" stroke-miterlimit="10" stroke-width="1.249"/>
            <line id="Line_1515" data-name="Line 1515" x1="27.467" transform="translate(1.408 23.858)" fill="none" stroke="#000" stroke-miterlimit="10" stroke-width="1.249"/>
            <rect id="Rectangle_150015" data-name="Rectangle 150015" width="14.437" height="33.805" rx="1.253" transform="translate(31.341 0.705)" fill="none" stroke="#000" stroke-miterlimit="10" stroke-width="1.249"/>
            <line id="Line_1516" data-name="Line 1516" x2="3.522" transform="translate(36.623 29.58)" fill="none" stroke="#000" stroke-miterlimit="10" stroke-width="1.249"/>
            <rect id="Rectangle_150016" data-name="Rectangle 150016" width="9.156" height="2.818" transform="translate(33.805 4.93)" fill="#fff"/>
            <rect id="Rectangle_150017" data-name="Rectangle 150017" width="9.156" height="2.818" transform="translate(33.805 4.93)" fill="none" stroke="#000" stroke-miterlimit="10" stroke-width="1.249"/>
            <line id="Line_1517" data-name="Line 1517" x2="10.565" transform="translate(33.101 10.212)" fill="none" stroke="#000" stroke-miterlimit="10" stroke-width="1.249"/>
          </g>
        </g>
        <text id="WorkStation_1" data-name="WorkStation 1" transform="translate(10 63.624)" fill="#000d88" font-size="11" font-family="Graphik-Medium, Graphik" font-weight="500"><tspan x="0" y="0">WorkStation 1</tspan></text>
      </g>
      <g id="Group_25361" data-name="Group 25361" transform="translate(6347.958 -4858.461)">
        <g transform="matrix(1, 0, 0, 1, -332.96, -211.79)" filter="url(#Rectangle_150020-2)">
          <rect id="Rectangle_150020-6" data-name="Rectangle 150020" width="94" height="75.624" rx="8" transform="translate(332.96 211.79)" fill="#fff"/>
        </g>
        <g id="Group_25345-2" data-name="Group 25345" transform="translate(24.008 10)">
          <g id="Group_25344-2" data-name="Group 25344" transform="translate(0 0)" clip-path="url(#clip-path-3)">
            <path id="Path_75534-2" data-name="Path 75534" d="M16.08,24.894l-1.409,6.339h9.156l-1.408-6.339" transform="translate(1.88 3.189)" fill="none" stroke="#000" stroke-miterlimit="10" stroke-width="1.249"/>
            <line id="Line_1514-2" data-name="Line 1514" x2="14.79" transform="translate(13.734 34.422)" fill="none" stroke="#000" stroke-miterlimit="10" stroke-width="1.249"/>
            <path id="Path_75535-2" data-name="Path 75535" d="M28.8,27.993H2.737A1.868,1.868,0,0,1,.624,26.232V2.463A1.76,1.76,0,0,1,2.385.7H28.443" transform="translate(0.08 0.09)" fill="none" stroke="#000" stroke-miterlimit="10" stroke-width="1.249"/>
            <line id="Line_1515-2" data-name="Line 1515" x1="27.467" transform="translate(1.408 23.858)" fill="none" stroke="#000" stroke-miterlimit="10" stroke-width="1.249"/>
            <rect id="Rectangle_150015-2" data-name="Rectangle 150015" width="14.437" height="33.805" rx="1.253" transform="translate(31.341 0.705)" fill="none" stroke="#000" stroke-miterlimit="10" stroke-width="1.249"/>
            <line id="Line_1516-2" data-name="Line 1516" x2="3.522" transform="translate(36.623 29.58)" fill="none" stroke="#000" stroke-miterlimit="10" stroke-width="1.249"/>
            <rect id="Rectangle_150016-2" data-name="Rectangle 150016" width="9.156" height="2.818" transform="translate(33.805 4.93)" fill="#fff"/>
            <rect id="Rectangle_150017-2" data-name="Rectangle 150017" width="9.156" height="2.818" transform="translate(33.805 4.93)" fill="none" stroke="#000" stroke-miterlimit="10" stroke-width="1.249"/>
            <line id="Line_1517-2" data-name="Line 1517" x2="10.565" transform="translate(33.101 10.212)" fill="none" stroke="#000" stroke-miterlimit="10" stroke-width="1.249"/>
          </g>
        </g>
        <text id="WorkStation_2" data-name="WorkStation 2" transform="translate(10 63.624)" fill="#000d88" font-size="11" font-family="Graphik-Medium, Graphik" font-weight="500"><tspan x="0" y="0">WorkStation 2</tspan></text>
      </g>
      <g id="Group_25353" data-name="Group 25353" transform="translate(6295 -5064.254)">
        <g transform="matrix(1, 0, 0, 1, -280, -6)" filter="url(#Rectangle_150020-3)">
          <rect id="Rectangle_150020-7" data-name="Rectangle 150020" width="96" height="101.556" rx="8" transform="translate(280 6)" fill="#fff"/>
        </g>
        <g id="Group_25348" data-name="Group 25348" transform="translate(18.701 15)">
          <g id="Group_25347" data-name="Group 25347" transform="translate(0 0)" clip-path="url(#clip-path-5)">
            <path id="Path_75536" data-name="Path 75536" d="M81.17,0H59.111a1.734,1.734,0,0,0-1.734,1.734V43.086a1.734,1.734,0,0,0,1.734,1.734H81.17A1.735,1.735,0,0,0,82.9,43.086V1.734A1.735,1.735,0,0,0,81.17,0M70.141,37.566a3.609,3.609,0,1,1,3.608-3.609,3.613,3.613,0,0,1-3.608,3.609M78.823,9.112H61.458a.666.666,0,1,1,0-1.331H78.823a.666.666,0,0,1,0,1.331m0-4.07H61.458a.666.666,0,1,1,0-1.331H78.823a.666.666,0,0,1,0,1.331" transform="translate(-39.934 2.098)" fill="none" stroke="#333" stroke-width="1"/>
            <path id="Path_75537" data-name="Path 75537" d="M99.064,118.725a2.2,2.2,0,1,0,2.2,2.2,2.206,2.206,0,0,0-2.2-2.2" transform="translate(-68.857 -84.874)" fill="#333"/>
            <path id="Path_75538" data-name="Path 75538" d="M13.925,20.824H3.252a.53.53,0,1,1,0-1.061H13.925V17.581H3.252a.531.531,0,1,1,0-1.061H13.925V13.563H1.382A1.382,1.382,0,0,0,0,14.945V47.9A1.382,1.382,0,0,0,1.382,49.28H13.925ZM10.171,43.5a2.876,2.876,0,1,1,2.875-2.876A2.879,2.879,0,0,1,10.171,43.5" transform="translate(2.098 -7.838)" fill="none" stroke="#333" stroke-width="1"/>
            <path id="Path_75539" data-name="Path 75539" d="M33.219,108.175a1.757,1.757,0,1,0,1.756,1.757,1.758,1.758,0,0,0-1.756-1.757" transform="translate(-20.949 -77.146)" fill="#333"/>
            <path id="Path_75540" data-name="Path 75540" d="M157.783,20.824H168.32a.531.531,0,0,0,0-1.061H157.783V17.581H168.32a.531.531,0,0,0,0-1.061H157.783V13.563h12.382a1.373,1.373,0,0,1,1.365,1.382V47.9a1.373,1.373,0,0,1-1.365,1.382H157.783ZM161.49,43.5a2.876,2.876,0,1,0-2.839-2.876A2.86,2.86,0,0,0,161.49,43.5" transform="translate(-113.486 -7.838)" fill="none" stroke="#333" stroke-width="1"/>
            <path id="Path_75541" data-name="Path 75541" d="M166.893,108.176a1.757,1.757,0,1,1-1.734,1.756,1.747,1.747,0,0,1,1.734-1.756" transform="translate(-118.889 -77.146)" fill="#333"/>
          </g>
        </g>
        <text id="FlexBranch_1" data-name="FlexBranch 1" transform="translate(15 84.475)" fill="#000d88" font-size="11" font-family="Graphik-Medium, Graphik" font-weight="500"><tspan x="0" y="0">FlexBranch 1</tspan></text>
      </g>
      <g id="Group_25362" data-name="Group 25362" transform="translate(6295 -4768.714)">
        <g transform="matrix(1, 0, 0, 1, -280, -301.54)" filter="url(#Rectangle_150020-4)">
          <rect id="Rectangle_150020-8" data-name="Rectangle 150020" width="98" height="101.475" rx="8" transform="translate(280 301.54)" fill="#fff"/>
        </g>
        <g id="Group_25348-2" data-name="Group 25348" transform="translate(18.701 15)">
          <g id="Group_25347-2" data-name="Group 25347" transform="translate(0 0)" clip-path="url(#clip-path-5)">
            <path id="Path_75536-2" data-name="Path 75536" d="M81.17,0H59.111a1.734,1.734,0,0,0-1.734,1.734V43.086a1.734,1.734,0,0,0,1.734,1.734H81.17A1.735,1.735,0,0,0,82.9,43.086V1.734A1.735,1.735,0,0,0,81.17,0M70.141,37.566a3.609,3.609,0,1,1,3.608-3.609,3.613,3.613,0,0,1-3.608,3.609M78.823,9.112H61.458a.666.666,0,1,1,0-1.331H78.823a.666.666,0,0,1,0,1.331m0-4.07H61.458a.666.666,0,1,1,0-1.331H78.823a.666.666,0,0,1,0,1.331" transform="translate(-39.934 2.098)" fill="none" stroke="#333" stroke-width="1"/>
            <path id="Path_75537-2" data-name="Path 75537" d="M99.064,118.725a2.2,2.2,0,1,0,2.2,2.2,2.206,2.206,0,0,0-2.2-2.2" transform="translate(-68.857 -84.874)" fill="#333"/>
            <path id="Path_75538-2" data-name="Path 75538" d="M13.925,20.824H3.252a.53.53,0,1,1,0-1.061H13.925V17.581H3.252a.531.531,0,1,1,0-1.061H13.925V13.563H1.382A1.382,1.382,0,0,0,0,14.945V47.9A1.382,1.382,0,0,0,1.382,49.28H13.925ZM10.171,43.5a2.876,2.876,0,1,1,2.875-2.876A2.879,2.879,0,0,1,10.171,43.5" transform="translate(2.098 -7.838)" fill="none" stroke="#333" stroke-width="1"/>
            <path id="Path_75539-2" data-name="Path 75539" d="M33.219,108.175a1.757,1.757,0,1,0,1.756,1.757,1.758,1.758,0,0,0-1.756-1.757" transform="translate(-20.949 -77.146)" fill="#333"/>
            <path id="Path_75540-2" data-name="Path 75540" d="M157.783,20.824H168.32a.531.531,0,0,0,0-1.061H157.783V17.581H168.32a.531.531,0,0,0,0-1.061H157.783V13.563h12.382a1.373,1.373,0,0,1,1.365,1.382V47.9a1.373,1.373,0,0,1-1.365,1.382H157.783ZM161.49,43.5a2.876,2.876,0,1,0-2.839-2.876A2.86,2.86,0,0,0,161.49,43.5" transform="translate(-113.486 -7.838)" fill="none" stroke="#333" stroke-width="1"/>
            <path id="Path_75541-2" data-name="Path 75541" d="M166.893,108.176a1.757,1.757,0,1,1-1.734,1.756,1.747,1.747,0,0,1,1.734-1.756" transform="translate(-118.889 -77.146)" fill="#333"/>
          </g>
        </g>
        <text id="FlexBranch_2" data-name="FlexBranch 2" transform="translate(15 84.475)" fill="#000d88" font-size="11" font-family="Graphik-Medium, Graphik" font-weight="500"><tspan x="0" y="0">FlexBranch 2</tspan></text>
      </g>
      <g id="Group_25350" data-name="Group 25350" transform="translate(6221.027 -5029.913)">
        <path id="Path_75542" data-name="Path 75542" d="M6084.636-4847.721h61.21" transform="translate(-6081.192 4850.089)" fill="none" stroke="#267db3" stroke-linecap="round" stroke-width="1" stroke-dasharray="2 3"/>
        <g id="Ellipse_4781" data-name="Ellipse 4781" transform="translate(0)" fill="#fff" stroke="#267db3" stroke-width="1">
          <circle cx="2.368" cy="2.368" r="2.368" stroke="none"/>
          <circle cx="2.368" cy="2.368" r="1.868" fill="none"/>
        </g>
        <g id="Ellipse_4782" data-name="Ellipse 4782" transform="translate(64.413)" fill="#fff" stroke="#267db3" stroke-width="1">
          <circle cx="2.368" cy="2.368" r="2.368" stroke="none"/>
          <circle cx="2.368" cy="2.368" r="1.868" fill="none"/>
        </g>
      </g>
      <g id="Group_25357" data-name="Group 25357" transform="translate(6222.921 -4734.373)">
        <path id="Path_75542-2" data-name="Path 75542" d="M6084.636-4847.721h61.21" transform="translate(-6081.192 4850.089)" fill="none" stroke="#267db3" stroke-linecap="round" stroke-width="1" stroke-dasharray="2 3"/>
        <g id="Ellipse_4781-2" data-name="Ellipse 4781" fill="#fff" stroke="#267db3" stroke-width="1">
          <circle cx="2.368" cy="2.368" r="2.368" stroke="none"/>
          <circle cx="2.368" cy="2.368" r="1.868" fill="none"/>
        </g>
        <g id="Ellipse_4782-2" data-name="Ellipse 4782" transform="translate(64.413)" fill="#fff" stroke="#267db3" stroke-width="1">
          <circle cx="2.368" cy="2.368" r="2.368" stroke="none"/>
          <circle cx="2.368" cy="2.368" r="1.868" fill="none"/>
        </g>
      </g>
      <g id="Group_25351" data-name="Group 25351" transform="translate(6234.288 -5015.704)">
        <path id="Path_75542-3" data-name="Path 75542" d="M6084.636-4847.721h47.949" transform="translate(-6081.191 4850.089)" fill="none" stroke="#e270b3" stroke-linecap="round" stroke-width="1" stroke-dasharray="2 3"/>
        <g id="Ellipse_4781-3" data-name="Ellipse 4781" transform="translate(0)" fill="#fff" stroke="#e270b3" stroke-width="1">
          <circle cx="2.368" cy="2.368" r="2.368" stroke="none"/>
          <circle cx="2.368" cy="2.368" r="1.868" fill="none"/>
        </g>
        <g id="Ellipse_4782-3" data-name="Ellipse 4782" transform="translate(51.151)" fill="#fff" stroke="#e270b3" stroke-width="1">
          <circle cx="2.368" cy="2.368" r="2.368" stroke="none"/>
          <circle cx="2.368" cy="2.368" r="1.868" fill="none"/>
        </g>
      </g>
      <g id="Group_25358" data-name="Group 25358" transform="translate(6236.183 -4720.164)">
        <path id="Path_75542-4" data-name="Path 75542" d="M6084.636-4847.721h47.949" transform="translate(-6081.191 4850.089)" fill="none" stroke="#e270b3" stroke-linecap="round" stroke-width="1" stroke-dasharray="2 3"/>
        <g id="Ellipse_4781-4" data-name="Ellipse 4781" fill="#fff" stroke="#e270b3" stroke-width="1">
          <circle cx="2.368" cy="2.368" r="2.368" stroke="none"/>
          <circle cx="2.368" cy="2.368" r="1.868" fill="none"/>
        </g>
        <g id="Ellipse_4782-4" data-name="Ellipse 4782" transform="translate(51.151)" fill="#fff" stroke="#e270b3" stroke-width="1">
          <circle cx="2.368" cy="2.368" r="2.368" stroke="none"/>
          <circle cx="2.368" cy="2.368" r="1.868" fill="none"/>
        </g>
      </g>
      <g id="Group_25352" data-name="Group 25352" transform="translate(6247.55 -5001.495)">
        <path id="Path_75542-5" data-name="Path 75542" d="M6084.636-4847.721h34.688" transform="translate(-6081.191 4850.089)" fill="none" stroke="#45beef" stroke-linecap="round" stroke-width="1" stroke-dasharray="2 3"/>
        <g id="Ellipse_4781-5" data-name="Ellipse 4781" transform="translate(0)" fill="#fff" stroke="#45beef" stroke-width="1">
          <circle cx="2.368" cy="2.368" r="2.368" stroke="none"/>
          <circle cx="2.368" cy="2.368" r="1.868" fill="none"/>
        </g>
        <g id="Ellipse_4782-5" data-name="Ellipse 4782" transform="translate(37.89)" fill="#fff" stroke="#45beef" stroke-width="1">
          <circle cx="2.368" cy="2.368" r="2.368" stroke="none"/>
          <circle cx="2.368" cy="2.368" r="1.868" fill="none"/>
        </g>
      </g>
      <g id="Group_25359" data-name="Group 25359" transform="translate(6260.811 -4705.955)">
        <path id="Path_75542-6" data-name="Path 75542" d="M6084.636-4847.721h23.321" transform="translate(-6081.191 4850.089)" fill="none" stroke="#9fc036" stroke-linecap="round" stroke-width="1" stroke-dasharray="2 3"/>
        <g id="Ellipse_4781-6" data-name="Ellipse 4781" fill="#fff" stroke="#9fc036" stroke-width="1">
          <circle cx="2.368" cy="2.368" r="2.368" stroke="none"/>
          <circle cx="2.368" cy="2.368" r="1.868" fill="none"/>
        </g>
        <g id="Ellipse_4782-6" data-name="Ellipse 4782" transform="translate(26.523)" fill="#fff" stroke="#9fc036" stroke-width="1">
          <circle cx="2.368" cy="2.368" r="2.368" stroke="none"/>
          <circle cx="2.368" cy="2.368" r="1.868" fill="none"/>
        </g>
      </g>
      <g id="Group_25367" data-name="Group 25367" transform="translate(6225.279 -267.17)">
        <g id="Group_25364" data-name="Group 25364" transform="translate(18.243 -4536.349)">
          <g id="Group_25379" data-name="Group 25379" transform="translate(4 3.264)">
            <path id="Path_75542-7" data-name="Path 75542" d="M6084.637-4847.721h85.95" transform="translate(-6080.637 4850.221)" fill="none" stroke="#45beef" stroke-linecap="round" stroke-width="1" stroke-dasharray="2 3"/>
            <g id="Ellipse_4782-7" data-name="Ellipse 4782" transform="translate(90.213)" fill="#fff" stroke="#45beef" stroke-width="1">
              <circle cx="2.368" cy="2.368" r="2.368" stroke="none"/>
              <circle cx="2.368" cy="2.368" r="1.868" fill="none"/>
            </g>
            <g id="Ellipse_4781-7" data-name="Ellipse 4781" fill="#fff" stroke="#45beef" stroke-width="1">
              <circle cx="2.368" cy="2.368" r="2.368" stroke="none"/>
              <circle cx="2.368" cy="2.368" r="1.868" fill="none"/>
            </g>
          </g>
        </g>
        <g id="Group_25365" data-name="Group 25365" transform="translate(-8.279 -4566.241)">
          <path id="Path_75542-8" data-name="Path 75542" d="M6084.637-4847.721h116.523" transform="translate(-6076.637 4853.642)" fill="none" stroke="#267db3" stroke-linecap="round" stroke-width="1" stroke-dasharray="2 3"/>
          <g id="Ellipse_4782-8" data-name="Ellipse 4782" transform="translate(120.736 3.42)" fill="#fff" stroke="#267db3" stroke-width="1">
            <circle cx="2.368" cy="2.368" r="2.368" stroke="none"/>
            <circle cx="2.368" cy="2.368" r="1.868" fill="none"/>
          </g>
          <g id="Ellipse_4781-8" data-name="Ellipse 4781" transform="translate(4 3.42)" fill="#fff" stroke="#267db3" stroke-width="1">
            <circle cx="2.368" cy="2.368" r="2.368" stroke="none"/>
            <circle cx="2.368" cy="2.368" r="1.868" fill="none"/>
          </g>
        </g>
      </g>
      <g id="Group_25368" data-name="Group 25368" transform="translate(6221 -267.17)">
        <g id="Group_25366" data-name="Group 25366" transform="translate(39.784 -4625.021)">
          <path id="Path_75542-9" data-name="Path 75542" d="M6084.636-4847.721h74.472" transform="translate(-6081.192 4850.089)" fill="none" stroke="#9fc036" stroke-linecap="round" stroke-width="1" stroke-dasharray="2 3"/>
          <g id="Ellipse_4781-9" data-name="Ellipse 4781" fill="#fff" stroke="#9fc036" stroke-width="1">
            <circle cx="2.368" cy="2.368" r="2.368" stroke="none"/>
            <circle cx="2.368" cy="2.368" r="1.868" fill="none"/>
          </g>
          <g id="Ellipse_4782-9" data-name="Ellipse 4782" transform="translate(77.674)" fill="#fff" stroke="#9fc036" stroke-width="1">
            <circle cx="2.368" cy="2.368" r="2.368" stroke="none"/>
            <circle cx="2.368" cy="2.368" r="1.868" fill="none"/>
          </g>
        </g>
        <g id="Group_25363" data-name="Group 25363" transform="translate(0 -4654.757)">
          <path id="Path_75542-10" data-name="Path 75542" d="M6084.636-4847.721h114.256" transform="translate(-6081.192 4850.089)" fill="none" stroke="#267db3" stroke-linecap="round" stroke-width="1" stroke-dasharray="2 3"/>
          <g id="Ellipse_4781-10" data-name="Ellipse 4781" fill="#fff" stroke="#267db3" stroke-width="1">
            <circle cx="2.368" cy="2.368" r="2.368" stroke="none"/>
            <circle cx="2.368" cy="2.368" r="1.868" fill="none"/>
          </g>
          <g id="Ellipse_4782-10" data-name="Ellipse 4782" transform="translate(117.458)" fill="#fff" stroke="#267db3" stroke-width="1">
            <circle cx="2.368" cy="2.368" r="2.368" stroke="none"/>
            <circle cx="2.368" cy="2.368" r="1.868" fill="none"/>
          </g>
        </g>
      </g>
      <text id="Versa_Director" data-name="Versa
Director" transform="translate(6058.103 -4817.361)" fill="#000d88" font-size="9" font-family="Graphik-Medium, Graphik" font-weight="500"><tspan x="-11.988" y="0">Versa</tspan><tspan x="-17.712" y="12">Director</tspan></text>
      <text id="Controller" transform="translate(6121.566 -4817.361)" fill="#000d88" font-size="9" font-family="Graphik-Medium, Graphik" font-weight="500"><tspan x="0" y="0">Controller</tspan></text>
    </g>
    <g id="Group_25374" data-name="Group 25374" transform="translate(-15 39)">
      <g id="Group_25370" data-name="Group 25370" transform="translate(9 -23)">
        <text id="Management" transform="translate(6057 -4444)" fill="#000d88" font-size="8" font-family="Graphik-Medium, Graphik" font-weight="500"><tspan x="0" y="0">Management</tspan></text>
        <circle id="Ellipse_4785" data-name="Ellipse 4785" cx="4.5" cy="4.5" r="4.5" transform="translate(6043 -4451)" fill="#267db3"/>
      </g>
      <g id="Group_25371" data-name="Group 25371" transform="translate(94 -23)">
        <text id="Internet" transform="translate(6057 -4443)" fill="#000d88" font-size="8" font-family="Graphik-Medium, Graphik" font-weight="500"><tspan x="0" y="0">Internet</tspan></text>
        <circle id="Ellipse_4785-2" data-name="Ellipse 4785" cx="4.5" cy="4.5" r="4.5" transform="translate(6043 -4451)" fill="#e270b3"/>
      </g>
      <g id="Group_25372" data-name="Group 25372" transform="translate(9 -4)">
        <text id="LAN_1" data-name="LAN 1" transform="translate(6057 -4443)" fill="#000d88" font-size="8" font-family="Graphik-Medium, Graphik" font-weight="500"><tspan x="0" y="0">LAN 1</tspan></text>
        <circle id="Ellipse_4785-3" data-name="Ellipse 4785" cx="4.5" cy="4.5" r="4.5" transform="translate(6043 -4451)" fill="#45beef"/>
      </g>
      <g id="Group_25373" data-name="Group 25373" transform="translate(94 -4)">
        <text id="LAN_2" data-name="LAN 2" transform="translate(6057 -4443)" fill="#000d88" font-size="8" font-family="Graphik-Medium, Graphik" font-weight="500"><tspan x="0" y="0">LAN 2</tspan></text>
        <circle id="Ellipse_4785-4" data-name="Ellipse 4785" cx="4.5" cy="4.5" r="4.5" transform="translate(6043 -4451)" fill="#9fc036"/>
      </g>
    </g>
  </g>
</svg>
