<svg xmlns="http://www.w3.org/2000/svg" width="32.128" height="33.745" viewBox="0 0 32.128 33.745">
  <g id="Group_24227" data-name="Group 24227" transform="translate(1)">
    <g id="Group_24228" data-name="Group 24228" transform="translate(-408 -319.341)">
      <path id="Path_69814" data-name="Path 69814" d="M435.362,327l-3.766,6.64h-1.883l-1.883-2.213h-1.255l-2.511,3.689h-2.511l-2.511-5.165h-2.511l-1.255,2.213h-2.511l-2.511,3.689H409v16.232h30.128V327Z" transform="translate(0 0)" fill="#e9b36b"/>
      <path id="Path_69815" data-name="Path 69815" d="M409,349.329h3.138l2.511-3.689h3.766l1.883,2.951h3.766l5.021-5.9h3.766L434.734,339h4.394v16.232H409Z" transform="translate(0 -3.146)" fill="#74a0c9"/>
      <path id="Path_69816" data-name="Path 69816" d="M439.128,327h-3.766l-3.766,6.64h-1.883l-1.883-2.213h-1.255l-2.511,3.689h-2.511l-2.511-5.165h-2.511l-1.255,2.213h-2.511l-2.511,3.689H409" transform="translate(0 0)" fill="none" stroke="#fff" stroke-miterlimit="10" stroke-width="2"/>
      <path id="Path_69817" data-name="Path 69817" d="M409,349.329h3.138l2.511-3.689h3.766l1.883,2.951h3.766l5.021-5.9h3.766L434.734,339h4.394" transform="translate(0 -3.146)" fill="none" stroke="#fff" stroke-miterlimit="10" stroke-width="2"/>
    </g>
    <path id="Path_69802" data-name="Path 69802" d="M-479.574,1513.064v32.745h31.128" transform="translate(479.574 -1513.064)" fill="none" stroke="#303030" stroke-miterlimit="10" stroke-width="2"/>
  </g>
</svg>
