<svg xmlns="http://www.w3.org/2000/svg" width="36.502" height="32.828" viewBox="0 0 36.502 32.828">
  <g id="Group_24230" data-name="Group 24230" transform="translate(-1136.134 -814.191)">
    <path id="Path_69822" data-name="Path 69822" d="M-851.024,2415.154h-20.167s.831-12.814,9.9-17.154Z" transform="translate(2007.858 -1583.161)" fill="#74a0c9" stroke="#fff" stroke-miterlimit="10" stroke-width="1"/>
    <path id="Path_69823" data-name="Path 69823" d="M-851.606,2414.681l8.384-13.107s-7.758-4.425-15.4-.425Z" transform="matrix(0.998, -0.07, 0.07, 0.998, 1837.859, -1636.654)" fill="#e9b36b" stroke="#fff" stroke-miterlimit="10" stroke-width="1"/>
    <path id="Path_69824" data-name="Path 69824" d="M-851.382,2415.154l-3.809,6.246s-4.2-1.026-4.367-6.246Z" transform="translate(2007.858 -1583.161)" fill="#e27831" stroke="#fff" stroke-miterlimit="10" stroke-width="1"/>
    <path id="Path_69825" data-name="Path 69825" d="M-850.891,2415.311l7.769,14.091s6.769-5.774,7.364-14.758Z" transform="translate(2007.858 -1583.161)" fill="#74a0c9" stroke="#fff" stroke-miterlimit="10" stroke-width="1"/>
    <path id="Path_69826" data-name="Path 69826" d="M-852.769,2415.506l13.1.833s.217-7.366-5.657-11.378Z" transform="matrix(0.995, -0.105, 0.105, 0.995, 1752.241, -1659.395)" fill="#e27831" stroke="#fff" stroke-miterlimit="10" stroke-width="1"/>
    <path id="Path_69827" data-name="Path 69827" d="M-850.962,2414.585l-6.763,10.928s6.241,3.919,12.677.889Z" transform="translate(2007.858 -1583.161)" fill="#e9b36b" stroke="#fff" stroke-miterlimit="10" stroke-width="1"/>
  </g>
</svg>
