<svg xmlns="http://www.w3.org/2000/svg" width="33.168" height="33.56" viewBox="0 0 33.168 33.56">
  <g id="Group_24229" data-name="Group 24229" transform="translate(26.488 -1638.449)">
    <path id="Path_69818" data-name="Path 69818" d="M-.4,1678.516l1.4-1.574-1.4,1.574a7.777,7.777,0,1,0,6.089-13.66v0a7.762,7.762,0,0,0-1.1-.086,7.777,7.777,0,0,0-7.662,6.47h0A7.694,7.694,0,0,0-.4,1678.516Z" transform="translate(-14.331 -16.187)" fill="none"/>
    <path id="Path_69819" data-name="Path 69819" d="M.562,1641.449v9.065a7.776,7.776,0,0,1,6.685,7.7,7.781,7.781,0,0,1-7.781,7.781,7.746,7.746,0,0,1-4.993-1.816l-6,6.732a16.728,16.728,0,0,0,10.994,4.1,16.8,16.8,0,0,0,16.8-16.8A16.8,16.8,0,0,0,.562,1641.449Z" transform="translate(-9.585 -3)" fill="#74a0c9"/>
    <path id="Path_69820" data-name="Path 69820" d="M-20.863,1682.8a7.306,7.306,0,0,1,.112-1.231h-8.525c-.031.407-.052.816-.052,1.231a15.73,15.73,0,0,0,5.45,11.919l5.633-6.319A7.286,7.286,0,0,1-20.863,1682.8Z" transform="translate(2.84 -27.538)" fill="#e9b36b"/>
    <path id="Path_69821" data-name="Path 69821" d="M-13.611,1646.946a7.335,7.335,0,0,1,1.029.081v-8.509c-.341-.022-.683-.037-1.029-.037a15.768,15.768,0,0,0-15.717,14.54H-20.8A7.3,7.3,0,0,1-13.611,1646.946Z" transform="translate(2.84 -0.019)" fill="#e27831"/>
  </g>
</svg>
