<svg xmlns="http://www.w3.org/2000/svg" width="24" height="21.844" viewBox="0 0 24 21.844"><defs><style>.a{fill:none;stroke:#ffffff;stroke-miterlimit:10;}</style></defs><g transform="translate(-1582 -1547.484)"><g transform="translate(1582.5 1547.984)"><path class="a" d="M1586.812,1626.609a4.312,4.312,0,0,1-.544-8.589,4.049,4.049,0,0,1,.544-.036,4.283,4.283,0,0,1,1.744.369" transform="translate(-1582.5 -1611.276)"/><path class="a" d="M1757.7,1628.808a3.814,3.814,0,0,1,1.888-.793,3.684,3.684,0,0,1,.489-.031,3.833,3.833,0,0,1,0,7.667" transform="translate(-1740.91 -1620.317)"/><path class="a" d="M1626.944,1553.923a4.791,4.791,0,1,0-9.432-1.471c-.007.105-.012.215-.012.323a4.785,4.785,0,0,0,.414,1.953" transform="translate(-1614.146 -1547.984)"/><path class="a" d="M1722.2,1587.328c.007-.089.01-.18.01-.271a4.073,4.073,0,0,0-3.515-4.032,3.591,3.591,0,0,0-.558-.041,4.029,4.029,0,0,0-1.787.414" transform="translate(-1703.522 -1579.63)"/></g><path class="a" d="M1654.013,1651.7v-1.218h-2.006v1.218a4.366,4.366,0,0,0-1.325.548l-.859-.86-1.416,1.416.86.86a4.363,4.363,0,0,0-.548,1.325H1647.5V1657h1.218a4.363,4.363,0,0,0,.548,1.325l-.86.86,1.416,1.416.859-.86a4.36,4.36,0,0,0,1.325.548v1.218h2.006v-1.218a4.357,4.357,0,0,0,1.325-.548l.86.86,1.416-1.416-.86-.86a4.357,4.357,0,0,0,.548-1.325h1.218v-2.006H1657.3a4.357,4.357,0,0,0-.548-1.325l.86-.86-1.416-1.416-.86.86A4.363,4.363,0,0,0,1654.013,1651.7Z" transform="translate(-58.771 -92.677)"/><circle class="a" cx="1.653" cy="1.653" r="1.653" transform="translate(1592.586 1561.664)"/></g></svg>