<svg xmlns="http://www.w3.org/2000/svg" width="23.208" height="23.736" viewBox="0 0 23.208 23.736"><defs><style>.a{fill:#ffffff;}</style></defs><g transform="translate(-912 -254)"><path class="a" d="M378.619,443.368h-9.871a.4.4,0,0,1-.4-.4V423.651a.4.4,0,0,1,.4-.4h9.871a.4.4,0,0,1,.4.4v19.312A.4.4,0,0,1,378.619,443.368Zm-9.466-.81h9.061v-18.5h-9.061Z" transform="translate(543.657 -169.246)"/><path class="a" d="M385.471,442.78h-6.327a.4.4,0,1,1,0-.81h6.327a.4.4,0,1,1,0,.81Z" transform="translate(535.033 -184.778)"/><path class="a" d="M385.471,460.714h-6.327a.4.4,0,0,1,0-.81h6.327a.4.4,0,1,1,0,.81Z" transform="translate(535.033 -199.655)"/><path class="a" d="M389.174,497.316a2.157,2.157,0,1,1,2.157-2.157A2.16,2.16,0,0,1,389.174,497.316Zm0-3.5a1.347,1.347,0,1,0,1.347,1.347A1.349,1.349,0,0,0,389.174,493.812Z" transform="translate(528.166 -227.111)"/><path class="a" d="M452.1,443.368h-9.871a.4.4,0,0,1-.4-.4V423.651a.4.4,0,0,1,.4-.4H452.1a.4.4,0,0,1,.4.4v19.312A.4.4,0,0,1,452.1,443.368Zm-9.466-.81H451.7v-18.5h-9.061Z" transform="translate(482.698 -169.246)"/><path class="a" d="M458.956,442.78H452.63a.4.4,0,1,1,0-.81h6.326a.4.4,0,0,1,0,.81Z" transform="translate(474.074 -184.778)"/><path class="a" d="M458.956,460.714H452.63a.4.4,0,1,1,0-.81h6.326a.4.4,0,0,1,0,.81Z" transform="translate(474.074 -199.655)"/><path class="a" d="M462.66,497.316a2.157,2.157,0,1,1,2.157-2.157A2.16,2.16,0,0,1,462.66,497.316Zm0-3.5a1.347,1.347,0,1,0,1.347,1.347A1.349,1.349,0,0,0,462.66,493.812Z" transform="translate(467.207 -227.111)"/><path class="a" d="M410.228,540.961H397.7a.4.4,0,0,1-.4-.4v-3.614a.4.4,0,0,1,.81,0v3.21h11.717v-3.21a.4.4,0,1,1,.81,0v3.614A.4.4,0,0,1,410.228,540.961Z" transform="translate(519.64 -263.225)"/></g></svg>