<svg xmlns="http://www.w3.org/2000/svg" width="18.448" height="18.448" viewBox="0 0 18.448 18.448"><defs><style>.a{fill:none;stroke:#080808;stroke-linecap:round;stroke-linejoin:round;stroke-width:1.5px;}</style></defs><g transform="translate(-0.439 -0.439)"><path class="a" d="M14.071,16.345a7.473,7.473,0,0,1-4.408,1.529c-5.195,0-8.163-5.937-8.163-5.937A13.692,13.692,0,0,1,5.255,7.529M8.1,6.178A6.768,6.768,0,0,1,9.663,6c5.195,0,8.163,5.937,8.163,5.937a13.729,13.729,0,0,1-1.6,2.367m-4.987-.794A2.226,2.226,0,1,1,8.09,10.364" transform="translate(0 -2.274)"/><path class="a" d="M1.5,1.5,17.826,17.826" transform="translate(0 0)"/></g></svg>