<svg xmlns="http://www.w3.org/2000/svg" width="65.328" height="65.2" viewBox="0 0 65.328 65.2"><defs><style>.a{fill:#55c0eb;}.b{fill:none;stroke:#000;}.c{fill:#f3705a;}</style></defs><g transform="translate(-650.498 -358.272)"><path class="a" d="M671.829,412.156a10.148,10.148,0,1,1,10.148-10.149A10.144,10.144,0,0,1,671.829,412.156Zm20.965-6.811v-6.409l-4.407-1.336a19.783,19.783,0,0,0-1.6-3.872l2.27-4.139-4.674-4.54-4.139,2.27a19.739,19.739,0,0,0-3.873-1.6l-1.335-4.406h-6.41l-1.335,4.406a19.7,19.7,0,0,0-3.872,1.6l-4.14-2.27-4.407,4.54,2.137,4.139a19.66,19.66,0,0,0-1.6,3.872L651,398.936v6.409l4.407,1.336a19.66,19.66,0,0,0,1.6,3.872l-2.137,4.14,4.541,4.54,4.139-2.27a19.725,19.725,0,0,0,3.872,1.6l1.336,4.407h6.409l1.336-4.407a19.725,19.725,0,0,0,3.872-1.6l4.14,2.27,4.54-4.54-2.27-4.006a19.767,19.767,0,0,0,1.6-3.873Z"/><path class="b" d="M671.829,412.156a10.148,10.148,0,1,1,10.148-10.149A10.144,10.144,0,0,1,671.829,412.156Zm20.965-6.811v-6.409l-4.407-1.336a19.783,19.783,0,0,0-1.6-3.872l2.27-4.139-4.674-4.54-4.139,2.27a19.739,19.739,0,0,0-3.873-1.6l-1.335-4.406h-6.41l-1.335,4.406a19.7,19.7,0,0,0-3.872,1.6l-4.14-2.27-4.407,4.54,2.137,4.139a19.66,19.66,0,0,0-1.6,3.872L651,398.936v6.409l4.407,1.336a19.66,19.66,0,0,0,1.6,3.872l-2.137,4.14,4.541,4.54,4.139-2.27a19.725,19.725,0,0,0,3.872,1.6l1.336,4.407h6.409l1.336-4.407a19.725,19.725,0,0,0,3.872-1.6l4.14,2.27,4.54-4.54-2.27-4.006a19.767,19.767,0,0,0,1.6-3.873Z"/><path class="c" d="M704.143,376.9a5.455,5.455,0,1,1-3.071-7.078A5.471,5.471,0,0,1,704.143,376.9Zm8.145-.534a12.829,12.829,0,0,0,0-3.2l2.671-2.27-2-4.674-3.6.4a18.163,18.163,0,0,0-2.27-2.27l.267-3.606-4.54-1.869-2.27,2.8a12.826,12.826,0,0,0-3.205,0l-2.27-2.671-4.674,2,.4,3.606a18.1,18.1,0,0,0-2.27,2.27l-3.606-.4-1.869,4.674,2.8,2.27a12.922,12.922,0,0,0,0,3.2l-2.671,2.27,2,4.673,3.606-.4a18.227,18.227,0,0,0,2.27,2.27l-.267,3.6,4.673,1.869,2.27-2.8a12.826,12.826,0,0,0,3.205,0l2.27,2.8,4.674-2-.4-3.605a18.233,18.233,0,0,0,2.27-2.27l3.606.4,1.869-4.674Z"/><path class="b" d="M704.143,376.9a5.455,5.455,0,1,1-3.071-7.078A5.471,5.471,0,0,1,704.143,376.9Zm8.145-.534a12.829,12.829,0,0,0,0-3.2l2.671-2.27-2-4.674-3.6.4a18.163,18.163,0,0,0-2.27-2.27l.267-3.606-4.54-1.869-2.27,2.8a12.826,12.826,0,0,0-3.205,0l-2.27-2.671-4.674,2,.4,3.606a18.1,18.1,0,0,0-2.27,2.27l-3.606-.4-1.869,4.674,2.8,2.27a12.922,12.922,0,0,0,0,3.2l-2.671,2.27,2,4.673,3.606-.4a18.227,18.227,0,0,0,2.27,2.27l-.267,3.6,4.673,1.869,2.27-2.8a12.826,12.826,0,0,0,3.205,0l2.27,2.8,4.674-2-.4-3.605a18.233,18.233,0,0,0,2.27-2.27l3.606.4,1.869-4.674Z"/><path class="a" d="M671.828,397.467a4.654,4.654,0,0,1,.912.09,4.539,4.539,0,0,1,.876.266,4.652,4.652,0,0,1,1.517,1.013,4.674,4.674,0,0,1,1.013,5.093,4.749,4.749,0,0,1-.432.808,4.7,4.7,0,0,1-.581.708,4.682,4.682,0,0,1-2.393,1.279,4.674,4.674,0,0,1-5.23-2.8,4.717,4.717,0,0,1-.266-.877,4.674,4.674,0,0,1,.266-2.7,4.576,4.576,0,0,1,.432-.808,4.638,4.638,0,0,1,.581-.708,4.635,4.635,0,0,1,1.516-1.013,4.57,4.57,0,0,1,.877-.266A4.654,4.654,0,0,1,671.828,397.467Z"/><path class="b" d="M671.828,397.467a4.654,4.654,0,0,1,.912.09,4.539,4.539,0,0,1,.876.266,4.652,4.652,0,0,1,1.517,1.013,4.674,4.674,0,0,1,1.013,5.093,4.749,4.749,0,0,1-.432.808,4.7,4.7,0,0,1-.581.708,4.682,4.682,0,0,1-2.393,1.279,4.674,4.674,0,0,1-5.23-2.8,4.717,4.717,0,0,1-.266-.877,4.674,4.674,0,0,1,.266-2.7,4.576,4.576,0,0,1,.432-.808,4.638,4.638,0,0,1,.581-.708,4.635,4.635,0,0,1,1.516-1.013,4.57,4.57,0,0,1,.877-.266A4.654,4.654,0,0,1,671.828,397.467Z"/></g></svg>