<svg xmlns="http://www.w3.org/2000/svg" width="23.648" height="24.04" viewBox="0 0 23.648 24.04">
  <g id="Group_23741" data-name="Group 23741" transform="translate(-111.958 -21.5)">
    <g id="Group_23740" data-name="Group 23740" transform="translate(112.524 22)">
      <path id="Path_68066" data-name="Path 68066" d="M134.383,38.028a11.51,11.51,0,0,0,.656-2.057l-2.785-1.608c.027-.277.043-.558.043-.843s-.016-.565-.043-.843l2.785-1.608A11.544,11.544,0,0,0,131.533,25l-2.792,1.612a8.492,8.492,0,0,0-1.454-.841V22.545a11.551,11.551,0,0,0-7.012,0v3.222a8.491,8.491,0,0,0-1.454.841L116.03,25a11.544,11.544,0,0,0-3.506,6.073l2.785,1.608c-.028.277-.043.558-.043.843s.015.565.043.843l-2.785,1.608a11.544,11.544,0,0,0,3.506,6.073l2.792-1.612a8.492,8.492,0,0,0,1.454.841v3.222a11.551,11.551,0,0,0,7.012,0V43.036" transform="translate(-112.524 -22)" fill="none" stroke="#222" stroke-miterlimit="10" stroke-width="1"/>
    </g>
    <path id="Path_68067" data-name="Path 68067" d="M139.026,46.021l-4.488-4.268a5.506,5.506,0,0,0-7.24-7.288l3.127,3.127a2,2,0,1,1-2.833,2.833L124.465,37.3a5.5,5.5,0,0,0,6.484,7.525l4.571,4.7" transform="translate(-5.728 -5.99)" fill="none" stroke="#222" stroke-miterlimit="10" stroke-width="1"/>
  </g>
</svg>
