<svg xmlns="http://www.w3.org/2000/svg" width="22.712" height="25.241" viewBox="0 0 22.712 25.241">
  <g id="Group_24906" data-name="Group 24906" transform="translate(-47.197 -321.49)">
    <path id="Path_75507" data-name="Path 75507" d="M47.7,344.65V323.571a1.574,1.574,0,0,1,.121-.6,1.582,1.582,0,0,1,.855-.855,1.573,1.573,0,0,1,.6-.121h18.55a1.58,1.58,0,0,1,1.581,1.581V344.65a1.58,1.58,0,0,1-1.581,1.581H49.278A1.584,1.584,0,0,1,47.7,344.65Z" transform="translate(0)" fill="none" stroke="#5b5b5b" stroke-width="1"/>
    <path id="Path_75508" data-name="Path 75508" d="M51.7,328.625v-2.108a.529.529,0,0,1,.527-.527H63.818a.527.527,0,0,1,.527.527v2.108a.525.525,0,0,1-.527.527H52.224a.527.527,0,0,1-.527-.527Z" transform="translate(0.216 0.216)" fill="none" stroke="#5b5b5b" stroke-width="1"/>
    <path id="Path_75509" data-name="Path 75509" d="M62.224,332.99h1.054a.527.527,0,0,1,.527.527v6.324a.525.525,0,0,1-.527.527H62.224a.527.527,0,0,1-.527-.527v-6.324a.529.529,0,0,1,.527-.527Z" transform="translate(0.756 0.594)" fill="none" stroke="#5b5b5b" stroke-width="1"/>
    <path id="Path_75510" data-name="Path 75510" d="M52.224,337.99h1.054a.527.527,0,0,1,.527.527v1.054a.525.525,0,0,1-.527.527H52.224a.527.527,0,0,1-.527-.527v-1.054a.529.529,0,0,1,.527-.527Z" transform="translate(0.216 0.863)" fill="none" stroke="#5b5b5b" stroke-width="1"/>
    <path id="Path_75511" data-name="Path 75511" d="M52.224,332.99h1.054a.527.527,0,0,1,.527.527v1.054a.525.525,0,0,1-.527.527H52.224a.527.527,0,0,1-.527-.527v-1.054a.529.529,0,0,1,.527-.527Z" transform="translate(0.216 0.594)" fill="none" stroke="#5b5b5b" stroke-width="1"/>
    <path id="Path_75512" data-name="Path 75512" d="M56.224,337.99h2.108a.527.527,0,0,1,.527.527v1.054a.525.525,0,0,1-.527.527H56.224a.527.527,0,0,1-.527-.527v-1.054a.529.529,0,0,1,.527-.527Z" transform="translate(0.432 0.863)" fill="none" stroke="#5b5b5b" stroke-width="1"/>
    <path id="Path_75513" data-name="Path 75513" d="M56.224,332.99h2.108a.527.527,0,0,1,.527.527v1.054a.525.525,0,0,1-.527.527H56.224a.527.527,0,0,1-.527-.527v-1.054a.529.529,0,0,1,.527-.527Z" transform="translate(0.432 0.594)" fill="none" stroke="#5b5b5b" stroke-width="1"/>
  </g>
</svg>
