<svg xmlns="http://www.w3.org/2000/svg" width="17.905" height="19.932" viewBox="0 0 17.905 19.932">
  <g id="Group_46983" data-name="Group 46983" transform="translate(87.579 -308.62) rotate(30)">
    <path id="Path_197170" data-name="Path 197170" d="M154.149,526.079a1.4,1.4,0,0,1-.144-.409c-.015-.693,0-1.386-.008-2.079,0-.223.04-.43.3-.43s.306.206.3.43c0,.693.006,1.387-.009,2.079a1.4,1.4,0,0,1-.144.409Z" transform="translate(-63.281 -199.583)" stroke="#000" stroke-width="0.2"/>
    <path id="Path_197171" data-name="Path 197171" d="M93.644,319.738a7.022,7.022,0,0,1-.373.943.6.6,0,0,1-.417.282q-1.874.034-3.75,0a.619.619,0,0,1-.417-.282,4.313,4.313,0,0,1-.294-.745,4.163,4.163,0,0,0-1.307,2.191,2.728,2.728,0,0,1-.081.407,2.932,2.932,0,0,1-.255.411c-.138-.09-.319-.15-.407-.275a4.581,4.581,0,0,1-.837-2.591,4.678,4.678,0,0,1,1.562-3.68.622.622,0,0,0,.207-.655,9.768,9.768,0,0,1,.177-4.684,6.582,6.582,0,0,1,2.892-3.707,1.078,1.078,0,0,1,1.285.008,6.731,6.731,0,0,1,3.183,5.118,10.768,10.768,0,0,1-.117,3.205.545.545,0,0,0,.208.58,4.833,4.833,0,0,1,1.04,6.06,1.42,1.42,0,0,1-.23.345c-.11.1-.275.24-.386.217s-.2-.221-.251-.36a12.322,12.322,0,0,0-.5-1.5A9.768,9.768,0,0,0,93.644,319.738Zm-2.662-9.592c-.719,0-1.439.017-2.157-.009a.464.464,0,0,0-.5.336,7.292,7.292,0,0,0-.626,2.787,9.959,9.959,0,0,0,.4,3.2c.366,1.2.679,2.421,1.01,3.635a.324.324,0,0,0,.373.275c1-.013,1.993-.012,2.99,0a.339.339,0,0,0,.387-.255,21.439,21.439,0,0,0,1.391-5.753,7.948,7.948,0,0,0-.571-3.816.555.555,0,0,0-.611-.412C92.371,310.167,91.676,310.146,90.982,310.146Zm3.561,6.647c-.219.761-.435,1.5-.636,2.241a.339.339,0,0,0,.067.289,4.934,4.934,0,0,1,1.555,2.374A4.09,4.09,0,0,0,94.543,316.793Zm-8,4.963a5.184,5.184,0,0,1,1.558-2.389.242.242,0,0,0,.03-.2c-.218-.756-.443-1.51-.667-2.269A4.118,4.118,0,0,0,86.542,321.756Zm6.547-12.218a5.66,5.66,0,0,0-1.912-1.7.316.316,0,0,0-.244-.034,5.569,5.569,0,0,0-1.98,1.736h4.136Z" transform="translate(0 0)" stroke="#000" stroke-width="0.2"/>
    <path id="Path_197172" data-name="Path 197172" d="M133.8,507.153a9.743,9.743,0,0,1,.012-1.057.494.494,0,0,1,.269-.363c.23-.052.322.14.322.357,0,.718.014,1.437-.014,2.155,0,.124-.188.242-.289.362-.1-.119-.273-.23-.287-.358A10.158,10.158,0,0,1,133.8,507.153Z" transform="translate(-44.61 -183.473)" stroke="#000" stroke-width="0.2"/>
    <path id="Path_197173" data-name="Path 197173" d="M174.679,507.078a9.449,9.449,0,0,1-.013,1.057c-.015.131-.181.246-.279.368-.1-.118-.293-.232-.3-.354-.028-.73-.028-1.462,0-2.192,0-.119.2-.231.3-.346.1.123.26.24.273.371A10.481,10.481,0,0,1,174.679,507.078Z" transform="translate(-81.826 -183.368)" stroke="#000" stroke-width="0.2"/>
    <path id="Path_197174" data-name="Path 197174" d="M117.5,346.466c.694,0,1.389.022,2.081-.009a.555.555,0,0,1,.611.412,7.948,7.948,0,0,1,.571,3.816,21.44,21.44,0,0,1-1.391,5.753.339.339,0,0,1-.387.255c-1-.009-1.993-.01-2.99,0a.323.323,0,0,1-.373-.275c-.331-1.213-.643-2.432-1.01-3.635a9.958,9.958,0,0,1-.4-3.2,7.291,7.291,0,0,1,.626-2.787.464.464,0,0,1,.5-.336C116.065,346.484,116.784,346.467,117.5,346.466Zm.05,5.452a1.549,1.549,0,0,0,1.544-1.581,1.556,1.556,0,1,0-3.112.063A1.551,1.551,0,0,0,117.554,351.919Z" transform="translate(-26.522 -36.321)" fill="#fff" stroke="#000" stroke-width="0.2"/>
    <path id="Path_197175" data-name="Path 197175" d="M196.484,433.976a4.09,4.09,0,0,1,.986,4.9,4.934,4.934,0,0,0-1.555-2.374.339.339,0,0,1-.067-.289C196.049,435.475,196.266,434.737,196.484,433.976Z" transform="translate(-101.941 -117.183)" fill="#fff" stroke="#000" stroke-width="0.2"/>
    <path id="Path_197176" data-name="Path 197176" d="M94,440.155a4.118,4.118,0,0,1,.921-4.863c.224.759.45,1.513.667,2.269a.243.243,0,0,1-.03.2A5.184,5.184,0,0,0,94,440.155Z" transform="translate(-7.461 -118.399)" fill="#fff" stroke="#000" stroke-width="0.2"/>
    <path id="Path_197177" data-name="Path 197177" d="M134.953,317.352h-4.136a5.568,5.568,0,0,1,1.98-1.736.316.316,0,0,1,.244.034A5.659,5.659,0,0,1,134.953,317.352Z" transform="translate(-41.865 -7.814)" fill="#fff" stroke="#000" stroke-width="0.2"/>
    <path id="Path_197178" data-name="Path 197178" d="M139.107,380.5a1.55,1.55,0,0,1-1.568-1.519,1.556,1.556,0,1,1,3.112-.063A1.549,1.549,0,0,1,139.107,380.5Zm.935-1.553a.948.948,0,1,0-1.9,0,.948.948,0,0,0,1.9,0Z" transform="translate(-48.074 -64.898)" stroke="#000" stroke-width="0.2"/>
    <path id="Path_197179" data-name="Path 197179" d="M147.433,386.332a.948.948,0,0,1-1.9,0,.948.948,0,1,1,1.9,0Z" transform="translate(-55.466 -72.286)" fill="#fff" stroke="#000" stroke-width="0.2"/>
  </g>
</svg>
