<svg xmlns="http://www.w3.org/2000/svg" width="19.878" height="19.12" viewBox="0 0 19.878 19.12"><defs><style>.a,.b,.c{fill:none;}.b,.c{stroke:#080808;stroke-linecap:round;stroke-width:1.5px;}.c{stroke-linejoin:round;}.d,.e{stroke:none;}.e{fill:#080808;}</style></defs><g transform="translate(-100.369 -907)"><g transform="translate(101.119 907)"><g transform="translate(0 0)"><g class="a" transform="translate(0 0)"><path class="d" d="M16.4,19.12H2.732A2.735,2.735,0,0,1,0,16.388v-4.1H1.366v4.462a1,1,0,0,0,1,1H16.762a1,1,0,0,0,1-1V2.366a1,1,0,0,0-1-1H6.832V0H16.4a2.735,2.735,0,0,1,2.732,2.731V16.388A2.735,2.735,0,0,1,16.4,19.12Z"/><path class="e" d="M 16.39529991149902 19.11960029602051 L 2.732400417327881 19.11960029602051 C 1.22575044631958 19.11960029602051 4.028320290672127e-07 17.89425086975098 4.028320290672127e-07 16.38809967041016 L 4.028320290672127e-07 12.29129981994629 L 1.36620044708252 12.29129981994629 L 1.36620044708252 16.75349998474121 C 1.36620044708252 17.30484962463379 1.815160393714905 17.7534008026123 2.367000341415405 17.7534008026123 L 16.76160049438477 17.7534008026123 C 17.31295013427734 17.7534008026123 17.76150131225586 17.30484962463379 17.76150131225586 16.75349998474121 L 17.76150131225586 2.366100072860718 C 17.76150131225586 1.814260125160217 17.31295013427734 1.365300178527832 16.76160049438477 1.365300178527832 L 6.831900596618652 1.365300178527832 L 6.831900596618652 1.480102582718246e-07 L 16.39529991149902 1.480102582718246e-07 C 17.90195083618164 1.480102582718246e-07 19.12770080566406 1.225350141525269 19.12770080566406 2.731500148773193 L 19.12770080566406 16.38809967041016 C 19.12770080566406 17.89425086975098 17.90195083618164 19.11960029602051 16.39529991149902 19.11960029602051 Z"/></g><line class="b" x2="6.878" transform="translate(8.811 6.19)"/><line class="b" x2="9.629" transform="translate(6.06 10.317)"/><line class="b" x2="12.257" transform="translate(3.432 14.444)"/></g><g transform="translate(0 2.512)"><path class="c" d="M18,7.5v6.353" transform="translate(-14.824 -7.5)"/><path class="c" d="M7.5,18h6.353" transform="translate(-7.5 -14.824)"/></g></g></g></svg>