<svg xmlns="http://www.w3.org/2000/svg" width="71" height="61.254" viewBox="0 0 71 61.254">
  <g id="Group_24407" data-name="Group 24407" transform="translate(-397.218 -413.615)" opacity="0.58">
    <ellipse id="Ellipse_3854" data-name="Ellipse 3854" cx="26.5" cy="26" rx="26.5" ry="26" transform="translate(412.218 413.615)" fill="#d8a168" opacity="0.26"/>
    <rect id="Rectangle_149705" data-name="Rectangle 149705" width="9" height="30" transform="translate(408.218 443.615)" fill="#fff"/>
    <rect id="Rectangle_149706" data-name="Rectangle 149706" width="10" height="37" transform="translate(428.218 436.615)" fill="#fff"/>
    <rect id="Rectangle_149707" data-name="Rectangle 149707" width="9" height="49" transform="translate(448.218 424.615)" fill="#fff"/>
    <rect id="Rectangle_149708" data-name="Rectangle 149708" width="11" height="27" transform="translate(417.218 446.615)" fill="#dd5e57"/>
    <rect id="Rectangle_149709" data-name="Rectangle 149709" width="10" height="33" transform="translate(438.218 440.615)" fill="#dddc68"/>
    <path id="Path_69843" data-name="Path 69843" d="M401,462.484h8.848l4.424-5.53h6.636l3.318,4.424h8.848l8.848-8.848h8.848l3.318-5.53h7.742" transform="translate(0.541 3.643)" fill="none" stroke="#bdbdbd" stroke-miterlimit="10" stroke-width="2"/>
    <line id="Line_1479" data-name="Line 1479" y2="7" transform="translate(421.218 423.615)" fill="none" stroke="#bcc0c4" stroke-miterlimit="10" stroke-width="2"/>
    <line id="Line_1480" data-name="Line 1480" x1="8" transform="translate(417.218 427.615)" fill="none" stroke="#bcc0c4" stroke-miterlimit="10" stroke-width="2"/>
    <line id="Line_1481" data-name="Line 1481" y2="6" transform="translate(406.218 426.615)" fill="none" stroke="#bcc0c4" stroke-miterlimit="10" stroke-width="2"/>
    <line id="Line_1482" data-name="Line 1482" x1="7" transform="translate(403.218 430.615)" fill="none" stroke="#bcc0c4" stroke-miterlimit="10" stroke-width="2"/>
    <line id="Line_1483" data-name="Line 1483" y2="6" transform="translate(415.218 414.615)" fill="none" stroke="#bcc0c4" stroke-miterlimit="10" stroke-width="2"/>
    <line id="Line_1484" data-name="Line 1484" x1="6" transform="translate(411.218 417.615)" fill="none" stroke="#bcc0c4" stroke-miterlimit="10" stroke-width="2"/>
    <line id="Line_1485" data-name="Line 1485" x1="6" transform="translate(401.218 473.615)" fill="none" stroke="#bdbdbd" stroke-miterlimit="10" stroke-width="2"/>
    <line id="Line_1486" data-name="Line 1486" x1="2" transform="translate(397.218 473.615)" fill="none" stroke="#bdbdbd" stroke-miterlimit="10" stroke-width="2"/>
    <line id="Line_1487" data-name="Line 1487" x1="3" transform="translate(465.218 473.615)" fill="none" stroke="#bdbdbd" stroke-miterlimit="10" stroke-width="2"/>
    <line id="Line_1488" data-name="Line 1488" x1="6" transform="translate(458.218 473.615)" fill="none" stroke="#bdbdbd" stroke-miterlimit="10" stroke-width="2"/>
    <path id="Path_69844" data-name="Path 69844" d="M434.954,453.8V435H425v9.954" transform="translate(3.086 2.37)" fill="none" stroke="#bdbdbd" stroke-miterlimit="10" stroke-width="2"/>
    <path id="Path_69845" data-name="Path 69845" d="M425,468.848h9.954V460" transform="translate(3.086 5.021)" fill="none" stroke="#bdbdbd" stroke-miterlimit="10" stroke-width="2"/>
    <path id="Path_69846" data-name="Path 69846" d="M443.954,455v14.378H434" transform="translate(4.04 4.491)" fill="none" stroke="#bdbdbd" stroke-miterlimit="10" stroke-width="2"/>
    <path id="Path_69847" data-name="Path 69847" d="M434,439h9.954v11.06" transform="translate(4.04 2.794)" fill="none" stroke="#bdbdbd" stroke-miterlimit="10" stroke-width="2"/>
    <path id="Path_69848" data-name="Path 69848" d="M425.954,463v5.53H416" transform="translate(2.131 5.339)" fill="none" stroke="#bdbdbd" stroke-miterlimit="10" stroke-width="2"/>
    <path id="Path_69849" data-name="Path 69849" d="M416,444h9.954v14.378" transform="translate(2.131 3.324)" fill="none" stroke="#bdbdbd" stroke-miterlimit="10" stroke-width="2"/>
    <path id="Path_69850" data-name="Path 69850" d="M416.954,459v9.954H407V464.53" transform="translate(1.177 4.915)" fill="none" stroke="#bdbdbd" stroke-miterlimit="10" stroke-width="2"/>
    <path id="Path_69851" data-name="Path 69851" d="M407,459.909V440h9.954v14.378" transform="translate(1.177 2.9)" fill="none" stroke="#bdbdbd" stroke-miterlimit="10" stroke-width="2"/>
    <path id="Path_69852" data-name="Path 69852" d="M452.954,450v19.908H443" transform="translate(4.994 3.961)" fill="none" stroke="#bdbdbd" stroke-miterlimit="10" stroke-width="2"/>
    <path id="Path_69853" data-name="Path 69853" d="M452.954,446.121V424H443v16.59" transform="translate(4.994 1.204)" fill="none" stroke="#bdbdbd" stroke-miterlimit="10" stroke-width="2"/>
  </g>
</svg>
