<svg xmlns="http://www.w3.org/2000/svg" width="121.281" height="52.447" viewBox="0 0 121.281 52.447"><defs><style>.a{opacity:0.9;}.b{fill:#3f37ac;}.c{fill:#fff;}.d{fill:#514ab4;stroke:#fdfeff;stroke-linecap:round;stroke-linejoin:round;stroke-width:2px;}.e,.g{fill:none;}.e{stroke:#514ab4;stroke-width:2.5px;}.f{stroke:none;}</style></defs><g class="a"><g transform="translate(84.681 15.847)"><path class="b" d="M191.851,166.169a10.376,10.376,0,1,1,10.377-10.376A10.388,10.388,0,0,1,191.851,166.169Zm0-18.389a8.013,8.013,0,1,0,8.014,8.013A8.022,8.022,0,0,0,191.851,147.779Z" transform="translate(-181.475 -145.416)"/></g><path class="b" d="M213.176,155.316v-8.846l-5.859-.84a20.736,20.736,0,0,0-2.237-5.423l3.544-4.728-6.255-6.256-4.73,3.552a20.275,20.275,0,0,0-5.423-2.246l-.84-5.859H182.53l-.84,5.851a20.046,20.046,0,0,0-2.994,1.016l0,.016a19.964,19.964,0,0,0-2.426,1.221l-4.73-3.552-6.255,6.256,3.545,4.728a20.738,20.738,0,0,0-2.238,5.423l-5.859.84v8.846l5.859.84a20.37,20.37,0,0,0,2.245,5.416l-3.552,4.736,6.255,6.256,4.738-3.544a19.827,19.827,0,0,0,2.42,1.213l0,.009c.212.09.43.163.645.247.154.059.306.121.461.176.335.121.676.23,1.017.334.034.011.069.024.1.034v0c.254.076.509.162.766.228l.84,5.859h8.846l.84-5.859a20.622,20.622,0,0,0,5.416-2.238l4.737,3.544,6.255-6.256-3.552-4.736a20.345,20.345,0,0,0,2.245-5.416Zm-7.974-.458A18.462,18.462,0,0,1,202.658,161l-.451.687,3.3,4.4-3.361,3.361-4.4-3.3-.687.451a18.431,18.431,0,0,1-6.148,2.544l-.8.176-.779,5.439h-4.751L183.8,169.3l-.81-.168a18.372,18.372,0,0,1-2.155-.614c-.316-.108-.628-.223-.936-.348-.083-.034-.161-.07-.242-.1-.285-.119-.568-.241-.846-.374-.4-.193-.788-.4-1.171-.62-.267-.153-.533-.308-.792-.476l-.688-.451-4.4,3.3-3.361-3.361,3.3-4.4-.45-.687a18.463,18.463,0,0,1-2.544-6.141l-.168-.81-5.446-.779v-4.751l5.453-.779.168-.81a18.29,18.29,0,0,1,2.537-6.141l.45-.7-3.3-4.392,3.361-3.361,4.4,3.3.688-.451c.259-.168.526-.324.794-.477.309-.18.628-.341.946-.5a18.783,18.783,0,0,1,2.338-.973v-.006a18.281,18.281,0,0,1,2.072-.584l.8-.176.779-5.439h4.751l.779,5.446.8.176a18.259,18.259,0,0,1,6.148,2.536l.687.451,4.4-3.3,3.361,3.361-3.3,4.392.451.7a18.288,18.288,0,0,1,2.536,6.141l.169.81,5.452.779v4.751l-5.446.779Z" transform="translate(-91.895 -124.67)"/><g transform="translate(15.847 15.847)"><path class="b" d="M101.739,166.169a10.376,10.376,0,1,1,10.376-10.376A10.388,10.388,0,0,1,101.739,166.169Zm0-18.389a8.013,8.013,0,1,0,8.014,8.013A8.022,8.022,0,0,0,101.739,147.779Z" transform="translate(-91.363 -145.416)"/></g><path class="b" d="M123.064,155.316v-8.846l-5.859-.84a20.738,20.738,0,0,0-2.238-5.423l3.545-4.728-6.256-6.256-4.729,3.552a20.29,20.29,0,0,0-5.423-2.246l-.839-5.859H92.418l-.84,5.851a20.016,20.016,0,0,0-2.994,1.016l0,.016a20.022,20.022,0,0,0-2.426,1.221l-4.729-3.552-6.255,6.256,3.544,4.728a20.764,20.764,0,0,0-2.238,5.423l-5.858.84v8.846l5.858.84a20.372,20.372,0,0,0,2.246,5.416l-3.552,4.736,6.255,6.256,4.737-3.544a19.881,19.881,0,0,0,2.42,1.213l0,.009c.212.09.43.163.645.247.154.059.306.121.461.176.336.121.676.23,1.017.334.034.011.069.024.1.034v0c.255.076.509.162.767.228l.84,5.859h8.846l.839-5.859a20.622,20.622,0,0,0,5.416-2.238l4.737,3.544,6.256-6.256-3.553-4.736a20.347,20.347,0,0,0,2.246-5.416Zm-7.975-.458A18.446,18.446,0,0,1,112.546,161l-.451.687,3.3,4.4-3.362,3.361-4.4-3.3-.687.451a18.431,18.431,0,0,1-6.148,2.544l-.8.176-.778,5.439H94.465l-.778-5.454-.81-.168a18.358,18.358,0,0,1-2.154-.614c-.316-.108-.628-.223-.937-.348-.082-.034-.161-.07-.241-.1-.285-.119-.568-.241-.846-.374-.4-.193-.788-.4-1.171-.62-.267-.153-.532-.308-.792-.476l-.687-.451-4.4,3.3-3.361-3.361,3.3-4.4L81.135,161a18.446,18.446,0,0,1-2.544-6.141l-.169-.81-5.446-.779v-4.751l5.453-.779.169-.81a18.272,18.272,0,0,1,2.536-6.141l.451-.7-3.3-4.392,3.361-3.361,4.4,3.3.687-.451c.26-.168.527-.324.794-.477.309-.18.628-.341.946-.5a18.775,18.775,0,0,1,2.337-.973v-.006a18.3,18.3,0,0,1,2.072-.584l.8-.176.778-5.439h4.752l.778,5.446.8.176a18.259,18.259,0,0,1,6.148,2.536l.687.451,4.4-3.3L115.4,135.7l-3.3,4.392.451.7a18.272,18.272,0,0,1,2.536,6.141l.169.81,5.453.779v4.751l-5.446.779Z" transform="translate(-70.617 -124.67)"/><circle class="c" cx="24.062" cy="24.062" r="24.062" transform="translate(36.576 2.162)"/><g transform="translate(42.094 7.679)"><path class="c" d="M157.381,166.38a18.545,18.545,0,1,1,0-26.227A18.546,18.546,0,0,1,157.381,166.38Z" transform="translate(-125.723 -134.722)"/><path class="d" d="M153,145.477l-12.755,12.776-7.133-7.135-3.344,3.342L136.9,161.6l3.342,3.342,16.12-16.094Z" transform="translate(-124.518 -135.682)"/></g><g class="e" transform="translate(39.113 5.497)"><circle class="f" cx="21.5" cy="21.5" r="21.5"/><circle class="g" cx="21.5" cy="21.5" r="20.25"/></g></g></svg>