<svg xmlns="http://www.w3.org/2000/svg" width="24.221" height="25.206" viewBox="0 0 24.221 25.206"><defs><style>.a{fill:#ffffff;stroke:#ffffff;stroke-width:0.5px;}</style></defs><g transform="translate(2017.312 -953.75)"><path class="a" d="M102.834,159.343h-.008a.359.359,0,0,1-.351-.367,13.175,13.175,0,0,0-2.038-7.8.36.36,0,1,1,.589-.413,13.89,13.89,0,0,1,2.169,8.227A.359.359,0,0,1,102.834,159.343Z" transform="translate(-2109.816 819.363)"/><path class="a" d="M132.588,160.44a.36.36,0,0,1-.359-.352,14.745,14.745,0,0,1,1.86-7.853.359.359,0,0,1,.615.372,14.033,14.033,0,0,0-1.756,7.465.359.359,0,0,1-.352.367Z" transform="translate(-2135.943 818.174)"/><path class="a" d="M97.566,113.116a5.829,5.829,0,0,1-2.786-10.949.359.359,0,0,1,.532.316v5.169h4.508v-5.169a.359.359,0,0,1,.532-.316,5.829,5.829,0,0,1-2.786,10.949Zm-2.973-9.984a5.109,5.109,0,1,0,5.946,0v4.88a.36.36,0,0,1-.36.36H94.953a.36.36,0,0,1-.36-.36Z" transform="translate(-2102.735 859.135)"/><path class="a" d="M74.4,82.665a.36.36,0,0,1-.178-.672,8.686,8.686,0,0,0,1.968-1.533.36.36,0,0,1,.384-.088l3.2,1.181,1.2-2.076-2.608-2.168a.359.359,0,0,1-.115-.379,8.653,8.653,0,0,0,.013-4.874.36.36,0,0,1,.115-.377l2.6-2.157-1.2-2.076L76.619,68.61a.36.36,0,0,1-.385-.09,8.622,8.622,0,0,0-4.243-2.46.36.36,0,0,1-.27-.289l-.567-3.3h-2.4l-.566,3.3a.36.36,0,0,1-.27.289,8.622,8.622,0,0,0-4.243,2.46.359.359,0,0,1-.385.09l-3.156-1.166-1.2,2.076,2.6,2.157a.36.36,0,0,1,.116.377,8.649,8.649,0,0,0,.013,4.874.359.359,0,0,1-.115.379l-2.609,2.168,1.2,2.076,3.2-1.181a.359.359,0,0,1,.384.088,8.693,8.693,0,0,0,1.779,1.422.36.36,0,1,1-.371.616,9.412,9.412,0,0,1-1.76-1.371L60.1,82.331a.359.359,0,0,1-.436-.157l-1.5-2.6a.359.359,0,0,1,.081-.456L60.906,76.9a9.365,9.365,0,0,1-.012-4.822l-2.65-2.2a.359.359,0,0,1-.081-.456l1.5-2.6a.359.359,0,0,1,.436-.157l3.221,1.19a9.338,9.338,0,0,1,4.2-2.434l.578-3.373a.359.359,0,0,1,.354-.3h3a.359.359,0,0,1,.354.3l.578,3.373a9.335,9.335,0,0,1,4.2,2.434l3.221-1.19a.359.359,0,0,1,.436.157l1.5,2.6a.36.36,0,0,1-.082.456l-2.65,2.2A9.37,9.37,0,0,1,79,76.9l2.662,2.212a.36.36,0,0,1,.082.456l-1.5,2.6a.359.359,0,0,1-.436.157l-3.263-1.205a9.389,9.389,0,0,1-1.965,1.492A.357.357,0,0,1,74.4,82.665Z" transform="translate(-2075.156 892.252)"/></g></svg>