<svg xmlns="http://www.w3.org/2000/svg" width="29.412" height="31.929" viewBox="0 0 29.412 31.929">
  <g id="Group_24067" data-name="Group 24067" transform="translate(-374.25 -290.25)">
    <path id="Path_69762" data-name="Path 69762" d="M397.857,302.429v-7.143c0-2.367-5.116-4.286-11.429-4.286S375,292.919,375,295.286v7.143c0,2.367,5.116,4.286,11.429,4.286A29.3,29.3,0,0,0,390,306.5" transform="translate(0)" fill="none" stroke="#3a3a38" stroke-miterlimit="10" stroke-width="1.5"/>
    <path id="Path_69763" data-name="Path 69763" d="M375,297c0,2.367,5.116,4.286,11.429,4.286s11.429-1.919,11.429-4.286" transform="translate(0 -1.714)" fill="none" stroke="#3a3a38" stroke-miterlimit="10" stroke-width="1.5"/>
    <path id="Path_69764" data-name="Path 69764" d="M375,308v6.429c0,2.367,5.116,4.286,11.429,4.286" transform="translate(0 -4.857)" fill="none" stroke="#3a3a38" stroke-miterlimit="10" stroke-width="1.5"/>
    <path id="Path_69765" data-name="Path 69765" d="M375,318v6.429c0,2.367,5.116,4.286,11.429,4.286a28.1,28.1,0,0,0,5-.431" transform="translate(0 -7.714)" fill="none" stroke="#3a3a38" stroke-miterlimit="10" stroke-width="1.5"/>
    <path id="Path_69766" data-name="Path 69766" d="M403.029,317.857V310h-5.714v7.857H393.1l7.071,8.571,7.071-8.571Z" transform="translate(-5.172 -5.429)" fill="#83beec" stroke="#3a3a38" stroke-miterlimit="10" stroke-width="1.5"/>
  </g>
</svg>
