<svg xmlns="http://www.w3.org/2000/svg" width="14.481" height="16" viewBox="0 0 14.481 16"><g transform="translate(-180 -48)"><g transform="translate(180 48)"><path d="M8.541,1.2a.6.6,0,0,0,.6-.6.582.582,0,0,0-.6-.6H3.685a.582.582,0,0,0-.6.6.6.6,0,0,0,.6.6Z" transform="translate(1.129 0)"/><path d="M13.847,2.119H.634A.609.609,0,0,0,.179,2.3.622.622,0,0,0,0,2.759a.637.637,0,0,0,.633.64h.95V13.551a1.91,1.91,0,0,0,1.9,1.919H11a1.89,1.89,0,0,0,1.343-.562,1.929,1.929,0,0,0,.556-1.357V3.4h.95a.637.637,0,0,0,.633-.64A.622.622,0,0,0,14.3,2.3.609.609,0,0,0,13.847,2.119ZM11.631,13.551a.622.622,0,0,1-.179.459.609.609,0,0,1-.454.181H3.483a.609.609,0,0,1-.454-.181.622.622,0,0,1-.179-.459V3.4h8.781Z" transform="translate(0 0.53)"/><path d="M4.5,10.463a.622.622,0,0,0,.6-.6V5.547a.6.6,0,0,0-.6-.6.582.582,0,0,0-.6.6V9.861A.6.6,0,0,0,4.5,10.463Z" transform="translate(1.252 1.739)"/><path d="M6.751,10.463a.6.6,0,0,0,.6-.6V5.547a.582.582,0,0,0-.6-.6.6.6,0,0,0-.6.6V9.861A.622.622,0,0,0,6.751,10.463Z" transform="translate(1.974 1.739)"/></g></g></svg>