<svg xmlns="http://www.w3.org/2000/svg" width="71.21" height="71.21" viewBox="0 0 71.21 71.21"><defs><style>.a{fill:#fff;}.b{fill:#707070;}.c,.d{stroke:none;}.d{fill:#707070;}</style></defs><g transform="translate(-641.903 -434)"><g class="a" transform="translate(641.903 434)"><path class="c" d="M 35.60498046875 69.2099609375 C 31.06745910644531 69.2099609375 26.66672515869141 68.32172393798828 22.5250129699707 66.56993865966797 C 18.52360343933105 64.87747955322266 14.92953586578369 62.45415878295898 11.84266948699951 59.36729049682617 C 8.755803108215332 56.28042602539062 6.332480430603027 52.68635940551758 4.64002513885498 48.6849479675293 C 2.888236045837402 44.54323577880859 2.00000262260437 40.14250183105469 2.00000262260437 35.60498046875 C 2.00000262260437 31.06745910644531 2.888236045837402 26.66672515869141 4.64002513885498 22.5250129699707 C 6.332480430603027 18.52360343933105 8.755803108215332 14.92953586578369 11.84266948699951 11.84266948699951 C 14.92953586578369 8.755803108215332 18.52360343933105 6.332480430603027 22.5250129699707 4.64002513885498 C 26.66672515869141 2.888236045837402 31.06745910644531 2.00000262260437 35.60498046875 2.00000262260437 C 40.14250183105469 2.00000262260437 44.54323577880859 2.888236045837402 48.6849479675293 4.64002513885498 C 52.68635940551758 6.332480430603027 56.28042602539062 8.755803108215332 59.36729049682617 11.84266948699951 C 62.45415878295898 14.92953586578369 64.87747955322266 18.52360343933105 66.56993865966797 22.5250129699707 C 68.32172393798828 26.66672515869141 69.2099609375 31.06745910644531 69.2099609375 35.60498046875 C 69.2099609375 40.14250183105469 68.32172393798828 44.54323577880859 66.56993865966797 48.6849479675293 C 64.87747955322266 52.68635940551758 62.45415878295898 56.28042602539062 59.36729049682617 59.36729049682617 C 56.28042602539062 62.45415878295898 52.68635940551758 64.87747955322266 48.6849479675293 66.56993865966797 C 44.54323577880859 68.32172393798828 40.14250183105469 69.2099609375 35.60498046875 69.2099609375 Z"/><path class="d" d="M 35.60498046875 3.999992370605469 C 31.33656692504883 3.999992370605469 27.19796752929688 4.835067749023438 23.30411911010742 6.482032775878906 C 19.54110717773438 8.073654174804688 16.16071701049805 10.35304260253906 13.25688171386719 13.25688171386719 C 10.35304260253906 16.16071701049805 8.073654174804688 19.54110717773438 6.482032775878906 23.30411911010742 C 4.835067749023438 27.19796752929688 3.999992370605469 31.33656692504883 3.999992370605469 35.60498046875 C 3.999992370605469 39.87339019775391 4.835067749023438 44.01199340820312 6.482032775878906 47.90583038330078 C 8.073654174804688 51.66885375976562 10.35304260253906 55.04923248291016 13.25688171386719 57.95306777954102 C 16.16071701049805 60.85690689086914 19.54109191894531 63.13629150390625 23.30411911010742 64.72792053222656 C 27.19796752929688 66.3748779296875 31.33656692504883 67.20995330810547 35.60498046875 67.20995330810547 C 39.87339019775391 67.20995330810547 44.01199340820312 66.3748779296875 47.90584564208984 64.72792053222656 C 51.66885375976562 63.13629150390625 55.04923248291016 60.85690689086914 57.95306777954102 57.95306777954102 C 60.85690689086914 55.04923248291016 63.13629150390625 51.66885375976562 64.72792053222656 47.90584564208984 C 66.3748779296875 44.01199340820312 67.20995330810547 39.87339019775391 67.20995330810547 35.60498046875 C 67.20995330810547 31.33656692504883 66.3748779296875 27.19796752929688 64.72792053222656 23.30411911010742 C 63.13629150390625 19.54109191894531 60.85690689086914 16.16071701049805 57.95306777954102 13.25688171386719 C 55.04923248291016 10.35304260253906 51.66885375976562 8.073654174804688 47.90583038330078 6.482032775878906 C 44.01199340820312 4.835067749023438 39.87339019775391 3.999992370605469 35.60498046875 3.999992370605469 M 35.60498046875 -7.62939453125e-06 C 55.26906585693359 -7.62939453125e-06 71.20995330810547 15.94089126586914 71.20995330810547 35.60498046875 C 71.20995330810547 55.26906585693359 55.26906585693359 71.20995330810547 35.60498046875 71.20995330810547 C 15.94089126586914 71.20995330810547 -7.62939453125e-06 55.26906585693359 -7.62939453125e-06 35.60498046875 C -7.62939453125e-06 15.94089126586914 15.94089126586914 -7.62939453125e-06 35.60498046875 -7.62939453125e-06 Z"/></g><g transform="translate(664.912 455.186)"><g transform="translate(0 0)"><g transform="translate(0 0)"><path class="b" d="M13.642,2.33a1.165,1.165,0,0,0,1.165-1.165A1.126,1.126,0,0,0,13.642,0H4.248A1.126,1.126,0,0,0,3.083,1.165,1.165,1.165,0,0,0,4.248,2.33Z" transform="translate(4.373 0)"/><path class="b" d="M25.466,2.12H1.165A1.126,1.126,0,0,0,0,3.284,1.165,1.165,0,0,0,1.165,4.449H2.912V22.927a3.494,3.494,0,0,0,3.494,3.494h13.82a3.494,3.494,0,0,0,3.494-3.494V4.449h1.747a1.165,1.165,0,0,0,1.165-1.165A1.126,1.126,0,0,0,25.466,2.12ZM21.39,22.927a1.126,1.126,0,0,1-1.165,1.165H6.406a1.126,1.126,0,0,1-1.165-1.165V4.449H21.39Z" transform="translate(0 3.005)"/><path class="b" d="M5.066,15.62a1.2,1.2,0,0,0,1.165-1.165V6.11A1.165,1.165,0,0,0,5.066,4.945,1.126,1.126,0,0,0,3.9,6.11v8.346A1.165,1.165,0,0,0,5.066,15.62Z" transform="translate(5.531 7.012)"/><path class="b" d="M7.313,15.62a1.165,1.165,0,0,0,1.165-1.165V6.11A1.126,1.126,0,0,0,7.313,4.945,1.165,1.165,0,0,0,6.149,6.11v8.346A1.2,1.2,0,0,0,7.313,15.62Z" transform="translate(8.72 7.012)"/></g></g></g></g></svg>