<svg xmlns="http://www.w3.org/2000/svg" width="19.765" height="22.513" viewBox="0 0 19.765 22.513">
  <g id="Group_15029" data-name="Group 15029" transform="translate(0.4 0.4)">
    <path id="Path_36968" data-name="Path 36968" d="M305.6,403.577a1.8,1.8,0,0,0,1.795,1.794h10.3a1.794,1.794,0,0,0,1.795-1.794l.685-13.357H304.918Zm9.782-2.1.448-8.218a.739.739,0,0,1,1.476.039c0,.014,0,.027,0,.041l-.448,8.218a.739.739,0,0,1-1.476-.04C315.384,401.5,315.384,401.486,315.385,401.472Zm-3.575-8.184a.739.739,0,0,1,1.478,0v8.23a.739.739,0,1,1-1.478,0Zm-3.324-.732a.739.739,0,0,1,.778.7l.448,8.218c0,.014,0,.027,0,.04a.739.739,0,0,1-1.476.04l-.448-8.218c0-.014,0-.027,0-.041A.738.738,0,0,1,308.487,392.557Z" transform="translate(-303.067 -383.658)" fill="none" stroke="#797979" stroke-width="0.8"/>
    <path id="Path_36969" data-name="Path 36969" d="M275.238,225.406h-4.786a3.409,3.409,0,0,0-6.755,0H258.91a1.318,1.318,0,0,0,0,2.637h16.328a1.318,1.318,0,1,0,0-2.637Zm-8.163-1.3a1.762,1.762,0,0,1,1.7,1.3h-3.4A1.762,1.762,0,0,1,267.075,224.108Z" transform="translate(-257.592 -222.461)" fill="none" stroke="#797979" stroke-width="0.8"/>
  </g>
</svg>
