<svg xmlns="http://www.w3.org/2000/svg" width="24" height="36.738" viewBox="0 0 24 36.738">
  <g id="Group_24996" data-name="Group 24996" transform="translate(-1358.896 -833.848)">
    <path id="Path_75452" data-name="Path 75452" d="M1382.15,862.479a.206.206,0,0,1-.073.083.193.193,0,0,1-.107.033.177.177,0,0,1-.1-.033h0l-6.2-4.046a24.2,24.2,0,0,0,1.734-5.54l3.5,4.42a.134.134,0,0,0,.025.03,1.931,1.931,0,0,1,.515,1l.72,3.944h0a.139.139,0,0,1,0,.039.176.176,0,0,1-.014.071Zm-7.972-2.6h0a.532.532,0,0,1-.466.28h-5.632a.535.535,0,0,1-.466-.28h0c-.256-.466-.487-.929-.7-1.381h0a23.6,23.6,0,0,1-1.811-5.656c-.023-.129-.045-.254-.065-.376h11.709c-.02.122-.042.247-.065.376h0a23.492,23.492,0,0,1-1.811,5.655h0c-.21.452-.441.915-.7,1.381Zm-.274,1.213c.015.192.033.464.053.783.03.48.065,1.066.1,1.659s.085,1.19.137,1.7c.025.26.039.509.039.745a5.778,5.778,0,0,1-.576,2.592,4.752,4.752,0,0,1-.323.562c.013-.207.022-.441.022-.711a3.009,3.009,0,0,0-.214-1.172,2.136,2.136,0,0,0-.358-.583,1.926,1.926,0,0,0-.584-.461,1.379,1.379,0,0,0-.315-.121.366.366,0,0,0-.445.357,7.4,7.4,0,0,1-.365,2.367,4.535,4.535,0,0,1-.172.445c-.03-.137-.065-.275-.1-.412a12.213,12.213,0,0,0-.687-1.773c-.227-.481-.407-.8-.41-.806a.365.365,0,0,0-.684.179,2.976,2.976,0,0,1-.105.8,2.849,2.849,0,0,1-.373.816l-.012.017c-.048-.128-.1-.25-.153-.366-.094-.2-.192-.387-.284-.563a5.5,5.5,0,0,1-.355-.777,3.306,3.306,0,0,1-.182-.955v0c0-.067-.005-.143-.005-.227,0-.3.022-.7.06-1.121.055-.64.145-1.353.239-1.957.046-.3.1-.578.14-.8.023-.112.045-.21.065-.293.011-.044.021-.083.031-.117h5.622a1.244,1.244,0,0,0,.172-.012c.005.047.012.121.02.214Zm-5.719,7.5v0Zm-8.261-6.026a.184.184,0,0,1-.1.033.182.182,0,0,1-.072-.015.214.214,0,0,1-.09-.07.177.177,0,0,1-.032-.1.132.132,0,0,1,0-.039l.72-3.944a1.94,1.94,0,0,1,.515-1,.238.238,0,0,0,.027-.03l3.494-4.42a24.314,24.314,0,0,0,1.736,5.54l-6.2,4.046Zm10.972-27.911a25.728,25.728,0,0,1,3.877,6.309l.427,1.06h-8.608l.426-1.06a25.693,25.693,0,0,1,3.878-6.309Zm11.985,27.586-.722-3.944a2.664,2.664,0,0,0-.7-1.361l-3.909-4.946.158-1.85v-.052a27.044,27.044,0,0,0-1.629-7.825h0l0-.01h0l-.63-1.567,0-.011a26.167,26.167,0,0,0-4.1-6.62.594.594,0,0,0-.687-.151.58.58,0,0,0-.206.151h0a26.13,26.13,0,0,0-4.1,6.62l-.005.011-.63,1.567v.006l0,0a27.506,27.506,0,0,0-.845,2.74.363.363,0,0,0,.263.443.367.367,0,0,0,.446-.263h0c.215-.854.466-1.665.738-2.428h9.175a26.327,26.327,0,0,1,1.5,7.349l-.14,1.633h-11.889l-.14-1.633c.015-.268.035-.535.058-.8a.365.365,0,1,0-.728-.064h0c-.025.279-.045.561-.062.847a.444.444,0,0,0,0,.052l.156,1.85-3.909,4.946a2.663,2.663,0,0,0-.7,1.361l-.721,3.944a.987.987,0,0,0-.015.171.922.922,0,0,0,1.427.767h0l6.112-3.988c.167.344.345.691.537,1.041a1.265,1.265,0,0,0,.416.452c-.021.075-.041.157-.063.251-.055.243-.113.554-.17.9-.085.526-.168,1.145-.228,1.739s-.1,1.164-.1,1.6c0,.093,0,.181.007.264a4.021,4.021,0,0,0,.183,1.05,4.82,4.82,0,0,0,.25.621c.137.285.282.539.411.806a4.36,4.36,0,0,1,.326.9.443.443,0,0,0,.064.144.428.428,0,0,0,.17.15.45.45,0,0,0,.2.049.455.455,0,0,0,.232-.063.449.449,0,0,0,.175-.191h0a.8.8,0,0,1,.048-.076c.052-.074.135-.184.227-.321a3.782,3.782,0,0,0,.424-.823l.025-.073c.04.09.08.181.12.277a9.951,9.951,0,0,1,.416,1.153,4.242,4.242,0,0,1,.185,1.094.451.451,0,0,0,.216.379.443.443,0,0,0,.235.067.459.459,0,0,0,.2-.047.445.445,0,0,0,.167-.143v0a5.276,5.276,0,0,0,.665-1.356,7.824,7.824,0,0,0,.382-1.985,1.4,1.4,0,0,1,.3.427,2.21,2.21,0,0,1,.177.936,5.978,5.978,0,0,1-.145,1.542h0a.426.426,0,0,0-.017.125.442.442,0,0,0,.038.182.465.465,0,0,0,.169.2.45.45,0,0,0,.243.071.43.43,0,0,0,.167-.032.473.473,0,0,0,.146-.095h0a5.544,5.544,0,0,0,1.089-1.515,6.539,6.539,0,0,0,.649-2.917q0-.393-.042-.819c-.075-.748-.14-1.729-.193-2.579-.025-.424-.049-.815-.07-1.131-.01-.158-.02-.3-.03-.412s-.019-.207-.027-.277a.374.374,0,0,0-.072-.172,1.326,1.326,0,0,0,.287-.355c.19-.35.37-.7.535-1.041l6.112,3.988h0a.905.905,0,0,0,.5.151.924.924,0,0,0,.35-.068.945.945,0,0,0,.409-.326.91.91,0,0,0,.167-.524.987.987,0,0,0-.015-.171Z" fill="#ffffff"/>
    <path id="Path_75453" data-name="Path 75453" d="M1370.835,844.6h.061a1.859,1.859,0,0,1,1.858,1.857c0,.02,0,.041,0,.061a1.815,1.815,0,0,1-.157.685,1.874,1.874,0,0,1-.652.785,1.829,1.829,0,0,1-.985.325l-.062,0a1.859,1.859,0,0,1-1.857-1.858V846.4a1.822,1.822,0,0,1,.157-.683,1.863,1.863,0,0,1,.653-.785,1.834,1.834,0,0,1,.986-.326Zm-2.073.394a2.568,2.568,0,0,0-.453,1.378c0,.027,0,.057,0,.084a2.589,2.589,0,0,0,2.589,2.589c.029,0,.055,0,.084,0h0a2.556,2.556,0,0,0,.959-.219,2.6,2.6,0,0,0,1.544-2.285v-.083a2.588,2.588,0,0,0-2.588-2.589c-.028,0-.056,0-.086,0a2.556,2.556,0,0,0-.957.218,2.616,2.616,0,0,0-1.091.907Z" fill="#ffffff"/>
  </g>
</svg>
