<svg xmlns="http://www.w3.org/2000/svg" xmlns:xlink="http://www.w3.org/1999/xlink" width="954" height="495" viewBox="0 0 954 495"><defs><style>.a{fill:#eee;}.b,.m{font-size:13px;}.b,.f{font-family:Graphik-Medium, Graphik;font-weight:500;}.c,.y{fill:#008eff;}.d,.g,.n,.o,.p,.q,.r,.s,.u,.v,.w,.x{fill:none;}.d,.y{stroke:#008eff;}.d{stroke-width:2px;stroke-dasharray:4;}.e{fill:#fff;}.f{font-size:12px;}.g{stroke:#c9c9c9;}.g,.u{opacity:0.51;}.h{fill:#ffd9e8;}.i{fill:#d3ebff;}.j{fill:#e2f3e6;}.k{fill:#f0e9db;}.l{fill:#d2fbff;}.m{font-family:Graphik-Regular, Graphik;}.n{stroke:#fd1e76;}.n,.o,.p,.q,.r,.s{stroke-linecap:round;}.n,.o,.p,.q,.r,.v{stroke-linejoin:round;}.n,.o,.p,.q,.r,.v,.w,.x{stroke-width:1.2px;}.o,.w{stroke:#008cff;}.p,.v{stroke:#42b65c;}.q,.x{stroke:#ce9222;}.r{stroke:#02bac9;}.s{stroke:#e3e3e3;}.t{fill:#003aff;font-size:14px;font-family:Graphik-Semibold, Graphik;font-weight:600;}.u{stroke:#d6d6d6;}.w,.x{stroke-miterlimit:10;}.y{stroke-width:0.3px;}.z{filter:url(#g);}.aa{filter:url(#e);}.ab{filter:url(#c);}.ac{filter:url(#a);}</style><filter id="a" x="851" y="67" width="78" height="259" filterUnits="userSpaceOnUse"><feOffset dy="3" input="SourceAlpha"/><feGaussianBlur stdDeviation="6" result="b"/><feFlood flood-opacity="0.122"/><feComposite operator="in" in2="b"/><feComposite in="SourceGraphic"/></filter><filter id="c" x="178" y="52" width="597" height="143" filterUnits="userSpaceOnUse"><feOffset input="SourceAlpha"/><feGaussianBlur stdDeviation="6" result="d"/><feFlood flood-opacity="0.102"/><feComposite operator="in" in2="d"/><feComposite in="SourceGraphic"/></filter><filter id="e" x="283" y="210" width="391" height="143" filterUnits="userSpaceOnUse"><feOffset input="SourceAlpha"/><feGaussianBlur stdDeviation="6" result="f"/><feFlood flood-opacity="0.102"/><feComposite operator="in" in2="f"/><feComposite in="SourceGraphic"/></filter><filter id="g" x="33" y="111" width="97" height="97" filterUnits="userSpaceOnUse"><feOffset input="SourceAlpha"/><feGaussianBlur stdDeviation="6" result="h"/><feFlood flood-opacity="0.102"/><feComposite operator="in" in2="h"/><feComposite in="SourceGraphic"/></filter></defs><rect class="a" width="954" height="34" rx="9" transform="translate(0 461)"/><rect class="a" width="954" height="34" rx="9" transform="translate(0 398)"/><rect class="a" width="954" height="35" rx="9"/><text class="b" transform="translate(477 483)"><tspan x="-115.979" y="0" xml:space="preserve">Continuous  Logging  and Monitoring</tspan></text><text class="b" transform="translate(477 420)"><tspan x="-154.941" y="0">Governance, Metadata management and Security</tspan></text><text class="b" transform="translate(455 21)"><tspan x="-83.09" y="0">Requirement Management</tspan></text><g transform="translate(44 70)"><circle class="c" cx="3.5" cy="3.5" r="3.5" transform="translate(112 86)"/><line class="d" x2="709.107" transform="translate(116.5 33.31)"/><line class="d" x2="708.26" transform="translate(117.5 198.494)"/><line class="d" y2="165" transform="translate(114.832 33.5)"/><g class="ac" transform="matrix(1, 0, 0, 1, -44, -70)"><rect class="e" width="42" height="223" rx="9" transform="translate(869 82)"/></g><text class="f" transform="translate(842 124) rotate(90)"><tspan x="-61.206" y="0">Artifact Management</tspan></text><g class="ab" transform="matrix(1, 0, 0, 1, -44, -70)"><rect class="e" width="561" height="107" rx="9" transform="translate(196 70)"/></g><g transform="translate(189.02 15)"><line class="g" x2="410.392" transform="translate(40.436 26.249)"/><circle class="h" cx="24.5" cy="24.5" r="24.5" transform="translate(-0.02 0)"/><circle class="i" cx="24.5" cy="24.5" r="24.5" transform="translate(109.98 0)"/><circle class="j" cx="24.5" cy="24.5" r="24.5" transform="translate(218.98 0)"/><circle class="k" cx="24.5" cy="24.5" r="24.5" transform="translate(328.98 0)"/><circle class="l" cx="24.5" cy="24.5" r="24.5" transform="translate(437.98 0)"/><text class="m" transform="translate(8.98 69)"><tspan x="0" y="0">Build</tspan></text><text class="m" transform="translate(109.98 69)"><tspan x="0" y="0">Security</tspan></text><text class="m" transform="translate(231.98 69)"><tspan x="0" y="0">Test</tspan></text><text class="m" transform="translate(331.98 69)"><tspan x="0" y="0">Deploy</tspan></text><text class="m" transform="translate(434.98 69)"><tspan x="0" y="0">Onboard</tspan></text><g transform="translate(14.102 13.649)"><g transform="translate(9.87 9.408)"><path class="n" d="M516.853,122.944l.447.447a3.12,3.12,0,1,1-4.413,4.413l-.447-.447Z" transform="translate(-506.153 -116.709)"/><path class="n" d="M486.618,94.349a1.288,1.288,0,0,0,2.2.911l.05-.05,3.47,3.418-4.413,4.413-3.47-3.418.05-.05a1.287,1.287,0,1,0-1.82-1.82l-.05.05-1-1,4.413-4.413,1,1-.05.05A1.288,1.288,0,0,0,486.618,94.349Z" transform="translate(-481.635 -92.393)"/></g><g transform="translate(1.911 1.396)"><path class="n" d="M453.457,62.694l-7.408-7.371,0,0-.545-1.184-1.847-1.009-1.021,1.021L443.644,56l1.182.546,7.408,7.371" transform="translate(-442.635 -53.133)"/></g><path class="n" d="M487.809,57.1l4.213-4.215.034.034a3.236,3.236,0,0,0,4.62-3.862.238.238,0,0,0-.393-.09l-1.011,1.011a.623.623,0,0,1-.882,0l-1.329-1.237a.623.623,0,0,1,0-.882l1.011-1.011a.238.238,0,0,0-.09-.393,3.236,3.236,0,0,0-3.864,4.618l.034.034-4.172,4.173" transform="translate(-475.224 -46.294)"/><path class="n" d="M442.8,96.346l-4.715,4.716-.034-.034a3.236,3.236,0,0,0-4.62,3.862.238.238,0,0,0,.393.09l1.011-1.011a.623.623,0,0,1,.882,0l1.329,1.237a.624.624,0,0,1,0,.882l-1.011,1.011a.238.238,0,0,0,.089.393,3.236,3.236,0,0,0,3.864-4.618l-.034-.034,4.673-4.675" transform="translate(-433.268 -86.132)"/></g><g transform="translate(119.596 17.399)"><circle class="o" cx="6.098" cy="6.098" r="6.098" transform="translate(18.091 2.367)"/><circle class="o" cx="3.752" cy="3.752" r="3.752" transform="translate(20.438 4.714)"/><circle class="o" cx="6.098" cy="6.098" r="6.098" transform="translate(0 2.367)"/><circle class="o" cx="3.752" cy="3.752" r="3.752" transform="translate(2.347 4.714)"/><path class="o" d="M77.164,447.568a6.1,6.1,0,0,0-5.948-7.442c-.052,0-.1,0-.157,0l-.1-.124A8.29,8.29,0,0,1,72,439.089c.777-.573,2.523-1.586,3.594-1.2,1.252.457,1.635,2.656,1.9,3.733C78.707,446.514,81.643,445.9,77.164,447.568Z" transform="translate(-65.117 -437.758)"/><path class="o" d="M119.491,447.568a6.1,6.1,0,0,1,5.948-7.442c.052,0,.1,0,.157,0l.1-.124a8.291,8.291,0,0,0-1.041-.916c-.777-.573-2.523-1.586-3.594-1.2-1.252.457-1.635,2.656-1.9,3.733C117.948,446.514,115.012,445.9,119.491,447.568Z" transform="translate(-101.262 -437.758)"/><circle class="o" cx="1.913" cy="1.913" r="1.913" transform="translate(12.654 1.472) rotate(-22.628)"/><path class="o" d="M101.909,448.465l-1.357,1.993a10.566,10.566,0,0,1-.936-2.479c-.108-.434-.235-1.047-.427-1.657l1.419-.408a1.918,1.918,0,0,0,1.3,2.551Z" transform="translate(-87.235 -444.111)"/><path class="o" d="M116.191,448.465l1.357,1.993a10.576,10.576,0,0,0,.936-2.479c.108-.434.235-1.047.427-1.657l-1.419-.408a1.919,1.919,0,0,1-1.3,2.551Z" transform="translate(-100.557 -444.111)"/><path class="o" d="M101.909,448.465l-1.357,1.993a10.566,10.566,0,0,1-.936-2.479c-.108-.434-.235-1.047-.427-1.657l1.419-.408a1.918,1.918,0,0,0,1.3,2.551Z" transform="translate(-87.235 -444.111)"/></g><g transform="translate(233.211 10.671)"><g transform="translate(21.693 6.5)"><g transform="translate(0 0)"><path class="p" d="M340.916,276.5v-10.31a1.718,1.718,0,0,0,2.423,0V276.5Z" transform="translate(-340.916 -264.197)"/><path class="p" d="M340.916,259.59l1.211-1.995,1.212,2A1.718,1.718,0,0,1,340.916,259.59Z" transform="translate(-340.916 -257.595)"/><path class="p" d="M340.916,311.978v-1.353h2.423v1.356a1.141,1.141,0,0,1-1.14,1.14h-.142A1.14,1.14,0,0,1,340.916,311.978Z" transform="translate(-340.916 -298.321)"/></g></g><g transform="translate(0 0)"><path class="p" d="M263.847,250.651h2.176a.861.861,0,0,1,.861.861V272.7a.861.861,0,0,1-.861.861H248.278a.861.861,0,0,1-.861-.861V251.512a.861.861,0,0,1,.861-.861h2.177" transform="translate(-247.417 -245.763)"/><g transform="translate(2.924)"><path class="p" d="M270.967,232.635h-1.443v-.81a2.068,2.068,0,0,0-.79-1.587,3.019,3.019,0,0,0-2.1-.651,2.5,2.5,0,0,0-2.5,2.318v.73h-1.447a2.474,2.474,0,0,0-2.668,2.219v.914a.384.384,0,0,0,.414.344h12.793a.384.384,0,0,0,.414-.344v-.914A2.478,2.478,0,0,0,270.967,232.635Zm-4.14.179a.7.7,0,1,1,.7-.7A.7.7,0,0,1,266.827,232.814Z" transform="translate(-260.018 -229.581)"/></g><g transform="translate(2.259 8.856)"><rect class="p" width="2.237" height="2.241"/><rect class="p" width="2.237" height="2.241" transform="translate(4.446)"/><g transform="translate(0 6.797)"><rect class="p" width="2.237" height="2.241"/><rect class="p" width="2.237" height="2.241" transform="translate(4.446)"/><line class="p" x2="6.212" transform="translate(8.736 1.121)"/></g><line class="p" x2="7.062" transform="translate(0 4.519)"/><g transform="translate(0 14.143)"><rect class="p" width="2.237" height="2.241"/><rect class="p" width="2.237" height="2.241" transform="translate(4.446)"/><line class="p" x2="6.212" transform="translate(8.736 1.121)"/></g><line class="p" x2="7.062" transform="translate(0 11.865)"/></g></g><circle class="p" cx="2.909" cy="2.909" r="2.909" transform="matrix(0.23, -0.973, 0.973, 0.23, 10.683, 13.474)"/><path class="p" d="M304.384,272.707l1.135,1.135,2.232-2.232" transform="translate(-291.167 -261.858)"/></g><g transform="translate(343.173 11.468)"><g transform="translate(0 19.764)"><path class="q" d="M464.567,326.816a2.012,2.012,0,0,0-.165-.254,6.717,6.717,0,0,1-2.949,2.094,7.889,7.889,0,0,0,.892,2.07C463.362,330.391,465.153,327.9,464.567,326.816Z" transform="translate(-457.503 -323.49)"/><path class="q" d="M448.819,316.579c-1.223-.16-3.1,2.425-3.051,3.5a9.408,9.408,0,0,0,2.443.07,6.72,6.72,0,0,1,.9-3.5A2.074,2.074,0,0,0,448.819,316.579Z" transform="translate(-445.767 -316.015)"/><path class="q" d="M456.975,319.528a4.947,4.947,0,0,1-1.363.367,4.944,4.944,0,0,1-.143-1.4,6.72,6.72,0,0,1,.9-3.5,1.355,1.355,0,0,1,.918-.608,2.759,2.759,0,0,1,2.874,1.979,1.354,1.354,0,0,1-.24,1.074A6.717,6.717,0,0,1,456.975,319.528Z" transform="translate(-453.025 -314.362)"/></g><g transform="translate(4.134 0)"><g transform="translate(5.413)"><path class="q" d="M494.108,235.872s-6.183.268-10.426,4.209A7.675,7.675,0,0,1,493.86,247.2C496.049,241.885,494.108,235.873,494.108,235.872Z" transform="translate(-483.682 -235.872)"/></g><path class="q" d="M477.776,258.459a7.675,7.675,0,0,0-10.178-7.122,14.188,14.188,0,0,0-1.911,2.173q-.512.719-.929,1.4a20.651,20.651,0,0,0-1.178,2.211,15.258,15.258,0,0,0-1.308,4.45,8.355,8.355,0,0,0,.053,2.858,6.873,6.873,0,0,1,5.132,3.534,8.345,8.345,0,0,0,2.689-.97,15.27,15.27,0,0,0,3.691-2.809,20.629,20.629,0,0,0,1.645-1.889q.491-.636.981-1.369A14.19,14.19,0,0,0,477.776,258.459Z" transform="translate(-462.185 -247.129)"/></g><g transform="translate(0.647 9.385)"><path class="q" d="M452.938,273.554a2.045,2.045,0,0,0-1.9-.316c-1.839.473-2.915,5.331-2.662,6.942a10.459,10.459,0,0,0,3.537-1.975,15.26,15.26,0,0,1,1.308-4.45A1.8,1.8,0,0,0,452.938,273.554Z" transform="translate(-448.338 -273.144)"/><path class="q" d="M496.91,305.48a2.046,2.046,0,0,0-.973-1.663,1.831,1.831,0,0,0-.288-.191,15.272,15.272,0,0,1-3.691,2.809,10.468,10.468,0,0,0-.584,4.009C492.969,310.1,497.124,307.366,496.91,305.48Z" transform="translate(-480.51 -295.95)"/></g><path class="q" d="M483.129,278.814a2.27,2.27,0,0,0-2.874-1.979c-1.839.473-2.915,5.331-2.662,6.942C479.188,283.439,483.343,280.7,483.129,278.814Z" transform="translate(-469.552 -266.45)"/></g><g transform="translate(450.382 12.995)"><g transform="translate(0 2.752)"><g transform="translate(8.147)"><line class="r" x2="9.665"/><line class="r" x1="9.665" transform="translate(0 2.003)"/></g><g transform="translate(0 3.438)"><path class="r" d="M489.092,440.263l2.235,6.106,9.934,1.216-1.557-4.678Z" transform="translate(-475.957 -440.263)"/><path class="r" d="M432.353,447.9l1.657-5.4,11.478-2.232-1.97,6.193Z" transform="translate(-432.353 -440.263)"/></g><g transform="translate(1.78 3.438)"><path class="r" d="M489.092,460.837l10.612-5.306v-8.136l-8.377-1.025-2.235-6.106Z" transform="translate(-477.736 -440.263)"/><path class="r" d="M451.4,460.837l-11.17-5.306-.186-7.863,9.386-1.211,1.97-6.193Z" transform="translate(-440.04 -440.263)"/></g></g><g transform="translate(3.802)"><path class="r" d="M471.349,421.347v-7.822H457.484v1.941" transform="translate(-455.468 -413.526)"/><line class="r" y1="5.672" transform="translate(2.016 1.941)"/><path class="r" d="M448.776,427.973v-6.064h2.016" transform="translate(-448.776 -419.968)"/></g></g><path class="s" d="M80.68,23.31,83.8,26.431,80.68,29.553" transform="translate(-2.673 -0.229)"/><path class="s" d="M80.68,23.31,83.8,26.431,80.68,29.553" transform="translate(109.327 -0.229)"/><path class="s" d="M80.68,23.31,83.8,26.431,80.68,29.553" transform="translate(218.327 -0.229)"/><path class="s" d="M80.68,23.31,83.8,26.431,80.68,29.553" transform="translate(325.327 -0.229)"/></g><text class="t" transform="translate(433 136)"><tspan x="-95.088" y="0">Data Application Packaging</tspan></text><g transform="translate(58)"><g class="aa" transform="matrix(1, 0, 0, 1, -102, -70)"><rect class="e" width="355" height="107" rx="9" transform="translate(301 228)"/></g><g transform="translate(240.015 173)"><line class="u" x2="199.417" transform="translate(49.068 25.494)"/><circle class="j" cx="25" cy="25" r="25" transform="translate(220.985)"/><text class="m" transform="translate(217.985 74)"><tspan x="0" y="0">Consume</tspan></text><g transform="translate(233.593 11.821)"><path class="v" d="M144,161.289a1.445,1.445,0,0,1,1.217-.608h8.517c.676,0,4.394-3.729,4.867-4.259a32.525,32.525,0,0,0,3.042-4.867,2.435,2.435,0,0,0-2.434-.608c-1.076.25-1.708,1.022-2.433,2.433l-2.789,1.448" transform="translate(-134.875 -137.562)"/><path class="v" d="M144.517,158.259h4.867c2.433,0,2.433-3.042,0-3.042h-3.215c-.507,0-1.457-1.217-2.261-1.217h-3.042a4.254,4.254,0,0,0-2.433,1.217L136,157.65" transform="translate(-131.742 -138.791)"/><rect class="v" width="4.302" height="10.324" transform="translate(0 20.685) rotate(-45)"/><line class="v" x2="1.93" y2="0.965" transform="translate(2.769 20.747)"/><path class="v" d="M144,145.734V136h4.867" transform="translate(-134.875 -131.741)"/><path class="v" d="M152,143.6V129h4.867v15.209" transform="translate(-138.008 -129)"/></g><circle class="i" cx="25" cy="25" r="25" transform="translate(109.985)"/><text class="m" transform="translate(112.985 74)"><tspan x="0" y="0">Currate</tspan></text><g transform="translate(125.93 14)"><path class="w" d="M152.718,70v.507c0,1.9-4.056,4.943-6.591,6.591v4.056L144.1,82.675h-.507V77.1C141.056,75.45,137,72.408,137,70.507V70" transform="translate(-135.986 -59.65)"/><path class="w" d="M139.563,68.028h-4.056a.507.507,0,0,1-.507-.507V66.507a.507.507,0,0,1,.507-.507h16.732a.507.507,0,0,1,.507.507v1.014a.507.507,0,0,1-.507.507h-8.112" transform="translate(-135 -57.678)"/><path class="w" d="M160,62.028V60.507a.507.507,0,0,1,.507-.507h1.014a.507.507,0,0,1,.507.507v1.521" transform="translate(-147.324 -54.721)"/><line class="w" y2="3" transform="translate(7.056 5)"/><rect class="w" width="2" height="4" rx="1" transform="translate(4.056 2)"/><rect class="w" width="2" height="2" rx="1" transform="translate(11.056 0)"/><line class="w" y2="4" transform="translate(1.056 0)"/><line class="w" y2="3" transform="translate(16.056 1)"/></g><circle class="k" cx="25" cy="25" r="25" transform="translate(-0.015)"/><text class="m" transform="translate(-0.015 74)"><tspan x="0" y="0">Capture</tspan></text><g transform="translate(12.554 14.716)"><path class="x" d="M48,226.938h3.876l1.454.484L54.783,225l1.454,3.392,1.454-2.423,1.454,1.938.485-1.454.969.485.485-.485.969.485h.485" transform="translate(-48 -218.701)"/><path class="x" d="M57.115,221.361a5.815,5.815,0,1,1,0,2.909" transform="translate(-52.699 -214.577)"/><path class="x" d="M52,218.785a8.237,8.237,0,1,1,0,2.9" transform="translate(-50.062 -212)"/><line class="x" x2="2.895" transform="translate(19.253 7.963)"/><path class="x" d="M79,240.938l5.614,5.614a.969.969,0,0,0,1.37,0l.568-.568a.969.969,0,0,0,0-1.37L80.938,239" transform="translate(-63.98 -225.918)"/></g><path class="s" d="M80.68,23.31,83.8,26.431,80.68,29.553" transform="translate(-4.432 -1.229)"/><path class="s" d="M80.68,23.31,83.8,26.431,80.68,29.553" transform="translate(109.568 -1.229)"/></g></g><text class="t" transform="translate(435 292)"><tspan x="-63.357" y="0">Data Supply Chain</tspan></text><line class="d" x2="88.183" transform="translate(28.345 89.5)"/><g transform="translate(0 59)"><text class="f" transform="translate(42 80)"><tspan x="-27.462" y="0">Software </tspan><tspan x="-41.556" y="14">Configuration </tspan><tspan x="-37.986" y="28">Management</tspan></text><g transform="translate(7)"><g class="z" transform="matrix(1, 0, 0, 1, -51, -129)"><circle class="e" cx="30.5" cy="30.5" r="30.5" transform="translate(51 129)"/></g><g transform="translate(11.382 12.1)"><path class="y" d="M661.552,2476.137c0-.03,0-.059,0-.089,0-.01,0-.02,0-.03s0-.039,0-.059,0-.024,0-.035,0-.035,0-.053,0-.026,0-.039,0-.033,0-.05,0-.027,0-.04,0-.032,0-.048,0-.027,0-.04,0-.031,0-.047l0-.041c0-.015,0-.031,0-.046s0-.027,0-.042,0-.031-.005-.045l-.005-.042-.006-.045-.006-.042-.007-.044-.007-.042-.007-.044-.007-.042-.008-.044-.008-.042-.008-.043-.009-.042-.009-.043-.01-.042-.01-.042-.01-.042-.01-.042-.011-.042-.011-.041-.012-.042-.011-.041-.012-.042-.012-.04-.013-.042-.013-.04-.013-.042-.013-.04-.014-.042-.014-.039-.015-.042-.014-.039-.016-.042-.015-.038-.016-.042-.015-.038-.017-.042-.016-.037-.018-.042-.016-.037-.019-.042-.016-.036-.019-.042L661,2473.7l-.02-.042-.017-.035-.021-.042-.017-.033-.022-.043-.017-.032-.023-.044-.017-.031-.025-.044-.016-.029-.026-.046-.014-.023-.03-.051,0,0q-.059-.1-.122-.191l-.012-.019-.031-.046-.017-.025-.03-.042-.02-.028-.029-.04-.021-.03-.029-.039-.022-.029-.03-.039-.023-.03-.03-.037-.024-.03-.03-.036-.025-.03-.03-.035-.026-.03-.03-.035-.027-.031-.031-.034-.027-.03-.031-.034-.028-.03-.031-.033-.029-.03-.032-.032-.029-.029-.032-.032-.03-.029-.032-.031-.031-.029-.033-.03-.031-.029-.033-.03-.032-.028-.033-.029-.033-.028-.034-.029-.034-.028-.034-.027-.034-.028-.034-.027-.035-.027-.034-.026-.036-.028-.034-.025-.037-.027-.034-.025-.038-.027-.034-.024-.01-.008v-3.709a8.951,8.951,0,0,1,.971.44l.185.1,1.524-1.524a.565.565,0,0,1,.8,0l2.674,2.674a.565.565,0,0,1,0,.8l.4.4a1.132,1.132,0,0,0,0-1.6l-2.674-2.674a1.131,1.131,0,0,0-1.6,0l-1.23,1.23a9.488,9.488,0,0,0-1.049-.447v-6.351a1.483,1.483,0,0,0-1.481-1.481H638.242l0-.005c-.011-.028-.022-.055-.033-.083l-.007-.016c-.012-.028-.024-.055-.036-.082l-.006-.012c-.013-.028-.026-.056-.04-.083v0l-.044-.083-.007-.012c-.014-.026-.029-.052-.044-.078l-.009-.015c-.015-.026-.031-.051-.047-.076l-.008-.013-.051-.077,0-.005-.053-.073-.007-.009-.055-.072-.01-.013-.057-.069-.01-.012-.06-.068-.007-.007-.063-.066,0,0-.066-.065-.011-.01-.066-.06-.012-.011-.069-.058-.01-.008-.075-.059a2.908,2.908,0,0,0-1.773-.6c-.051,0-.1,0-.151,0a2.939,2.939,0,0,0-2.78,2.78q0,.075,0,.151c0,.025,0,.049,0,.074,0,.008,0,.016,0,.024s0,.033,0,.049,0,.02,0,.029,0,.029,0,.043l0,.031c0,.014,0,.028,0,.041s0,.021,0,.032,0,.027,0,.04,0,.021,0,.032l.005.039.005.032.006.038.006.032.007.038.007.032.008.037.007.032.009.037.008.031.01.037.009.031.011.037.009.031.012.037.01.03.013.038.01.028.015.04.01.026.022.054.01.024.021.049.012.026.017.036.014.029.017.033.015.029.017.032.016.029.017.031.017.029.018.031.018.029.018.029.018.029.019.029.019.028.019.028.02.028.02.028.021.028.021.027.021.027.021.026.022.027.022.026.023.026.022.025.023.026.023.025.024.025.024.024.048.048.024.023.026.024.024.022.026.024.025.022.027.023.025.021.027.022.026.021.028.022.026.02.028.021.027.019.029.021.027.019.029.02.028.019.03.019.028.018.03.018.029.017.03.018.029.017.031.017.03.016.031.016.031.016.031.015.032.015.03.014.041.018.049.021.037.015.03.012.035.013.031.011.034.012.032.011.034.011.032.01.035.01.033.009.035.01.033.008.036.009.033.008.036.008.033.007.037.007.033.006.037.006.033.005.038.005.033,0,.039,0,.032,0h.008v2.534h-.65a.136.136,0,0,1-.136-.135v-1.169l-.2-.062a4.23,4.23,0,0,1-.725-.3l-.185-.1-.827.827a.136.136,0,0,1-.192,0l-1.32-1.32a.136.136,0,0,1,0-.192l.827-.827-.1-.185a4.257,4.257,0,0,1-.3-.725l-.062-.2h-1.169a.136.136,0,0,1-.136-.135v-1.867a.136.136,0,0,1,.136-.135h1.169l.062-.2a4.262,4.262,0,0,1,.3-.726l.1-.185-.827-.827a.135.135,0,0,1,0-.192l1.32-1.32a.136.136,0,0,1,.192,0l.827.827.185-.1a4.271,4.271,0,0,1,.725-.3l.2-.062v-1.169a.136.136,0,0,1,.136-.136h1.867a.136.136,0,0,1,.136.136v1.169l.2.062a4.269,4.269,0,0,1,.725.3l.185.1.827-.827a.136.136,0,0,1,.192,0l1.32,1.32a.136.136,0,0,1,0,.192l-.827.827.1.185a4.257,4.257,0,0,1,.3.726l.541-.168a4.846,4.846,0,0,0-.247-.634l.535-.535a.7.7,0,0,0,0-.993l-1.32-1.32a.7.7,0,0,0-.993,0l-.535.535q-.213-.1-.435-.18v-.757a.7.7,0,0,0-.7-.7h-1.867a.7.7,0,0,0-.7.7v.757c-.148.053-.293.113-.435.18l-.535-.535a.7.7,0,0,0-.993,0l-1.32,1.32a.7.7,0,0,0,0,.993l.535.535q-.1.213-.18.435h-.757a.7.7,0,0,0-.7.7v1.867a.7.7,0,0,0,.7.7h.757c.053.147.113.293.18.435l-.535.535a.7.7,0,0,0,0,.992l1.32,1.32a.7.7,0,0,0,.993,0l.535-.535c.142.067.287.127.435.18v.757a.7.7,0,0,0,.7.7h.65V2491.1h2.651v-2.889H637.3v2.323h-1.518v-29.72a.916.916,0,0,1,.915-.915h20.927a.916.916,0,0,1,.915.915v29.72h-1.518v-2.606h-17.8v.566h17.234v2.606H659.1v-10.3A5.637,5.637,0,0,0,661.552,2476.137Zm-26.34-15.323v1.9h-.01l-.025,0-.032,0-.025,0-.031-.005-.026,0-.031-.006-.026-.005-.03-.007-.026-.006-.03-.008-.025-.006-.029-.008-.025-.007-.03-.009-.024-.007-.031-.01-.022-.007-.051-.018-.024-.009-.028-.01-.026-.011-.026-.01-.026-.011-.025-.011-.026-.012-.024-.011-.026-.013-.023-.012-.026-.013-.023-.012-.026-.014-.022-.012-.026-.015-.022-.012-.025-.015-.021-.013-.025-.016-.02-.013-.026-.017-.019-.013-.026-.018-.014-.01-.061-.046-.01-.008-.026-.021-.017-.014-.024-.02-.018-.015-.023-.02-.018-.016-.022-.021-.018-.017-.022-.021-.018-.017-.021-.021-.017-.018-.021-.021-.017-.019-.02-.022-.017-.019-.02-.022-.016-.019-.019-.023-.015-.019-.019-.024-.015-.019-.019-.024-.01-.014-.038-.053-.014-.02-.016-.024-.014-.022-.015-.024-.014-.023-.015-.024-.014-.023-.014-.024-.013-.024-.013-.024-.013-.024-.013-.025-.012-.025-.012-.025-.012-.026-.011-.025-.011-.026-.011-.024-.011-.028-.01-.024-.011-.03-.009-.022-.012-.035-.006-.018-.017-.052-.006-.019-.01-.035-.006-.023-.009-.032-.006-.024-.008-.031-.006-.025-.007-.03-.005-.025-.006-.031,0-.025-.005-.031,0-.026,0-.031,0-.026c0-.011,0-.021,0-.032l0-.025,0-.033,0-.025c0-.012,0-.023,0-.035s0-.016,0-.023,0-.026,0-.039,0-.013,0-.019,0-.04,0-.059a2.371,2.371,0,0,1,2.369-2.369l.092,0h.03l.062,0,.035,0,.056.006.036,0,.054.008.036.006.055.01.034.007.06.014.028.007.086.023,0,0,.081.025.028.01.056.021.032.012.051.021.033.014.049.022.032.015.05.025.03.015.054.03.023.013.076.046.007,0,.067.044.024.017.048.034.027.021.043.034.027.022.042.035.026.023.041.038.024.023.044.044.018.019.061.065.008.009.05.058.019.024.037.046.021.028.033.044.021.03.03.045.019.03.03.048.017.029.031.055.013.023c.014.026.027.052.04.078h-.933A1.483,1.483,0,0,0,635.211,2460.813Zm25.772,15.458c0,.005,0,.011,0,.017q0,.063-.005.127v.021c0,.042-.005.083-.009.125l0,.021c0,.042-.008.084-.013.126l0,.014c0,.043-.01.086-.016.129v0c-.006.043-.013.086-.02.129l0,.017c-.007.041-.015.082-.023.123l0,.021q-.012.061-.026.121l0,.019c-.01.041-.02.083-.03.124l0,.009q-.016.063-.034.125l0,.007c-.012.041-.024.082-.037.123l-.005.017q-.019.059-.039.118l-.006.019c-.014.039-.028.079-.043.117l-.006.015c-.015.041-.031.08-.048.12l0,0c-.017.04-.034.08-.051.12l0,.009c-.017.039-.035.077-.053.115l-.008.016-.055.111-.009.016c-.019.037-.039.074-.059.111l-.007.012q-.064.116-.133.228l-.006.01q-.033.054-.068.106l-.01.015-.07.1-.01.015c-.024.034-.049.069-.074.1l-.007.01q-.079.105-.164.208l-.009.011-.082.1-.013.014-.084.092-.012.013-.089.093-.007.007-.094.092,0,0-.1.089-.013.011-.094.083-.016.014-.1.081-.005,0v-7.907l.006,0,.1.08.016.014.094.083.013.012.095.088,0,0,.093.091.008.008.088.092.013.014.084.092.013.015.082.1.009.011q.085.1.163.207l.007.01.074.1.011.015.07.1.01.015.068.106.006.01q.069.112.133.227l.007.012c.02.036.04.073.059.111l.009.017q.028.055.055.111l.008.016c.018.038.036.077.053.115l0,.009c.018.04.035.08.051.12l0,0c.016.04.032.08.048.12l.006.015c.015.039.029.078.042.116l.007.019c.013.039.027.078.039.117l.005.017c.013.041.025.082.037.123l0,.007c.012.042.023.083.034.125l0,.009q.016.062.03.124l0,.019c.009.04.018.081.026.121l0,.021c.008.041.016.082.023.123l0,.017c.007.043.014.086.02.129v0c.006.043.011.086.016.129l0,.014c0,.042.009.084.013.126l0,.021c0,.041.006.083.009.124v.022c0,.042,0,.084.005.126,0,.006,0,.011,0,.017,0,.044,0,.089,0,.134S660.985,2476.227,660.984,2476.271Z" transform="translate(-629.473 -2454.344)"/><path class="y" d="M1490.037,2941.144H1488.3a9.544,9.544,0,0,0-.606-1.417l-.5.264a8.914,8.914,0,0,1,.63,1.519l.062.2h2.154a.566.566,0,0,1,.565.565v3.781a.566.566,0,0,1-.565.565h-2.154l-.062.2a8.906,8.906,0,0,1-.63,1.519l-.1.185,1.524,1.524a.566.566,0,0,1,0,.8l-2.674,2.674a.566.566,0,0,1-.8,0l-1.376-1.376-.4.4,1.376,1.376a1.132,1.132,0,0,0,1.6,0l2.674-2.674a1.132,1.132,0,0,0,0-1.6l-1.23-1.23a9.53,9.53,0,0,0,.51-1.23h1.739a1.133,1.133,0,0,0,1.131-1.131v-3.781A1.133,1.133,0,0,0,1490.037,2941.144Z" transform="translate(-1452.838 -2922.373)"/><path class="y" d="M1330.606,3291.133a1.146,1.146,0,1,0,1.122-.915A1.141,1.141,0,0,0,1330.606,3291.133Zm1.7.23a.579.579,0,1,1-.579-.579A.58.58,0,0,1,1332.308,3291.363Z" transform="translate(-1305.515 -3260.332)"/><path class="y" d="M848.279,2678.447v3.758H868v-4.041H852.216v.566h15.216v2.908H848.845v-3.192Z" transform="translate(-840.455 -2670.161)"/><path class="y" d="M848.279,3103.107H868v-4.041H852.735v.566h14.7v2.908H848.845v-3.191h-.566Z" transform="translate(-840.455 -3076.015)"/><path class="y" d="M848.279,2962.806h10.8v-.566h-10.23v-2.908h18.587v2.908h-5.924v.566H868v-4.041h-19.72Z" transform="translate(-840.455 -2940.73)"/><path class="y" d="M848.279,2822.5h13.061v-.566H848.845v-2.908h18.587v3.192H868v-3.758h-19.72Z" transform="translate(-840.455 -2805.445)"/><path class="y" d="M848.279,3295.97H854.1v-1.94h-5.821Zm.566-1.374h4.689v.808h-4.689Z" transform="translate(-840.456 -3264.008)"/></g></g></g></g></svg>