<svg xmlns="http://www.w3.org/2000/svg" xmlns:xlink="http://www.w3.org/1999/xlink" width="954" height="680" viewBox="0 0 954 680">
  <defs>
    <filter id="Rectangle_149246" x="178" y="52" width="597" height="143" filterUnits="userSpaceOnUse">
      <feOffset input="SourceAlpha"/>
      <feGaussianBlur stdDeviation="6" result="blur"/>
      <feFlood flood-opacity="0.102"/>
      <feComposite operator="in" in2="blur"/>
      <feComposite in="SourceGraphic"/>
    </filter>
    <filter id="Rectangle_149241" x="228" y="210" width="498" height="158" filterUnits="userSpaceOnUse">
      <feOffset input="SourceAlpha"/>
      <feGaussianBlur stdDeviation="6" result="blur-2"/>
      <feFlood flood-opacity="0.102"/>
      <feComposite operator="in" in2="blur-2"/>
      <feComposite in="SourceGraphic"/>
    </filter>
    <filter id="Ellipse_4019" x="33" y="111" width="97" height="97" filterUnits="userSpaceOnUse">
      <feOffset input="SourceAlpha"/>
      <feGaussianBlur stdDeviation="6" result="blur-3"/>
      <feFlood flood-opacity="0.102"/>
      <feComposite operator="in" in2="blur-3"/>
      <feComposite in="SourceGraphic"/>
    </filter>
    <filter id="Ellipse_4019-2" x="84" y="415" width="97" height="97" filterUnits="userSpaceOnUse">
      <feOffset input="SourceAlpha"/>
      <feGaussianBlur stdDeviation="6" result="blur-4"/>
      <feFlood flood-opacity="0.102"/>
      <feComposite operator="in" in2="blur-4"/>
      <feComposite in="SourceGraphic"/>
    </filter>
    <filter id="Ellipse_4019-3" x="314" y="415" width="97" height="97" filterUnits="userSpaceOnUse">
      <feOffset input="SourceAlpha"/>
      <feGaussianBlur stdDeviation="6" result="blur-5"/>
      <feFlood flood-opacity="0.102"/>
      <feComposite operator="in" in2="blur-5"/>
      <feComposite in="SourceGraphic"/>
    </filter>
    <filter id="Ellipse_4019-4" x="542" y="415" width="97" height="97" filterUnits="userSpaceOnUse">
      <feOffset input="SourceAlpha"/>
      <feGaussianBlur stdDeviation="6" result="blur-6"/>
      <feFlood flood-opacity="0.102"/>
      <feComposite operator="in" in2="blur-6"/>
      <feComposite in="SourceGraphic"/>
    </filter>
    <filter id="Ellipse_4019-5" x="773" y="415" width="97" height="97" filterUnits="userSpaceOnUse">
      <feOffset input="SourceAlpha"/>
      <feGaussianBlur stdDeviation="6" result="blur-7"/>
      <feFlood flood-opacity="0.102"/>
      <feComposite operator="in" in2="blur-7"/>
      <feComposite in="SourceGraphic"/>
    </filter>
  </defs>
  <g id="Group_25722" data-name="Group 25722" transform="translate(-251 -420)">
    <g id="Group_23903" data-name="Group 23903" transform="translate(251 420)">
      <g id="Group_23902" data-name="Group 23902">
        <rect id="Rectangle_149250" data-name="Rectangle 149250" width="954" height="35" rx="9" fill="#eee"/>
        <g id="Group_25681" data-name="Group 25681" transform="translate(0 90)">
          <rect id="Rectangle_149245" data-name="Rectangle 149245" width="954" height="34" rx="9" transform="translate(0 461)" fill="#eee"/>
          <text id="Data_Security_Continuous_Logging_and_Data_Monitoring" data-name="Data Security ,Continuous Logging and Data Monitoring" transform="translate(477 483)" font-size="13" font-family="Graphik-Medium, Graphik" font-weight="500"><tspan x="-174.012" y="0">Data Security ,Continuous Logging and Data Monitoring</tspan></text>
        </g>
        <text id="Requirement_Management" data-name="Requirement Management" transform="translate(455 21)" font-size="13" font-family="Graphik-Medium, Graphik" font-weight="500"><tspan x="-83.09" y="0">Requirement Management</tspan></text>
        <g id="Group_24740" data-name="Group 24740" transform="translate(44 70)">
          <circle id="Ellipse_4020" data-name="Ellipse 4020" cx="3.5" cy="3.5" r="3.5" transform="translate(112 86)" fill="#008eff"/>
          <line id="Line_1642" data-name="Line 1642" x2="590" transform="translate(116.5 33.31)" fill="none" stroke="#008eff" stroke-width="2" stroke-dasharray="4"/>
          <line id="Line_1644" data-name="Line 1644" x2="495" transform="translate(117.5 198.494)" fill="none" stroke="#008eff" stroke-width="2" stroke-dasharray="4"/>
          <line id="Line_1653" data-name="Line 1653" x2="690" transform="translate(88 341)" fill="none" stroke="#008eff" stroke-width="2" stroke-dasharray="4"/>
          <line id="Line_1643" data-name="Line 1643" y2="165" transform="translate(114.832 33.5)" fill="none" stroke="#008eff" stroke-width="2" stroke-dasharray="4"/>
          <line id="Line_1652" data-name="Line 1652" y2="35" transform="translate(432.5 305.5)" fill="none" stroke="#008eff" stroke-width="2" stroke-dasharray="4"/>
          <line id="Line_1654" data-name="Line 1654" y2="20" transform="translate(88.5 340.5)" fill="none" stroke="#008eff" stroke-width="2" stroke-dasharray="4"/>
          <line id="Line_1655" data-name="Line 1655" y2="20" transform="translate(318.5 341)" fill="none" stroke="#008eff" stroke-width="2" stroke-dasharray="4"/>
          <line id="Line_1656" data-name="Line 1656" y2="20" transform="translate(547.5 341)" fill="none" stroke="#008eff" stroke-width="2" stroke-dasharray="4"/>
          <line id="Line_1657" data-name="Line 1657" y2="20" transform="translate(777.5 341)" fill="none" stroke="#008eff" stroke-width="2" stroke-dasharray="4"/>
          <g transform="matrix(1, 0, 0, 1, -44, -70)" filter="url(#Rectangle_149246)">
            <rect id="Rectangle_149246-2" data-name="Rectangle 149246" width="561" height="107" rx="9" transform="translate(196 70)" fill="#fff"/>
          </g>
          <g id="Group_23904" data-name="Group 23904" transform="translate(189.02 15)">
            <line id="Line_1649" data-name="Line 1649" x2="410.392" transform="translate(40.436 26.249)" fill="none" stroke="#c9c9c9" stroke-width="1" opacity="0.51"/>
            <g id="Group_23900" data-name="Group 23900">
              <circle id="Ellipse_4027" data-name="Ellipse 4027" cx="24.5" cy="24.5" r="24.5" transform="translate(-0.02 0)" fill="#ffd9e8"/>
              <circle id="Ellipse_4028" data-name="Ellipse 4028" cx="24.5" cy="24.5" r="24.5" transform="translate(109.98 0)" fill="#d3ebff"/>
              <circle id="Ellipse_4029" data-name="Ellipse 4029" cx="24.5" cy="24.5" r="24.5" transform="translate(218.98 0)" fill="#e2f3e6"/>
              <circle id="Ellipse_4030" data-name="Ellipse 4030" cx="24.5" cy="24.5" r="24.5" transform="translate(328.98 0)" fill="#f0e9db"/>
              <circle id="Ellipse_4031" data-name="Ellipse 4031" cx="24.5" cy="24.5" r="24.5" transform="translate(437.98 0)" fill="#d2fbff"/>
              <text id="Build" transform="translate(8.98 69)" font-size="13" font-family="Graphik-Regular, Graphik"><tspan x="0" y="0">Build</tspan></text>
              <text id="Security" transform="translate(109.98 69)" font-size="13" font-family="Graphik-Regular, Graphik"><tspan x="0" y="0">Security</tspan></text>
              <text id="Test" transform="translate(231.98 69)" font-size="13" font-family="Graphik-Regular, Graphik"><tspan x="0" y="0">Test</tspan></text>
              <text id="Deploy" transform="translate(331.98 69)" font-size="13" font-family="Graphik-Regular, Graphik"><tspan x="0" y="0">Deploy</tspan></text>
              <text id="Package" transform="translate(434.98 69)" font-size="13" font-family="Graphik-Regular, Graphik"><tspan x="0" y="0">Package</tspan></text>
              <g id="Group_23884" data-name="Group 23884" transform="translate(14.102 13.649)">
                <g id="Group_23841" data-name="Group 23841" transform="translate(9.87 9.408)">
                  <path id="Path_68151" data-name="Path 68151" d="M516.853,122.944l.447.447a3.12,3.12,0,1,1-4.413,4.413l-.447-.447Z" transform="translate(-506.153 -116.709)" fill="none" stroke="#fd1e76" stroke-linecap="round" stroke-linejoin="round" stroke-width="1.2"/>
                  <path id="Path_68152" data-name="Path 68152" d="M486.618,94.349a1.288,1.288,0,0,0,2.2.911l.05-.05,3.47,3.418-4.413,4.413-3.47-3.418.05-.05a1.287,1.287,0,1,0-1.82-1.82l-.05.05-1-1,4.413-4.413,1,1-.05.05A1.288,1.288,0,0,0,486.618,94.349Z" transform="translate(-481.635 -92.393)" fill="none" stroke="#fd1e76" stroke-linecap="round" stroke-linejoin="round" stroke-width="1.2"/>
                </g>
                <g id="Group_23842" data-name="Group 23842" transform="translate(1.911 1.396)">
                  <path id="Path_68153" data-name="Path 68153" d="M453.457,62.694l-7.408-7.371,0,0-.545-1.184-1.847-1.009-1.021,1.021L443.644,56l1.182.546,7.408,7.371" transform="translate(-442.635 -53.133)" fill="none" stroke="#fd1e76" stroke-linecap="round" stroke-linejoin="round" stroke-width="1.2"/>
                </g>
                <g id="Group_23843" data-name="Group 23843">
                  <path id="Path_68154" data-name="Path 68154" d="M487.809,57.1l4.213-4.215.034.034a3.236,3.236,0,0,0,4.62-3.862.238.238,0,0,0-.393-.09l-1.011,1.011a.623.623,0,0,1-.882,0l-1.329-1.237a.623.623,0,0,1,0-.882l1.011-1.011a.238.238,0,0,0-.09-.393,3.236,3.236,0,0,0-3.864,4.618l.034.034-4.172,4.173" transform="translate(-475.224 -46.294)" fill="none" stroke="#fd1e76" stroke-linecap="round" stroke-linejoin="round" stroke-width="1.2"/>
                  <path id="Path_68155" data-name="Path 68155" d="M442.8,96.346l-4.715,4.716-.034-.034a3.236,3.236,0,0,0-4.62,3.862.238.238,0,0,0,.393.09l1.011-1.011a.623.623,0,0,1,.882,0l1.329,1.237a.624.624,0,0,1,0,.882l-1.011,1.011a.238.238,0,0,0,.089.393,3.236,3.236,0,0,0,3.864-4.618l-.034-.034,4.673-4.675" transform="translate(-433.268 -86.132)" fill="none" stroke="#fd1e76" stroke-linecap="round" stroke-linejoin="round" stroke-width="1.2"/>
                </g>
              </g>
              <g id="Group_23885" data-name="Group 23885" transform="translate(119.596 17.399)">
                <circle id="Ellipse_4013" data-name="Ellipse 4013" cx="6.098" cy="6.098" r="6.098" transform="translate(18.091 2.367)" fill="none" stroke="#008cff" stroke-linecap="round" stroke-linejoin="round" stroke-width="1.2"/>
                <circle id="Ellipse_4014" data-name="Ellipse 4014" cx="3.752" cy="3.752" r="3.752" transform="translate(20.438 4.714)" fill="none" stroke="#008cff" stroke-linecap="round" stroke-linejoin="round" stroke-width="1.2"/>
                <circle id="Ellipse_4015" data-name="Ellipse 4015" cx="6.098" cy="6.098" r="6.098" transform="translate(0 2.367)" fill="none" stroke="#008cff" stroke-linecap="round" stroke-linejoin="round" stroke-width="1.2"/>
                <circle id="Ellipse_4016" data-name="Ellipse 4016" cx="3.752" cy="3.752" r="3.752" transform="translate(2.347 4.714)" fill="none" stroke="#008cff" stroke-linecap="round" stroke-linejoin="round" stroke-width="1.2"/>
                <path id="Path_68156" data-name="Path 68156" d="M77.164,447.568a6.1,6.1,0,0,0-5.948-7.442c-.052,0-.1,0-.157,0l-.1-.124A8.29,8.29,0,0,1,72,439.089c.777-.573,2.523-1.586,3.594-1.2,1.252.457,1.635,2.656,1.9,3.733C78.707,446.514,81.643,445.9,77.164,447.568Z" transform="translate(-65.117 -437.758)" fill="none" stroke="#008cff" stroke-linecap="round" stroke-linejoin="round" stroke-width="1.2"/>
                <path id="Path_68157" data-name="Path 68157" d="M119.491,447.568a6.1,6.1,0,0,1,5.948-7.442c.052,0,.1,0,.157,0l.1-.124a8.291,8.291,0,0,0-1.041-.916c-.777-.573-2.523-1.586-3.594-1.2-1.252.457-1.635,2.656-1.9,3.733C117.948,446.514,115.012,445.9,119.491,447.568Z" transform="translate(-101.262 -437.758)" fill="none" stroke="#008cff" stroke-linecap="round" stroke-linejoin="round" stroke-width="1.2"/>
                <circle id="Ellipse_4017" data-name="Ellipse 4017" cx="1.913" cy="1.913" r="1.913" transform="translate(12.654 1.472) rotate(-22.628)" fill="none" stroke="#008cff" stroke-linecap="round" stroke-linejoin="round" stroke-width="1.2"/>
                <path id="Path_68158" data-name="Path 68158" d="M101.909,448.465l-1.357,1.993a10.566,10.566,0,0,1-.936-2.479c-.108-.434-.235-1.047-.427-1.657l1.419-.408a1.918,1.918,0,0,0,1.3,2.551Z" transform="translate(-87.235 -444.111)" fill="none" stroke="#008cff" stroke-linecap="round" stroke-linejoin="round" stroke-width="1.2"/>
                <path id="Path_68159" data-name="Path 68159" d="M116.191,448.465l1.357,1.993a10.576,10.576,0,0,0,.936-2.479c.108-.434.235-1.047.427-1.657l-1.419-.408a1.919,1.919,0,0,1-1.3,2.551Z" transform="translate(-100.557 -444.111)" fill="none" stroke="#008cff" stroke-linecap="round" stroke-linejoin="round" stroke-width="1.2"/>
                <path id="Path_68160" data-name="Path 68160" d="M101.909,448.465l-1.357,1.993a10.566,10.566,0,0,1-.936-2.479c-.108-.434-.235-1.047-.427-1.657l1.419-.408a1.918,1.918,0,0,0,1.3,2.551Z" transform="translate(-87.235 -444.111)" fill="none" stroke="#008cff" stroke-linecap="round" stroke-linejoin="round" stroke-width="1.2"/>
              </g>
              <g id="Group_23886" data-name="Group 23886" transform="translate(233.211 10.671)">
                <g id="Group_23847" data-name="Group 23847" transform="translate(21.693 6.5)">
                  <g id="Group_23846" data-name="Group 23846" transform="translate(0 0)">
                    <path id="Path_68161" data-name="Path 68161" d="M340.916,276.5v-10.31a1.718,1.718,0,0,0,2.423,0V276.5Z" transform="translate(-340.916 -264.197)" fill="none" stroke="#42b65c" stroke-linecap="round" stroke-linejoin="round" stroke-width="1.2"/>
                    <path id="Path_68162" data-name="Path 68162" d="M340.916,259.59l1.211-1.995,1.212,2A1.718,1.718,0,0,1,340.916,259.59Z" transform="translate(-340.916 -257.595)" fill="none" stroke="#42b65c" stroke-linecap="round" stroke-linejoin="round" stroke-width="1.2"/>
                    <path id="Path_68163" data-name="Path 68163" d="M340.916,311.978v-1.353h2.423v1.356a1.141,1.141,0,0,1-1.14,1.14h-.142A1.14,1.14,0,0,1,340.916,311.978Z" transform="translate(-340.916 -298.321)" fill="none" stroke="#42b65c" stroke-linecap="round" stroke-linejoin="round" stroke-width="1.2"/>
                  </g>
                </g>
                <g id="Group_23857" data-name="Group 23857" transform="translate(0 0)">
                  <g id="Group_23856" data-name="Group 23856">
                    <g id="Group_23850" data-name="Group 23850">
                      <g id="Group_23849" data-name="Group 23849">
                        <path id="Path_68164" data-name="Path 68164" d="M263.847,250.651h2.176a.861.861,0,0,1,.861.861V272.7a.861.861,0,0,1-.861.861H248.278a.861.861,0,0,1-.861-.861V251.512a.861.861,0,0,1,.861-.861h2.177" transform="translate(-247.417 -245.763)" fill="none" stroke="#42b65c" stroke-linecap="round" stroke-linejoin="round" stroke-width="1.2"/>
                        <g id="Group_23848" data-name="Group 23848" transform="translate(2.924)">
                          <path id="Path_68165" data-name="Path 68165" d="M270.967,232.635h-1.443v-.81a2.068,2.068,0,0,0-.79-1.587,3.019,3.019,0,0,0-2.1-.651,2.5,2.5,0,0,0-2.5,2.318v.73h-1.447a2.474,2.474,0,0,0-2.668,2.219v.914a.384.384,0,0,0,.414.344h12.793a.384.384,0,0,0,.414-.344v-.914A2.478,2.478,0,0,0,270.967,232.635Zm-4.14.179a.7.7,0,1,1,.7-.7A.7.7,0,0,1,266.827,232.814Z" transform="translate(-260.018 -229.581)" fill="none" stroke="#42b65c" stroke-linecap="round" stroke-linejoin="round" stroke-width="1.2"/>
                        </g>
                      </g>
                    </g>
                    <g id="Group_23855" data-name="Group 23855" transform="translate(2.259 8.856)">
                      <g id="Group_23853" data-name="Group 23853">
                        <g id="Group_23851" data-name="Group 23851">
                          <rect id="Rectangle_149235" data-name="Rectangle 149235" width="2.237" height="2.241" fill="none" stroke="#42b65c" stroke-linecap="round" stroke-linejoin="round" stroke-width="1.2"/>
                          <rect id="Rectangle_149236" data-name="Rectangle 149236" width="2.237" height="2.241" transform="translate(4.446)" fill="none" stroke="#42b65c" stroke-linecap="round" stroke-linejoin="round" stroke-width="1.2"/>
                        </g>
                        <g id="Group_23852" data-name="Group 23852" transform="translate(0 6.797)">
                          <rect id="Rectangle_149237" data-name="Rectangle 149237" width="2.237" height="2.241" fill="none" stroke="#42b65c" stroke-linecap="round" stroke-linejoin="round" stroke-width="1.2"/>
                          <rect id="Rectangle_149238" data-name="Rectangle 149238" width="2.237" height="2.241" transform="translate(4.446)" fill="none" stroke="#42b65c" stroke-linecap="round" stroke-linejoin="round" stroke-width="1.2"/>
                          <line id="Line_1635" data-name="Line 1635" x2="6.212" transform="translate(8.736 1.121)" fill="none" stroke="#42b65c" stroke-linecap="round" stroke-linejoin="round" stroke-width="1.2"/>
                        </g>
                      </g>
                      <line id="Line_1636" data-name="Line 1636" x2="7.062" transform="translate(0 4.519)" fill="none" stroke="#42b65c" stroke-linecap="round" stroke-linejoin="round" stroke-width="1.2"/>
                      <g id="Group_23854" data-name="Group 23854" transform="translate(0 14.143)">
                        <rect id="Rectangle_149239" data-name="Rectangle 149239" width="2.237" height="2.241" fill="none" stroke="#42b65c" stroke-linecap="round" stroke-linejoin="round" stroke-width="1.2"/>
                        <rect id="Rectangle_149240" data-name="Rectangle 149240" width="2.237" height="2.241" transform="translate(4.446)" fill="none" stroke="#42b65c" stroke-linecap="round" stroke-linejoin="round" stroke-width="1.2"/>
                        <line id="Line_1637" data-name="Line 1637" x2="6.212" transform="translate(8.736 1.121)" fill="none" stroke="#42b65c" stroke-linecap="round" stroke-linejoin="round" stroke-width="1.2"/>
                      </g>
                      <line id="Line_1638" data-name="Line 1638" x2="7.062" transform="translate(0 11.865)" fill="none" stroke="#42b65c" stroke-linecap="round" stroke-linejoin="round" stroke-width="1.2"/>
                    </g>
                  </g>
                </g>
                <circle id="Ellipse_4018" data-name="Ellipse 4018" cx="2.909" cy="2.909" r="2.909" transform="matrix(0.23, -0.973, 0.973, 0.23, 10.683, 13.474)" fill="none" stroke="#42b65c" stroke-linecap="round" stroke-linejoin="round" stroke-width="1.2"/>
                <path id="Path_68166" data-name="Path 68166" d="M304.384,272.707l1.135,1.135,2.232-2.232" transform="translate(-291.167 -261.858)" fill="none" stroke="#42b65c" stroke-linecap="round" stroke-linejoin="round" stroke-width="1.2"/>
              </g>
              <g id="Group_23887" data-name="Group 23887" transform="translate(343.173 11.468)">
                <g id="Group_23859" data-name="Group 23859" transform="translate(0 19.764)">
                  <path id="Path_68167" data-name="Path 68167" d="M464.567,326.816a2.012,2.012,0,0,0-.165-.254,6.717,6.717,0,0,1-2.949,2.094,7.889,7.889,0,0,0,.892,2.07C463.362,330.391,465.153,327.9,464.567,326.816Z" transform="translate(-457.503 -323.49)" fill="none" stroke="#ce9222" stroke-linecap="round" stroke-linejoin="round" stroke-width="1.2"/>
                  <path id="Path_68168" data-name="Path 68168" d="M448.819,316.579c-1.223-.16-3.1,2.425-3.051,3.5a9.408,9.408,0,0,0,2.443.07,6.72,6.72,0,0,1,.9-3.5A2.074,2.074,0,0,0,448.819,316.579Z" transform="translate(-445.767 -316.015)" fill="none" stroke="#ce9222" stroke-linecap="round" stroke-linejoin="round" stroke-width="1.2"/>
                  <path id="Path_68169" data-name="Path 68169" d="M456.975,319.528a4.947,4.947,0,0,1-1.363.367,4.944,4.944,0,0,1-.143-1.4,6.72,6.72,0,0,1,.9-3.5,1.355,1.355,0,0,1,.918-.608,2.759,2.759,0,0,1,2.874,1.979,1.354,1.354,0,0,1-.24,1.074A6.717,6.717,0,0,1,456.975,319.528Z" transform="translate(-453.025 -314.362)" fill="none" stroke="#ce9222" stroke-linecap="round" stroke-linejoin="round" stroke-width="1.2"/>
                </g>
                <g id="Group_23861" data-name="Group 23861" transform="translate(4.134 0)">
                  <g id="Group_23860" data-name="Group 23860" transform="translate(5.413)">
                    <path id="Path_68170" data-name="Path 68170" d="M494.108,235.872s-6.183.268-10.426,4.209A7.675,7.675,0,0,1,493.86,247.2C496.049,241.885,494.108,235.873,494.108,235.872Z" transform="translate(-483.682 -235.872)" fill="none" stroke="#ce9222" stroke-linecap="round" stroke-linejoin="round" stroke-width="1.2"/>
                  </g>
                  <path id="Path_68171" data-name="Path 68171" d="M477.776,258.459a7.675,7.675,0,0,0-10.178-7.122,14.188,14.188,0,0,0-1.911,2.173q-.512.719-.929,1.4a20.651,20.651,0,0,0-1.178,2.211,15.258,15.258,0,0,0-1.308,4.45,8.355,8.355,0,0,0,.053,2.858,6.873,6.873,0,0,1,5.132,3.534,8.345,8.345,0,0,0,2.689-.97,15.27,15.27,0,0,0,3.691-2.809,20.629,20.629,0,0,0,1.645-1.889q.491-.636.981-1.369A14.19,14.19,0,0,0,477.776,258.459Z" transform="translate(-462.185 -247.129)" fill="none" stroke="#ce9222" stroke-linecap="round" stroke-linejoin="round" stroke-width="1.2"/>
                </g>
                <g id="Group_23862" data-name="Group 23862" transform="translate(0.647 9.385)">
                  <path id="Path_68172" data-name="Path 68172" d="M452.938,273.554a2.045,2.045,0,0,0-1.9-.316c-1.839.473-2.915,5.331-2.662,6.942a10.459,10.459,0,0,0,3.537-1.975,15.26,15.26,0,0,1,1.308-4.45A1.8,1.8,0,0,0,452.938,273.554Z" transform="translate(-448.338 -273.144)" fill="none" stroke="#ce9222" stroke-linecap="round" stroke-linejoin="round" stroke-width="1.2"/>
                  <path id="Path_68173" data-name="Path 68173" d="M496.91,305.48a2.046,2.046,0,0,0-.973-1.663,1.831,1.831,0,0,0-.288-.191,15.272,15.272,0,0,1-3.691,2.809,10.468,10.468,0,0,0-.584,4.009C492.969,310.1,497.124,307.366,496.91,305.48Z" transform="translate(-480.51 -295.95)" fill="none" stroke="#ce9222" stroke-linecap="round" stroke-linejoin="round" stroke-width="1.2"/>
                </g>
                <path id="Path_68174" data-name="Path 68174" d="M483.129,278.814a2.27,2.27,0,0,0-2.874-1.979c-1.839.473-2.915,5.331-2.662,6.942C479.188,283.439,483.343,280.7,483.129,278.814Z" transform="translate(-469.552 -266.45)" fill="none" stroke="#ce9222" stroke-linecap="round" stroke-linejoin="round" stroke-width="1.2"/>
              </g>
              <g id="Group_23888" data-name="Group 23888" transform="translate(450.382 12.995)">
                <g id="Group_23869" data-name="Group 23869" transform="translate(0 2.752)">
                  <g id="Group_23866" data-name="Group 23866" transform="translate(8.147)">
                    <g id="Group_23865" data-name="Group 23865">
                      <g id="Group_23864" data-name="Group 23864">
                        <line id="Line_1639" data-name="Line 1639" x2="9.665" fill="none" stroke="#02bac9" stroke-linecap="round" stroke-linejoin="round" stroke-width="1.2"/>
                        <line id="Line_1640" data-name="Line 1640" x1="9.665" transform="translate(0 2.003)" fill="none" stroke="#02bac9" stroke-linecap="round" stroke-linejoin="round" stroke-width="1.2"/>
                      </g>
                    </g>
                  </g>
                  <g id="Group_23867" data-name="Group 23867" transform="translate(0 3.438)">
                    <path id="Path_68175" data-name="Path 68175" d="M489.092,440.263l2.235,6.106,9.934,1.216-1.557-4.678Z" transform="translate(-475.957 -440.263)" fill="none" stroke="#02bac9" stroke-linecap="round" stroke-linejoin="round" stroke-width="1.2"/>
                    <path id="Path_68176" data-name="Path 68176" d="M432.353,447.9l1.657-5.4,11.478-2.232-1.97,6.193Z" transform="translate(-432.353 -440.263)" fill="none" stroke="#02bac9" stroke-linecap="round" stroke-linejoin="round" stroke-width="1.2"/>
                  </g>
                  <g id="Group_23868" data-name="Group 23868" transform="translate(1.78 3.438)">
                    <path id="Path_68177" data-name="Path 68177" d="M489.092,460.837l10.612-5.306v-8.136l-8.377-1.025-2.235-6.106Z" transform="translate(-477.736 -440.263)" fill="none" stroke="#02bac9" stroke-linecap="round" stroke-linejoin="round" stroke-width="1.2"/>
                    <path id="Path_68178" data-name="Path 68178" d="M451.4,460.837l-11.17-5.306-.186-7.863,9.386-1.211,1.97-6.193Z" transform="translate(-440.04 -440.263)" fill="none" stroke="#02bac9" stroke-linecap="round" stroke-linejoin="round" stroke-width="1.2"/>
                  </g>
                </g>
                <g id="Group_23870" data-name="Group 23870" transform="translate(3.802)">
                  <path id="Path_68179" data-name="Path 68179" d="M471.349,421.347v-7.822H457.484v1.941" transform="translate(-455.468 -413.526)" fill="none" stroke="#02bac9" stroke-linecap="round" stroke-linejoin="round" stroke-width="1.2"/>
                  <line id="Line_1641" data-name="Line 1641" y1="5.672" transform="translate(2.016 1.941)" fill="none" stroke="#02bac9" stroke-linecap="round" stroke-linejoin="round" stroke-width="1.2"/>
                  <path id="Path_68180" data-name="Path 68180" d="M448.776,427.973v-6.064h2.016" transform="translate(-448.776 -419.968)" fill="none" stroke="#02bac9" stroke-linecap="round" stroke-linejoin="round" stroke-width="1.2"/>
                </g>
              </g>
              <path id="Path_70644" data-name="Path 70644" d="M80.68,23.31,83.8,26.431,80.68,29.553" transform="translate(-2.673 -0.229)" fill="none" stroke="#e3e3e3" stroke-linecap="round" stroke-width="1"/>
              <path id="Path_70645" data-name="Path 70645" d="M80.68,23.31,83.8,26.431,80.68,29.553" transform="translate(109.327 -0.229)" fill="none" stroke="#e3e3e3" stroke-linecap="round" stroke-width="1"/>
              <path id="Path_70646" data-name="Path 70646" d="M80.68,23.31,83.8,26.431,80.68,29.553" transform="translate(218.327 -0.229)" fill="none" stroke="#e3e3e3" stroke-linecap="round" stroke-width="1"/>
              <path id="Path_70647" data-name="Path 70647" d="M80.68,23.31,83.8,26.431,80.68,29.553" transform="translate(325.327 -0.229)" fill="none" stroke="#e3e3e3" stroke-linecap="round" stroke-width="1"/>
            </g>
          </g>
          <text id="Data_ML_Application_Packaging" data-name="Data &amp; ML Application Packaging" transform="translate(433 129)" fill="#003aff" font-size="14" font-family="Graphik-Semibold, Graphik" font-weight="600"><tspan x="-113.883" y="0">Data &amp; ML Application Packaging</tspan></text>
          <g id="Group_25559" data-name="Group 25559" transform="translate(3)">
            <g transform="matrix(1, 0, 0, 1, -47, -70)" filter="url(#Rectangle_149241)">
              <rect id="Rectangle_149241-2" data-name="Rectangle 149241" width="462" height="122" rx="9" transform="translate(246 228)" fill="#fff"/>
            </g>
            <g id="Group_23905" data-name="Group 23905" transform="translate(239.015 173)">
              <line id="Line_1650" data-name="Line 1650" x2="282.418" transform="translate(49.066 25.494)" fill="none" stroke="#d6d6d6" stroke-width="1" opacity="0.51"/>
              <g id="Group_23901" data-name="Group 23901">
                <text id="Model_Packaging" data-name="Model
Packaging" transform="translate(244.985 73)" font-size="13" font-family="Graphik-Regular, Graphik"><tspan x="-19.312" y="0">Model</tspan><tspan x="-32.188" y="17">Packaging</tspan></text>
                <text id="Model_Deployment" data-name="Model
Deployment" transform="translate(354.985 73)" font-size="13" font-family="Graphik-Regular, Graphik"><tspan x="-19.312" y="0">Model</tspan><tspan x="-37.804" y="17">Deployment</tspan></text>
                <text id="Collaborative_Work_Bench" data-name="Collaborative
Work Bench" transform="translate(134.985 73)" font-size="13" font-family="Graphik-Regular, Graphik"><tspan x="-41.477" y="0">Collaborative</tspan><tspan x="-37.134" y="17">Work Bench</tspan></text>
                <text id="Data_Preparation" data-name="Data
Preparation" transform="translate(24.985 73)" font-size="13" font-family="Graphik-Regular, Graphik"><tspan x="-14.196" y="0">Data</tspan><tspan x="-35.958" y="17">Preparation</tspan></text>
                <g id="Group_25680" data-name="Group 25680" transform="translate(109)">
                  <circle id="Ellipse_4012" data-name="Ellipse 4012" cx="25" cy="25" r="25" transform="translate(220.984)" fill="#d2fbff"/>
                  <g id="Group_23897" data-name="Group 23897" transform="translate(233.592 11.821)">
                    <path id="Path_68130" data-name="Path 68130" d="M144,161.289a1.445,1.445,0,0,1,1.217-.608h8.517c.676,0,4.394-3.729,4.867-4.259a32.525,32.525,0,0,0,3.042-4.867,2.435,2.435,0,0,0-2.434-.608c-1.076.25-1.708,1.022-2.433,2.433l-2.789,1.448" transform="translate(-134.875 -137.562)" fill="none" stroke="#02bac9" stroke-linejoin="round" stroke-width="1.2"/>
                    <path id="Path_68131" data-name="Path 68131" d="M144.517,158.259h4.867c2.433,0,2.433-3.042,0-3.042h-3.215c-.507,0-1.457-1.217-2.261-1.217h-3.042a4.254,4.254,0,0,0-2.433,1.217L136,157.65" transform="translate(-131.742 -138.791)" fill="none" stroke="#02bac9" stroke-linejoin="round" stroke-width="1.2"/>
                    <rect id="Rectangle_149232" data-name="Rectangle 149232" width="4.302" height="10.324" transform="translate(0 20.685) rotate(-45)" fill="none" stroke="#02bac9" stroke-linejoin="round" stroke-width="1.2"/>
                    <line id="Line_1630" data-name="Line 1630" x2="1.93" y2="0.965" transform="translate(2.769 20.747)" fill="none" stroke="#02bac9" stroke-linejoin="round" stroke-width="1.2"/>
                    <path id="Path_68132" data-name="Path 68132" d="M144,145.734V136h4.867" transform="translate(-134.875 -131.741)" fill="none" stroke="#02bac9" stroke-linejoin="round" stroke-width="1.2"/>
                    <path id="Path_68133" data-name="Path 68133" d="M152,143.6V129h4.867v15.209" transform="translate(-138.008 -129)" fill="none" stroke="#02bac9" stroke-linejoin="round" stroke-width="1.2"/>
                  </g>
                </g>
                <g id="Group_25678" data-name="Group 25678" transform="translate(-1)">
                  <circle id="Ellipse_4012-2" data-name="Ellipse 4012" cx="25" cy="25" r="25" transform="translate(220.984)" fill="#e2f3e6"/>
                  <g id="Group_23897-2" data-name="Group 23897" transform="translate(233.592 11.821)">
                    <path id="Path_68130-2" data-name="Path 68130" d="M144,161.289a1.445,1.445,0,0,1,1.217-.608h8.517c.676,0,4.394-3.729,4.867-4.259a32.525,32.525,0,0,0,3.042-4.867,2.435,2.435,0,0,0-2.434-.608c-1.076.25-1.708,1.022-2.433,2.433l-2.789,1.448" transform="translate(-134.875 -137.562)" fill="none" stroke="#42b65c" stroke-linejoin="round" stroke-width="1.2"/>
                    <path id="Path_68131-2" data-name="Path 68131" d="M144.517,158.259h4.867c2.433,0,2.433-3.042,0-3.042h-3.215c-.507,0-1.457-1.217-2.261-1.217h-3.042a4.254,4.254,0,0,0-2.433,1.217L136,157.65" transform="translate(-131.742 -138.791)" fill="none" stroke="#42b65c" stroke-linejoin="round" stroke-width="1.2"/>
                    <rect id="Rectangle_149232-2" data-name="Rectangle 149232" width="4.302" height="10.324" transform="translate(0 20.685) rotate(-45)" fill="none" stroke="#42b65c" stroke-linejoin="round" stroke-width="1.2"/>
                    <line id="Line_1630-2" data-name="Line 1630" x2="1.93" y2="0.965" transform="translate(2.769 20.747)" fill="none" stroke="#42b65c" stroke-linejoin="round" stroke-width="1.2"/>
                    <path id="Path_68132-2" data-name="Path 68132" d="M144,145.734V136h4.867" transform="translate(-134.875 -131.741)" fill="none" stroke="#42b65c" stroke-linejoin="round" stroke-width="1.2"/>
                    <path id="Path_68133-2" data-name="Path 68133" d="M152,143.6V129h4.867v15.209" transform="translate(-138.008 -129)" fill="none" stroke="#42b65c" stroke-linejoin="round" stroke-width="1.2"/>
                  </g>
                </g>
                <g id="Group_25677" data-name="Group 25677">
                  <circle id="Ellipse_4010" data-name="Ellipse 4010" cx="25" cy="25" r="25" transform="translate(109.984)" fill="#d3ebff"/>
                  <g id="Group_23899" data-name="Group 23899" transform="translate(125.93 14)">
                    <path id="Path_68135" data-name="Path 68135" d="M152.718,70v.507c0,1.9-4.056,4.943-6.591,6.591v4.056L144.1,82.675h-.507V77.1C141.056,75.45,137,72.408,137,70.507V70" transform="translate(-135.986 -59.65)" fill="none" stroke="#008cff" stroke-miterlimit="10" stroke-width="1.2"/>
                    <path id="Path_68136" data-name="Path 68136" d="M139.563,68.028h-4.056a.507.507,0,0,1-.507-.507V66.507a.507.507,0,0,1,.507-.507h16.732a.507.507,0,0,1,.507.507v1.014a.507.507,0,0,1-.507.507h-8.112" transform="translate(-135 -57.678)" fill="none" stroke="#008cff" stroke-miterlimit="10" stroke-width="1.2"/>
                    <path id="Path_68137" data-name="Path 68137" d="M160,62.028V60.507a.507.507,0,0,1,.507-.507h1.014a.507.507,0,0,1,.507.507v1.521" transform="translate(-147.324 -54.721)" fill="none" stroke="#008cff" stroke-miterlimit="10" stroke-width="1.2"/>
                    <line id="Line_1631" data-name="Line 1631" y2="3" transform="translate(7.056 5)" fill="none" stroke="#008cff" stroke-miterlimit="10" stroke-width="1.2"/>
                    <rect id="Rectangle_149233" data-name="Rectangle 149233" width="2" height="4" rx="1" transform="translate(4.056 2)" fill="none" stroke="#008cff" stroke-miterlimit="10" stroke-width="1.2"/>
                    <rect id="Rectangle_149234" data-name="Rectangle 149234" width="2" height="2" rx="1" transform="translate(11.056 0)" fill="none" stroke="#008cff" stroke-miterlimit="10" stroke-width="1.2"/>
                    <line id="Line_1632" data-name="Line 1632" y2="4" transform="translate(1.056 0)" fill="none" stroke="#008cff" stroke-miterlimit="10" stroke-width="1.2"/>
                    <line id="Line_1633" data-name="Line 1633" y2="3" transform="translate(16.056 1)" fill="none" stroke="#008cff" stroke-miterlimit="10" stroke-width="1.2"/>
                  </g>
                </g>
                <g id="Group_25676" data-name="Group 25676">
                  <circle id="Ellipse_4009" data-name="Ellipse 4009" cx="25" cy="25" r="25" transform="translate(-0.016)" fill="#f0e9db"/>
                  <g id="Group_23883" data-name="Group 23883" transform="translate(12.553 14.716)">
                    <path id="Path_68138" data-name="Path 68138" d="M48,226.938h3.876l1.454.484L54.783,225l1.454,3.392,1.454-2.423,1.454,1.938.485-1.454.969.485.485-.485.969.485h.485" transform="translate(-48 -218.701)" fill="none" stroke="#ce9222" stroke-miterlimit="10" stroke-width="1.2"/>
                    <path id="Path_68139" data-name="Path 68139" d="M57.115,221.361a5.815,5.815,0,1,1,0,2.909" transform="translate(-52.699 -214.577)" fill="none" stroke="#ce9222" stroke-miterlimit="10" stroke-width="1.2"/>
                    <path id="Path_68140" data-name="Path 68140" d="M52,218.785a8.237,8.237,0,1,1,0,2.9" transform="translate(-50.062 -212)" fill="none" stroke="#ce9222" stroke-miterlimit="10" stroke-width="1.2"/>
                    <line id="Line_1634" data-name="Line 1634" x2="2.895" transform="translate(19.253 7.963)" fill="none" stroke="#ce9222" stroke-miterlimit="10" stroke-width="1.2"/>
                    <path id="Path_68141" data-name="Path 68141" d="M79,240.938l5.614,5.614a.969.969,0,0,0,1.37,0l.568-.568a.969.969,0,0,0,0-1.37L80.938,239" transform="translate(-63.98 -225.918)" fill="none" stroke="#ce9222" stroke-miterlimit="10" stroke-width="1.2"/>
                  </g>
                </g>
              </g>
              <path id="Path_70648" data-name="Path 70648" d="M80.68,23.31,83.8,26.431,80.68,29.553" transform="translate(-4.432 -1.229)" fill="none" stroke="#e3e3e3" stroke-linecap="round" stroke-width="1"/>
              <path id="Path_70649" data-name="Path 70649" d="M80.68,23.31,83.8,26.431,80.68,29.553" transform="translate(109.568 -1.229)" fill="none" stroke="#e3e3e3" stroke-linecap="round" stroke-width="1"/>
              <path id="Path_75729" data-name="Path 75729" d="M80.68,23.31,83.8,26.431,80.68,29.553" transform="translate(221.566 -1.229)" fill="none" stroke="#e3e3e3" stroke-linecap="round" stroke-width="1"/>
            </g>
          </g>
          <text id="Machine_Learning_Lifecycle" data-name="Machine Learning Lifecycle" transform="translate(435 302)" fill="#003aff" font-size="14" font-family="Graphik-Semibold, Graphik" font-weight="600"><tspan x="-94.283" y="0">Machine Learning Lifecycle</tspan></text>
          <line id="Line_1651" data-name="Line 1651" x2="88.183" transform="translate(28.345 89.5)" fill="none" stroke="#008eff" stroke-width="2" stroke-dasharray="4"/>
          <g id="Group_23910" data-name="Group 23910" transform="translate(0 59)">
            <text id="Software_Configuration_Management" data-name="Software Configuration Management" transform="translate(38 81)" font-size="12" font-family="Graphik-Medium, Graphik" font-weight="500"><tspan x="-27.462" y="0">Software </tspan><tspan x="-41.556" y="14">Configuration </tspan><tspan x="-37.986" y="28">Management</tspan></text>
            <g id="Group_23893" data-name="Group 23893" transform="translate(7)">
              <g transform="matrix(1, 0, 0, 1, -51, -129)" filter="url(#Ellipse_4019)">
                <circle id="Ellipse_4019-6" data-name="Ellipse 4019" cx="30.5" cy="30.5" r="30.5" transform="translate(51 129)" fill="#fff"/>
              </g>
              <g id="Group_23881" data-name="Group 23881" transform="translate(11.382 12.1)">
                <path id="Path_68182" data-name="Path 68182" d="M661.552,2476.137c0-.03,0-.059,0-.089,0-.01,0-.02,0-.03s0-.039,0-.059,0-.024,0-.035,0-.035,0-.053,0-.026,0-.039,0-.033,0-.05,0-.027,0-.04,0-.032,0-.048,0-.027,0-.04,0-.031,0-.047l0-.041c0-.015,0-.031,0-.046s0-.027,0-.042,0-.031-.005-.045l-.005-.042-.006-.045-.006-.042-.007-.044-.007-.042-.007-.044-.007-.042-.008-.044-.008-.042-.008-.043-.009-.042-.009-.043-.01-.042-.01-.042-.01-.042-.01-.042-.011-.042-.011-.041-.012-.042-.011-.041-.012-.042-.012-.04-.013-.042-.013-.04-.013-.042-.013-.04-.014-.042-.014-.039-.015-.042-.014-.039-.016-.042-.015-.038-.016-.042-.015-.038-.017-.042-.016-.037-.018-.042-.016-.037-.019-.042-.016-.036-.019-.042L661,2473.7l-.02-.042-.017-.035-.021-.042-.017-.033-.022-.043-.017-.032-.023-.044-.017-.031-.025-.044-.016-.029-.026-.046-.014-.023-.03-.051,0,0q-.059-.1-.122-.191l-.012-.019-.031-.046-.017-.025-.03-.042-.02-.028-.029-.04-.021-.03-.029-.039-.022-.029-.03-.039-.023-.03-.03-.037-.024-.03-.03-.036-.025-.03-.03-.035-.026-.03-.03-.035-.027-.031-.031-.034-.027-.03-.031-.034-.028-.03-.031-.033-.029-.03-.032-.032-.029-.029-.032-.032-.03-.029-.032-.031-.031-.029-.033-.03-.031-.029-.033-.03-.032-.028-.033-.029-.033-.028-.034-.029-.034-.028-.034-.027-.034-.028-.034-.027-.035-.027-.034-.026-.036-.028-.034-.025-.037-.027-.034-.025-.038-.027-.034-.024-.01-.008v-3.709a8.951,8.951,0,0,1,.971.44l.185.1,1.524-1.524a.565.565,0,0,1,.8,0l2.674,2.674a.565.565,0,0,1,0,.8l.4.4a1.132,1.132,0,0,0,0-1.6l-2.674-2.674a1.131,1.131,0,0,0-1.6,0l-1.23,1.23a9.488,9.488,0,0,0-1.049-.447v-6.351a1.483,1.483,0,0,0-1.481-1.481H638.242l0-.005c-.011-.028-.022-.055-.033-.083l-.007-.016c-.012-.028-.024-.055-.036-.082l-.006-.012c-.013-.028-.026-.056-.04-.083v0l-.044-.083-.007-.012c-.014-.026-.029-.052-.044-.078l-.009-.015c-.015-.026-.031-.051-.047-.076l-.008-.013-.051-.077,0-.005-.053-.073-.007-.009-.055-.072-.01-.013-.057-.069-.01-.012-.06-.068-.007-.007-.063-.066,0,0-.066-.065-.011-.01-.066-.06-.012-.011-.069-.058-.01-.008-.075-.059a2.908,2.908,0,0,0-1.773-.6c-.051,0-.1,0-.151,0a2.939,2.939,0,0,0-2.78,2.78q0,.075,0,.151c0,.025,0,.049,0,.074,0,.008,0,.016,0,.024s0,.033,0,.049,0,.02,0,.029,0,.029,0,.043l0,.031c0,.014,0,.028,0,.041s0,.021,0,.032,0,.027,0,.04,0,.021,0,.032l.005.039.005.032.006.038.006.032.007.038.007.032.008.037.007.032.009.037.008.031.01.037.009.031.011.037.009.031.012.037.01.03.013.038.01.028.015.04.01.026.022.054.01.024.021.049.012.026.017.036.014.029.017.033.015.029.017.032.016.029.017.031.017.029.018.031.018.029.018.029.018.029.019.029.019.028.019.028.02.028.02.028.021.028.021.027.021.027.021.026.022.027.022.026.023.026.022.025.023.026.023.025.024.025.024.024.048.048.024.023.026.024.024.022.026.024.025.022.027.023.025.021.027.022.026.021.028.022.026.02.028.021.027.019.029.021.027.019.029.02.028.019.03.019.028.018.03.018.029.017.03.018.029.017.031.017.03.016.031.016.031.016.031.015.032.015.03.014.041.018.049.021.037.015.03.012.035.013.031.011.034.012.032.011.034.011.032.01.035.01.033.009.035.01.033.008.036.009.033.008.036.008.033.007.037.007.033.006.037.006.033.005.038.005.033,0,.039,0,.032,0h.008v2.534h-.65a.136.136,0,0,1-.136-.135v-1.169l-.2-.062a4.23,4.23,0,0,1-.725-.3l-.185-.1-.827.827a.136.136,0,0,1-.192,0l-1.32-1.32a.136.136,0,0,1,0-.192l.827-.827-.1-.185a4.257,4.257,0,0,1-.3-.725l-.062-.2h-1.169a.136.136,0,0,1-.136-.135v-1.867a.136.136,0,0,1,.136-.135h1.169l.062-.2a4.262,4.262,0,0,1,.3-.726l.1-.185-.827-.827a.135.135,0,0,1,0-.192l1.32-1.32a.136.136,0,0,1,.192,0l.827.827.185-.1a4.271,4.271,0,0,1,.725-.3l.2-.062v-1.169a.136.136,0,0,1,.136-.136h1.867a.136.136,0,0,1,.136.136v1.169l.2.062a4.269,4.269,0,0,1,.725.3l.185.1.827-.827a.136.136,0,0,1,.192,0l1.32,1.32a.136.136,0,0,1,0,.192l-.827.827.1.185a4.257,4.257,0,0,1,.3.726l.541-.168a4.846,4.846,0,0,0-.247-.634l.535-.535a.7.7,0,0,0,0-.993l-1.32-1.32a.7.7,0,0,0-.993,0l-.535.535q-.213-.1-.435-.18v-.757a.7.7,0,0,0-.7-.7h-1.867a.7.7,0,0,0-.7.7v.757c-.148.053-.293.113-.435.18l-.535-.535a.7.7,0,0,0-.993,0l-1.32,1.32a.7.7,0,0,0,0,.993l.535.535q-.1.213-.18.435h-.757a.7.7,0,0,0-.7.7v1.867a.7.7,0,0,0,.7.7h.757c.053.147.113.293.18.435l-.535.535a.7.7,0,0,0,0,.992l1.32,1.32a.7.7,0,0,0,.993,0l.535-.535c.142.067.287.127.435.18v.757a.7.7,0,0,0,.7.7h.65V2491.1h2.651v-2.889H637.3v2.323h-1.518v-29.72a.916.916,0,0,1,.915-.915h20.927a.916.916,0,0,1,.915.915v29.72h-1.518v-2.606h-17.8v.566h17.234v2.606H659.1v-10.3A5.637,5.637,0,0,0,661.552,2476.137Zm-26.34-15.323v1.9h-.01l-.025,0-.032,0-.025,0-.031-.005-.026,0-.031-.006-.026-.005-.03-.007-.026-.006-.03-.008-.025-.006-.029-.008-.025-.007-.03-.009-.024-.007-.031-.01-.022-.007-.051-.018-.024-.009-.028-.01-.026-.011-.026-.01-.026-.011-.025-.011-.026-.012-.024-.011-.026-.013-.023-.012-.026-.013-.023-.012-.026-.014-.022-.012-.026-.015-.022-.012-.025-.015-.021-.013-.025-.016-.02-.013-.026-.017-.019-.013-.026-.018-.014-.01-.061-.046-.01-.008-.026-.021-.017-.014-.024-.02-.018-.015-.023-.02-.018-.016-.022-.021-.018-.017-.022-.021-.018-.017-.021-.021-.017-.018-.021-.021-.017-.019-.02-.022-.017-.019-.02-.022-.016-.019-.019-.023-.015-.019-.019-.024-.015-.019-.019-.024-.01-.014-.038-.053-.014-.02-.016-.024-.014-.022-.015-.024-.014-.023-.015-.024-.014-.023-.014-.024-.013-.024-.013-.024-.013-.024-.013-.025-.012-.025-.012-.025-.012-.026-.011-.025-.011-.026-.011-.024-.011-.028-.01-.024-.011-.03-.009-.022-.012-.035-.006-.018-.017-.052-.006-.019-.01-.035-.006-.023-.009-.032-.006-.024-.008-.031-.006-.025-.007-.03-.005-.025-.006-.031,0-.025-.005-.031,0-.026,0-.031,0-.026c0-.011,0-.021,0-.032l0-.025,0-.033,0-.025c0-.012,0-.023,0-.035s0-.016,0-.023,0-.026,0-.039,0-.013,0-.019,0-.04,0-.059a2.371,2.371,0,0,1,2.369-2.369l.092,0h.03l.062,0,.035,0,.056.006.036,0,.054.008.036.006.055.01.034.007.06.014.028.007.086.023,0,0,.081.025.028.01.056.021.032.012.051.021.033.014.049.022.032.015.05.025.03.015.054.03.023.013.076.046.007,0,.067.044.024.017.048.034.027.021.043.034.027.022.042.035.026.023.041.038.024.023.044.044.018.019.061.065.008.009.05.058.019.024.037.046.021.028.033.044.021.03.03.045.019.03.03.048.017.029.031.055.013.023c.014.026.027.052.04.078h-.933A1.483,1.483,0,0,0,635.211,2460.813Zm25.772,15.458c0,.005,0,.011,0,.017q0,.063-.005.127v.021c0,.042-.005.083-.009.125l0,.021c0,.042-.008.084-.013.126l0,.014c0,.043-.01.086-.016.129v0c-.006.043-.013.086-.02.129l0,.017c-.007.041-.015.082-.023.123l0,.021q-.012.061-.026.121l0,.019c-.01.041-.02.083-.03.124l0,.009q-.016.063-.034.125l0,.007c-.012.041-.024.082-.037.123l-.005.017q-.019.059-.039.118l-.006.019c-.014.039-.028.079-.043.117l-.006.015c-.015.041-.031.08-.048.12l0,0c-.017.04-.034.08-.051.12l0,.009c-.017.039-.035.077-.053.115l-.008.016-.055.111-.009.016c-.019.037-.039.074-.059.111l-.007.012q-.064.116-.133.228l-.006.01q-.033.054-.068.106l-.01.015-.07.1-.01.015c-.024.034-.049.069-.074.1l-.007.01q-.079.105-.164.208l-.009.011-.082.1-.013.014-.084.092-.012.013-.089.093-.007.007-.094.092,0,0-.1.089-.013.011-.094.083-.016.014-.1.081-.005,0v-7.907l.006,0,.1.08.016.014.094.083.013.012.095.088,0,0,.093.091.008.008.088.092.013.014.084.092.013.015.082.1.009.011q.085.1.163.207l.007.01.074.1.011.015.07.1.01.015.068.106.006.01q.069.112.133.227l.007.012c.02.036.04.073.059.111l.009.017q.028.055.055.111l.008.016c.018.038.036.077.053.115l0,.009c.018.04.035.08.051.12l0,0c.016.04.032.08.048.12l.006.015c.015.039.029.078.042.116l.007.019c.013.039.027.078.039.117l.005.017c.013.041.025.082.037.123l0,.007c.012.042.023.083.034.125l0,.009q.016.062.03.124l0,.019c.009.04.018.081.026.121l0,.021c.008.041.016.082.023.123l0,.017c.007.043.014.086.02.129v0c.006.043.011.086.016.129l0,.014c0,.042.009.084.013.126l0,.021c0,.041.006.083.009.124v.022c0,.042,0,.084.005.126,0,.006,0,.011,0,.017,0,.044,0,.089,0,.134S660.985,2476.227,660.984,2476.271Z" transform="translate(-629.473 -2454.344)" fill="#008eff" stroke="#008eff" stroke-width="0.3"/>
                <path id="Path_68183" data-name="Path 68183" d="M1490.037,2941.144H1488.3a9.544,9.544,0,0,0-.606-1.417l-.5.264a8.914,8.914,0,0,1,.63,1.519l.062.2h2.154a.566.566,0,0,1,.565.565v3.781a.566.566,0,0,1-.565.565h-2.154l-.062.2a8.906,8.906,0,0,1-.63,1.519l-.1.185,1.524,1.524a.566.566,0,0,1,0,.8l-2.674,2.674a.566.566,0,0,1-.8,0l-1.376-1.376-.4.4,1.376,1.376a1.132,1.132,0,0,0,1.6,0l2.674-2.674a1.132,1.132,0,0,0,0-1.6l-1.23-1.23a9.53,9.53,0,0,0,.51-1.23h1.739a1.133,1.133,0,0,0,1.131-1.131v-3.781A1.133,1.133,0,0,0,1490.037,2941.144Z" transform="translate(-1452.838 -2922.373)" fill="#008eff" stroke="#008eff" stroke-width="0.3"/>
                <path id="Path_68184" data-name="Path 68184" d="M1330.606,3291.133a1.146,1.146,0,1,0,1.122-.915A1.141,1.141,0,0,0,1330.606,3291.133Zm1.7.23a.579.579,0,1,1-.579-.579A.58.58,0,0,1,1332.308,3291.363Z" transform="translate(-1305.515 -3260.332)" fill="#008eff" stroke="#008eff" stroke-width="0.3"/>
                <path id="Path_68185" data-name="Path 68185" d="M848.279,2678.447v3.758H868v-4.041H852.216v.566h15.216v2.908H848.845v-3.192Z" transform="translate(-840.455 -2670.161)" fill="#008eff" stroke="#008eff" stroke-width="0.3"/>
                <path id="Path_68186" data-name="Path 68186" d="M848.279,3103.107H868v-4.041H852.735v.566h14.7v2.908H848.845v-3.191h-.566Z" transform="translate(-840.455 -3076.015)" fill="#008eff" stroke="#008eff" stroke-width="0.3"/>
                <path id="Path_68187" data-name="Path 68187" d="M848.279,2962.806h10.8v-.566h-10.23v-2.908h18.587v2.908h-5.924v.566H868v-4.041h-19.72Z" transform="translate(-840.455 -2940.73)" fill="#008eff" stroke="#008eff" stroke-width="0.3"/>
                <path id="Path_68188" data-name="Path 68188" d="M848.279,2822.5h13.061v-.566H848.845v-2.908h18.587v3.192H868v-3.758h-19.72Z" transform="translate(-840.455 -2805.445)" fill="#008eff" stroke="#008eff" stroke-width="0.3"/>
                <path id="Path_68189" data-name="Path 68189" d="M848.279,3295.97H854.1v-1.94h-5.821Zm.566-1.374h4.689v.808h-4.689Z" transform="translate(-840.456 -3264.008)" fill="#008eff" stroke="#008eff" stroke-width="0.3"/>
              </g>
            </g>
          </g>
          <g id="Group_25682" data-name="Group 25682" transform="translate(51 363)">
            <text id="ML_Versioning" data-name="ML Versioning" transform="translate(38 81)" font-size="12" font-family="Graphik-Medium, Graphik" font-weight="500"><tspan x="-40.932" y="0">ML Versioning</tspan></text>
            <g id="Group_23893-2" data-name="Group 23893" transform="translate(7)">
              <g transform="matrix(1, 0, 0, 1, -102, -433)" filter="url(#Ellipse_4019-2)">
                <circle id="Ellipse_4019-7" data-name="Ellipse 4019" cx="30.5" cy="30.5" r="30.5" transform="translate(102 433)" fill="#fff"/>
              </g>
              <g id="Group_25686" data-name="Group 25686" transform="translate(-61 5)">
                <path id="Path_75730" data-name="Path 75730" d="M100.941,15.1,92,11,80,16.5,92,22l8.5-3.9" fill="none" stroke="#000d87" stroke-linecap="round" stroke-linejoin="round" stroke-width="1.2"/>
                <path id="Path_75731" data-name="Path 75731" d="M86.545,19.5,80,22.5,92,28l12-5.5-6.544-3" fill="none" stroke="#000d87" stroke-linecap="round" stroke-linejoin="round" stroke-width="1.2"/>
                <path id="Path_75732" data-name="Path 75732" d="M86.5,25.521,80,28.5,92,34l12-5.5-6.5-2.979" fill="none" stroke="#000d87" stroke-linecap="round" stroke-linejoin="round" stroke-width="1.2"/>
                <path id="Path_75733" data-name="Path 75733" d="M86.545,31.5,80,34.5,92,40l12-5.5-6.5-2.979" fill="none" stroke="#000d87" stroke-linecap="round" stroke-linejoin="round" stroke-width="1.2"/>
                <path id="Path_75734" data-name="Path 75734" d="M100.941,15.1,97,16.5l3.5,1.6Z" fill="none" stroke="#000d87" stroke-linecap="round" stroke-linejoin="round" stroke-width="1.2"/>
              </g>
            </g>
          </g>
          <g id="Group_25683" data-name="Group 25683" transform="translate(281 363)">
            <text id="ML_Validation" data-name="ML Validation" transform="translate(38 81)" font-size="12" font-family="Graphik-Medium, Graphik" font-weight="500"><tspan x="-39.078" y="0">ML Validation</tspan></text>
            <g id="Group_23893-3" data-name="Group 23893" transform="translate(7)">
              <g transform="matrix(1, 0, 0, 1, -332, -433)" filter="url(#Ellipse_4019-3)">
                <circle id="Ellipse_4019-8" data-name="Ellipse 4019" cx="30.5" cy="30.5" r="30.5" transform="translate(332 433)" fill="#fff"/>
              </g>
              <g id="Group_25687" data-name="Group 25687" transform="translate(-1409.683 -359.411)">
                <path id="Path_75735" data-name="Path 75735" d="M1435.422,389.688a.229.229,0,0,0,.179-.085l7.826-9.64a.329.329,0,0,1,.262-.13.345.345,0,0,1,.321.49l-6.491,14.241a1.411,1.411,0,0,1-2.467.187l-4.892-7.48a.346.346,0,0,1,.288-.537.36.36,0,0,1,.182.051l4.671,2.868a.235.235,0,0,0,.122.034Zm-4.975-3.654h0a1.051,1.051,0,0,0-.921.553,1.033,1.033,0,0,0,.047,1.066l4.891,7.481a2.113,2.113,0,0,0,3.69-.28l6.492-14.24a1.036,1.036,0,0,0-.067-.994,1.074,1.074,0,0,0-.89-.487,1.032,1.032,0,0,0-.805.39l-7.567,9.321-4.323-2.653a1.04,1.04,0,0,0-.547-.157Z" transform="translate(2.728 2.787)" fill="#000d88" stroke="#000d88" stroke-width="0.5"/>
                <path id="Path_75736" data-name="Path 75736" d="M1441.358,374.612a.35.35,0,1,0-.119.689h0a13.4,13.4,0,1,1-5.452.169.35.35,0,0,0-.162-.681,14.106,14.106,0,1,0,5.733-.177Z" transform="translate(1.31 1.386)" fill="#000d88" stroke="#000d88" stroke-width="0.5"/>
                <path id="Path_75737" data-name="Path 75737" d="M1458.856,392.966a1.183,1.183,0,0,1-.379.292,1.344,1.344,0,0,1-.536.128h0a2.021,2.021,0,0,0-.792.2,1.939,1.939,0,0,0-.821.756,2.052,2.052,0,0,0-.289,1.049,1.936,1.936,0,0,0,.194.854,1.969,1.969,0,0,0,.605.724,1.334,1.334,0,0,1,.4.475,1.188,1.188,0,0,1,.123.529,1.4,1.4,0,0,1-.363.922,1.257,1.257,0,0,1-.4.3,1.166,1.166,0,0,1-.5.111,1.458,1.458,0,0,1-.423-.068,2.011,2.011,0,0,0-.612-.1,1.95,1.95,0,0,0-1.409.605,2.009,2.009,0,0,0-.572,1.391,1.964,1.964,0,0,0,.333,1.087h0a1.243,1.243,0,0,1-.17,1.623,1.309,1.309,0,0,1-.913.39,1.261,1.261,0,0,1-.783-.282,1.96,1.96,0,0,0-1.2-.415,2.02,2.02,0,0,0-1.389.562,1.953,1.953,0,0,0-.611,1.417,2.16,2.16,0,0,0,.055.47h0a1.538,1.538,0,0,1,.038.333,1.194,1.194,0,0,1-.11.509,1.3,1.3,0,0,1-.5.546,1.4,1.4,0,0,1-.72.206,1.194,1.194,0,0,1-.572-.141,1.314,1.314,0,0,1-.486-.462,2,2,0,0,0-.746-.7,1.972,1.972,0,0,0-.915-.223,2.042,2.042,0,0,0-1.292.457,1.952,1.952,0,0,0-.7,1.3h0a1.377,1.377,0,0,1-.156.5,1.2,1.2,0,0,1-.481.473,1.376,1.376,0,0,1-.655.165,1.312,1.312,0,0,1-.779-.251,1.253,1.253,0,0,1-.474-.761,1.969,1.969,0,0,0-.737-1.158,2.043,2.043,0,0,0-1.214-.4,1.953,1.953,0,0,0-1.765,1.092v0a1.3,1.3,0,0,1-.494.542,1.232,1.232,0,0,1-.629.168,1.4,1.4,0,0,1-.917-.347,1.219,1.219,0,0,1-.295-.4,1.25,1.25,0,0,1-.11-.525c0-.064,0-.13.01-.2h0a1.968,1.968,0,0,0-.6-1.7,2.031,2.031,0,0,0-1.384-.551,1.966,1.966,0,0,0-1.348.542v0a1.255,1.255,0,0,1-.868.363,1.36,1.36,0,0,1-.921-.381,1.256,1.256,0,0,1-.4-.9,1.325,1.325,0,0,1,.157-.614h0a1.982,1.982,0,0,0-2.547-2.747h0a1.368,1.368,0,0,1-.538.115,1.239,1.239,0,0,1-.9-.4,1.378,1.378,0,0,1-.375-.921,1.157,1.157,0,0,1,.1-.477,1.343,1.343,0,0,1,.331-.453h0a1.953,1.953,0,0,0,.648-1.45,2.053,2.053,0,0,0-.545-1.382,1.9,1.9,0,0,0-.631-.453,1.936,1.936,0,0,0-.809-.173c-.044,0-.083,0-.117,0h0c-.03,0-.062,0-.089,0a1.306,1.306,0,0,1-.541-.111,1.231,1.231,0,0,1-.541-.488,1.428,1.428,0,0,1-.2-.715,1.252,1.252,0,0,1,.19-.674,1.277,1.277,0,0,1,.609-.494h0a1.962,1.962,0,0,0,1.227-1.833,2.012,2.012,0,0,0-.357-1.151,1.97,1.97,0,0,0-1.058-.76h0a1.252,1.252,0,0,1-.7-.485,1.287,1.287,0,0,1-.221-.736,1.356,1.356,0,0,1,.317-.883,1.22,1.22,0,0,1,.38-.292,1.338,1.338,0,0,1,.536-.128h0a2.013,2.013,0,0,0,.794-.2,1.957,1.957,0,0,0,.821-.757,2.058,2.058,0,0,0,.289-1.049,1.966,1.966,0,0,0-.194-.853,2.006,2.006,0,0,0-.608-.727h0a1.335,1.335,0,0,1-.4-.474,1.176,1.176,0,0,1-.122-.53,1.394,1.394,0,0,1,.363-.922,1.276,1.276,0,0,1,.4-.295,1.176,1.176,0,0,1,.5-.11,1.38,1.38,0,0,1,.424.068h0a2.067,2.067,0,0,0,.612.1,1.958,1.958,0,0,0,1.408-.605,2.005,2.005,0,0,0,.572-1.393,1.948,1.948,0,0,0-.33-1.087h0a1.241,1.241,0,0,1,.17-1.621,1.32,1.32,0,0,1,.914-.39,1.269,1.269,0,0,1,.782.28,1.966,1.966,0,0,0,1.2.418,2.022,2.022,0,0,0,1.387-.564,1.944,1.944,0,0,0,.613-1.416,2.066,2.066,0,0,0-.055-.469v0a1.449,1.449,0,0,1-.041-.331,1.182,1.182,0,0,1,.111-.508,1.279,1.279,0,0,1,.5-.547,1.374,1.374,0,0,1,.718-.2,1.2,1.2,0,0,1,.572.14,1.329,1.329,0,0,1,.486.464h0a1.962,1.962,0,0,0,1.664.921,2.035,2.035,0,0,0,1.291-.461,1.946,1.946,0,0,0,.7-1.3v0a1.381,1.381,0,0,1,.157-.5,1.19,1.19,0,0,1,.478-.474,1.375,1.375,0,0,1,.655-.164,1.316,1.316,0,0,1,.779.249,1.261,1.261,0,0,1,.475.761,1.959,1.959,0,0,0,.739,1.159,2.02,2.02,0,0,0,1.211.4,1.955,1.955,0,0,0,1.768-1.091V372.3a1.3,1.3,0,0,1,.493-.541,1.228,1.228,0,0,1,.631-.168,1.375,1.375,0,0,1,.917.347,1.221,1.221,0,0,1,.293.394,1.257,1.257,0,0,1,.111.526,1.36,1.36,0,0,1-.013.193v0a1.971,1.971,0,0,0,.6,1.7,2.037,2.037,0,0,0,1.387.549,1.947,1.947,0,0,0,1.346-.542,1.244,1.244,0,0,1,.87-.363,1.35,1.35,0,0,1,.918.381,1.259,1.259,0,0,1,.4.9,1.331,1.331,0,0,1-.157.614,2,2,0,0,0,1.756,2.912,1.928,1.928,0,0,0,.794-.166h0a1.356,1.356,0,0,1,.536-.114,1.231,1.231,0,0,1,.9.4,1.369,1.369,0,0,1,.373.921,1.207,1.207,0,0,1-.1.478,1.4,1.4,0,0,1-.333.453,1.956,1.956,0,0,0-.647,1.45,2.035,2.035,0,0,0,.543,1.38,1.934,1.934,0,0,0,1.441.623l.115,0h0l.086,0a1.292,1.292,0,0,1,.542.113,1.217,1.217,0,0,1,.541.49,1.41,1.41,0,0,1,.2.712,1.25,1.25,0,0,1-.191.676,1.284,1.284,0,0,1-.609.494,1.98,1.98,0,0,0-.919.767,2.029,2.029,0,0,0,.051,2.218,1.972,1.972,0,0,0,1.058.757,1.265,1.265,0,0,1,.694.487,1.287,1.287,0,0,1,.224.735,1.366,1.366,0,0,1-.319.883Zm-.4-2.774a1.265,1.265,0,0,1-.686-.487,1.318,1.318,0,0,1-.231-.752,1.3,1.3,0,0,1,.2-.693,1.277,1.277,0,0,1,.6-.5,1.974,1.974,0,0,0,.93-.766,1.941,1.941,0,0,0,.3-1.049,2.075,2.075,0,0,0-.519-1.378,1.9,1.9,0,0,0-.629-.462,2.012,2.012,0,0,0-.83-.174c-.039,0-.08,0-.119,0h0c-.034,0-.063,0-.086,0a1.3,1.3,0,0,1-.527-.11,1.266,1.266,0,0,1-.554-.487,1.358,1.358,0,0,1-.2-.708,1.253,1.253,0,0,1,.42-.936,2.037,2.037,0,0,0,.5-.686,1.871,1.871,0,0,0,.158-.758,2.06,2.06,0,0,0-.563-1.4,1.938,1.938,0,0,0-1.412-.625,2.052,2.052,0,0,0-.811.172h0a1.309,1.309,0,0,1-.519.111,1.278,1.278,0,0,1-.9-.386,1.3,1.3,0,0,1-.382-.906,1.28,1.28,0,0,1,.153-.6,2.032,2.032,0,0,0,.236-.936,1.953,1.953,0,0,0-.618-1.409,2.036,2.036,0,0,0-1.4-.575,1.96,1.96,0,0,0-1.348.551,1.25,1.25,0,0,1-.868.355,1.339,1.339,0,0,1-.908-.361,1.242,1.242,0,0,1-.4-.921,1.764,1.764,0,0,1,.013-.182h0a2.208,2.208,0,0,0,.018-.286,1.912,1.912,0,0,0-.944-1.667,2.092,2.092,0,0,0-1.075-.3,1.933,1.933,0,0,0-.986.265,1.987,1.987,0,0,0-.761.832l0,0a1.287,1.287,0,0,1-.493.533,1.271,1.271,0,0,1-.65.174,1.339,1.339,0,0,1-.793-.261,1.274,1.274,0,0,1-.475-.752,1.961,1.961,0,0,0-.74-1.171,2.017,2.017,0,0,0-1.2-.386,2.043,2.043,0,0,0-1.281.444,1.847,1.847,0,0,0-.464.555,2.045,2.045,0,0,0-.238.756h0a1.244,1.244,0,0,1-.448.837,1.335,1.335,0,0,1-.847.3,1.272,1.272,0,0,1-.589-.143,1.3,1.3,0,0,1-.486-.456h0a2.021,2.021,0,0,0-.745-.7,1.9,1.9,0,0,0-.9-.223,2.1,2.1,0,0,0-1.39.534,1.919,1.919,0,0,0-.46.622,1.868,1.868,0,0,0-.175.8,2.2,2.2,0,0,0,.056.491h0a1.366,1.366,0,0,1,.038.313,1.254,1.254,0,0,1-.4.911,1.332,1.332,0,0,1-.905.368,1.258,1.258,0,0,1-.778-.271,1.958,1.958,0,0,0-1.207-.424,2.011,2.011,0,0,0-1.405.591,1.982,1.982,0,0,0-.6,1.406,1.96,1.96,0,0,0,.339,1.1h0a1.271,1.271,0,0,1,.216.7,1.317,1.317,0,0,1-.376.906,1.256,1.256,0,0,1-.906.392,1.358,1.358,0,0,1-.4-.063h0a2.082,2.082,0,0,0-.633-.1,1.883,1.883,0,0,0-.795.176,1.99,1.99,0,0,0-.853.762,2.058,2.058,0,0,0-.316,1.088,1.864,1.864,0,0,0,.2.839,2,2,0,0,0,.612.726h0a1.3,1.3,0,0,1,.4.473,1.24,1.24,0,0,1,.124.546,1.35,1.35,0,0,1-.334.884,1.2,1.2,0,0,1-.385.292,1.312,1.312,0,0,1-.519.13h0a2.03,2.03,0,0,0-.81.2,1.907,1.907,0,0,0-.816.765,2.075,2.075,0,0,0-.275,1.038,2.009,2.009,0,0,0,.347,1.135,1.966,1.966,0,0,0,1.069.754h0a1.263,1.263,0,0,1,.685.49,1.327,1.327,0,0,1,.035,1.444,1.283,1.283,0,0,1-.6.495h0a1.982,1.982,0,0,0-.928.765,1.949,1.949,0,0,0-.3,1.049,2.079,2.079,0,0,0,.52,1.379,1.934,1.934,0,0,0,.626.462,2.033,2.033,0,0,0,.83.173c.041,0,.081,0,.122,0h.086a1.247,1.247,0,0,1,1.079.6,1.36,1.36,0,0,1,.206.711,1.251,1.251,0,0,1-.422.935h0a2.043,2.043,0,0,0-.5.686,1.857,1.857,0,0,0-.16.758,2.058,2.058,0,0,0,.563,1.4,1.924,1.924,0,0,0,1.411.626,2.053,2.053,0,0,0,.811-.173h0a1.357,1.357,0,0,1,.519-.11,1.284,1.284,0,0,1,.906.386,1.271,1.271,0,0,1,.23,1.507h0a2.012,2.012,0,0,0-.238.936,1.956,1.956,0,0,0,.618,1.409,2.045,2.045,0,0,0,1.4.574,1.939,1.939,0,0,0,1.345-.553h0a1.253,1.253,0,0,1,.871-.352,1.328,1.328,0,0,1,.908.361,1.244,1.244,0,0,1,.4.918,1.291,1.291,0,0,1-.013.183v0a2.254,2.254,0,0,0-.018.288,1.924,1.924,0,0,0,.944,1.667,2.094,2.094,0,0,0,1.078.3,1.938,1.938,0,0,0,.985-.265,2,2,0,0,0,.762-.83v0a1.3,1.3,0,0,1,.494-.533,1.282,1.282,0,0,1,.648-.173,1.325,1.325,0,0,1,.794.261,1.235,1.235,0,0,1,.475.749,1.953,1.953,0,0,0,.741,1.171,2,2,0,0,0,1.194.388,2.04,2.04,0,0,0,1.282-.444,1.925,1.925,0,0,0,.465-.555,2.066,2.066,0,0,0,.238-.754h0a1.24,1.24,0,0,1,.448-.838,1.349,1.349,0,0,1,.847-.3,1.258,1.258,0,0,1,1.074.6h0a2,2,0,0,0,.744.7,1.9,1.9,0,0,0,.9.223,2.084,2.084,0,0,0,1.39-.536,1.984,1.984,0,0,0,.462-.619,1.91,1.91,0,0,0,.174-.8,2.152,2.152,0,0,0-.058-.491h0a1.418,1.418,0,0,1-.037-.313,1.247,1.247,0,0,1,.394-.91,1.323,1.323,0,0,1,.907-.371,1.266,1.266,0,0,1,.775.274,1.982,1.982,0,0,0,1.209.424,2.008,2.008,0,0,0,1.4-.592,1.943,1.943,0,0,0,.266-2.5h0a1.285,1.285,0,0,1-.216-.7,1.31,1.31,0,0,1,.375-.9,1.259,1.259,0,0,1,.907-.393,1.365,1.365,0,0,1,.4.063,2.081,2.081,0,0,0,.631.1,1.883,1.883,0,0,0,.795-.174,2.015,2.015,0,0,0,.853-.762,2.073,2.073,0,0,0,.316-1.091,1.9,1.9,0,0,0-.194-.839,2.037,2.037,0,0,0-.61-.723,1.288,1.288,0,0,1-.4-.473,1.265,1.265,0,0,1-.123-.547,1.329,1.329,0,0,1,.334-.883,1.2,1.2,0,0,1,.385-.293,1.28,1.28,0,0,1,.517-.127h0a2.094,2.094,0,0,0,.809-.2,1.89,1.89,0,0,0,.816-.763,2.075,2.075,0,0,0,.275-1.038,1.929,1.929,0,0,0-1.414-1.891Z" fill="#000d88" stroke="#000d88" stroke-width="0.5"/>
              </g>
            </g>
          </g>
          <g id="Group_25684" data-name="Group 25684" transform="translate(509 363)">
            <text id="Model_Management" data-name="Model Management" transform="translate(38 81)" font-size="12" font-family="Graphik-Medium, Graphik" font-weight="500"><tspan x="-57.438" y="0">Model Management</tspan></text>
            <g id="Group_23893-4" data-name="Group 23893" transform="translate(7)">
              <g transform="matrix(1, 0, 0, 1, -560, -433)" filter="url(#Ellipse_4019-4)">
                <circle id="Ellipse_4019-9" data-name="Ellipse 4019" cx="30.5" cy="30.5" r="30.5" transform="translate(560 433)" fill="#fff"/>
              </g>
              <g id="Group_25706" data-name="Group 25706" transform="translate(-1244.08 -357.282)">
                <g id="Group_25705" data-name="Group 25705">
                  <g id="Group_25694" data-name="Group 25694">
                    <g id="Group_25688" data-name="Group 25688">
                      <path id="Path_75738" data-name="Path 75738" d="M1274.412,372.064a6.119,6.119,0,0,0,0,12.227c-5.937-.111-10.722-6.114-10.722-6.114S1268.475,372.175,1274.412,372.064Z" fill="#fff"/>
                    </g>
                    <g id="Group_25689" data-name="Group 25689">
                      <path id="Path_75739" data-name="Path 75739" d="M1274.581,375.487a2.691,2.691,0,1,1-2.657,2.69A2.676,2.676,0,0,1,1274.581,375.487Z" fill="#fff"/>
                    </g>
                    <g id="Group_25690" data-name="Group 25690">
                      <path id="Path_75740" data-name="Path 75740" d="M1274.749,372.064c5.936.111,10.721,6.113,10.721,6.113s-4.785,6-10.721,6.114a6.119,6.119,0,0,0,0-12.227Z" fill="#fff"/>
                    </g>
                    <g id="Group_25691" data-name="Group 25691">
                      <path id="Path_75741" data-name="Path 75741" d="M1266.376,396.621V403.5h-6.8v-6.882Zm-2.217,4.637v-2.392H1261.8v2.392Z" fill="#fff"/>
                    </g>
                    <g id="Group_25692" data-name="Group 25692">
                      <path id="Path_75742" data-name="Path 75742" d="M1277.978,396.621V403.5h-6.8v-6.882Zm-2.217,4.637v-2.392H1273.4v2.392Z" fill="#fff"/>
                    </g>
                    <g id="Group_25693" data-name="Group 25693">
                      <path id="Path_75743" data-name="Path 75743" d="M1289.58,396.621V403.5h-6.8v-6.882Zm-2.217,4.637v-2.392H1285v2.392Z" fill="#fff"/>
                    </g>
                  </g>
                  <g id="Group_25704" data-name="Group 25704">
                    <g id="Group_25695" data-name="Group 25695">
                      <path id="Path_75744" data-name="Path 75744" d="M1274.412,384.291c-5.937-.111-10.722-6.114-10.722-6.114s4.785-6,10.722-6.113" fill="none" stroke="#008" stroke-miterlimit="10" stroke-width="1.2"/>
                    </g>
                    <g id="Group_25696" data-name="Group 25696">
                      <path id="Path_75745" data-name="Path 75745" d="M1274.749,372.064c5.936.111,10.721,6.113,10.721,6.113s-4.785,6-10.721,6.114" fill="none" stroke="#008" stroke-miterlimit="10" stroke-width="1.2"/>
                    </g>
                    <g id="Group_25697" data-name="Group 25697">
                      <path id="Path_75746" data-name="Path 75746" d="M1274.749,372.064a6.119,6.119,0,0,1,0,12.227l-.168,0-.169,0a6.119,6.119,0,0,1,0-12.227c.057,0,.112,0,.169,0Z" fill="none" stroke="#008" stroke-miterlimit="10" stroke-width="1.2"/>
                    </g>
                    <g id="Group_25698" data-name="Group 25698">
                      <path id="Path_75747" data-name="Path 75747" d="M1274.581,380.868a2.691,2.691,0,1,1,2.656-2.691A2.676,2.676,0,0,1,1274.581,380.868Z" fill="none" stroke="#008" stroke-miterlimit="10" stroke-width="1.2"/>
                    </g>
                    <g id="Group_25699" data-name="Group 25699">
                      <rect id="Rectangle_149942" data-name="Rectangle 149942" width="6.796" height="6.883" transform="translate(1271.182 396.621)" fill="none" stroke="#008" stroke-miterlimit="10" stroke-width="1.2"/>
                    </g>
                    <g id="Group_25700" data-name="Group 25700">
                      <rect id="Rectangle_149943" data-name="Rectangle 149943" width="6.796" height="6.883" transform="translate(1282.784 396.621)" fill="none" stroke="#008" stroke-miterlimit="10" stroke-width="1.2"/>
                    </g>
                    <g id="Group_25701" data-name="Group 25701">
                      <rect id="Rectangle_149944" data-name="Rectangle 149944" width="6.796" height="6.883" transform="translate(1259.58 396.621)" fill="none" stroke="#008" stroke-miterlimit="10" stroke-width="1.2"/>
                    </g>
                    <g id="Group_25702" data-name="Group 25702">
                      <path id="Path_75748" data-name="Path 75748" d="M1262.978,394.947v-4.763H1286.4v4.763" fill="none" stroke="#008" stroke-miterlimit="10" stroke-width="1.2"/>
                    </g>
                    <g id="Group_25703" data-name="Group 25703">
                      <path id="Path_75749" data-name="Path 75749" d="M1274.581,385.966v8.981" fill="none" stroke="#008" stroke-miterlimit="10" stroke-width="1.2"/>
                    </g>
                  </g>
                </g>
              </g>
            </g>
          </g>
          <g id="Group_25685" data-name="Group 25685" transform="translate(740 363)">
            <text id="Model_Security" data-name="Model Security" transform="translate(38 81)" font-size="12" font-family="Graphik-Medium, Graphik" font-weight="500"><tspan x="-43.554" y="0">Model Security</tspan></text>
            <g id="Group_23893-5" data-name="Group 23893" transform="translate(7)">
              <g transform="matrix(1, 0, 0, 1, -791, -433)" filter="url(#Ellipse_4019-5)">
                <circle id="Ellipse_4019-10" data-name="Ellipse 4019" cx="30.5" cy="30.5" r="30.5" transform="translate(791 433)" fill="#fff"/>
              </g>
              <g id="Group_25707" data-name="Group 25707" transform="translate(-3846.725 -726.647)">
                <path id="Path_75750" data-name="Path 75750" d="M3884.727,752.6a2.759,2.759,0,0,1,1.761,2.7,13.508,13.508,0,0,0,3.093.017v-2.258c-1.186-.75-1.6-1.549-1.3-2.523a2,2,0,0,1,3.882.063c.246.995-.194,1.819-1.358,2.451,0,.513,0,1.064,0,1.616,0,.363.008.728,0,1.091-.015.61-.188.792-.791.8-.976.01-1.953,0-2.93,0-.188,0-.375.015-.593.025v2.807h1.758c.708-1.175,1.481-1.581,2.476-1.31a2.01,2.01,0,0,1,0,3.884c-.976.273-1.779-.147-2.487-1.323H3886.5v2.782c.155.014.318.041.481.042.939.009,1.877.009,2.815.018.894.008,1.007.128,1.008,1.046,0,.821,0,1.643,0,2.476a2.23,2.23,0,0,1,1.291,1.265,2,2,0,0,1,.027,1.295,2,2,0,0,1-3.88-.18c-.225-.925.242-1.767,1.38-2.4v-2.225a13.091,13.091,0,0,0-3.126-.054c-.013.119-.032.247-.04.376a2.53,2.53,0,0,1-2.444,2.432c-.114.008-.229.006-.344.006-4.309,0-8.619.008-12.928-.012a3.319,3.319,0,0,1-1.329-.274,2.289,2.289,0,0,1-1.363-1.86c-.032-.224-.064-.447-.1-.693h-3.074v2.346a2.127,2.127,0,0,1,1.236,1.18,2.006,2.006,0,1,1-3.792,1.287c-.286-1.021.108-1.778,1.353-2.536,0-.789,0-1.61,0-2.431,0-.958.084-1.049,1.049-1.06.9-.011,1.8,0,2.7,0,.169,0,.337,0,.541,0v-2.817h-1.743c-.715,1.18-1.523,1.594-2.522,1.3a2.005,2.005,0,0,1,.022-3.871c1.008-.273,1.827.153,2.486,1.315h1.768c.044-.924.023-1.846.015-2.84h-.853c-.88,0-1.762.006-2.642,0-.661,0-.812-.152-.819-.815-.009-.728-.021-1.456,0-2.183a.72.72,0,0,0-.44-.759,1.849,1.849,0,0,1-1-1.864,1.914,1.914,0,0,1,1.3-1.736,2.006,2.006,0,0,1,1.861,3.517c-.169.119-.354.217-.535.327v2.315h3.1a2.677,2.677,0,0,1,1.76-2.719c0-.617-.006-1.209,0-1.8a7.5,7.5,0,0,1,9.49-7.276,7.443,7.443,0,0,1,5.409,6.141c.063.473.082.953.1,1.43C3884.74,751.634,3884.727,752.129,3884.727,752.6Zm-7.518,13.795c2.164,0,4.328,0,6.492,0a1.431,1.431,0,0,0,1.613-1.58q0-4.8,0-9.595a1.927,1.927,0,0,0-.071-.563,1.423,1.423,0,0,0-1.563-.993q-6.435,0-12.869,0a1.474,1.474,0,0,0-1.681,1.7q0,4.137,0,8.273c0,.44-.015.881,0,1.321a1.367,1.367,0,0,0,.965,1.351,3.008,3.008,0,0,0,.793.09C3873,766.4,3875.1,766.393,3877.209,766.393Zm3.879-13.893c0-.709.036-1.361-.007-2.008a3.87,3.87,0,0,0-3.113-3.512,3.915,3.915,0,0,0-4.266,2.187,7.458,7.458,0,0,0-.338,3.333Zm-8.877-.012c0-.621-.008-1.21,0-1.8a5.018,5.018,0,0,1,9.8-1.429,7.88,7.88,0,0,1,.231,2.385c0,.279,0,.558,0,.83h1.348c0-.656.009-1.266,0-1.876a6.422,6.422,0,0,0-9.344-5.409c-2.8,1.555-3.676,4.2-3.31,7.3Zm18.008,17.358a.891.891,0,0,0,.851-.9.83.83,0,0,0-.9-.827.858.858,0,0,0-.832.852A.906.906,0,0,0,3890.219,769.846Zm-25.954-8.951a.868.868,0,0,0-.018-1.735.868.868,0,1,0,.018,1.735Zm-.044-10.689a.913.913,0,0,0-.852.909.866.866,0,0,0,.923.82.834.834,0,0,0,.811-.861A.876.876,0,0,0,3864.221,750.206Zm25.955,1.731a.841.841,0,0,0,.894-.84.878.878,0,0,0-.863-.89.9.9,0,0,0-.87.829A.861.861,0,0,0,3890.176,751.937Zm-25.068,17.045a.844.844,0,0,0-.869-.867.867.867,0,0,0-.872.816.935.935,0,0,0,.852.917A.9.9,0,0,0,3865.108,768.982Zm25.96-8.939a.852.852,0,0,0-.858-.882.866.866,0,0,0-.869.817.88.88,0,0,0,.832.917A.867.867,0,0,0,3891.068,760.043Z" fill="#008"/>
                <path id="Path_75751" data-name="Path 75751" d="M3877.455,756.063a2.646,2.646,0,0,1,2.335,1.645,2.619,2.619,0,0,1-.416,2.994,1.619,1.619,0,0,0-.458,1.277,2.608,2.608,0,0,1-.082.85,1.7,1.7,0,0,1-1.833,1.155,1.615,1.615,0,0,1-1.445-1.537,2.868,2.868,0,0,0-.667-2.014,2.507,2.507,0,0,1-.166-2.866A2.874,2.874,0,0,1,3877.455,756.063Zm-1.924,2.823a1.618,1.618,0,0,0,.751,1.4.839.839,0,0,1,.385.773c-.01.381-.012.764,0,1.145s.214.619.518.641c.323.024.574-.215.608-.619a5.831,5.831,0,0,0,0-.859,1.237,1.237,0,0,1,.531-1.22,1.606,1.606,0,0,0,.376-2.071,1.7,1.7,0,0,0-1.9-.833A1.727,1.727,0,0,0,3875.531,758.886Z" fill="#008"/>
              </g>
            </g>
          </g>
        </g>
      </g>
    </g>
    <path id="Path_75752" data-name="Path 75752" d="M410.548,86.355l-5.219-5.091a.824.824,0,0,0-1.391,0L390.367,94.5c-.173,0-.173.17-.347.34l-2.087,7.127c0,.339,0,.848.347,1.017a.909.909,0,0,0,.7.34h.347l7.307-2.037c.174-.17.347-.17.347-.339l13.57-13.237A.784.784,0,0,0,410.548,86.355ZM396.178,98.849c-.612-.6-1.727-1.688-3.739-3.655l8.022-7.825,3.793,3.71Zm-4.615-1.81,2.709,2.648-3.731,1.092Zm14.085-7.3-3.761-3.761,2.745-2.678,3.827,3.733S408.454,87.037,405.649,89.738ZM390.22,83.1c-2.079-.85-4.677-1.868-5.717-2.209a1.4,1.4,0,0,1-.694-1.02v-5.1a1.15,1.15,0,0,1,.694-1.02s2.425-1.018,2.425-5.1a.99.99,0,0,1,1.04-1.018c.346,0,.519-.681.519-1.189,0-.34-.173-1.02-.519-1.02a1.108,1.108,0,0,1-1.04-1.02,4.223,4.223,0,0,1,.347-1.189,7.573,7.573,0,0,0,.866-4.587c-.346-1.189-2.773-2.039-5.717-2.039-3.119,0-5.545.85-5.891,2.039,0,.51-.693.849-1.213.849a1.95,1.95,0,0,0-1.385,0c-.694.681,0,3.228.346,4.077a2.485,2.485,0,0,1,.173,1.02.87.87,0,0,1-.693.85,4.729,4.729,0,0,0,0,2.209.931.931,0,0,1,.693,1.018c0,4.078,2.425,5.1,2.425,5.1a.933.933,0,0,1,.694,1.02v5.1a.868.868,0,0,1-.694.849,43.5,43.5,0,0,1-5.025,1.87c-3.292,1.02-7.277,2.378-7.623,3.738a32.979,32.979,0,0,0-1.213,6.794h20.791v2.039H361.978c-.346,0-.519,0-.693-.34a.876.876,0,0,1-.346-.679,36.921,36.921,0,0,1,1.213-8.495c.866-2.209,4.5-3.567,9.009-4.927,1.386-.509,2.946-1.018,4.332-1.528V75.281c-1.04-.679-2.946-2.378-3.119-6.116-.521-.339-.694-1.359-.694-2.548a4.652,4.652,0,0,1,.173-1.7c.174-.34.174-.679.347-.85-.347-1.528-1.213-4.417.173-5.946a4.309,4.309,0,0,1,2.6-.85c1.213-2.038,4.505-2.717,7.451-2.717,3.119,0,7.1.849,7.8,3.567a9.178,9.178,0,0,1-.866,5.607,3.4,3.4,0,0,1,1.213,2.718,3.56,3.56,0,0,1-.521,2.038,5.839,5.839,0,0,1-1.039,1.02c-.347,3.567-2.08,5.1-3.119,5.776v3.908a36.236,36.236,0,0,1,5.2,2.039c1.906.679,3.638,1.528,4.331,1.7l-.693,2.039C394.032,84.624,392.3,83.945,390.22,83.1Z" transform="translate(-24.939 972.445)" fill="#008eff" fill-rule="evenodd"/>
    <g id="Group_25708" data-name="Group 25708" transform="translate(-1332.336 -1637.541)">
      <path id="Path_75753" data-name="Path 75753" d="M1921.079,2677.065c.6-.483,1.16-.867,1.638-1.325a1.98,1.98,0,0,1,2.058-.5c.785.219,1.577.419,2.413.638a2.321,2.321,0,0,0,.178-.307c1.172-2.692,3.485-3.7,6.3-3.9a1.941,1.941,0,0,1,1.146.415c.85.62,1.647,1.31,2.517,2.014.822-.666,1.63-1.288,2.4-1.952a1.759,1.759,0,0,1,1.669-.453c.762.183,1.55.281,2.29.521a5.652,5.652,0,0,1,3.368,2.865c.142.27.277.542.4.786.951-.24,1.84-.471,2.731-.685a1.647,1.647,0,0,1,1.577.415c.548.488,1.142.931,1.8,1.461.622-.493,1.237-.949,1.811-1.448a1.808,1.808,0,0,1,1.572-.432c3.383.5,5.168,2.264,5.31,5.6.127,2.994.072,6,.037,8.994a2.719,2.719,0,0,1-1.828,2.577c-.225.095-.456.177-.8.308v5.362h-1.538a5.6,5.6,0,0,1-.088-.687c-.008-1.654-.015-3.309,0-4.963.007-1,.122-1.114,1.122-1.281,1.145-.192,1.568-.6,1.578-1.719.022-2.654.037-5.309-.025-7.962a9.239,9.239,0,0,0-.479-2.42,3.092,3.092,0,0,0-1.965-1.927,2.141,2.141,0,0,0-2.713.406,8.265,8.265,0,0,1-1.217,1.013c-.631.486-.89.488-1.508.011a10.387,10.387,0,0,1-1.382-1.143,1.88,1.88,0,0,0-2.243-.389c-1.237.412-1.29.524-1.275,1.757.038,2.964.036,5.927.046,8.891a3.675,3.675,0,0,1-.068.467h-1.446c-.017-.34-.047-.673-.047-1-.01-2.621.04-5.241-.046-7.858a10.123,10.123,0,0,0-.592-3.021c-.7-1.967-2.39-2.729-4.4-2.929a1.549,1.549,0,0,0-.94.36c-.79.592-1.528,1.245-2.307,1.852-.708.552-.872.552-1.583,0-.753-.583-1.517-1.16-2.213-1.8a1.642,1.642,0,0,0-1.574-.366c-2.728.523-4.2,2.072-4.391,4.862-.127,1.82-.08,3.65-.088,5.477s.01,3.654.025,5.479c.011,1.523.565,2.128,2.11,2.333,1.012.135,1.15.265,1.154,1.237.008,2.275,0,4.549-.008,6.824a2,2,0,0,1-.075.354h-1.461v-6.778c-.6-.237-1.078-.442-1.572-.624-.777-.286-1.315.064-1.325.873-.013,1.2,0,2.412,0,3.618,0,.335-.033.671-.053,1.059h-1.508v-3.643c0-.619,0-1.24,0-1.862,0-1.2.007-1.2,1.163-1.476-.02-3.692-.042-7.363-.053-11.034a9.993,9.993,0,0,1,.08-1.752.79.79,0,0,0-.54-.984,12.853,12.853,0,0,0-1.412-.476,1.271,1.271,0,0,0-1.278.311c-.517.475-1.078.907-1.638,1.335-.7.54-.9.54-1.585.008-.557-.432-1.118-.863-1.638-1.335a1.4,1.4,0,0,0-1.28-.331,3.642,3.642,0,0,0-3.2,2.936,10.829,10.829,0,0,0-.233,2.15c-.028,2.412-.015,4.825-.01,7.237,0,1.451.217,1.72,1.713,1.992.633.114.942.387.937,1.024-.015,1.928,0,3.855,0,5.871h-1.5v-5.276c-.36-.146-.62-.247-.876-.356a2.809,2.809,0,0,1-1.809-2.266,2.962,2.962,0,0,1-.06-.512c.027-3-.035-6,.113-8.992.162-3.233,2.015-5,5.357-5.427a1.65,1.65,0,0,1,1.385.379C1919.774,2676.043,1920.389,2676.512,1921.079,2677.065Z" transform="translate(0 6.091)" fill="#008eff"/>
      <path id="Path_75754" data-name="Path 75754" d="M1944.967,2688.112a29.793,29.793,0,0,1-.023,3.612c-.465,3.782-2.715,6.3-5.975,8.021-2.253,1.189-2.633,1.192-4.88-.024-3.8-2.057-5.889-5.175-5.844-9.592.018-1.552-.018-3.1-.019-4.653,0-1.229.024-1.28,1.234-1.655a26.744,26.744,0,0,1,14.579.1c.955.3,1,.375,1,1.4.006.931,0,1.86,0,2.791Zm-1.361-2.626c-3.382-1.42-11.251-1.4-13.857-.042,0,1.572-.007,3.185,0,4.8a8.4,8.4,0,0,0,4.357,7.694c2.761,1.6,2.226,1.46,4.918,0a7.028,7.028,0,0,0,.782-.5,7.862,7.862,0,0,0,3.52-5.374C1943.59,2689.89,1943.526,2687.678,1943.606,2685.485Z" transform="translate(11.468 13.559)" fill="#008eff"/>
      <path id="Path_75755" data-name="Path 75755" d="M1935.72,2669.694a6.063,6.063,0,0,1-6.135,6.059,6.106,6.106,0,1,1,.1-12.211A6.058,6.058,0,0,1,1935.72,2669.694Zm-6.083,4.522a4.566,4.566,0,1,0,0-9.132,4.566,4.566,0,0,0,0,9.132Z" transform="translate(7.692 0)" fill="#008eff"/>
      <path id="Path_75756" data-name="Path 75756" d="M1939.068,2667.2a5.022,5.022,0,0,1,4.985,5.117,5.061,5.061,0,1,1-10.119-.269A4.991,4.991,0,0,1,1939.068,2667.2Zm-.029,8.546a3.525,3.525,0,0,0-.061-7.05,3.525,3.525,0,1,0,.061,7.05Z" transform="translate(14.919 2.212)" fill="#008eff"/>
      <path id="Path_75757" data-name="Path 75757" d="M1919.461,2667.2a5.049,5.049,0,0,1,5.1,5.008,5.115,5.115,0,0,1-5.056,5.088,5.011,5.011,0,0,1-5.061-5.04A4.955,4.955,0,0,1,1919.461,2667.2Zm-.008,8.543a3.477,3.477,0,0,0,3.543-3.509,3.524,3.524,0,0,0-3.538-3.538,3.57,3.57,0,0,0-3.511,3.583A3.533,3.533,0,0,0,1919.453,2675.744Z" transform="translate(1.276 2.212)" fill="#008eff"/>
      <path id="Path_75758" data-name="Path 75758" d="M1936.351,2690.723c0,1.617.013,3.233,0,4.849-.011,1.072-.441,1.332-1.446.921a7.68,7.68,0,0,1-4.944-7.3c-.008-1-.013-2,0-2.993.013-.85.127-1.062.964-1.176,1.462-.2,2.933-.328,4.406-.409.82-.045,1.012.2,1.021,1.054.016,1.685,0,3.371,0,5.056Zm-1.568,3.962v-8.622l-3.179.338a32.674,32.674,0,0,0,.034,4.135A5.524,5.524,0,0,0,1934.784,2694.685Z" transform="translate(11.91 14.621)" fill="#008eff"/>
    </g>
    <g id="NewGroup18-0" transform="translate(463.164 732.5)">
      <g id="Group_25709" data-name="Group 25709" transform="translate(363.835 292.5)">
        <path id="Path_75759" data-name="Path 75759" d="M365.5,360.769h4.26a.924.924,0,0,0,0-1.848h-4.075V354.67a7.232,7.232,0,0,1,7.208-7.208h3.334a.314.314,0,0,1,.26.141l3.947,6.091a.924.924,0,0,0,1.55,0l3.947-6.091a.314.314,0,0,1,.26-.141h3.519a7.232,7.232,0,0,1,7.208,7.208v4.251H376.761a.924.924,0,1,0,0,1.848H397.1a1.665,1.665,0,0,0,1.663-1.663V354.67a9.078,9.078,0,0,0-9.056-9.056H386.19a2.16,2.16,0,0,0-1.809.982h0l-3.172,4.895-3.173-4.895h0a2.159,2.159,0,0,0-1.809-.982h-3.334a9.078,9.078,0,0,0-9.056,9.056v4.436a1.666,1.666,0,0,0,1.663,1.663Z" transform="translate(-363.835 -308.835)" fill="#008eff"/>
        <path id="Path_75760" data-name="Path 75760" d="M371.016,324.2h0Z" transform="translate(-366.043 -302.25)" fill="#008eff"/>
        <path id="Path_75761" data-name="Path 75761" d="M388.26,330.308a7.988,7.988,0,0,1-2.527,1.885,7.177,7.177,0,0,1-6.116,0,8.262,8.262,0,0,1-3.507-3.2,9.528,9.528,0,0,1-1.379-4.882c.53-.322,1.648-.976,3-1.618a23.334,23.334,0,0,1,2.977-1.19,9.923,9.923,0,0,1,2.852-.517,4.118,4.118,0,0,1,.948.1,2.382,2.382,0,0,1,.722.294,9.05,9.05,0,0,0,2.124,1.01,5.937,5.937,0,0,0,1.773.287,4.594,4.594,0,0,0,1.342-.195,9.816,9.816,0,0,1,.152,1.721,9.376,9.376,0,0,1-2.363,6.3Zm-15.4-10.831c0-.074,0-.149,0-.225a8.527,8.527,0,0,1,7.036-8.339,3.768,3.768,0,0,1,.658-.057,4.457,4.457,0,0,1,1.607.318,7.016,7.016,0,0,1,1.886,1.132c.233.192.415.364.536.485.061.061.106.108.134.139l.03.033,0,.006h0a.919.919,0,0,0,.789.312h0s.2-.019.507-.019a7.82,7.82,0,0,1,1.23.1,6.109,6.109,0,0,1,1.095.274,3.724,3.724,0,0,1,1.437.883,2.888,2.888,0,0,1,.507.71,3.515,3.515,0,0,1,.32.991h0a9.623,9.623,0,0,1,.147,1.647,6.979,6.979,0,0,1-.42,2.469,1.889,1.889,0,0,1-.312.145,2.694,2.694,0,0,1-.924.153,4.108,4.108,0,0,1-1.222-.2,7.211,7.211,0,0,1-1.688-.809,4.206,4.206,0,0,0-1.279-.528,5.93,5.93,0,0,0-1.378-.152,11.764,11.764,0,0,0-3.457.618,28.413,28.413,0,0,0-4.628,2.006c-.481.257-.9.493-1.23.687a2.292,2.292,0,0,1-.612-.455,2.544,2.544,0,0,1-.564-.984,4.753,4.753,0,0,1-.208-1.334Zm19.595-3.577-.911.158.911-.158a5.029,5.029,0,0,0-1.114-2.445,5.081,5.081,0,0,0-1.361-1.113,7.015,7.015,0,0,0-2.187-.769,9.65,9.65,0,0,0-1.748-.158c-.083,0-.158,0-.228,0a9.8,9.8,0,0,0-1.249-1.03,8.367,8.367,0,0,0-1.746-.938,6.307,6.307,0,0,0-2.273-.442,5.583,5.583,0,0,0-.977.085,10.373,10.373,0,0,0-8.565,10.16c0,.091,0,.184,0,.277a6.047,6.047,0,0,0,.535,2.45,4.193,4.193,0,0,0,.744,1.089,4.021,4.021,0,0,0,.6.512c-.006.141-.01.282-.01.424a11.223,11.223,0,0,0,2.84,7.544,9.831,9.831,0,0,0,3.113,2.318,9.023,9.023,0,0,0,7.683,0,10.1,10.1,0,0,0,4.3-3.905,11.393,11.393,0,0,0,1.654-5.956,11.622,11.622,0,0,0-.39-2.987,8.827,8.827,0,0,0,.551-3.156,11.447,11.447,0,0,0-.175-1.963Z" transform="translate(-366.042 -297.577)" fill="#008eff"/>
        <path id="Path_75762" data-name="Path 75762" d="M420.081,321.184a2.74,2.74,0,1,1-.8-1.938,2.728,2.728,0,0,1,.8,1.938Zm-5.986-3.245a4.589,4.589,0,1,0,3.245-1.344,4.581,4.581,0,0,0-3.245,1.344Z" transform="translate(-378.879 -299.91)" fill="#008eff"/>
        <path id="Path_75763" data-name="Path 75763" d="M420.141,294.791a2.219,2.219,0,1,1-.751,2.544V295.8a2.225,2.225,0,0,1,.751-1.007Zm-3.113,11.763c.2.075.385.156.564.241a.927.927,0,0,0,1.052-.18l.89-.89a.292.292,0,0,1,.1-.064.3.3,0,0,1,.228,0,.285.285,0,0,1,.1.064l2.523,2.523a.286.286,0,0,1,.064.1.315.315,0,0,1,0,.229.293.293,0,0,1-.064.1h0l-.944.945a.922.922,0,0,0-.191,1.027c.078.177.148.346.208.514a.922.922,0,0,0,.87.612h1.341a.3.3,0,0,1,.3.3v3.568a.3.3,0,0,1-.3.3h-1.4a.926.926,0,0,0-.863.594q-.092.242-.2.471a.924.924,0,0,0,.184,1.044l.991.991a.293.293,0,0,1,.064.1.315.315,0,0,1,0,.228.285.285,0,0,1-.064.1l-2.523,2.523a.3.3,0,0,1-.1.064.3.3,0,0,1-.228,0,.282.282,0,0,1-.1-.064l-.992-.991a.925.925,0,0,0-1.044-.184c-.152.071-.309.137-.47.2a.927.927,0,0,0-.594.863v1.4a.3.3,0,0,1-.3.3h-.031l-2.392.081a.927.927,0,0,0-.377-.082h-.767a.3.3,0,0,1-.3-.3v-1.341a.923.923,0,0,0-.612-.87c-.168-.06-.338-.13-.514-.208a.923.923,0,0,0-1.026.191l-.945.944h0a.3.3,0,0,1-.42,0l-2.523-2.523a.285.285,0,0,1-.064-.1.315.315,0,0,1,0-.228.293.293,0,0,1,.064-.1l.89-.89a.926.926,0,0,0,.18-1.053c-.085-.179-.165-.368-.24-.563a.925.925,0,0,0-.863-.594h-1.251a.3.3,0,0,1-.3-.3v-3.568a.3.3,0,0,1,.3-.3h1.194a.925.925,0,0,0,.869-.609q.111-.305.25-.6a.925.925,0,0,0-.186-1.042l-.844-.844a.293.293,0,0,1-.064-.1.315.315,0,0,1,0-.229.286.286,0,0,1,.064-.1l2.523-2.523a.284.284,0,0,1,.1-.064.3.3,0,0,1,.228,0,.285.285,0,0,1,.1.064l.844.844a.923.923,0,0,0,1.042.185q.3-.138.6-.25a.926.926,0,0,0,.609-.868v-1.194a.3.3,0,0,1,.294-.3l2.867.092a.917.917,0,0,0,.423-.092h.281a.3.3,0,0,1,.3.3v1.25a.924.924,0,0,0,.593.863Zm2.743,21.874a2.218,2.218,0,1,1,0,3.552,2.23,2.23,0,0,1-.751-1.008v-1.537a2.23,2.23,0,0,1,.751-1.008Zm-11.019-30.085a2.219,2.219,0,1,1,.751-2.544v1.537a2.225,2.225,0,0,1-.751,1.007Zm5.865-2.75a.844.844,0,0,0-.548.007l-2.719.034a.888.888,0,0,0-.04-.262,4.065,4.065,0,1,0,0,2.392.907.907,0,0,0,.041-.272v-.009l2.079-.026v4.867l-.831-.027h-.029a1.67,1.67,0,0,1-2.8,1.651,2.152,2.152,0,0,0-1.611,0,2.121,2.121,0,0,0-.711.471l-2.523,2.522a2.139,2.139,0,0,0-.627,1.517,2.119,2.119,0,0,0,.58,1.465,2.144,2.144,0,0,0-2.075,2.141v3.568a2.144,2.144,0,0,0,2.075,2.141,2.142,2.142,0,0,0,.047,2.981l2.523,2.523a2.142,2.142,0,0,1,3.607,1.492,2.143,2.143,0,0,0,1.516.629h.466a.917.917,0,0,0,.394.09v4.183a1.362,1.362,0,0,0,1.363,1.363h2.379v.093a.9.9,0,0,0,.041.271,4.066,4.066,0,1,0,0-2.391.864.864,0,0,0-.034.179h-1.9v-3.759l.891-.03h0a1.652,1.652,0,0,1,2.768-1.649,2.148,2.148,0,0,0,2.322-.47l2.523-2.523a2.142,2.142,0,0,0,.048-2.982,2.146,2.146,0,0,0,2.075-2.141v-3.568a2.145,2.145,0,0,0-2.075-2.141,2.146,2.146,0,0,0-.048-2.982l-2.523-2.523a2.142,2.142,0,0,1-3.607-1.492,2.143,2.143,0,0,0-1.516-.629h-.767c-.032,0-.062.006-.092.009v-4.872l2.264-.028v.086a.907.907,0,0,0,.041.272,4.066,4.066,0,1,0,0-2.392.875.875,0,0,0-.035.186l-2.931.036Z" transform="translate(-375.82 -292.5)" fill="#008eff"/>
      </g>
    </g>
    <path id="Path_75764" data-name="Path 75764" d="M265.418,244.131a14.3,14.3,0,1,0,0-28.6H264.9c-8.018.341-14.119,6.469-14.119,14.13A14.594,14.594,0,0,0,265.418,244.131Zm-.01-26.556h.01c.044,0,.086.005.13.006a19.507,19.507,0,0,1,2.893,4.1h-5.932A19.579,19.579,0,0,1,265.408,217.575Zm3.923,6.161a16.012,16.012,0,0,1,.956,5.013h-9.624a16.009,16.009,0,0,1,.955-5.013Zm8.581,5.013h-5.524a18.074,18.074,0,0,0-.828-5.013h4.755A12.024,12.024,0,0,1,277.913,228.75Zm-12.494,13.34c-.026,0-.05,0-.075,0a29.2,29.2,0,0,1-2.491-4.106H268.1a29.027,29.027,0,0,1-2.485,4.1C265.546,242.08,265.484,242.089,265.418,242.089Zm-3.474-6.161a19.5,19.5,0,0,1-1.227-5.128h9.516a19.5,19.5,0,0,1-1.229,5.128Zm10.393-5.128h5.581a11.993,11.993,0,0,1-1.6,5.128h-5.087A21.305,21.305,0,0,0,272.338,230.8Zm-13.777-2.051h-5.648a11.732,11.732,0,0,1,1.527-5.013h4.949A18.029,18.029,0,0,0,258.561,228.75Zm.051,2.051a21.305,21.305,0,0,0,1.109,5.128h-5.084a12.133,12.133,0,0,1-1.709-5.128Zm-2.434,7.179h4.346a28.648,28.648,0,0,0,2.034,3.759A12.727,12.727,0,0,1,256.178,237.979Zm12.217,3.754a28.72,28.72,0,0,0,2.03-3.754h4.38A12.506,12.506,0,0,1,268.395,241.733Zm6.41-20.048h-4.044a20.065,20.065,0,0,0-2.21-3.715A12.5,12.5,0,0,1,274.805,221.685Zm-12.368-3.767a20.122,20.122,0,0,0-2.248,3.767h-4.247A12.605,12.605,0,0,1,262.437,217.919Zm22.4,37.178a6,6,0,0,0,2.515-4.868,6.268,6.268,0,0,0-6.266-6.1,6.389,6.389,0,0,0-6.268,6.1,6.032,6.032,0,0,0,2.59,4.868,9.936,9.936,0,0,0-4.138,3.449,8.927,8.927,0,0,0-4.1-3.492,6,6,0,0,0,2.462-4.826,6.268,6.268,0,0,0-6.268-6.1,6.388,6.388,0,0,0-6.266,6.1,6.032,6.032,0,0,0,2.6,4.875,9.938,9.938,0,0,0-4.125,3.443,8.916,8.916,0,0,0-4.116-3.5,5.991,5.991,0,0,0,2.453-4.819,6.268,6.268,0,0,0-6.266-6.1,6.388,6.388,0,0,0-6.266,6.1,6.038,6.038,0,0,0,2.633,4.9,9.686,9.686,0,0,0-5.71,8.371,1,1,0,0,0,1.046,1.026H289.5a.916.916,0,0,0,1.047-1.026A9.584,9.584,0,0,0,284.837,255.1Zm-7.929-4.868a4.18,4.18,0,0,1,4.178-4.065,4.069,4.069,0,0,1,4.178,4.065,3.951,3.951,0,0,1-4.033,4.051c-.036,0-.073-.006-.109-.006s-.092.009-.139.01A4.059,4.059,0,0,1,276.908,250.228Zm-15.724,0a4.18,4.18,0,0,1,4.177-4.065,4.068,4.068,0,0,1,4.178,4.065,3.95,3.95,0,0,1-4.029,4.051c-.031,0-.06-.006-.091-.006-.051,0-.1.01-.15.01A4.059,4.059,0,0,1,261.184,250.228Zm-15.725,0a4.18,4.18,0,0,1,4.178-4.065,4.069,4.069,0,0,1,4.178,4.065,3.95,3.95,0,0,1-4.021,4.049c-.026,0-.051-.005-.078-.005-.058,0-.116.009-.175.01A4.06,4.06,0,0,1,245.459,250.228Zm-2.9,12.249a7.345,7.345,0,0,1,14.133-1.367.886.886,0,0,0,.871.684.957.957,0,0,0,1.047-.684,7.355,7.355,0,0,1,13.783,0,.889.889,0,0,0,.873.684.958.958,0,0,0,1.047-.684,7.529,7.529,0,0,1,6.8-4.786,7.634,7.634,0,0,1,7.328,6.153Z" transform="translate(831.705 810.469)" fill="#008eff" fill-rule="evenodd"/>
    <text id="Developer" transform="translate(313 1087)" font-size="12" font-family="Graphik-Medium, Graphik" font-weight="500"><tspan x="11.426" y="10">Developer</tspan></text>
    <text id="Operations" transform="translate(564 1087)" font-size="12" font-family="Graphik-Medium, Graphik" font-weight="500"><tspan x="8.828" y="10">Operations</tspan></text>
    <text id="Data_Scientists" data-name="Data Scientists" transform="translate(808 1087)" font-size="12" font-family="Graphik-Medium, Graphik" font-weight="500"><tspan x="0.998" y="10">Data Scientists</tspan></text>
    <text id="Business_Users" data-name="Business Users" transform="translate(1053 1087)" font-size="12" font-family="Graphik-Medium, Graphik" font-weight="500"><tspan x="0.962" y="10">Business Users</tspan></text>
  </g>
</svg>
