<svg xmlns="http://www.w3.org/2000/svg" width="19.727" height="23.832" viewBox="0 0 19.727 23.832">
  <g id="Group_12164" data-name="Group 12164" transform="translate(-2.755)">
    <g id="Group_12163" data-name="Group 12163" transform="translate(2.755)">
      <path id="Path_50045" data-name="Path 50045" d="M12.031,19.374h-.822l-.489.819c-.086.143-.158.27-.215.381l-.067.127c-.015.028-.036.071-.067.129h-.011l-.068-.129-.067-.13c-.069-.125-.14-.252-.217-.381l-.489-.816H8.69l1.117,1.775L8.6,23.04h.838l.53-.881q.177-.293.317-.556l.077-.144h.011l.077.142.076.144q.109.21.231.414l.527.881H12.1l-1.174-1.891Z" transform="translate(-4.248 -4.945)" fill="#fff"/>
      <path id="Path_50046" data-name="Path 50046" d="M14.405,19.374h-.7V23.04h2.414v-.623H14.405Z" transform="translate(-5.551 -4.945)" fill="#fff"/>
      <path id="Path_50047" data-name="Path 50047" d="M18.882,20.887a2.8,2.8,0,0,1-.817-.108q-.124-.07-.124-.416a.413.413,0,0,1,.152-.384,1.453,1.453,0,0,1,.646-.092,1.112,1.112,0,0,1,.532.079q.113.079.137.388c0,.016,0,.041.006.075h.679v-.14a.867.867,0,0,0-.287-.765,2.162,2.162,0,0,0-1.115-.2,2.156,2.156,0,0,0-1.164.214,1.012,1.012,0,0,0-.291.855,1.03,1.03,0,0,0,.241.819,2.275,2.275,0,0,0,1.112.241l.384.025a.751.751,0,0,1,.423.106.474.474,0,0,1,.1.353q0,.36-.129.46a1.131,1.131,0,0,1-.6.1,1.8,1.8,0,0,1-.733-.086q-.134-.086-.134-.47l0-.077h-.676l0,.134a1.014,1.014,0,0,0,.283.849,2.121,2.121,0,0,0,1.148.209,2.351,2.351,0,0,0,1.244-.213q.282-.213.282-.944a.971.971,0,0,0-.241-.782A2.156,2.156,0,0,0,18.882,20.887Z" transform="translate(-6.448 -4.934)" fill="#fff"/>
      <path id="Path_50048" data-name="Path 50048" d="M4.487,0V12.894H2.755v6.791h0l1.731,1.731V19.684h0v4.147h18V4.982L17.5,0ZM3.5,18.939v-5.3H19.953v5.3Zm18.239,4.147H5.231v-3.4H20.7V12.894H5.231V.745h11.9V5.354h4.61V23.087ZM17.873,1.8l2.812,2.811H17.873Z" transform="translate(-2.755)" fill="#fff"/>
    </g>
  </g>
</svg>
