<svg xmlns="http://www.w3.org/2000/svg" width="24.779" height="24.725" viewBox="0 0 24.779 24.725"><defs><style>.a{fill:none;stroke:#ffffff;stroke-miterlimit:10;stroke-width:1.2px;}</style></defs><g transform="translate(2017.569 -1074.4)"><path class="a" d="M332.228,225.023v6.708a3.068,3.068,0,0,1-1.152,2.4l-3.962,3.17-3.962-3.17a3.067,3.067,0,0,1-1.152-2.4v-6.708L327.114,224Z" transform="translate(-2332.293 856.626)"/><path class="a" d="M333.114,233l-3.069,3.069L328,234.023" transform="translate(-2335.225 852.228)"/><path class="a" d="M309,224.763a11.764,11.764,0,0,1,22.59-4.6" transform="translate(-2325.942 862)"/><path class="a" d="M310.83,240.6a11.764,11.764,0,0,0,22.59-4.6" transform="translate(-2326.836 850.763)"/><path class="a" d="M351.234,221.166l-.994,2.983-3.066-.746" transform="translate(-2344.593 858.01)"/><path class="a" d="M308.887,247.983l.994-2.983,3.066.746" transform="translate(-2325.887 846.366)"/></g></svg>