<svg xmlns="http://www.w3.org/2000/svg" width="24.571" height="25.931" viewBox="0 0 24.571 25.931"><defs><style>.a{fill:none;stroke:#5b5b5b;stroke-linecap:round;stroke-linejoin:round;}</style></defs><g transform="translate(2017.098 -1014.496)"><g transform="translate(-2009.009 1017.559)"><line class="a" x2="9.003"/><line class="a" x1="9.003" transform="translate(0 1.866)"/></g><path class="a" d="M489.092,440.263l2.082,5.688,9.253,1.133-1.45-4.357Z" transform="translate(-2493.454 580.499)"/><path class="a" d="M432.353,447.374l1.544-5.032,10.692-2.079-1.835,5.769Z" transform="translate(-2448.951 580.499)"/><path class="a" d="M489.092,459.428l9.885-4.943v-7.579l-7.8-.955-2.082-5.688Z" transform="translate(-2493.454 580.499)"/><path class="a" d="M450.618,459.428l-10.405-4.943-.173-7.325,8.743-1.128,1.835-5.769Z" transform="translate(-2454.98 580.499)"/><path class="a" d="M470.4,420.812v-7.286H457.484v1.808" transform="translate(-2468.662 601.47)"/><line class="a" y1="5.284" transform="translate(-2011.178 1016.804)"/><path class="a" d="M448.776,427.557v-5.649h1.878" transform="translate(-2461.832 594.895)"/></g></svg>