<svg xmlns="http://www.w3.org/2000/svg" width="26.416" height="27.552" viewBox="0 0 26.416 27.552"><defs><style>.a{fill:none;stroke:#5b5b5b;stroke-linejoin:round;stroke-width:1.2px;}</style></defs><g transform="translate(2017.441 -1256.222)"><path class="a" d="M144,160.588a1.348,1.348,0,0,1,1.135-.567h7.945c.63,0,4.1-3.478,4.54-3.972a30.34,30.34,0,0,0,2.837-4.54,2.271,2.271,0,0,0-2.27-.567c-1,.233-1.593.953-2.27,2.27l-2.6,1.351" transform="translate(-2152.081 1118.365)"/><path class="a" d="M143.945,157.972h4.54c2.27,0,2.27-2.837,0-2.837h-3c-.473,0-1.359-1.135-2.109-1.135H140.54a3.968,3.968,0,0,0-2.27,1.135L136,157.4" transform="translate(-2148.621 1117.008)"/><rect class="a" width="4.013" height="9.63" transform="translate(-2016.593 1276.115) rotate(-45)"/><line class="a" x2="1.8" y2="0.9" transform="translate(-2014.01 1276.174)"/><path class="a" d="M144,145.079V136h4.54" transform="translate(-2152.081 1124.794)"/><path class="a" d="M152,142.619V129h4.54v14.187" transform="translate(-2155.541 1127.821)"/></g></svg>