<svg xmlns="http://www.w3.org/2000/svg" width="15.716" height="15.721" viewBox="0 0 15.716 15.721">
  <path id="Path_69758" data-name="Path 69758" d="M1349,385.789l-1.424,1.424,2.542,2.542,1.424-1.425a.574.574,0,0,0,0-.816l-1.725-1.725A.576.576,0,0,0,1349,385.789ZM1339.4,395.4l2.542,2.542,7.749-7.75-2.543-2.541Zm-1.57,4.112,3.544-1.26-2.285-2.285Zm12.434-14.158,1.725,1.725a1.2,1.2,0,0,1,0,1.694l-9.83,9.83a.282.282,0,0,1-.115.071l-4.626,1.645a.311.311,0,0,1-.324-.07.327.327,0,0,1-.089-.222.262.262,0,0,1,.018-.1l1.646-4.626a.275.275,0,0,1,.07-.115l9.83-9.83A1.2,1.2,0,0,1,1350.259,385.349Z" transform="translate(-1336.85 -384.768)" fill="#5a5a5a" stroke="#5a5a5a" stroke-miterlimit="10" stroke-width="0.3"/>
</svg>
