<svg id="xlsx-file-format-extension-copy" xmlns="http://www.w3.org/2000/svg" width="13.041" height="14.819" viewBox="0 0 13.041 14.819">
  <defs>
    <style>
      .cls-1 {
        fill: #004dff;
      }
    </style>
  </defs>
  <path id="Shape" class="cls-1" d="M12.216,5.3h-.354V3.584a.287.287,0,0,0,0-.032.286.286,0,0,0-.069-.188L8.951.1l0,0A.285.285,0,0,0,8.891.049L8.872.037A.3.3,0,0,0,8.816.013L8.8.008A.285.285,0,0,0,8.734,0H1.756a.58.58,0,0,0-.577.581V5.3H.825A.828.828,0,0,0,0,6.131V10.45a.828.828,0,0,0,.825.831h.354v2.957a.58.58,0,0,0,.577.581h9.528a.58.58,0,0,0,.577-.581V11.281h.354a.828.828,0,0,0,.825-.831V6.131A.828.828,0,0,0,12.216,5.3ZM1.756.581H8.445V3.554a.29.29,0,0,0,.289.291h2.551V5.3H1.756ZM7.606,8.5c-.567-.2-.938-.515-.938-1.015,0-.586.486-1.035,1.292-1.035a2.079,2.079,0,0,1,.871.173l-.172.627a1.617,1.617,0,0,0-.714-.163c-.334,0-.5.153-.5.332,0,.219.193.316.633.484.6.224.887.541.887,1.025C8.969,9.509,8.528,10,7.591,10a2.221,2.221,0,0,1-.968-.209l.157-.642a1.963,1.963,0,0,0,.856.214c.355,0,.542-.148.542-.372S8.017,8.652,7.606,8.5ZM6.3,9.295v.653H4.166V6.51h.776V9.295Zm-4.611.653H.807L1.8,8.208.842,6.51h.887l.3.627c.1.209.177.377.259.571H2.3c.081-.219.147-.372.233-.571l.289-.627H3.7L2.737,8.188l1.014,1.76H2.859L2.55,9.325c-.126-.239-.208-.418-.3-.617h-.01c-.071.2-.157.378-.263.617Zm9.6,4.133H1.756v-2.8h9.528v2.8Zm.005-4.133-.309-.622c-.127-.24-.208-.418-.3-.617h-.01c-.071.2-.157.377-.264.617l-.283.622H9.237l.988-1.739-.953-1.7h.887l.3.627c.1.209.177.377.258.571h.01c.081-.219.147-.372.233-.571l.289-.627h.882l-.963,1.677,1.013,1.76H11.29Z"/>
</svg>
