<svg id="Group_25003" data-name="Group 25003" xmlns="http://www.w3.org/2000/svg" width="9.933" height="12" viewBox="0 0 9.933 12">
  <g id="Group_12163" data-name="Group 12163">
    <path id="Path_50045" data-name="Path 50045" d="M10.47,19.374h-.448l-.266.446c-.047.078-.086.147-.117.208L9.6,20.1l-.037.07H9.56l-.037-.07-.037-.071c-.037-.068-.076-.138-.118-.208L9.1,19.374H8.651l.608.967L8.6,21.371H9.06l.288-.48q.1-.159.172-.3l.042-.079h.006l.042.077.041.079q.06.114.126.226l.287.48h.445l-.639-1.03Z" transform="translate(-6.449 -12.217)"/>
    <path id="Path_50046" data-name="Path 50046" d="M14.088,19.374h-.379v2h1.315v-.34h-.936Z" transform="translate(-9.648 -12.217)"/>
    <path id="Path_50047" data-name="Path 50047" d="M18.126,20.177a1.525,1.525,0,0,1-.445-.059q-.068-.038-.067-.227a.225.225,0,0,1,.083-.209.791.791,0,0,1,.352-.05.606.606,0,0,1,.29.043q.061.043.075.211c0,.009,0,.022,0,.041h.37v-.076a.472.472,0,0,0-.157-.417,1.178,1.178,0,0,0-.607-.107,1.174,1.174,0,0,0-.634.116.551.551,0,0,0-.159.466.561.561,0,0,0,.131.446,1.239,1.239,0,0,0,.606.131l.209.013a.409.409,0,0,1,.23.058.258.258,0,0,1,.053.192q0,.2-.07.25a.616.616,0,0,1-.325.054.978.978,0,0,1-.4-.047q-.073-.047-.073-.256l0-.042h-.368v.073a.552.552,0,0,0,.154.462A1.155,1.155,0,0,0,18,21.36a1.28,1.28,0,0,0,.677-.116q.153-.116.154-.514A.529.529,0,0,0,18.7,20.3,1.174,1.174,0,0,0,18.126,20.177Z" transform="translate(-11.875 -12.19)"/>
    <path id="Path_50048" data-name="Path 50048" d="M3.627,0V6.492H2.755V9.912h0l.872.872V9.912h0V12h9.062V2.508L10.18,0Zm-.5,9.537V6.867h8.285V9.537Zm9.184,2.088H4V9.912H11.79V6.492H4V.375h5.99V2.7h2.321v8.929ZM10.367.905l1.416,1.416H10.367Z" transform="translate(-2.755)"/>
  </g>
</svg>
