<svg xmlns="http://www.w3.org/2000/svg" xmlns:xlink="http://www.w3.org/1999/xlink" width="2250.393" height="464.164" viewBox="0 0 2250.393 464.164">
  <defs>
    <linearGradient id="linear-gradient" x1="0.692" y1="1.041" x2="0.3" y2="-0.064" gradientUnits="objectBoundingBox">
      <stop offset="0" stop-color="#fff"/>
      <stop offset="1" stop-color="#f5f5f5"/>
    </linearGradient>
    <filter id="Path_15" x="33.921" y="46.194" width="312.859" height="280.08" filterUnits="userSpaceOnUse">
      <feOffset dx="7" dy="7" input="SourceAlpha"/>
      <feGaussianBlur stdDeviation="2.5" result="blur"/>
      <feFlood flood-opacity="0.251"/>
      <feComposite operator="in" in2="blur"/>
      <feComposite in="SourceGraphic"/>
    </filter>
    <linearGradient id="linear-gradient-2" x1="0.701" y1="0.996" x2="0.292" y2="-0.014" xlink:href="#linear-gradient"/>
    <filter id="Path_17" x="411.252" y="46.194" width="312.859" height="280.08" filterUnits="userSpaceOnUse">
      <feOffset dx="7" dy="7" input="SourceAlpha"/>
      <feGaussianBlur stdDeviation="2.5" result="blur-2"/>
      <feFlood flood-opacity="0.251"/>
      <feComposite operator="in" in2="blur-2"/>
      <feComposite in="SourceGraphic"/>
    </filter>
    <linearGradient id="linear-gradient-3" x1="0.738" y1="0.973" x2="0.261" y2="0.024" xlink:href="#linear-gradient"/>
    <filter id="Path_19" x="788.582" y="46.194" width="312.859" height="280.08" filterUnits="userSpaceOnUse">
      <feOffset dx="7" dy="7" input="SourceAlpha"/>
      <feGaussianBlur stdDeviation="2.5" result="blur-3"/>
      <feFlood flood-opacity="0.251"/>
      <feComposite operator="in" in2="blur-3"/>
      <feComposite in="SourceGraphic"/>
    </filter>
    <linearGradient id="linear-gradient-4" x1="0.743" y1="0.986" x2="0.253" y2="0.007" xlink:href="#linear-gradient"/>
    <filter id="Path_21" x="1165.913" y="46.194" width="312.859" height="280.08" filterUnits="userSpaceOnUse">
      <feOffset dx="7" dy="7" input="SourceAlpha"/>
      <feGaussianBlur stdDeviation="2.5" result="blur-4"/>
      <feFlood flood-opacity="0.251"/>
      <feComposite operator="in" in2="blur-4"/>
      <feComposite in="SourceGraphic"/>
    </filter>
    <linearGradient id="linear-gradient-5" x1="0.752" y1="0.996" x2="0.255" y2="0.017" xlink:href="#linear-gradient"/>
    <filter id="Path_23" x="1543.243" y="46.194" width="312.859" height="280.08" filterUnits="userSpaceOnUse">
      <feOffset dx="7" dy="7" input="SourceAlpha"/>
      <feGaussianBlur stdDeviation="2.5" result="blur-5"/>
      <feFlood flood-opacity="0.251"/>
      <feComposite operator="in" in2="blur-5"/>
      <feComposite in="SourceGraphic"/>
    </filter>
    <filter id="Path_99" x="1913.243" y="46.194" width="312.859" height="280.08" filterUnits="userSpaceOnUse">
      <feOffset dx="7" dy="7" input="SourceAlpha"/>
      <feGaussianBlur stdDeviation="2.5" result="blur-6"/>
      <feFlood flood-opacity="0.251"/>
      <feComposite operator="in" in2="blur-6"/>
      <feComposite in="SourceGraphic"/>
    </filter>
  </defs>
  <g id="Group_56" data-name="Group 56" transform="translate(278 -181)">
    <path id="Path_1" data-name="Path 1" d="M1461.749,415.157a2.787,2.787,0,0,1,2.789-2.788h0a2.787,2.787,0,0,1,2.789,2.788h0a2.788,2.788,0,0,1-2.789,2.789h0A2.787,2.787,0,0,1,1461.749,415.157Zm-15.211,0a2.787,2.787,0,0,1,2.788-2.788h0a2.787,2.787,0,0,1,2.789,2.788h0a2.787,2.787,0,0,1-2.789,2.789h0A2.787,2.787,0,0,1,1446.538,415.157Zm-15.212,0a2.787,2.787,0,0,1,2.789-2.788h0a2.787,2.787,0,0,1,2.789,2.788h0a2.788,2.788,0,0,1-2.789,2.789h0A2.787,2.787,0,0,1,1431.326,415.157Zm-15.212,0a2.787,2.787,0,0,1,2.789-2.788h0a2.787,2.787,0,0,1,2.789,2.788h0a2.787,2.787,0,0,1-2.789,2.789h0A2.788,2.788,0,0,1,1416.114,415.157Zm-15.211,0a2.787,2.787,0,0,1,2.789-2.788h0a2.786,2.786,0,0,1,2.788,2.788h0a2.787,2.787,0,0,1-2.788,2.789h0A2.787,2.787,0,0,1,1400.9,415.157Zm-15.212,0a2.787,2.787,0,0,1,2.789-2.788h0a2.787,2.787,0,0,1,2.789,2.788h0a2.787,2.787,0,0,1-2.789,2.789h0A2.787,2.787,0,0,1,1385.691,415.157Zm-30.423,0a2.787,2.787,0,0,1,2.789-2.788h0a2.787,2.787,0,0,1,2.789,2.788h0a2.787,2.787,0,0,1-2.789,2.789h0A2.787,2.787,0,0,1,1355.268,415.157Zm-15.212,0a2.787,2.787,0,0,1,2.789-2.788h0a2.787,2.787,0,0,1,2.789,2.788h0a2.787,2.787,0,0,1-2.789,2.789h0A2.787,2.787,0,0,1,1340.056,415.157Zm-15.211,0a2.787,2.787,0,0,1,2.789-2.788h0a2.786,2.786,0,0,1,2.788,2.788h0a2.787,2.787,0,0,1-2.788,2.789h0A2.787,2.787,0,0,1,1324.845,415.157Zm-15.212,0a2.787,2.787,0,0,1,2.789-2.788h0a2.787,2.787,0,0,1,2.789,2.788h0a2.788,2.788,0,0,1-2.789,2.789h0A2.787,2.787,0,0,1,1309.633,415.157Zm-15.211,0a2.786,2.786,0,0,1,2.788-2.788h0a2.787,2.787,0,0,1,2.789,2.788h0a2.787,2.787,0,0,1-2.789,2.789h0A2.787,2.787,0,0,1,1294.422,415.157Zm-15.212,0a2.787,2.787,0,0,1,2.789-2.788h0a2.787,2.787,0,0,1,2.789,2.788h0a2.787,2.787,0,0,1-2.789,2.789h0A2.787,2.787,0,0,1,1279.21,415.157Zm-581.108,0a2.787,2.787,0,0,1,2.789-2.788h0a2.79,2.79,0,0,1,2.788,2.788h0a2.79,2.79,0,0,1-2.788,2.789h0A2.787,2.787,0,0,1,698.1,415.157Zm-15.212,0a2.787,2.787,0,0,1,2.789-2.788h0a2.79,2.79,0,0,1,2.789,2.788h0a2.791,2.791,0,0,1-2.789,2.789h0A2.787,2.787,0,0,1,682.89,415.157Zm-15.211,0a2.786,2.786,0,0,1,2.788-2.788h0a2.79,2.79,0,0,1,2.789,2.788h0a2.791,2.791,0,0,1-2.789,2.789h0A2.787,2.787,0,0,1,667.679,415.157Zm-15.212,0a2.787,2.787,0,0,1,2.789-2.788h0a2.79,2.79,0,0,1,2.789,2.788h0a2.791,2.791,0,0,1-2.789,2.789h0A2.787,2.787,0,0,1,652.467,415.157Zm-15.212,0a2.787,2.787,0,0,1,2.789-2.788h0a2.79,2.79,0,0,1,2.789,2.788h0a2.791,2.791,0,0,1-2.789,2.789h0A2.787,2.787,0,0,1,637.255,415.157Zm-43.606,0a2.787,2.787,0,0,1,2.789-2.788h0a2.786,2.786,0,0,1,2.788,2.788h0a2.787,2.787,0,0,1-2.788,2.789h0A2.787,2.787,0,0,1,593.649,415.157Zm-15.719,0a2.787,2.787,0,0,1,2.789-2.788h0a2.79,2.79,0,0,1,2.789,2.788h0a2.791,2.791,0,0,1-2.789,2.789h0A2.787,2.787,0,0,1,577.93,415.157Zm-15.211,0a2.786,2.786,0,0,1,2.788-2.788h0a2.79,2.79,0,0,1,2.789,2.788h0a2.791,2.791,0,0,1-2.789,2.789h0A2.787,2.787,0,0,1,562.719,415.157Zm-16.733,0a2.787,2.787,0,0,1,2.789-2.788h0a2.79,2.79,0,0,1,2.788,2.788h0a2.79,2.79,0,0,1-2.788,2.789h0A2.787,2.787,0,0,1,545.986,415.157Zm-15.212,0a2.787,2.787,0,0,1,2.789-2.788h0a2.787,2.787,0,0,1,2.789,2.788h0a2.787,2.787,0,0,1-2.789,2.789h0A2.787,2.787,0,0,1,530.774,415.157Zm182.463-.126a2.787,2.787,0,0,1-1.019-3.808h0a2.785,2.785,0,0,1,3.808-1.019h0a2.786,2.786,0,0,1,1.024,3.807h0a2.794,2.794,0,0,1-2.419,1.4h0A2.788,2.788,0,0,1,713.237,415.031Zm-194.2-3.854a2.791,2.791,0,0,1,1.014-3.813h0a2.8,2.8,0,0,1,3.813,1.024h0a2.786,2.786,0,0,1-1.019,3.808h0a2.779,2.779,0,0,1-1.394.376h0A2.782,2.782,0,0,1,519.041,411.177Zm953.245-4.117a2.8,2.8,0,0,1-1.025-3.813h0a2.794,2.794,0,0,1,3.814-1.02h0a2.789,2.789,0,0,1,1.019,3.809h0a2.785,2.785,0,0,1-2.419,1.394h0A2.761,2.761,0,0,1,1472.286,407.06Zm-201.807-1.08a2.793,2.793,0,0,1,1.019-3.814h0a2.79,2.79,0,0,1,3.808,1.025h0a2.787,2.787,0,0,1-1.019,3.808h0a2.791,2.791,0,0,1-1.4.375h0A2.786,2.786,0,0,1,1270.479,405.98Zm-549.636-4.122a2.786,2.786,0,0,1-1.019-3.808h0a2.791,2.791,0,0,1,3.813-1.02h0a2.784,2.784,0,0,1,1.014,3.808h0a2.78,2.78,0,0,1-2.414,1.395h0A2.788,2.788,0,0,1,720.843,401.858ZM511.43,398a2.786,2.786,0,0,1,1.024-3.808h0a2.786,2.786,0,0,1,3.808,1.019h0a2.786,2.786,0,0,1-1.019,3.808h0a2.778,2.778,0,0,1-1.394.375h0A2.8,2.8,0,0,1,511.43,398Zm968.462-4.123a2.787,2.787,0,0,1-1.025-3.807h0a2.793,2.793,0,0,1,3.814-1.02h0a2.788,2.788,0,0,1,1.019,3.808h0a2.785,2.785,0,0,1-2.419,1.395h0A2.756,2.756,0,0,1,1479.892,393.881Zm-217.024-1.075a2.8,2.8,0,0,1,1.024-3.812h0a2.792,2.792,0,0,1,3.808,1.023h0a2.787,2.787,0,0,1-1.019,3.809h0a2.785,2.785,0,0,1-1.39.375h0A2.8,2.8,0,0,1,1262.868,392.806Zm-534.419-4.122a2.785,2.785,0,0,1-1.019-3.808h0a2.791,2.791,0,0,1,3.807-1.024h0a2.8,2.8,0,0,1,1.025,3.813h0a2.8,2.8,0,0,1-2.419,1.394h0A2.778,2.778,0,0,1,728.449,388.684Zm-224.625-3.853a2.8,2.8,0,0,1,1.025-3.814h0a2.792,2.792,0,0,1,3.807,1.025h0a2.786,2.786,0,0,1-1.019,3.808h0a2.788,2.788,0,0,1-1.394.375h0A2.8,2.8,0,0,1,503.824,384.831Zm983.673-4.123a2.792,2.792,0,0,1-1.024-3.808h0a2.792,2.792,0,0,1,3.813-1.019h0a2.786,2.786,0,0,1,1.019,3.808h0a2.794,2.794,0,0,1-2.418,1.4h0A2.762,2.762,0,0,1,1487.5,380.708Zm-232.23-1.08a2.787,2.787,0,0,1,1.019-3.808h0a2.787,2.787,0,0,1,3.808,1.02h0a2.791,2.791,0,0,1-1.019,3.812h0a2.779,2.779,0,0,1-1.394.376h0A2.78,2.78,0,0,1,1255.267,379.628Zm-519.213-4.117a2.787,2.787,0,0,1-1.019-3.808h0a2.792,2.792,0,0,1,3.808-1.024h0a2.8,2.8,0,0,1,1.025,3.813h0a2.8,2.8,0,0,1-2.419,1.394h0A2.784,2.784,0,0,1,736.054,375.511Zm-239.836-3.854a2.8,2.8,0,0,1,1.025-3.813h0a2.788,2.788,0,0,1,3.808,1.024h0a2.789,2.789,0,0,1-1.019,3.809h0a2.79,2.79,0,0,1-1.4.374h0A2.8,2.8,0,0,1,496.218,371.657Zm998.885-4.122a2.791,2.791,0,0,1-1.024-3.808h0a2.792,2.792,0,0,1,3.813-1.019h0a2.785,2.785,0,0,1,1.019,3.808h0a2.8,2.8,0,0,1-2.419,1.394h0A2.77,2.77,0,0,1,1495.1,367.535Zm-247.442-1.08a2.786,2.786,0,0,1,1.019-3.808h0a2.786,2.786,0,0,1,3.808,1.019h0a2.792,2.792,0,0,1-1.019,3.813h0a2.773,2.773,0,0,1-1.389.375h0A2.791,2.791,0,0,1,1247.661,366.455Zm-504-4.117a2.787,2.787,0,0,1-1.019-3.808h0a2.787,2.787,0,0,1,3.808-1.024h0a2.8,2.8,0,0,1,1.025,3.812h0a2.8,2.8,0,0,1-2.419,1.4h0A2.8,2.8,0,0,1,743.66,362.338Zm-255.048-3.854a2.8,2.8,0,0,1,1.025-3.813h0a2.793,2.793,0,0,1,3.808,1.024h0a2.787,2.787,0,0,1-1.019,3.808h0a2.78,2.78,0,0,1-1.395.376h0A2.8,2.8,0,0,1,488.612,358.484Zm1014.1-4.122a2.792,2.792,0,0,1-1.024-3.808h0a2.793,2.793,0,0,1,3.813-1.02h0a2.786,2.786,0,0,1,1.019,3.808h0a2.794,2.794,0,0,1-2.419,1.395h0A2.77,2.77,0,0,1,1502.709,354.362Zm-262.653-1.08a2.786,2.786,0,0,1,1.019-3.808h0a2.783,2.783,0,0,1,3.807,1.019h0a2.792,2.792,0,0,1-1.019,3.813h0a2.778,2.778,0,0,1-1.389.37h0A2.777,2.777,0,0,1,1240.056,353.282Zm-488.79-4.117a2.788,2.788,0,0,1-1.019-3.809h0a2.789,2.789,0,0,1,3.808-1.024h0a2.794,2.794,0,0,1,1.024,3.813h0a2.793,2.793,0,0,1-2.419,1.394h0A2.787,2.787,0,0,1,751.266,349.165Zm-270.259-3.854a2.792,2.792,0,0,1,1.024-3.813h0a2.783,2.783,0,0,1,3.808,1.024h0a2.787,2.787,0,0,1-1.019,3.808h0a2.777,2.777,0,0,1-1.394.375h0A2.8,2.8,0,0,1,481.007,345.311Zm1029.308-4.123a2.788,2.788,0,0,1-1.025-3.808h0a2.793,2.793,0,0,1,3.814-1.019h0a2.787,2.787,0,0,1,1.019,3.808h0a2.8,2.8,0,0,1-2.419,1.395h0A2.761,2.761,0,0,1,1510.315,341.188Zm-277.865-1.08a2.785,2.785,0,0,1,1.019-3.807h0a2.786,2.786,0,0,1,3.808,1.019h0a2.793,2.793,0,0,1-1.019,3.813h0a2.781,2.781,0,0,1-1.39.37h0A2.771,2.771,0,0,1,1232.45,340.108Zm-473.578-4.117a2.785,2.785,0,0,1-1.019-3.808h0a2.788,2.788,0,0,1,3.813-1.024h0a2.793,2.793,0,0,1,1.019,3.813h0a2.8,2.8,0,0,1-2.419,1.394h0A2.791,2.791,0,0,1,758.872,335.991ZM473.4,332.138a2.793,2.793,0,0,1,1.024-3.814h0a2.787,2.787,0,0,1,3.808,1.02h0a2.791,2.791,0,0,1-1.019,3.813h0a2.782,2.782,0,0,1-1.394.37h0A2.79,2.79,0,0,1,473.4,332.138Zm1044.514-4.123a2.786,2.786,0,0,1-1.014-3.808h0a2.781,2.781,0,0,1,3.809-1.019h0a2.786,2.786,0,0,1,1.019,3.808h0a2.8,2.8,0,0,1-2.419,1.394h0A2.792,2.792,0,0,1,1517.915,328.015Zm-293.071-1.08a2.787,2.787,0,0,1,1.019-3.808h0a2.787,2.787,0,0,1,3.808,1.02h0a2.791,2.791,0,0,1-1.019,3.812h0a2.769,2.769,0,0,1-1.39.371h0A2.771,2.771,0,0,1,1224.844,326.935Zm-458.366-4.117a2.8,2.8,0,0,1-1.019-3.813h0a2.79,2.79,0,0,1,3.812-1.019h0a2.791,2.791,0,0,1,1.02,3.808h0a2.785,2.785,0,0,1-2.419,1.394h0A2.772,2.772,0,0,1,766.478,322.818ZM465.8,318.964a2.792,2.792,0,0,1,1.014-3.813h0a2.788,2.788,0,0,1,3.813,1.024h0a2.787,2.787,0,0,1-1.019,3.809h0a2.788,2.788,0,0,1-1.394.375h0A2.781,2.781,0,0,1,465.8,318.964Zm1059.727-4.122a2.788,2.788,0,0,1-1.025-3.808h0a2.8,2.8,0,0,1,3.813-1.024h0a2.791,2.791,0,0,1,1.019,3.813h0a2.8,2.8,0,0,1-2.419,1.394h0A2.764,2.764,0,0,1,1525.527,314.842Zm-308.289-1.08a2.787,2.787,0,0,1,1.019-3.808h0a2.786,2.786,0,0,1,3.808,1.019h0a2.785,2.785,0,0,1-1.019,3.808h0a2.788,2.788,0,0,1-1.394.375h0A2.787,2.787,0,0,1,1217.238,313.762Zm-443.15-4.117a2.79,2.79,0,0,1-1.024-3.813h0a2.792,2.792,0,0,1,3.813-1.02h0a2.792,2.792,0,0,1,1.02,3.809h0a2.787,2.787,0,0,1-2.419,1.394h0A2.767,2.767,0,0,1,774.088,309.645Zm-315.9-3.859a2.784,2.784,0,0,1,1.025-3.808h0A2.787,2.787,0,0,1,463.022,303h0A2.793,2.793,0,0,1,462,306.81h0a2.776,2.776,0,0,1-1.395.371h0A2.788,2.788,0,0,1,458.189,305.786Zm1074.943-4.117a2.787,2.787,0,0,1-1.024-3.808h0a2.8,2.8,0,0,1,3.813-1.024h0a2.79,2.79,0,0,1,1.019,3.812h0a2.794,2.794,0,0,1-2.419,1.4h0A2.76,2.76,0,0,1,1533.132,301.669Zm-323.505-1.08a2.793,2.793,0,0,1,1.024-3.808h0a2.785,2.785,0,0,1,3.808,1.019h0a2.784,2.784,0,0,1-1.019,3.808h0a2.788,2.788,0,0,1-1.394.375h0A2.8,2.8,0,0,1,1209.627,300.589Zm-428.445-3.61a2.794,2.794,0,0,1-1.019-3.814h0a2.787,2.787,0,0,1,3.808-1.019h0a2.793,2.793,0,0,1,1.024,3.808h0a2.787,2.787,0,0,1-2.418,1.4h0A2.8,2.8,0,0,1,781.182,296.979Zm-330.6-4.366a2.793,2.793,0,0,1,1.025-3.808h0a2.786,2.786,0,0,1,3.808,1.019h0a2.793,2.793,0,0,1-1.019,3.813h0a2.783,2.783,0,0,1-1.395.37h0A2.787,2.787,0,0,1,450.583,292.613Zm1090.662-5.639a2.8,2.8,0,0,1-1.024-3.812h0a2.792,2.792,0,0,1,3.813-1.02h0a2.791,2.791,0,0,1,1.019,3.813h0a2.8,2.8,0,0,1-2.419,1.4h0A2.761,2.761,0,0,1,1541.245,286.974Zm-339.218.441a2.785,2.785,0,0,1,1.019-3.807h0a2.786,2.786,0,0,1,3.808,1.019h0a2.786,2.786,0,0,1-1.02,3.807h0a2.779,2.779,0,0,1-1.394.376h0A2.778,2.778,0,0,1,1202.027,287.415ZM788.788,283.8a2.785,2.785,0,0,1-1.019-3.808h0a2.786,2.786,0,0,1,3.808-1.019h0a2.788,2.788,0,0,1,1.024,3.808h0a2.785,2.785,0,0,1-2.419,1.395h0A2.792,2.792,0,0,1,788.788,283.8Zm-344.8-2.84a2.791,2.791,0,0,1,1.024-3.807h0a2.786,2.786,0,0,1,3.808,1.019h0a2.785,2.785,0,0,1-1.019,3.808h0a2.778,2.778,0,0,1-1.394.375h0A2.783,2.783,0,0,1,443.992,280.96ZM1549.358,273.8a2.792,2.792,0,0,1-1.024-3.808h0a2.793,2.793,0,0,1,3.813-1.024h0a2.793,2.793,0,0,1,1.019,3.813h0a2.794,2.794,0,0,1-2.419,1.394h0A2.759,2.759,0,0,1,1549.358,273.8Zm-354.937.441a2.785,2.785,0,0,1,1.019-3.808h0a2.788,2.788,0,0,1,3.808,1.019h0a2.788,2.788,0,0,1-1.019,3.809h0a2.79,2.79,0,0,1-1.4.374h0A2.784,2.784,0,0,1,1194.421,274.242Zm-398.027-3.615a2.785,2.785,0,0,1-1.019-3.808h0a2.785,2.785,0,0,1,3.808-1.019h0a2.788,2.788,0,0,1,1.024,3.808h0A2.784,2.784,0,0,1,797.788,271h0A2.8,2.8,0,0,1,796.394,270.627ZM437.4,269.309a2.793,2.793,0,0,1,1.025-3.808h0a2.785,2.785,0,0,1,3.807,1.019h0a2.785,2.785,0,0,1-1.019,3.808h0a2.788,2.788,0,0,1-1.394.375h0A2.8,2.8,0,0,1,437.4,269.309Zm-19.268-31.924a2.787,2.787,0,0,1,1.025-3.808h0a2.785,2.785,0,0,1,3.807,1.019h0a2.786,2.786,0,0,1-1.019,3.808h0a2.788,2.788,0,0,1-1.394.375h0A2.8,2.8,0,0,1,418.132,237.385ZM1571.161,235.8a2.786,2.786,0,0,1-1.019-3.812h0a2.786,2.786,0,0,1,3.808-1.02h0a2.787,2.787,0,0,1,1.019,3.809h0a2.784,2.784,0,0,1-2.419,1.394h0A2.755,2.755,0,0,1,1571.161,235.8Zm-399.558-1.08a2.793,2.793,0,0,1,1.019-3.813h0a2.793,2.793,0,0,1,3.808,1.025h0a2.786,2.786,0,0,1-1.019,3.808h0a2.784,2.784,0,0,1-1.389.375h0A2.782,2.782,0,0,1,1171.6,234.722Zm-355.429.442a2.788,2.788,0,0,1-1.024-3.808h0a2.787,2.787,0,0,1,3.808-1.02h0a2.784,2.784,0,0,1,1.024,3.809h0a2.8,2.8,0,0,1-2.419,1.394h0A2.77,2.77,0,0,1,816.174,235.164ZM411.54,225.732a2.787,2.787,0,0,1,1.025-3.808h0a2.787,2.787,0,0,1,3.808,1.02h0a2.784,2.784,0,0,1-1.025,3.808h0a2.754,2.754,0,0,1-1.389.375h0A2.8,2.8,0,0,1,411.54,225.732Zm1167.227-3.108a2.786,2.786,0,0,1-1.024-3.808h0a2.792,2.792,0,0,1,3.813-1.019h0a2.787,2.787,0,0,1,1.019,3.808h0a2.8,2.8,0,0,1-2.419,1.394h0A2.76,2.76,0,0,1,1578.767,222.624ZM1164,221.549a2.792,2.792,0,0,1,1.019-3.813h0a2.787,2.787,0,0,1,3.808,1.024h0a2.789,2.789,0,0,1-1.02,3.809h0a2.784,2.784,0,0,1-1.389.375h0A2.791,2.791,0,0,1,1164,221.549Zm-339.711-.573a2.783,2.783,0,0,1-1.024-3.808h0a2.793,2.793,0,0,1,3.808-1.024h0a2.794,2.794,0,0,1,1.024,3.813h0a2.8,2.8,0,0,1-2.419,1.394h0A2.76,2.76,0,0,1,824.287,220.976Zm-419.333-7.4a2.787,2.787,0,0,1,1.019-3.813h0a2.792,2.792,0,0,1,3.808,1.025h0a2.785,2.785,0,0,1-1.019,3.807h0a2.792,2.792,0,0,1-1.394.376h0A2.78,2.78,0,0,1,404.954,213.573Zm1181.419-4.122a2.787,2.787,0,0,1-1.025-3.808h0a2.793,2.793,0,0,1,3.814-1.019h0a2.787,2.787,0,0,1,1.019,3.808h0a2.8,2.8,0,0,1-2.419,1.394h0A2.757,2.757,0,0,1,1586.373,209.451Zm-429.981-1.08a2.786,2.786,0,0,1,1.019-3.808h0a2.787,2.787,0,0,1,3.808,1.019h0a2.792,2.792,0,0,1-1.019,3.813h0a2.763,2.763,0,0,1-1.39.375h0A2.783,2.783,0,0,1,1156.392,208.371Zm-324-1.582a2.786,2.786,0,0,1-1.019-3.808h0a2.789,2.789,0,0,1,3.812-1.019h0a2.79,2.79,0,0,1,1.02,3.808h0a2.8,2.8,0,0,1-2.419,1.394h0A2.791,2.791,0,0,1,832.4,206.789ZM397.343,200.4a2.793,2.793,0,0,1,1.024-3.813h0a2.793,2.793,0,0,1,3.808,1.024h0a2.785,2.785,0,0,1-1.019,3.808h0a2.791,2.791,0,0,1-1.394.375h0A2.793,2.793,0,0,1,397.343,200.4Zm1196.636-4.122a2.789,2.789,0,0,1-1.025-3.808h0a2.792,2.792,0,0,1,3.814-1.019h0a2.787,2.787,0,0,1,1.019,3.808h0a2.8,2.8,0,0,1-2.419,1.394h0A2.767,2.767,0,0,1,1593.979,196.278Zm-445.193-1.08a2.785,2.785,0,0,1,1.019-3.808h0a2.783,2.783,0,0,1,3.808,1.024h0a2.787,2.787,0,0,1-1.019,3.808h0a2.761,2.761,0,0,1-1.39.375h0A2.789,2.789,0,0,1,1148.786,195.2Zm-307.772-2.6a2.785,2.785,0,0,1-1.019-3.807h0a2.787,2.787,0,0,1,3.808-1.024h0a2.794,2.794,0,0,1,1.025,3.808h0a2.792,2.792,0,0,1-2.419,1.4h0A2.785,2.785,0,0,1,841.014,192.6Zm-451.277-5.374a2.8,2.8,0,0,1,1.025-3.813h0a2.786,2.786,0,0,1,3.807,1.024h0a2.785,2.785,0,0,1-1.019,3.808h0a2.788,2.788,0,0,1-1.394.375h0A2.8,2.8,0,0,1,389.737,187.227ZM1601.585,183.1a2.794,2.794,0,0,1-1.025-3.809h0a2.793,2.793,0,0,1,3.813-1.019h0a2.785,2.785,0,0,1,1.019,3.808h0a2.793,2.793,0,0,1-2.418,1.395h0A2.765,2.765,0,0,1,1601.585,183.1Zm-460.4-1.08a2.788,2.788,0,0,1,1.019-3.809h0a2.794,2.794,0,0,1,3.813,1.02h0a2.8,2.8,0,0,1-1.024,3.813h0a2.778,2.778,0,0,1-1.389.37h0A2.784,2.784,0,0,1,1141.18,182.025Zm-292.053-3.1a2.787,2.787,0,0,1-1.019-3.808h0a2.789,2.789,0,0,1,3.808-1.024h0a2.794,2.794,0,0,1,1.025,3.813h0a2.8,2.8,0,0,1-2.419,1.394h0A2.8,2.8,0,0,1,849.127,178.921Zm-467-4.873a2.793,2.793,0,0,1,1.025-3.807h0a2.787,2.787,0,0,1,3.808,1.024h0a2.788,2.788,0,0,1-1.019,3.808h0a2.781,2.781,0,0,1-1.4.375h0A2.79,2.79,0,0,1,382.131,174.048Zm1227.059-4.117a2.791,2.791,0,0,1-1.024-3.808h0a2.792,2.792,0,0,1,3.813-1.019h0a2.785,2.785,0,0,1,1.019,3.808h0a2.8,2.8,0,0,1-2.419,1.394h0A2.76,2.76,0,0,1,1609.19,169.931Zm-475.616-1.08a2.787,2.787,0,0,1,1.019-3.808h0a2.785,2.785,0,0,1,3.808,1.019h0a2.793,2.793,0,0,1-1.019,3.814h0a2.777,2.777,0,0,1-1.389.37h0A2.777,2.777,0,0,1,1133.574,168.851Zm-276.334-3.61a2.791,2.791,0,0,1-1.019-3.813h0a2.788,2.788,0,0,1,3.808-1.02h0a2.79,2.79,0,0,1,1.024,3.809h0a2.789,2.789,0,0,1-2.418,1.4h0A2.789,2.789,0,0,1,857.24,165.241ZM374.525,160.88a2.8,2.8,0,0,1,1.025-3.813h0a2.789,2.789,0,0,1,3.808,1.025h0a2.788,2.788,0,0,1-1.019,3.808h0a2.789,2.789,0,0,1-1.395.375h0A2.8,2.8,0,0,1,374.525,160.88ZM1616.8,156.758a2.792,2.792,0,0,1-1.024-3.808h0a2.8,2.8,0,0,1,3.813-1.024h0a2.793,2.793,0,0,1,1.019,3.813h0a2.8,2.8,0,0,1-2.419,1.394h0A2.76,2.76,0,0,1,1616.8,156.758Zm-490.827-1.08a2.786,2.786,0,0,1,1.019-3.808h0a2.785,2.785,0,0,1,3.808,1.019h0a2.785,2.785,0,0,1-1.02,3.808h0a2.724,2.724,0,0,1-1.389.376h0A2.778,2.778,0,0,1,1125.969,155.678Zm-260.611-4.117a2.79,2.79,0,0,1-1.024-3.813h0a2.785,2.785,0,0,1,3.808-1.019h0a2.787,2.787,0,0,1,1.024,3.807h0a2.783,2.783,0,0,1-2.419,1.4h0A2.764,2.764,0,0,1,865.358,151.561Zm-497.931-2.845a2.788,2.788,0,0,1,1.024-3.808h0a2.787,2.787,0,0,1,3.808,1.019h0a2.793,2.793,0,0,1-1.019,3.814h0a2.73,2.73,0,0,1-1.394.369h0A2.782,2.782,0,0,1,367.427,148.716ZM1624.4,143.585a2.793,2.793,0,0,1-1.025-3.808h0a2.8,2.8,0,0,1,3.814-1.025h0a2.794,2.794,0,0,1,1.019,3.814h0a2.8,2.8,0,0,1-2.419,1.394h0A2.767,2.767,0,0,1,1624.4,143.585Zm-506.039-1.08a2.785,2.785,0,0,1,1.019-3.808h0a2.785,2.785,0,0,1,3.808,1.019h0a2.785,2.785,0,0,1-1.019,3.808h0a2.787,2.787,0,0,1-1.39.375h0A2.788,2.788,0,0,1,1118.363,142.505Zm-245.4-4.118a2.786,2.786,0,0,1-1.024-3.812h0a2.786,2.786,0,0,1,3.808-1.02h0a2.784,2.784,0,0,1,1.024,3.808h0a2.783,2.783,0,0,1-2.419,1.395h0A2.755,2.755,0,0,1,872.964,138.387ZM360.328,136.05a2.788,2.788,0,0,1,1.024-3.808h0a2.785,2.785,0,0,1,3.808,1.019h0a2.791,2.791,0,0,1-1.019,3.813h0a2.773,2.773,0,0,1-1.394.371h0A2.785,2.785,0,0,1,360.328,136.05Zm1271.68-5.638a2.785,2.785,0,0,1-1.02-3.809h0a2.788,2.788,0,0,1,3.809-1.024h0a2.793,2.793,0,0,1,1.019,3.813h0a2.8,2.8,0,0,1-2.419,1.4h0A2.764,2.764,0,0,1,1632.008,130.412Zm-521.251-1.08a2.788,2.788,0,0,1,1.019-3.809h0a2.786,2.786,0,0,1,3.808,1.02h0a2.794,2.794,0,0,1-1.019,3.813h0a2.83,2.83,0,0,1-1.39.37h0A2.784,2.784,0,0,1,1110.757,129.332ZM880.57,125.214a2.793,2.793,0,0,1-1.024-3.813h0a2.787,2.787,0,0,1,3.807-1.019h0a2.788,2.788,0,0,1,1.025,3.808h0a2.783,2.783,0,0,1-2.419,1.394h0A2.754,2.754,0,0,1,880.57,125.214ZM353.742,124.4a2.235,2.235,0,0,1,1.019-3.3h0a2.787,2.787,0,0,1,3.808,1.019h0a2.785,2.785,0,0,1-1.02,3.808h0a2.735,2.735,0,0,1-1.394.375h0C355.192,126.3,354.254,125.295,353.742,124.4Zm1285.871-7.16a2.788,2.788,0,0,1-1.024-3.808h0a2.794,2.794,0,0,1,3.813-1.024h0a2.786,2.786,0,0,1,1.019,3.808h0a2.79,2.79,0,0,1-2.418,1.4h0A2.762,2.762,0,0,1,1639.613,117.238Zm-536.462-1.08a2.794,2.794,0,0,1,1.019-3.813h0a2.792,2.792,0,0,1,3.808,1.024h0a2.786,2.786,0,0,1-1.019,3.808h0a2.779,2.779,0,0,1-1.394.376h0A2.78,2.78,0,0,1,1103.151,116.158ZM888.17,112.041a2.792,2.792,0,0,1-1.019-3.813h0a2.791,2.791,0,0,1,3.813-1.019h0a2.791,2.791,0,0,1,1.02,3.808h0a2.787,2.787,0,0,1-2.419,1.394h0A2.8,2.8,0,0,1,888.17,112.041ZM347.15,113.76a2.786,2.786,0,0,1,1.019-3.808h0a2.786,2.786,0,0,1,3.808,1.019h0a2.785,2.785,0,0,1-1.019,3.808h0a2.781,2.781,0,0,1-1.4.375h0A2.77,2.77,0,0,1,347.15,113.76Zm748.4-10.775a2.785,2.785,0,0,1,1.019-3.808h0a2.786,2.786,0,0,1,3.808,1.019h0a2.786,2.786,0,0,1-1.019,3.808h0a2.76,2.76,0,0,1-1.389.375h0A2.787,2.787,0,0,1,1095.545,102.985ZM895.776,98.863a2.787,2.787,0,0,1-1.019-3.808h0a2.786,2.786,0,0,1,3.808-1.019h0a2.792,2.792,0,0,1,1.025,3.807h0a2.786,2.786,0,0,1-2.419,1.395h0A2.8,2.8,0,0,1,895.776,98.863Zm191.753-10.385a2.79,2.79,0,0,1,2.788-2.788h0a2.787,2.787,0,0,1,2.789,2.788h0a2.79,2.79,0,0,1-2.789,2.789h0A2.793,2.793,0,0,1,1087.529,88.478Zm-15.212,0a2.79,2.79,0,0,1,2.789-2.788h0a2.787,2.787,0,0,1,2.789,2.788h0a2.791,2.791,0,0,1-2.789,2.789h0A2.793,2.793,0,0,1,1072.317,88.478Zm-15.212,0a2.787,2.787,0,0,1,2.789-2.788h0a2.787,2.787,0,0,1,2.789,2.788h0a2.79,2.79,0,0,1-2.789,2.789h0A2.791,2.791,0,0,1,1057.1,88.478Zm-15.206,0a2.783,2.783,0,0,1,2.789-2.788h0a2.785,2.785,0,0,1,2.783,2.788h0a2.789,2.789,0,0,1-2.783,2.789h0A2.787,2.787,0,0,1,1041.9,88.478Zm-15.217,0a2.79,2.79,0,0,1,2.789-2.788h0a2.787,2.787,0,0,1,2.789,2.788h0a2.791,2.791,0,0,1-2.789,2.789h0A2.793,2.793,0,0,1,1026.682,88.478Zm-15.211,0a2.79,2.79,0,0,1,2.788-2.788h0a2.787,2.787,0,0,1,2.789,2.788h0a2.79,2.79,0,0,1-2.789,2.789h0A2.793,2.793,0,0,1,1011.471,88.478Zm-15.212,0a2.787,2.787,0,0,1,2.789-2.788h0a2.787,2.787,0,0,1,2.789,2.788h0a2.791,2.791,0,0,1-2.789,2.789h0A2.79,2.79,0,0,1,996.259,88.478Zm-15.207,0a2.783,2.783,0,0,1,2.784-2.788h0a2.787,2.787,0,0,1,2.789,2.788h0a2.79,2.79,0,0,1-2.789,2.789h0A2.786,2.786,0,0,1,981.052,88.478Zm-15.216,0a2.79,2.79,0,0,1,2.789-2.788h0a2.786,2.786,0,0,1,2.788,2.788h0a2.79,2.79,0,0,1-2.788,2.789h0A2.793,2.793,0,0,1,965.836,88.478Zm-15.212,0a2.79,2.79,0,0,1,2.789-2.788h0a2.787,2.787,0,0,1,2.789,2.788h0a2.791,2.791,0,0,1-2.789,2.789h0A2.793,2.793,0,0,1,950.624,88.478Zm-15.211,0A2.786,2.786,0,0,1,938.2,85.69h0a2.791,2.791,0,0,1,2.794,2.788h0a2.794,2.794,0,0,1-2.794,2.789h0A2.79,2.79,0,0,1,935.413,88.478Zm-15.212,0a2.787,2.787,0,0,1,2.789-2.788h0a2.787,2.787,0,0,1,2.789,2.788h0a2.791,2.791,0,0,1-2.789,2.789h0A2.79,2.79,0,0,1,920.2,88.478Zm-15.212,0a2.79,2.79,0,0,1,2.789-2.788h0a2.787,2.787,0,0,1,2.789,2.788h0a2.79,2.79,0,0,1-2.789,2.789h0A2.794,2.794,0,0,1,904.989,88.478Z" transform="translate(-335.386 111.092)" fill="#95a2ab"/>
    <path id="Path_101" data-name="Path 101" d="M1461.749,88.479a2.787,2.787,0,0,0,2.789,2.788h0a2.787,2.787,0,0,0,2.789-2.788h0a2.788,2.788,0,0,0-2.789-2.789h0A2.787,2.787,0,0,0,1461.749,88.479Zm-15.211,0a2.787,2.787,0,0,0,2.788,2.788h0a2.787,2.787,0,0,0,2.789-2.788h0a2.787,2.787,0,0,0-2.789-2.789h0A2.787,2.787,0,0,0,1446.538,88.479Zm-15.212,0a2.787,2.787,0,0,0,2.789,2.788h0a2.787,2.787,0,0,0,2.789-2.788h0a2.788,2.788,0,0,0-2.789-2.789h0A2.787,2.787,0,0,0,1431.326,88.479Zm-15.212,0a2.787,2.787,0,0,0,2.789,2.788h0a2.787,2.787,0,0,0,2.789-2.788h0a2.787,2.787,0,0,0-2.789-2.789h0A2.788,2.788,0,0,0,1416.114,88.479Zm-15.211,0a2.787,2.787,0,0,0,2.789,2.788h0a2.786,2.786,0,0,0,2.788-2.788h0a2.787,2.787,0,0,0-2.788-2.789h0A2.787,2.787,0,0,0,1400.9,88.479Zm-15.212,0a2.787,2.787,0,0,0,2.789,2.788h0a2.787,2.787,0,0,0,2.789-2.788h0a2.787,2.787,0,0,0-2.789-2.789h0A2.787,2.787,0,0,0,1385.691,88.479Zm-30.423,0a2.787,2.787,0,0,0,2.789,2.788h0a2.787,2.787,0,0,0,2.789-2.788h0a2.787,2.787,0,0,0-2.789-2.789h0A2.787,2.787,0,0,0,1355.268,88.479Zm-15.212,0a2.787,2.787,0,0,0,2.789,2.788h0a2.787,2.787,0,0,0,2.789-2.788h0a2.787,2.787,0,0,0-2.789-2.789h0A2.787,2.787,0,0,0,1340.056,88.479Zm-15.211,0a2.787,2.787,0,0,0,2.789,2.788h0a2.786,2.786,0,0,0,2.788-2.788h0a2.787,2.787,0,0,0-2.788-2.789h0A2.787,2.787,0,0,0,1324.845,88.479Zm-15.212,0a2.787,2.787,0,0,0,2.789,2.788h0a2.787,2.787,0,0,0,2.789-2.788h0a2.788,2.788,0,0,0-2.789-2.789h0A2.787,2.787,0,0,0,1309.633,88.479Zm-15.211,0a2.786,2.786,0,0,0,2.788,2.788h0A2.787,2.787,0,0,0,1300,88.479h0a2.787,2.787,0,0,0-2.789-2.789h0A2.787,2.787,0,0,0,1294.422,88.479Zm-15.212,0A2.787,2.787,0,0,0,1282,91.267h0a2.787,2.787,0,0,0,2.789-2.788h0A2.787,2.787,0,0,0,1282,85.69h0A2.787,2.787,0,0,0,1279.21,88.479Zm193.076,8.1a2.8,2.8,0,0,0-1.025,3.813h0a2.794,2.794,0,0,0,3.814,1.02h0a2.789,2.789,0,0,0,1.019-3.809h0a2.785,2.785,0,0,0-2.419-1.394h0A2.761,2.761,0,0,0,1472.286,96.576Zm-201.807,1.08a2.793,2.793,0,0,0,1.019,3.814h0a2.79,2.79,0,0,0,3.808-1.025h0a2.787,2.787,0,0,0-1.019-3.808h0a2.791,2.791,0,0,0-1.4-.375h0A2.786,2.786,0,0,0,1270.479,97.656Zm209.413,12.1a2.787,2.787,0,0,0-1.025,3.807h0a2.793,2.793,0,0,0,3.814,1.02h0a2.788,2.788,0,0,0,1.019-3.808h0a2.785,2.785,0,0,0-2.419-1.395h0A2.756,2.756,0,0,0,1479.892,109.755Zm-217.024,1.075a2.8,2.8,0,0,0,1.024,3.812h0a2.792,2.792,0,0,0,3.808-1.023h0a2.787,2.787,0,0,0-1.019-3.809h0a2.785,2.785,0,0,0-1.39-.375h0A2.8,2.8,0,0,0,1262.868,110.83Zm224.629,12.1a2.792,2.792,0,0,0-1.024,3.808h0a2.792,2.792,0,0,0,3.813,1.019h0a2.786,2.786,0,0,0,1.019-3.808h0a2.794,2.794,0,0,0-2.418-1.4h0A2.762,2.762,0,0,0,1487.5,122.928Zm-232.23,1.08a2.787,2.787,0,0,0,1.019,3.808h0a2.787,2.787,0,0,0,3.808-1.02h0a2.791,2.791,0,0,0-1.019-3.812h0a2.779,2.779,0,0,0-1.394-.376h0A2.78,2.78,0,0,0,1255.267,124.008ZM1495.1,136.1a2.791,2.791,0,0,0-1.024,3.808h0a2.792,2.792,0,0,0,3.813,1.019h0a2.785,2.785,0,0,0,1.019-3.808h0a2.8,2.8,0,0,0-2.419-1.394h0A2.77,2.77,0,0,0,1495.1,136.1Zm-246.423,4.888h0a2.786,2.786,0,0,0,3.808-1.019h0a2.792,2.792,0,0,0-1.019-3.813h0a2.773,2.773,0,0,0-1.389-.375h0C1249.111,135.787,1247.347,140.219,1248.68,140.989Zm254.029,8.285a2.792,2.792,0,0,0-1.024,3.808h0a2.793,2.793,0,0,0,3.813,1.02h0a2.786,2.786,0,0,0,1.019-3.808h0a2.794,2.794,0,0,0-2.419-1.395h0A2.77,2.77,0,0,0,1502.709,149.274Zm7.606,13.174a2.788,2.788,0,0,0-1.025,3.808h0a2.793,2.793,0,0,0,3.814,1.019h0a2.787,2.787,0,0,0,1.019-3.808h0a2.8,2.8,0,0,0-2.419-1.395h0A2.761,2.761,0,0,0,1510.315,162.448Zm7.6,13.173a2.786,2.786,0,0,0-1.014,3.808h0a2.781,2.781,0,0,0,3.809,1.019h0a2.786,2.786,0,0,0,1.019-3.808h0a2.8,2.8,0,0,0-2.419-1.394h0A2.792,2.792,0,0,0,1517.915,175.621Zm7.612,13.173a2.788,2.788,0,0,0-1.025,3.808h0a2.8,2.8,0,0,0,3.813,1.024h0a2.791,2.791,0,0,0,1.019-3.813h0a2.8,2.8,0,0,0-2.419-1.394h0A2.764,2.764,0,0,0,1525.527,188.794Zm7.6,13.173a2.787,2.787,0,0,0-1.024,3.808h0a2.8,2.8,0,0,0,3.813,1.024h0a2.79,2.79,0,0,0,1.019-3.812h0a2.794,2.794,0,0,0-2.419-1.4h0A2.76,2.76,0,0,0,1533.132,201.967Zm8.113,14.7a2.8,2.8,0,0,0-1.024,3.812h0a2.792,2.792,0,0,0,3.813,1.02h0a2.791,2.791,0,0,0,1.019-3.813h0a2.8,2.8,0,0,0-2.419-1.4h0A2.761,2.761,0,0,0,1541.245,216.662Zm8.113,13.173a2.792,2.792,0,0,0-1.024,3.808h0a2.793,2.793,0,0,0,3.813,1.024h0a2.793,2.793,0,0,0,1.019-3.813h0a2.794,2.794,0,0,0-2.419-1.394h0A2.759,2.759,0,0,0,1549.358,229.835Zm21.8,38a2.786,2.786,0,0,0-1.019,3.812h0a2.786,2.786,0,0,0,3.808,1.02h0a2.787,2.787,0,0,0,1.019-3.809h0a2.784,2.784,0,0,0-2.419-1.394h0A2.755,2.755,0,0,0,1571.161,267.834Zm7.606,13.178a2.786,2.786,0,0,0-1.024,3.808h0a2.792,2.792,0,0,0,3.813,1.019h0a2.787,2.787,0,0,0,1.019-3.808h0a2.8,2.8,0,0,0-2.419-1.394h0A2.76,2.76,0,0,0,1578.767,281.012Zm7.606,13.173a2.787,2.787,0,0,0-1.025,3.808h0a2.793,2.793,0,0,0,3.814,1.019h0a2.787,2.787,0,0,0,1.019-3.808h0a2.8,2.8,0,0,0-2.419-1.394h0A2.757,2.757,0,0,0,1586.373,294.185Zm7.606,13.173a2.789,2.789,0,0,0-1.025,3.808h0a2.792,2.792,0,0,0,3.814,1.019h0a2.787,2.787,0,0,0,1.019-3.808h0a2.8,2.8,0,0,0-2.419-1.394h0A2.767,2.767,0,0,0,1593.979,307.358Zm7.606,13.173a2.794,2.794,0,0,0-1.025,3.809h0a2.793,2.793,0,0,0,3.813,1.019h0a2.785,2.785,0,0,0,1.019-3.808h0a2.793,2.793,0,0,0-2.418-1.4h0A2.765,2.765,0,0,0,1601.585,320.531Zm7.6,13.174a2.791,2.791,0,0,0-1.024,3.808h0a2.792,2.792,0,0,0,3.813,1.019h0a2.785,2.785,0,0,0,1.019-3.808h0a2.8,2.8,0,0,0-2.419-1.394h0A2.76,2.76,0,0,0,1609.19,333.705Zm7.606,13.173a2.792,2.792,0,0,0-1.024,3.808h0a2.8,2.8,0,0,0,3.813,1.024h0a2.793,2.793,0,0,0,1.019-3.813h0a2.8,2.8,0,0,0-2.419-1.394h0A2.76,2.76,0,0,0,1616.8,346.878Zm7.606,13.173a2.793,2.793,0,0,0-1.025,3.808h0a2.8,2.8,0,0,0,3.814,1.025h0a2.794,2.794,0,0,0,1.019-3.814h0a2.8,2.8,0,0,0-2.419-1.394h0A2.767,2.767,0,0,0,1624.4,360.051Zm7.606,13.173a2.785,2.785,0,0,0-1.02,3.809h0a2.788,2.788,0,0,0,3.809,1.024h0a2.793,2.793,0,0,0,1.019-3.813h0a2.8,2.8,0,0,0-2.419-1.4h0A2.764,2.764,0,0,0,1632.008,373.224Zm7.6,13.174a2.788,2.788,0,0,0-1.024,3.808h0a2.794,2.794,0,0,0,3.813,1.024h0a2.786,2.786,0,0,0,1.019-3.808h0a2.79,2.79,0,0,0-2.418-1.4h0A2.762,2.762,0,0,0,1639.613,386.4Z" transform="translate(40.168 113.388)" fill="#95a2ab"/>
    <path id="Path_2" data-name="Path 2" d="M313.136,416.933H170.146a41.4,41.4,0,0,1-35.752-20.641L62.9,272.459a41.4,41.4,0,0,1,0-41.283l71.495-123.833A41.4,41.4,0,0,1,170.146,86.7h165.8a1.775,1.775,0,0,1,0,3.55h-165.8a37.838,37.838,0,0,0-32.678,18.867L65.973,232.95a37.839,37.839,0,0,0,0,37.734l71.5,123.833a37.84,37.84,0,0,0,32.678,18.867h142.99a37.842,37.842,0,0,0,32.679-18.867l82.9-143.587a1.775,1.775,0,0,1,3.074,1.774l-82.9,143.588A41.4,41.4,0,0,1,313.136,416.933Z" transform="translate(-335.386 111.092)" fill="#a1afb8"/>
    <path id="Path_3" data-name="Path 3" d="M807.474,253.592a1.773,1.773,0,0,1-1.539-.888l-82.9-143.586a37.837,37.837,0,0,0-32.678-18.867H547.367a37.836,37.836,0,0,0-32.678,18.867L431.789,252.7a1.775,1.775,0,1,1-3.074-1.774l82.9-143.587A41.4,41.4,0,0,1,547.367,86.7h142.99a41.4,41.4,0,0,1,35.752,20.642l82.9,143.587a1.775,1.775,0,0,1-1.535,2.662Z" transform="translate(-335.386 111.092)" fill="#00a3de"/>
    <path id="Path_4" data-name="Path 4" d="M1067.577,416.933H924.588a41.4,41.4,0,0,1-35.753-20.641L805.935,252.7a1.775,1.775,0,0,1,3.074-1.774l82.9,143.587a37.841,37.841,0,0,0,32.679,18.867h142.989a37.841,37.841,0,0,0,32.679-18.867l82.9-143.587a1.774,1.774,0,1,1,3.073,1.774l-82.9,143.588A41.4,41.4,0,0,1,1067.577,416.933Z" transform="translate(-335.386 111.092)" fill="#ff2e8b"/>
    <path id="Path_5" data-name="Path 5" d="M1561.914,253.592a1.773,1.773,0,0,1-1.538-.888l-82.9-143.586A37.838,37.838,0,0,0,1444.8,90.251h-142.99a37.836,37.836,0,0,0-32.678,18.867l-82.9,143.586a1.774,1.774,0,1,1-3.073-1.774l82.9-143.587A41.4,41.4,0,0,1,1301.808,86.7H1444.8a41.4,41.4,0,0,1,35.752,20.642l82.9,143.587a1.775,1.775,0,0,1-1.536,2.662Z" transform="translate(-335.386 111.092)" fill="#a421b0"/>
    <path id="Path_100" data-name="Path 100" d="M1561.914,86.7a1.773,1.773,0,0,0-1.538.888l-82.9,143.586a37.838,37.838,0,0,1-32.678,18.867h-142.99a37.836,37.836,0,0,1-32.678-18.867l-82.9-143.586a1.774,1.774,0,1,0-3.073,1.774l82.9,143.587a41.4,41.4,0,0,0,35.752,20.642H1444.8a41.4,41.4,0,0,0,35.752-20.642l82.9-143.587a1.775,1.775,0,0,0-1.536-2.662Z" transform="translate(39.849 275.446)" fill="#2f609a"/>
    <path id="Path_98" data-name="Path 98" d="M1822.018,86.7h-142.99a41.4,41.4,0,0,0-35.752,20.641l-82.9,143.588a1.775,1.775,0,0,0,3.074,1.774l82.9-143.587a37.84,37.84,0,0,1,32.678-18.867h142.99a37.841,37.841,0,0,1,32.679,18.867l71.495,123.833a37.839,37.839,0,0,1,0,37.734L1854.7,394.516a37.839,37.839,0,0,1-32.679,18.867h-165.8a1.775,1.775,0,0,0,0,3.55h165.8a41.4,41.4,0,0,0,35.753-20.642l71.495-123.833a41.4,41.4,0,0,0,0-41.283l-71.495-123.833A41.4,41.4,0,0,0,1822.018,86.7Z" transform="translate(37.614 111.092)" fill="#414042"/>
    <g id="Group_54" data-name="Group 54" transform="translate(39.614 437.774)">
      <g id="Group_2" data-name="Group 2">
        <circle id="Ellipse_1" data-name="Ellipse 1" cx="16.794" cy="16.794" r="16.794" transform="translate(1639.075 71.682)" fill="#fff"/>
        <path id="Path_7" data-name="Path 7" d="M1655.869,107.044a18.568,18.568,0,1,1,18.568-18.568A18.59,18.59,0,0,1,1655.869,107.044Zm0-33.587a15.019,15.019,0,1,0,15.018,15.019A15.035,15.035,0,0,0,1655.869,73.457Z" fill="#414042"/>
      </g>
      <circle id="Ellipse_2" data-name="Ellipse 2" cx="8.714" cy="8.714" r="8.714" transform="translate(1647.154 79.762)" fill="#414042"/>
    </g>
    <g id="Group_5" data-name="Group 5" transform="translate(-335.386 111.092)">
      <g id="Group_4" data-name="Group 4">
        <circle id="Ellipse_3" data-name="Ellipse 3" cx="16.793" cy="16.793" r="16.793" transform="translate(319.153 71.682)" fill="#fff"/>
        <path id="Path_8" data-name="Path 8" d="M335.946,107.044a18.568,18.568,0,1,1,18.569-18.568A18.59,18.59,0,0,1,335.946,107.044Zm0-33.587a15.019,15.019,0,1,0,15.019,15.019A15.035,15.035,0,0,0,335.946,73.457Z" fill="#a1afb8"/>
      </g>
    </g>
    <circle id="Ellipse_4" data-name="Ellipse 4" cx="8.323" cy="8.323" r="8.323" transform="translate(275.153 517.927)" fill="#00a3de"/>
    <circle id="Ellipse_5" data-name="Ellipse 5" cx="8.323" cy="8.323" r="8.323" transform="translate(652.374 517.927)" fill="#ff2e8b"/>
    <circle id="Ellipse_6" data-name="Ellipse 6" cx="8.323" cy="8.323" r="8.323" transform="translate(1029.594 517.927)" fill="#a421b0"/>
    <circle id="Ellipse_7" data-name="Ellipse 7" cx="8.323" cy="8.323" r="8.323" transform="translate(1407.813 192.755)" fill="#2f609a"/>
    <g id="Group_6" data-name="Group 6" transform="translate(-335.386 111.092)">
      <circle id="Ellipse_8" data-name="Ellipse 8" cx="8.323" cy="8.323" r="8.323" transform="translate(233.318 406.835)" fill="#a1afb8"/>
      <path id="Path_9" data-name="Path 9" d="M241.641,423.735a8.576,8.576,0,1,1,8.577-8.576A8.585,8.585,0,0,1,241.641,423.735Zm0-16.646a8.07,8.07,0,1,0,8.07,8.07A8.079,8.079,0,0,0,241.641,407.089Z" fill="#a1afb8"/>
    </g>
    <g id="Group_7" data-name="Group 7" transform="translate(-335.386 111.092)">
      <circle id="Ellipse_9" data-name="Ellipse 9" cx="8.323" cy="8.323" r="8.323" transform="translate(418.481 251.817) rotate(-45)" fill="#fff"/>
      <path id="Path_10" data-name="Path 10" d="M430.252,261.915a10.1,10.1,0,1,1,10.1-10.1A10.11,10.11,0,0,1,430.252,261.915Zm0-16.646a6.548,6.548,0,1,0,6.548,6.548A6.556,6.556,0,0,0,430.252,245.269Z" fill="#00a3de"/>
    </g>
    <g id="Group_8" data-name="Group 8" transform="translate(-335.386 111.092)">
      <circle id="Ellipse_10" data-name="Ellipse 10" cx="8.323" cy="8.323" r="8.323" transform="translate(797.465 258.014) rotate(-76.766)" fill="#fff"/>
      <path id="Path_11" data-name="Path 11" d="M807.472,261.915a10.1,10.1,0,1,1,10.1-10.1A10.109,10.109,0,0,1,807.472,261.915Zm0-16.646a6.548,6.548,0,1,0,6.548,6.548A6.555,6.555,0,0,0,807.472,245.269Z" fill="#ff2e8b"/>
    </g>
    <g id="Group_9" data-name="Group 9" transform="translate(-335.386 111.092)">
      <circle id="Ellipse_11" data-name="Ellipse 11" cx="8.323" cy="8.323" r="8.323" transform="translate(1173.818 247.313) rotate(-22.5)" fill="#fff"/>
      <path id="Path_12" data-name="Path 12" d="M1184.693,261.915a10.1,10.1,0,1,1,10.1-10.1A10.11,10.11,0,0,1,1184.693,261.915Zm0-16.646a6.548,6.548,0,1,0,6.548,6.548A6.556,6.556,0,0,0,1184.693,245.269Z" fill="#a421b0"/>
    </g>
    <g id="Group_10" data-name="Group 10" transform="translate(-335.386 111.092)">
      <circle id="Ellipse_12" data-name="Ellipse 12" cx="8.323" cy="8.323" r="8.323" transform="translate(1551.038 247.313) rotate(-22.5)" fill="#fff"/>
      <path id="Path_13" data-name="Path 13" d="M1561.913,261.915a10.1,10.1,0,1,1,10.1-10.1A10.11,10.11,0,0,1,1561.913,261.915Zm0-16.646a6.548,6.548,0,1,0,6.548,6.548A6.555,6.555,0,0,0,1561.913,245.269Z" fill="#2f609a"/>
    </g>
    <g id="Group_55" data-name="Group 55" transform="translate(37.614 111.092)">
      <circle id="Ellipse_12-2" data-name="Ellipse 12" cx="8.323" cy="8.323" r="8.323" transform="translate(1551.038 247.313) rotate(-22.5)" fill="#fff"/>
      <path id="Path_13-2" data-name="Path 13" d="M1561.913,261.915a10.1,10.1,0,1,1,10.1-10.1A10.11,10.11,0,0,1,1561.913,261.915Zm0-16.646a6.548,6.548,0,1,0,6.548,6.548A6.555,6.555,0,0,0,1561.913,245.269Z" fill="#414042"/>
    </g>
    <g id="Group_12" data-name="Group 12" transform="translate(-335.386 111.092)" style="mix-blend-mode: multiply;isolation: isolate">
      <path id="Path_14" data-name="Path 14" d="M321.424,136.631,377.757,234.2a29.876,29.876,0,0,1,0,29.879l-56.333,97.571a29.878,29.878,0,0,1-25.876,14.94H182.883a29.881,29.881,0,0,1-25.877-14.94l-56.333-97.571a29.881,29.881,0,0,1,0-29.879l56.333-97.572a29.882,29.882,0,0,1,25.877-14.939H295.548A29.879,29.879,0,0,1,321.424,136.631Z" fill="#dbdbdb"/>
    </g>
    <g transform="matrix(1, 0, 0, 1, -278, 181)" filter="url(#Path_15)">
      <path id="Path_15-2" data-name="Path 15" d="M324.937,129.9,386.1,235.843a26.594,26.594,0,0,1,0,26.6L324.937,368.383a26.6,26.6,0,0,1-23.035,13.3H179.571a26.6,26.6,0,0,1-23.035-13.3L95.371,262.441a26.6,26.6,0,0,1,0-26.6L156.536,129.9a26.6,26.6,0,0,1,23.035-13.3H301.9A26.6,26.6,0,0,1,324.937,129.9Z" transform="translate(-57.39 -69.91)" fill="url(#linear-gradient)"/>
    </g>
    <g id="Group_13" data-name="Group 13" transform="translate(-335.386 111.092)" style="mix-blend-mode: multiply;isolation: isolate">
      <path id="Path_16" data-name="Path 16" d="M698.755,136.631,755.088,234.2a29.881,29.881,0,0,1,0,29.879l-56.333,97.571a29.88,29.88,0,0,1-25.876,14.94H560.213a29.878,29.878,0,0,1-25.876-14.94L478,264.082a29.876,29.876,0,0,1,0-29.879l56.333-97.572a29.879,29.879,0,0,1,25.876-14.939H672.879A29.882,29.882,0,0,1,698.755,136.631Z" fill="#dbdbdb"/>
    </g>
    <g transform="matrix(1, 0, 0, 1, -278, 181)" filter="url(#Path_17)">
      <path id="Path_17-2" data-name="Path 17" d="M702.267,129.9l61.166,105.942a26.6,26.6,0,0,1,0,26.6L702.267,368.383a26.6,26.6,0,0,1-23.034,13.3H556.9a26.6,26.6,0,0,1-23.034-13.3L472.7,262.441a26.6,26.6,0,0,1,0-26.6L533.867,129.9A26.6,26.6,0,0,1,556.9,116.6H679.233A26.6,26.6,0,0,1,702.267,129.9Z" transform="translate(-57.39 -69.91)" fill="url(#linear-gradient-2)"/>
    </g>
    <g id="Group_14" data-name="Group 14" transform="translate(-335.386 111.092)" style="mix-blend-mode: multiply;isolation: isolate">
      <path id="Path_18" data-name="Path 18" d="M1076.086,136.631l56.332,97.572a29.876,29.876,0,0,1,0,29.879l-56.332,97.571a29.881,29.881,0,0,1-25.877,14.94H937.544a29.881,29.881,0,0,1-25.877-14.94l-56.333-97.571a29.881,29.881,0,0,1,0-29.879l56.333-97.572a29.882,29.882,0,0,1,25.877-14.939h112.665A29.882,29.882,0,0,1,1076.086,136.631Z" fill="#dbdbdb"/>
    </g>
    <g transform="matrix(1, 0, 0, 1, -278, 181)" filter="url(#Path_19)">
      <path id="Path_19-2" data-name="Path 19" d="M1079.6,129.9l61.165,105.942a26.594,26.594,0,0,1,0,26.6L1079.6,368.383a26.6,26.6,0,0,1-23.035,13.3H934.232a26.6,26.6,0,0,1-23.035-13.3L850.032,262.441a26.6,26.6,0,0,1,0-26.6L911.2,129.9a26.6,26.6,0,0,1,23.035-13.3h122.331A26.6,26.6,0,0,1,1079.6,129.9Z" transform="translate(-57.39 -69.91)" fill="url(#linear-gradient-3)"/>
    </g>
    <g id="Group_15" data-name="Group 15" transform="translate(-335.386 111.092)" style="mix-blend-mode: multiply;isolation: isolate">
      <path id="Path_20" data-name="Path 20" d="M1453.416,136.631l56.333,97.572a29.881,29.881,0,0,1,0,29.879l-56.333,97.571a29.878,29.878,0,0,1-25.876,14.94H1314.874A29.878,29.878,0,0,1,1289,361.653l-56.333-97.571a29.881,29.881,0,0,1,0-29.879L1289,136.631a29.879,29.879,0,0,1,25.876-14.939H1427.54A29.879,29.879,0,0,1,1453.416,136.631Z" fill="#dbdbdb"/>
    </g>
    <g transform="matrix(1, 0, 0, 1, -278, 181)" filter="url(#Path_21)">
      <path id="Path_21-2" data-name="Path 21" d="M1456.928,129.9l61.166,105.942a26.6,26.6,0,0,1,0,26.6l-61.166,105.942a26.6,26.6,0,0,1-23.034,13.3H1311.563a26.6,26.6,0,0,1-23.035-13.3l-61.166-105.942a26.6,26.6,0,0,1,0-26.6L1288.528,129.9a26.6,26.6,0,0,1,23.035-13.3h122.331A26.6,26.6,0,0,1,1456.928,129.9Z" transform="translate(-57.39 -69.91)" fill="url(#linear-gradient-4)"/>
    </g>
    <g id="Group_16" data-name="Group 16" transform="translate(-335.386 111.092)" style="mix-blend-mode: multiply;isolation: isolate">
      <path id="Path_22" data-name="Path 22" d="M1830.747,136.631l56.332,97.572a29.876,29.876,0,0,1,0,29.879l-56.332,97.571a29.88,29.88,0,0,1-25.877,14.94H1692.2a29.881,29.881,0,0,1-25.877-14.94L1610,264.082a29.876,29.876,0,0,1,0-29.879l56.332-97.572a29.882,29.882,0,0,1,25.877-14.939H1804.87A29.882,29.882,0,0,1,1830.747,136.631Z" fill="#dbdbdb"/>
    </g>
    <g id="Group_51" data-name="Group 51" transform="translate(34.614 111.092)" style="mix-blend-mode: multiply;isolation: isolate">
      <path id="Path_22-2" data-name="Path 22" d="M1830.747,136.631l56.332,97.572a29.876,29.876,0,0,1,0,29.879l-56.332,97.571a29.88,29.88,0,0,1-25.877,14.94H1692.2a29.881,29.881,0,0,1-25.877-14.94L1610,264.082a29.876,29.876,0,0,1,0-29.879l56.332-97.572a29.882,29.882,0,0,1,25.877-14.939H1804.87A29.882,29.882,0,0,1,1830.747,136.631Z" fill="#dbdbdb"/>
    </g>
    <g transform="matrix(1, 0, 0, 1, -278, 181)" filter="url(#Path_23)">
      <path id="Path_23-2" data-name="Path 23" d="M1834.259,129.9l61.166,105.942a26.6,26.6,0,0,1,0,26.6l-61.166,105.942a26.6,26.6,0,0,1-23.035,13.3H1688.893a26.6,26.6,0,0,1-23.035-13.3l-61.165-105.942a26.6,26.6,0,0,1,0-26.6L1665.858,129.9a26.6,26.6,0,0,1,23.035-13.3h122.331A26.6,26.6,0,0,1,1834.259,129.9Z" transform="translate(-57.39 -69.91)" fill="url(#linear-gradient-5)"/>
    </g>
    <g transform="matrix(1, 0, 0, 1, -278, 181)" filter="url(#Path_99)">
      <path id="Path_99-2" data-name="Path 99" d="M1834.259,129.9l61.166,105.942a26.6,26.6,0,0,1,0,26.6l-61.166,105.942a26.6,26.6,0,0,1-23.035,13.3H1688.893a26.6,26.6,0,0,1-23.035-13.3l-61.165-105.942a26.6,26.6,0,0,1,0-26.6L1665.858,129.9a26.6,26.6,0,0,1,23.035-13.3h122.331A26.6,26.6,0,0,1,1834.259,129.9Z" transform="translate(312.61 -69.91)" fill="url(#linear-gradient-5)"/>
    </g>
    <g id="Group_22" data-name="Group 22" transform="translate(-335.386 111.092)">
      <g id="Group_18" data-name="Group 18">
        <g id="Group_17" data-name="Group 17">
          <path id="Path_24" data-name="Path 24" d="M214.717,198.543l1.39-.833q1.467,2.7,3.39,2.7a3.237,3.237,0,0,0,1.544-.383,2.713,2.713,0,0,0,1.1-1.028,2.66,2.66,0,0,0,.378-1.367,2.763,2.763,0,0,0-.556-1.611,13.3,13.3,0,0,0-2.8-2.624,14.248,14.248,0,0,1-2.545-2.234,4.083,4.083,0,0,1-.867-2.5,3.78,3.78,0,0,1,.512-1.944,3.633,3.633,0,0,1,1.439-1.384,4.148,4.148,0,0,1,2.017-.506,4.3,4.3,0,0,1,2.162.573,7.4,7.4,0,0,1,2.128,2.106l-1.334,1.011a6.422,6.422,0,0,0-1.572-1.612,2.715,2.715,0,0,0-1.417-.389,2.243,2.243,0,0,0-1.617.6,1.961,1.961,0,0,0-.628,1.478,2.525,2.525,0,0,0,.222,1.034,3.812,3.812,0,0,0,.811,1.089q.322.311,2.112,1.634a11.9,11.9,0,0,1,2.912,2.789,4.5,4.5,0,0,1,.789,2.457,4.168,4.168,0,0,1-1.35,3.089A4.538,4.538,0,0,1,219.652,202a4.818,4.818,0,0,1-2.7-.795A7.273,7.273,0,0,1,214.717,198.543Z" fill="#a1afb8"/>
          <path id="Path_25" data-name="Path 25" d="M226.121,186.84v-1.6h8.958v1.6h-3.645v14.749h-1.668V186.84Z" fill="#a1afb8"/>
          <path id="Path_26" data-name="Path 26" d="M237.446,185.24h9.37v1.6H239.08v5.124h7.669v1.6H239.08v6.424h7.669v1.6h-9.3Z" fill="#a1afb8"/>
          <path id="Path_27" data-name="Path 27" d="M249.628,185.24h3.256a18.766,18.766,0,0,1,3.779.244,4.189,4.189,0,0,1,2.29,1.417,4.575,4.575,0,0,1,.022,5.39,4.266,4.266,0,0,1-2.39,1.429,21.176,21.176,0,0,1-4.156.267h-1.167v7.6h-1.634Zm1.634,1.6v5.546l2.767.033a7.228,7.228,0,0,0,2.457-.305,2.514,2.514,0,0,0,1.222-.987,2.737,2.737,0,0,0,.445-1.525,2.7,2.7,0,0,0-.445-1.5,2.456,2.456,0,0,0-1.172-.971,7.07,7.07,0,0,0-2.385-.288Z" fill="#a1afb8"/>
        </g>
      </g>
      <g id="Group_20" data-name="Group 20">
        <g id="Group_19" data-name="Group 19">
          <path id="Path_28" data-name="Path 28" d="M214.717,198.543l1.39-.833q1.467,2.7,3.39,2.7a3.237,3.237,0,0,0,1.544-.383,2.713,2.713,0,0,0,1.1-1.028,2.66,2.66,0,0,0,.378-1.367,2.763,2.763,0,0,0-.556-1.611,13.3,13.3,0,0,0-2.8-2.624,14.248,14.248,0,0,1-2.545-2.234,4.083,4.083,0,0,1-.867-2.5,3.78,3.78,0,0,1,.512-1.944,3.633,3.633,0,0,1,1.439-1.384,4.148,4.148,0,0,1,2.017-.506,4.3,4.3,0,0,1,2.162.573,7.4,7.4,0,0,1,2.128,2.106l-1.334,1.011a6.422,6.422,0,0,0-1.572-1.612,2.715,2.715,0,0,0-1.417-.389,2.243,2.243,0,0,0-1.617.6,1.961,1.961,0,0,0-.628,1.478,2.525,2.525,0,0,0,.222,1.034,3.812,3.812,0,0,0,.811,1.089q.322.311,2.112,1.634a11.9,11.9,0,0,1,2.912,2.789,4.5,4.5,0,0,1,.789,2.457,4.168,4.168,0,0,1-1.35,3.089A4.538,4.538,0,0,1,219.652,202a4.818,4.818,0,0,1-2.7-.795A7.273,7.273,0,0,1,214.717,198.543Z" fill="#a1afb8"/>
          <path id="Path_29" data-name="Path 29" d="M226.121,186.84v-1.6h8.958v1.6h-3.645v14.749h-1.668V186.84Z" fill="#a1afb8"/>
          <path id="Path_30" data-name="Path 30" d="M237.446,185.24h9.37v1.6H239.08v5.124h7.669v1.6H239.08v6.424h7.669v1.6h-9.3Z" fill="#a1afb8"/>
          <path id="Path_31" data-name="Path 31" d="M249.628,185.24h3.256a18.766,18.766,0,0,1,3.779.244,4.189,4.189,0,0,1,2.29,1.417,4.575,4.575,0,0,1,.022,5.39,4.266,4.266,0,0,1-2.39,1.429,21.176,21.176,0,0,1-4.156.267h-1.167v7.6h-1.634Zm1.634,1.6v5.546l2.767.033a7.228,7.228,0,0,0,2.457-.305,2.514,2.514,0,0,0,1.222-.987,2.737,2.737,0,0,0,.445-1.525,2.7,2.7,0,0,0-.445-1.5,2.456,2.456,0,0,0-1.172-.971,7.07,7.07,0,0,0-2.385-.288Z" fill="#a1afb8"/>
        </g>
      </g>
      <g id="Group_21" data-name="Group 21">
        <path id="Path_32" data-name="Path 32" d="M225.8,138.066a11.357,11.357,0,0,1,6.532,1.86,11.791,11.791,0,0,1,4.237,5.685,30.216,30.216,0,0,1,1.5,10.651q0,6.9-1.518,10.734a12.055,12.055,0,0,1-4.084,5.638,11,11,0,0,1-6.473,1.8,11.387,11.387,0,0,1-6.568-1.813,11.8,11.8,0,0,1-4.166-5.508q-1.508-3.7-1.507-10.522,0-9.534,2.942-13.818A10.479,10.479,0,0,1,225.8,138.066Zm.153,6.262a4.508,4.508,0,0,0-2.96,1.071,6.947,6.947,0,0,0-1.973,3.684,32.36,32.36,0,0,0-.681,7.65q0,6.568,1.562,9.074a4.647,4.647,0,0,0,4.052,2.507,4.273,4.273,0,0,0,3.805-2.377q1.714-2.871,1.715-9.6,0-6.826-1.538-9.416A4.551,4.551,0,0,0,225.95,144.328Z" fill="#a1afb8"/>
        <path id="Path_33" data-name="Path 33" d="M247.336,138.937H257.2v34.627h-6.544V145.128h-7.133Z" fill="#a1afb8"/>
      </g>
    </g>
    <g id="Group_28" data-name="Group 28" transform="translate(-335.386 111.092)">
      <g id="Group_24" data-name="Group 24">
        <g id="Group_23" data-name="Group 23">
          <path id="Path_34" data-name="Path 34" d="M590.346,198.06l1.378-.827q1.455,2.681,3.363,2.679a3.214,3.214,0,0,0,1.532-.38,2.69,2.69,0,0,0,1.092-1.02,2.637,2.637,0,0,0,.375-1.356,2.743,2.743,0,0,0-.552-1.6,13.177,13.177,0,0,0-2.778-2.6,14.155,14.155,0,0,1-2.525-2.216,4.052,4.052,0,0,1-.86-2.481,3.766,3.766,0,0,1,.507-1.929,3.618,3.618,0,0,1,1.428-1.373,4.12,4.12,0,0,1,2-.5,4.272,4.272,0,0,1,2.145.567,7.353,7.353,0,0,1,2.111,2.09l-1.323,1a6.352,6.352,0,0,0-1.56-1.6,2.692,2.692,0,0,0-1.406-.386,2.226,2.226,0,0,0-1.6.6,1.945,1.945,0,0,0-.623,1.466,2.5,2.5,0,0,0,.22,1.026,3.809,3.809,0,0,0,.8,1.08q.321.309,2.095,1.621a11.8,11.8,0,0,1,2.889,2.767,4.461,4.461,0,0,1,.783,2.437,4.135,4.135,0,0,1-1.34,3.065,4.5,4.5,0,0,1-3.258,1.3,4.782,4.782,0,0,1-2.679-.788A7.207,7.207,0,0,1,590.346,198.06Z" fill="#00a3de"/>
          <path id="Path_35" data-name="Path 35" d="M601.658,186.45v-1.587h8.887v1.587h-3.617v14.631h-1.654V186.45Z" fill="#00a3de"/>
          <path id="Path_36" data-name="Path 36" d="M612.893,184.863h9.295v1.587h-7.674v5.083h7.607v1.588h-7.607v6.373h7.607v1.587h-9.228Z" fill="#00a3de"/>
          <path id="Path_37" data-name="Path 37" d="M624.977,184.863h3.231a18.585,18.585,0,0,1,3.748.242,4.155,4.155,0,0,1,2.272,1.406,4.048,4.048,0,0,1,.882,2.674,4.09,4.09,0,0,1-.86,2.673,4.238,4.238,0,0,1-2.371,1.417,20.978,20.978,0,0,1-4.123.265H626.6v7.541h-1.621Zm1.621,1.587v5.5l2.745.033a7.207,7.207,0,0,0,2.437-.3,2.5,2.5,0,0,0,1.213-.98,2.71,2.71,0,0,0,.441-1.513,2.676,2.676,0,0,0-.441-1.491,2.438,2.438,0,0,0-1.163-.963,7,7,0,0,0-2.365-.286Z" fill="#00a3de"/>
        </g>
      </g>
      <g id="Group_26" data-name="Group 26">
        <g id="Group_25" data-name="Group 25">
          <path id="Path_38" data-name="Path 38" d="M590.346,198.06l1.378-.827q1.455,2.681,3.363,2.679a3.214,3.214,0,0,0,1.532-.38,2.69,2.69,0,0,0,1.092-1.02,2.637,2.637,0,0,0,.375-1.356,2.743,2.743,0,0,0-.552-1.6,13.177,13.177,0,0,0-2.778-2.6,14.155,14.155,0,0,1-2.525-2.216,4.052,4.052,0,0,1-.86-2.481,3.766,3.766,0,0,1,.507-1.929,3.618,3.618,0,0,1,1.428-1.373,4.12,4.12,0,0,1,2-.5,4.272,4.272,0,0,1,2.145.567,7.353,7.353,0,0,1,2.111,2.09l-1.323,1a6.352,6.352,0,0,0-1.56-1.6,2.692,2.692,0,0,0-1.406-.386,2.226,2.226,0,0,0-1.6.6,1.945,1.945,0,0,0-.623,1.466,2.5,2.5,0,0,0,.22,1.026,3.809,3.809,0,0,0,.8,1.08q.321.309,2.095,1.621a11.8,11.8,0,0,1,2.889,2.767,4.461,4.461,0,0,1,.783,2.437,4.135,4.135,0,0,1-1.34,3.065,4.5,4.5,0,0,1-3.258,1.3,4.782,4.782,0,0,1-2.679-.788A7.207,7.207,0,0,1,590.346,198.06Z" fill="#00a3de"/>
          <path id="Path_39" data-name="Path 39" d="M601.658,186.45v-1.587h8.887v1.587h-3.617v14.631h-1.654V186.45Z" fill="#00a3de"/>
          <path id="Path_40" data-name="Path 40" d="M612.893,184.863h9.295v1.587h-7.674v5.083h7.607v1.588h-7.607v6.373h7.607v1.587h-9.228Z" fill="#00a3de"/>
          <path id="Path_41" data-name="Path 41" d="M624.977,184.863h3.231a18.585,18.585,0,0,1,3.748.242,4.155,4.155,0,0,1,2.272,1.406,4.048,4.048,0,0,1,.882,2.674,4.09,4.09,0,0,1-.86,2.673,4.238,4.238,0,0,1-2.371,1.417,20.978,20.978,0,0,1-4.123.265H626.6v7.541h-1.621Zm1.621,1.587v5.5l2.745.033a7.207,7.207,0,0,0,2.437-.3,2.5,2.5,0,0,0,1.213-.98,2.71,2.71,0,0,0,.441-1.513,2.676,2.676,0,0,0-.441-1.491,2.438,2.438,0,0,0-1.163-.963,7,7,0,0,0-2.365-.286Z" fill="#00a3de"/>
        </g>
      </g>
      <g id="Group_27" data-name="Group 27">
        <path id="Path_42" data-name="Path 42" d="M600.68,138.066a11.271,11.271,0,0,1,6.48,1.845,11.7,11.7,0,0,1,4.2,5.64,30,30,0,0,1,1.482,10.566q0,6.843-1.506,10.648a11.955,11.955,0,0,1-4.051,5.593,10.916,10.916,0,0,1-6.422,1.786,11.3,11.3,0,0,1-6.515-1.8,11.725,11.725,0,0,1-4.133-5.464q-1.494-3.666-1.494-10.438,0-9.457,2.918-13.707A10.394,10.394,0,0,1,600.68,138.066Zm.152,6.212a4.47,4.47,0,0,0-2.936,1.062,6.887,6.887,0,0,0-1.957,3.655,32.062,32.062,0,0,0-.676,7.589q0,6.516,1.549,9a4.611,4.611,0,0,0,4.02,2.487,4.24,4.24,0,0,0,3.775-2.359q1.7-2.849,1.7-9.527,0-6.771-1.526-9.34A4.513,4.513,0,0,0,600.832,144.278Z" fill="#00a3de"/>
        <path id="Path_43" data-name="Path 43" d="M622.514,150h-6.375a12.583,12.583,0,0,1,3.491-8.745,12.329,12.329,0,0,1,13.824-1.868,9.889,9.889,0,0,1,3.83,3.806,10.008,10.008,0,0,1,1.436,5.055,14.979,14.979,0,0,1-1.741,6.586,35.885,35.885,0,0,1-6.366,8.336l-3.855,4.063H639v6.048H615.205v-3.129l10.625-10.835a30.975,30.975,0,0,0,5.125-6.27,9.22,9.22,0,0,0,1.273-4.285,4.411,4.411,0,0,0-1.319-3.281,4.649,4.649,0,0,0-3.4-1.3,4.508,4.508,0,0,0-3.5,1.565A6.492,6.492,0,0,0,622.514,150Z" fill="#00a3de"/>
      </g>
    </g>
    <g id="Group_34" data-name="Group 34" transform="translate(-335.386 111.092)">
      <g id="Group_30" data-name="Group 30">
        <g id="Group_29" data-name="Group 29">
          <path id="Path_44" data-name="Path 44" d="M974.755,191.059l1.218-.73q1.285,2.367,2.97,2.366a2.844,2.844,0,0,0,1.354-.336,2.376,2.376,0,0,0,.964-.9,2.324,2.324,0,0,0,.331-1.2,2.422,2.422,0,0,0-.487-1.412,11.652,11.652,0,0,0-2.454-2.3,12.478,12.478,0,0,1-2.23-1.958,3.574,3.574,0,0,1-.76-2.191,3.322,3.322,0,0,1,.448-1.7,3.2,3.2,0,0,1,1.261-1.213,3.641,3.641,0,0,1,1.768-.443,3.76,3.76,0,0,1,1.894.5,6.485,6.485,0,0,1,1.865,1.845l-1.168.886a5.62,5.62,0,0,0-1.379-1.412,2.372,2.372,0,0,0-1.241-.341,1.964,1.964,0,0,0-1.417.527,1.719,1.719,0,0,0-.55,1.295,2.211,2.211,0,0,0,.194.906,3.347,3.347,0,0,0,.711.954q.284.273,1.851,1.432a10.408,10.408,0,0,1,2.551,2.444,3.938,3.938,0,0,1,.692,2.152,3.654,3.654,0,0,1-1.184,2.708,3.976,3.976,0,0,1-2.878,1.149,4.23,4.23,0,0,1-2.366-.7A6.374,6.374,0,0,1,974.755,191.059Z" fill="#ff2e8b"/>
          <path id="Path_45" data-name="Path 45" d="M984.748,180.8v-1.4H992.6v1.4H989.4v12.924h-1.461V180.8Z" fill="#ff2e8b"/>
          <path id="Path_46" data-name="Path 46" d="M994.672,179.4h8.21v1.4H996.1v4.49h6.72v1.4H996.1v5.629h6.72v1.4h-8.151Z" fill="#ff2e8b"/>
          <path id="Path_47" data-name="Path 47" d="M1005.346,179.4h2.853a16.419,16.419,0,0,1,3.311.214,3.675,3.675,0,0,1,2.007,1.242,4.008,4.008,0,0,1,.019,4.723,3.733,3.733,0,0,1-2.094,1.251,18.482,18.482,0,0,1-3.642.234h-1.023v6.662h-1.431Zm1.431,1.4v4.86l2.425.029a6.357,6.357,0,0,0,2.153-.267,2.216,2.216,0,0,0,1.071-.865,2.4,2.4,0,0,0,.389-1.337,2.37,2.37,0,0,0-.389-1.317,2.161,2.161,0,0,0-1.028-.851,6.2,6.2,0,0,0-2.089-.252Z" fill="#ff2e8b"/>
        </g>
      </g>
      <g id="Group_32" data-name="Group 32">
        <g id="Group_31" data-name="Group 31">
          <path id="Path_48" data-name="Path 48" d="M974.755,191.059l1.218-.73q1.285,2.367,2.97,2.366a2.844,2.844,0,0,0,1.354-.336,2.376,2.376,0,0,0,.964-.9,2.324,2.324,0,0,0,.331-1.2,2.422,2.422,0,0,0-.487-1.412,11.652,11.652,0,0,0-2.454-2.3,12.478,12.478,0,0,1-2.23-1.958,3.574,3.574,0,0,1-.76-2.191,3.322,3.322,0,0,1,.448-1.7,3.2,3.2,0,0,1,1.261-1.213,3.641,3.641,0,0,1,1.768-.443,3.76,3.76,0,0,1,1.894.5,6.485,6.485,0,0,1,1.865,1.845l-1.168.886a5.62,5.62,0,0,0-1.379-1.412,2.372,2.372,0,0,0-1.241-.341,1.964,1.964,0,0,0-1.417.527,1.719,1.719,0,0,0-.55,1.295,2.211,2.211,0,0,0,.194.906,3.347,3.347,0,0,0,.711.954q.284.273,1.851,1.432a10.408,10.408,0,0,1,2.551,2.444,3.938,3.938,0,0,1,.692,2.152,3.654,3.654,0,0,1-1.184,2.708,3.976,3.976,0,0,1-2.878,1.149,4.23,4.23,0,0,1-2.366-.7A6.374,6.374,0,0,1,974.755,191.059Z" fill="#ff2e8b"/>
          <path id="Path_49" data-name="Path 49" d="M984.748,180.8v-1.4H992.6v1.4H989.4v12.924h-1.461V180.8Z" fill="#ff2e8b"/>
          <path id="Path_50" data-name="Path 50" d="M994.672,179.4h8.21v1.4H996.1v4.49h6.72v1.4H996.1v5.629h6.72v1.4h-8.151Z" fill="#ff2e8b"/>
          <path id="Path_51" data-name="Path 51" d="M1005.346,179.4h2.853a16.419,16.419,0,0,1,3.311.214,3.675,3.675,0,0,1,2.007,1.242,4.008,4.008,0,0,1,.019,4.723,3.733,3.733,0,0,1-2.094,1.251,18.482,18.482,0,0,1-3.642.234h-1.023v6.662h-1.431Zm1.431,1.4v4.86l2.425.029a6.357,6.357,0,0,0,2.153-.267,2.216,2.216,0,0,0,1.071-.865,2.4,2.4,0,0,0,.389-1.337,2.37,2.37,0,0,0-.389-1.317,2.161,2.161,0,0,0-1.028-.851,6.2,6.2,0,0,0-2.089-.252Z" fill="#ff2e8b"/>
        </g>
      </g>
      <g id="Group_33" data-name="Group 33">
        <path id="Path_52" data-name="Path 52" d="M983.884,138.066a9.956,9.956,0,0,1,5.724,1.63,10.336,10.336,0,0,1,3.713,4.981,26.5,26.5,0,0,1,1.309,9.334,26.415,26.415,0,0,1-1.33,9.4,10.56,10.56,0,0,1-3.579,4.94,9.639,9.639,0,0,1-5.672,1.578,9.982,9.982,0,0,1-5.755-1.588,10.344,10.344,0,0,1-3.65-4.827,25.327,25.327,0,0,1-1.32-9.22q0-8.354,2.578-12.107A9.182,9.182,0,0,1,983.884,138.066Zm.134,5.487a3.95,3.95,0,0,0-2.594.939,6.09,6.09,0,0,0-1.728,3.228,28.339,28.339,0,0,0-.6,6.7q0,5.755,1.369,7.951a4.071,4.071,0,0,0,3.55,2.2,3.746,3.746,0,0,0,3.335-2.083q1.5-2.516,1.5-8.415,0-5.982-1.348-8.251A3.989,3.989,0,0,0,984.018,143.553Z" fill="#ff2e8b"/>
        <path id="Path_53" data-name="Path 53" d="M1003.83,146.317h-5.549a9.04,9.04,0,0,1,9.365-8.251,8.8,8.8,0,0,1,6.26,2.372,7.473,7.473,0,0,1,2.527,5.631,6.566,6.566,0,0,1-1.1,3.693,7.9,7.9,0,0,1-3.207,2.7,8.178,8.178,0,0,1,4.321,2.877,7.774,7.774,0,0,1,1.557,4.837,9.145,9.145,0,0,1-3.011,6.92,10.745,10.745,0,0,1-7.673,2.836,9.967,9.967,0,0,1-7.2-2.671,10.5,10.5,0,0,1-3.053-7.271h5.714a5.748,5.748,0,0,0,1.64,3.5,5.019,5.019,0,0,0,6.559-.155,4.362,4.362,0,0,0-.464-6.662,8.342,8.342,0,0,0-5.177-1.465v-4.95a9.333,9.333,0,0,0,3.1-.65,3.847,3.847,0,0,0,1.588-1.331,3.163,3.163,0,0,0,.567-1.794,2.7,2.7,0,0,0-.866-2.052,3.179,3.179,0,0,0-2.269-.815,3.672,3.672,0,0,0-2.248.753A3.764,3.764,0,0,0,1003.83,146.317Z" fill="#ff2e8b"/>
      </g>
    </g>
    <g id="Group_40" data-name="Group 40" transform="translate(-335.386 111.092)">
      <g id="Group_36" data-name="Group 36">
        <g id="Group_35" data-name="Group 35">
          <path id="Path_54" data-name="Path 54" d="M1352.621,186.024l1.1-.66q1.163,2.142,2.688,2.141a2.573,2.573,0,0,0,1.225-.3,2.148,2.148,0,0,0,.873-.815,2.117,2.117,0,0,0,.3-1.084,2.2,2.2,0,0,0-.441-1.278,10.525,10.525,0,0,0-2.221-2.08,11.309,11.309,0,0,1-2.018-1.772,3.24,3.24,0,0,1-.687-1.983,3.011,3.011,0,0,1,.4-1.542,2.9,2.9,0,0,1,1.141-1.1,3.3,3.3,0,0,1,1.6-.4,3.413,3.413,0,0,1,1.714.454,5.879,5.879,0,0,1,1.688,1.671l-1.057.8a5.061,5.061,0,0,0-1.248-1.277,2.143,2.143,0,0,0-1.123-.309,1.783,1.783,0,0,0-1.283.476,1.557,1.557,0,0,0-.5,1.172,2.005,2.005,0,0,0,.176.82,3.038,3.038,0,0,0,.644.864q.255.246,1.674,1.295a9.432,9.432,0,0,1,2.31,2.213,3.562,3.562,0,0,1,.625,1.947,3.309,3.309,0,0,1-1.07,2.451,3.6,3.6,0,0,1-2.6,1.04,3.833,3.833,0,0,1-2.142-.63A5.761,5.761,0,0,1,1352.621,186.024Z" fill="#a421b0"/>
          <path id="Path_55" data-name="Path 55" d="M1361.664,176.744v-1.269h7.1v1.269h-2.891v11.7h-1.322v-11.7Z" fill="#a421b0"/>
          <path id="Path_56" data-name="Path 56" d="M1370.645,175.475h7.43v1.269h-6.134v4.063h6.081v1.269h-6.081v5.094h6.081v1.27h-7.377Z" fill="#a421b0"/>
          <path id="Path_57" data-name="Path 57" d="M1380.305,175.475h2.582a14.812,14.812,0,0,1,3,.194,3.328,3.328,0,0,1,1.816,1.123,3.628,3.628,0,0,1,.017,4.275,3.384,3.384,0,0,1-1.9,1.133,16.838,16.838,0,0,1-3.3.211h-.926v6.029h-1.295Zm1.295,1.269v4.4l2.2.026a5.753,5.753,0,0,0,1.948-.241,2,2,0,0,0,.969-.783,2.17,2.17,0,0,0,.353-1.21,2.14,2.14,0,0,0-.353-1.192,1.955,1.955,0,0,0-.929-.77,5.613,5.613,0,0,0-1.891-.228Z" fill="#a421b0"/>
        </g>
      </g>
      <g id="Group_38" data-name="Group 38">
        <g id="Group_37" data-name="Group 37">
          <path id="Path_58" data-name="Path 58" d="M1352.621,186.024l1.1-.66q1.163,2.142,2.688,2.141a2.573,2.573,0,0,0,1.225-.3,2.148,2.148,0,0,0,.873-.815,2.117,2.117,0,0,0,.3-1.084,2.2,2.2,0,0,0-.441-1.278,10.525,10.525,0,0,0-2.221-2.08,11.309,11.309,0,0,1-2.018-1.772,3.24,3.24,0,0,1-.687-1.983,3.011,3.011,0,0,1,.4-1.542,2.9,2.9,0,0,1,1.141-1.1,3.3,3.3,0,0,1,1.6-.4,3.413,3.413,0,0,1,1.714.454,5.879,5.879,0,0,1,1.688,1.671l-1.057.8a5.061,5.061,0,0,0-1.248-1.277,2.143,2.143,0,0,0-1.123-.309,1.783,1.783,0,0,0-1.283.476,1.557,1.557,0,0,0-.5,1.172,2.005,2.005,0,0,0,.176.82,3.038,3.038,0,0,0,.644.864q.255.246,1.674,1.295a9.432,9.432,0,0,1,2.31,2.213,3.562,3.562,0,0,1,.625,1.947,3.309,3.309,0,0,1-1.07,2.451,3.6,3.6,0,0,1-2.6,1.04,3.833,3.833,0,0,1-2.142-.63A5.761,5.761,0,0,1,1352.621,186.024Z" fill="#a421b0"/>
          <path id="Path_59" data-name="Path 59" d="M1361.664,176.744v-1.269h7.1v1.269h-2.891v11.7h-1.322v-11.7Z" fill="#a421b0"/>
          <path id="Path_60" data-name="Path 60" d="M1370.645,175.475h7.43v1.269h-6.134v4.063h6.081v1.269h-6.081v5.094h6.081v1.27h-7.377Z" fill="#a421b0"/>
          <path id="Path_61" data-name="Path 61" d="M1380.305,175.475h2.582a14.812,14.812,0,0,1,3,.194,3.328,3.328,0,0,1,1.816,1.123,3.628,3.628,0,0,1,.017,4.275,3.384,3.384,0,0,1-1.9,1.133,16.838,16.838,0,0,1-3.3.211h-.926v6.029h-1.295Zm1.295,1.269v4.4l2.2.026a5.753,5.753,0,0,0,1.948-.241,2,2,0,0,0,.969-.783,2.17,2.17,0,0,0,.353-1.21,2.14,2.14,0,0,0-.353-1.192,1.955,1.955,0,0,0-.929-.77,5.613,5.613,0,0,0-1.891-.228Z" fill="#a421b0"/>
        </g>
      </g>
      <g id="Group_39" data-name="Group 39">
        <path id="Path_62" data-name="Path 62" d="M1360.882,138.066a9.011,9.011,0,0,1,5.181,1.475,9.353,9.353,0,0,1,3.359,4.508,23.956,23.956,0,0,1,1.186,8.447,23.907,23.907,0,0,1-1.2,8.512,9.561,9.561,0,0,1-3.239,4.47,8.717,8.717,0,0,1-5.133,1.428,9.035,9.035,0,0,1-5.208-1.437,9.363,9.363,0,0,1-3.3-4.368,22.907,22.907,0,0,1-1.2-8.344q0-7.56,2.334-10.957A8.307,8.307,0,0,1,1360.882,138.066Zm.122,4.966a3.578,3.578,0,0,0-2.348.849,5.51,5.51,0,0,0-1.564,2.921,25.671,25.671,0,0,0-.54,6.067q0,5.208,1.238,7.2a3.685,3.685,0,0,0,3.214,1.988,3.389,3.389,0,0,0,3.017-1.885q1.36-2.277,1.36-7.616,0-5.414-1.22-7.467A3.607,3.607,0,0,0,1361,143.032Z" fill="#a421b0"/>
        <path id="Path_63" data-name="Path 63" d="M1384.345,138.066h5.21v17.678H1392v4.835h-2.445v5.637h-5.115v-5.637h-11.984v-4.835Zm.095,17.678v-9.2l-6.272,9.2Z" fill="#a421b0"/>
      </g>
    </g>
    <g id="Group_46" data-name="Group 46" transform="translate(-335.386 111.092)">
      <g id="Group_42" data-name="Group 42">
        <g id="Group_41" data-name="Group 41">
          <path id="Path_64" data-name="Path 64" d="M1730.273,188.576l1.16-.7q1.226,2.256,2.831,2.256a2.722,2.722,0,0,0,1.291-.32,2.275,2.275,0,0,0,.919-.859,2.225,2.225,0,0,0,.315-1.142,2.306,2.306,0,0,0-.464-1.345,11.115,11.115,0,0,0-2.339-2.192,11.919,11.919,0,0,1-2.126-1.865,3.411,3.411,0,0,1-.724-2.089,3.165,3.165,0,0,1,.427-1.624,3.049,3.049,0,0,1,1.2-1.156,3.471,3.471,0,0,1,1.685-.422,3.591,3.591,0,0,1,1.806.478,6.194,6.194,0,0,1,1.777,1.759l-1.114.844a5.351,5.351,0,0,0-1.313-1.346,2.27,2.27,0,0,0-1.184-.325,1.873,1.873,0,0,0-1.35.5,1.639,1.639,0,0,0-.525,1.235,2.1,2.1,0,0,0,.186.863,3.17,3.17,0,0,0,.677.909q.27.261,1.764,1.365a9.9,9.9,0,0,1,2.432,2.33,3.748,3.748,0,0,1,.659,2.051,3.48,3.48,0,0,1-1.128,2.581,3.791,3.791,0,0,1-2.743,1.1,4.024,4.024,0,0,1-2.255-.663A6.071,6.071,0,0,1,1730.273,188.576Z" fill="#2f609a"/>
          <path id="Path_65" data-name="Path 65" d="M1739.8,178.8v-1.337h7.482V178.8h-3.045V191.12h-1.392V178.8Z" fill="#2f609a"/>
          <path id="Path_66" data-name="Path 66" d="M1749.256,177.465h7.825V178.8h-6.46v4.279h6.405v1.337h-6.405v5.365h6.405v1.337h-7.77Z" fill="#2f609a"/>
          <path id="Path_67" data-name="Path 67" d="M1759.43,177.465h2.72a15.681,15.681,0,0,1,3.156.2,3.5,3.5,0,0,1,1.912,1.184,3.408,3.408,0,0,1,.743,2.251,3.446,3.446,0,0,1-.724,2.251,3.563,3.563,0,0,1-2,1.193,17.681,17.681,0,0,1-3.472.223h-.975v6.349h-1.364Zm1.364,1.337v4.632l2.312.028a6.038,6.038,0,0,0,2.051-.255,2.1,2.1,0,0,0,1.021-.824,2.282,2.282,0,0,0,.372-1.275,2.25,2.25,0,0,0-.372-1.255,2.055,2.055,0,0,0-.979-.811,5.91,5.91,0,0,0-1.991-.24Z" fill="#2f609a"/>
        </g>
      </g>
      <g id="Group_44" data-name="Group 44">
        <g id="Group_43" data-name="Group 43">
          <path id="Path_68" data-name="Path 68" d="M1730.273,188.576l1.16-.7q1.226,2.256,2.831,2.256a2.722,2.722,0,0,0,1.291-.32,2.275,2.275,0,0,0,.919-.859,2.225,2.225,0,0,0,.315-1.142,2.306,2.306,0,0,0-.464-1.345,11.115,11.115,0,0,0-2.339-2.192,11.919,11.919,0,0,1-2.126-1.865,3.411,3.411,0,0,1-.724-2.089,3.165,3.165,0,0,1,.427-1.624,3.049,3.049,0,0,1,1.2-1.156,3.471,3.471,0,0,1,1.685-.422,3.591,3.591,0,0,1,1.806.478,6.194,6.194,0,0,1,1.777,1.759l-1.114.844a5.351,5.351,0,0,0-1.313-1.346,2.27,2.27,0,0,0-1.184-.325,1.873,1.873,0,0,0-1.35.5,1.639,1.639,0,0,0-.525,1.235,2.1,2.1,0,0,0,.186.863,3.17,3.17,0,0,0,.677.909q.27.261,1.764,1.365a9.9,9.9,0,0,1,2.432,2.33,3.748,3.748,0,0,1,.659,2.051,3.48,3.48,0,0,1-1.128,2.581,3.791,3.791,0,0,1-2.743,1.1,4.024,4.024,0,0,1-2.255-.663A6.071,6.071,0,0,1,1730.273,188.576Z" fill="#2f609a"/>
          <path id="Path_69" data-name="Path 69" d="M1739.8,178.8v-1.337h7.482V178.8h-3.045V191.12h-1.392V178.8Z" fill="#2f609a"/>
          <path id="Path_70" data-name="Path 70" d="M1749.256,177.465h7.825V178.8h-6.46v4.279h6.405v1.337h-6.405v5.365h6.405v1.337h-7.77Z" fill="#2f609a"/>
          <path id="Path_71" data-name="Path 71" d="M1759.43,177.465h2.72a15.681,15.681,0,0,1,3.156.2,3.5,3.5,0,0,1,1.912,1.184,3.408,3.408,0,0,1,.743,2.251,3.446,3.446,0,0,1-.724,2.251,3.563,3.563,0,0,1-2,1.193,17.681,17.681,0,0,1-3.472.223h-.975v6.349h-1.364Zm1.364,1.337v4.632l2.312.028a6.038,6.038,0,0,0,2.051-.255,2.1,2.1,0,0,0,1.021-.824,2.282,2.282,0,0,0,.372-1.275,2.25,2.25,0,0,0-.372-1.255,2.055,2.055,0,0,0-.979-.811,5.91,5.91,0,0,0-1.991-.24Z" fill="#2f609a"/>
        </g>
      </g>
      <text id="_05" data-name="05" transform="translate(1730.386 165.908)" fill="#2f609a" font-size="36" font-family="HelveticaNeue-Bold, Helvetica Neue" font-weight="700"><tspan x="0" y="0">05</tspan></text>
    </g>
    <g id="Group_52" data-name="Group 52" transform="translate(34.614 111.092)">
      <g id="Group_42-2" data-name="Group 42">
        <g id="Group_41-2" data-name="Group 41">
          <path id="Path_64-2" data-name="Path 64" d="M1730.273,188.576l1.16-.7q1.226,2.256,2.831,2.256a2.722,2.722,0,0,0,1.291-.32,2.275,2.275,0,0,0,.919-.859,2.225,2.225,0,0,0,.315-1.142,2.306,2.306,0,0,0-.464-1.345,11.115,11.115,0,0,0-2.339-2.192,11.919,11.919,0,0,1-2.126-1.865,3.411,3.411,0,0,1-.724-2.089,3.165,3.165,0,0,1,.427-1.624,3.049,3.049,0,0,1,1.2-1.156,3.471,3.471,0,0,1,1.685-.422,3.591,3.591,0,0,1,1.806.478,6.194,6.194,0,0,1,1.777,1.759l-1.114.844a5.351,5.351,0,0,0-1.313-1.346,2.27,2.27,0,0,0-1.184-.325,1.873,1.873,0,0,0-1.35.5,1.639,1.639,0,0,0-.525,1.235,2.1,2.1,0,0,0,.186.863,3.17,3.17,0,0,0,.677.909q.27.261,1.764,1.365a9.9,9.9,0,0,1,2.432,2.33,3.748,3.748,0,0,1,.659,2.051,3.48,3.48,0,0,1-1.128,2.581,3.791,3.791,0,0,1-2.743,1.1,4.024,4.024,0,0,1-2.255-.663A6.071,6.071,0,0,1,1730.273,188.576Z" fill="#414042"/>
          <path id="Path_65-2" data-name="Path 65" d="M1739.8,178.8v-1.337h7.482V178.8h-3.045V191.12h-1.392V178.8Z" fill="#414042"/>
          <path id="Path_66-2" data-name="Path 66" d="M1749.256,177.465h7.825V178.8h-6.46v4.279h6.405v1.337h-6.405v5.365h6.405v1.337h-7.77Z" fill="#414042"/>
          <path id="Path_67-2" data-name="Path 67" d="M1759.43,177.465h2.72a15.681,15.681,0,0,1,3.156.2,3.5,3.5,0,0,1,1.912,1.184,3.408,3.408,0,0,1,.743,2.251,3.446,3.446,0,0,1-.724,2.251,3.563,3.563,0,0,1-2,1.193,17.681,17.681,0,0,1-3.472.223h-.975v6.349h-1.364Zm1.364,1.337v4.632l2.312.028a6.038,6.038,0,0,0,2.051-.255,2.1,2.1,0,0,0,1.021-.824,2.282,2.282,0,0,0,.372-1.275,2.25,2.25,0,0,0-.372-1.255,2.055,2.055,0,0,0-.979-.811,5.91,5.91,0,0,0-1.991-.24Z" fill="#414042"/>
        </g>
      </g>
      <g id="Group_44-2" data-name="Group 44">
        <g id="Group_43-2" data-name="Group 43">
          <path id="Path_68-2" data-name="Path 68" d="M1730.273,188.576l1.16-.7q1.226,2.256,2.831,2.256a2.722,2.722,0,0,0,1.291-.32,2.275,2.275,0,0,0,.919-.859,2.225,2.225,0,0,0,.315-1.142,2.306,2.306,0,0,0-.464-1.345,11.115,11.115,0,0,0-2.339-2.192,11.919,11.919,0,0,1-2.126-1.865,3.411,3.411,0,0,1-.724-2.089,3.165,3.165,0,0,1,.427-1.624,3.049,3.049,0,0,1,1.2-1.156,3.471,3.471,0,0,1,1.685-.422,3.591,3.591,0,0,1,1.806.478,6.194,6.194,0,0,1,1.777,1.759l-1.114.844a5.351,5.351,0,0,0-1.313-1.346,2.27,2.27,0,0,0-1.184-.325,1.873,1.873,0,0,0-1.35.5,1.639,1.639,0,0,0-.525,1.235,2.1,2.1,0,0,0,.186.863,3.17,3.17,0,0,0,.677.909q.27.261,1.764,1.365a9.9,9.9,0,0,1,2.432,2.33,3.748,3.748,0,0,1,.659,2.051,3.48,3.48,0,0,1-1.128,2.581,3.791,3.791,0,0,1-2.743,1.1,4.024,4.024,0,0,1-2.255-.663A6.071,6.071,0,0,1,1730.273,188.576Z" fill="#414042"/>
          <path id="Path_69-2" data-name="Path 69" d="M1739.8,178.8v-1.337h7.482V178.8h-3.045V191.12h-1.392V178.8Z" fill="#414042"/>
          <path id="Path_70-2" data-name="Path 70" d="M1749.256,177.465h7.825V178.8h-6.46v4.279h6.405v1.337h-6.405v5.365h6.405v1.337h-7.77Z" fill="#414042"/>
          <path id="Path_71-2" data-name="Path 71" d="M1759.43,177.465h2.72a15.681,15.681,0,0,1,3.156.2,3.5,3.5,0,0,1,1.912,1.184,3.408,3.408,0,0,1,.743,2.251,3.446,3.446,0,0,1-.724,2.251,3.563,3.563,0,0,1-2,1.193,17.681,17.681,0,0,1-3.472.223h-.975v6.349h-1.364Zm1.364,1.337v4.632l2.312.028a6.038,6.038,0,0,0,2.051-.255,2.1,2.1,0,0,0,1.021-.824,2.282,2.282,0,0,0,.372-1.275,2.25,2.25,0,0,0-.372-1.255,2.055,2.055,0,0,0-.979-.811,5.91,5.91,0,0,0-1.991-.24Z" fill="#414042"/>
        </g>
      </g>
    </g>
    <text id="ONBOARD" transform="translate(-197.366 637.164)" font-size="45" font-family="Graphik-Medium, Graphik" font-weight="500"><tspan x="0" y="0">ONBOARD</tspan></text>
    <text id="DEPLOY" transform="translate(204.634 634.164)" font-size="45" font-family="Graphik-Medium, Graphik" font-weight="500"><tspan x="0" y="0">DEPLOY</tspan></text>
    <text id="SECURITY" transform="translate(561.634 634.164)" font-size="45" font-family="Graphik-Medium, Graphik" font-weight="500"><tspan x="0" y="0">SECURITY</tspan></text>
    <text id="TEST" transform="translate(991.634 634.164)" font-size="45" font-family="Graphik-Medium, Graphik" font-weight="500"><tspan x="0" y="0">TEST</tspan></text>
    <text id="MONITOR" transform="translate(1319.634 634.164)" font-size="45" font-family="Graphik-Medium, Graphik" font-weight="500"><tspan x="0" y="0">MONITOR</tspan></text>
    <text id="CERTIFY" transform="translate(1708.483 634.164)" font-size="45" font-family="Graphik-Medium, Graphik" font-weight="500"><tspan x="0" y="0">CERTIFY</tspan></text>
    <g id="Group_47" data-name="Group 47" transform="translate(-335.386 111.092)">
      <path id="Path_74" data-name="Path 74" d="M274.9,259.861c-.276-.577-7.192-14.115-46.107-14.115h-.076c-38.995.018-42.547,13.9-42.679,14.487a1.7,1.7,0,0,0-.04.362v58.07a1.656,1.656,0,0,0,.69,1.346c14.924,10.74,39.261,10.864,40.29,10.864a1.658,1.658,0,1,0,0-3.316c-.237,0-23.517-.114-37.664-9.757V303.3a73.438,73.438,0,0,0,17.207,5.875,143.924,143.924,0,0,0,23.9,2.4,1.658,1.658,0,0,0,0-3.317,140.306,140.306,0,0,1-23.264-2.339,69.59,69.59,0,0,1-17.839-6.339v-13.96c4.875,2.153,18.842,7.334,40.373,7.334,21.381,0,36.418-5.644,42.059-8.159v13.96a31.444,31.444,0,0,1-10.006,4.215,1.658,1.658,0,1,0,.677,3.247,33.843,33.843,0,0,0,9.329-3.588v15.759a3.787,3.787,0,0,1-1.533,1.168,1.658,1.658,0,0,0,1.5,2.96c2.921-1.476,3.3-3.2,3.346-3.694,0-.051.007-.1.007-.155V260.577A1.673,1.673,0,0,0,274.9,259.861Zm-46.182-10.8h.075c31.4,0,40.665,9.014,42.655,11.564a27.27,27.27,0,0,1-7.47,4.076c-5.649,2.205-16,4.907-33.24,5.254a89.725,89.725,0,0,1-31.143-4.677,58.232,58.232,0,0,1-10.21-4.6C190.218,258.824,196.136,249.077,228.72,249.062Zm.969,40.574c-23.565,0-38.024-6.534-40.373-7.678v-17.5c5.379,2.885,18.944,8.836,39.36,8.836.7,0,1.414-.007,2.13-.022,24.573-.494,36.138-5.633,40.942-8.764v16.625C268,282.916,252.376,289.636,229.689,289.636Z" fill="#a1afb8"/>
      <path id="Path_75" data-name="Path 75" d="M237.234,329.609a1.658,1.658,0,1,0-3.294-.382l-.2,1.722c-4.694-9.355-.042-17.817,3.295-20.566a18.722,18.722,0,0,1,21.125-1.984,1.658,1.658,0,0,0,1.619-2.894,22.028,22.028,0,0,0-24.853,2.318,19.5,19.5,0,0,0-6.231,11.538,21.1,21.1,0,0,0,2.321,13.543l-1.893-.6a1.658,1.658,0,1,0-1,3.161l6.011,1.908a1.658,1.658,0,0,0,.5.078,1.639,1.639,0,0,0,.336-.038,1.609,1.609,0,0,0,.328-.046,1.657,1.657,0,0,0,1.2-1.4Z" fill="#a1afb8"/>
      <path id="Path_76" data-name="Path 76" d="M267.958,312.947a1.659,1.659,0,0,0,.5-3.239l-6.011-1.908a1.631,1.631,0,0,0-.763-.051,1.634,1.634,0,0,0-1.6,1.462l-.737,6.351a1.658,1.658,0,1,0,3.294.383l.2-1.747a17.436,17.436,0,0,1-3.335,20.623,18.138,18.138,0,0,1-20.657,2.2A1.658,1.658,0,0,0,237.2,339.9a20.672,20.672,0,0,0,10.294,2.7,21.623,21.623,0,0,0,14.2-5.278,20.424,20.424,0,0,0,6.149-11.552,20.941,20.941,0,0,0-2.28-13.5l1.9.6A1.657,1.657,0,0,0,267.958,312.947Z" fill="#a1afb8"/>
    </g>
    <g id="Group_48" data-name="Group 48" transform="translate(-335.386 111.092)">
      <path id="Path_77" data-name="Path 77" d="M585.614,266.238a3.149,3.149,0,0,1,3.145-3.145h47.482a3.148,3.148,0,0,1,3.144,3.145v34.238a3.148,3.148,0,0,1-3.144,3.145H588.759a3.149,3.149,0,0,1-3.145-3.145Z" fill="#00a3de"/>
      <path id="Path_78" data-name="Path 78" d="M588.333,270.788v29.688a.426.426,0,0,0,.426.426h47.482a.426.426,0,0,0,.425-.426V270.788ZM612.5,296.911a11.42,11.42,0,1,1,7.577-19.965,1.36,1.36,0,0,1-1.805,2.034,8.7,8.7,0,1,0,2.929,6.511,1.359,1.359,0,1,1,2.719,0A11.433,11.433,0,0,1,612.5,296.911Zm13.592-18.4L614.36,290.189a1.36,1.36,0,0,1-1.878.039l-6.392-5.858a1.36,1.36,0,0,1,1.838-2.005l5.434,4.981,10.812-10.765a1.359,1.359,0,1,1,1.918,1.926Z" fill="#fff"/>
      <path id="Path_79" data-name="Path 79" d="M626.159,331.215l-.252.2a4.358,4.358,0,0,1-2.712.974H601.782a4,4,0,0,1-2.2-.674,4.826,4.826,0,0,1-1.869-2.55h-41v1.265a3.8,3.8,0,0,0,.348,1.9l.655.761c.018.022.036.043.053.065.084.111.341.449,1.178.449H665.414a1.867,1.867,0,0,0,1.446-.841l.258-.338a6.153,6.153,0,0,0,1.145-3.256H627.577A4.462,4.462,0,0,1,626.159,331.215Z" fill="#00a3de"/>
      <path id="Path_80" data-name="Path 80" d="M636.666,268.069v-1.831a.425.425,0,0,0-.425-.426H588.759a.426.426,0,0,0-.426.426v1.831Z" fill="#00a3de"/>
      <path id="Path_81" data-name="Path 81" d="M624.174,276.581l-10.812,10.765-5.434-4.981a1.36,1.36,0,0,0-1.838,2.005l6.392,5.858a1.36,1.36,0,0,0,1.878-.039l11.732-11.682a1.359,1.359,0,1,0-1.918-1.926Z" fill="#00a3de"/>
      <path id="Path_82" data-name="Path 82" d="M573.642,324.154h77.716a11.424,11.424,0,0,0,11.411-11.411V258.468a11.424,11.424,0,0,0-11.411-11.41H573.642a11.424,11.424,0,0,0-11.411,11.41v54.275A11.424,11.424,0,0,0,573.642,324.154Zm-8.692-65.686a8.7,8.7,0,0,1,8.692-8.691h77.716a8.7,8.7,0,0,1,8.692,8.691v54.275a8.7,8.7,0,0,1-8.692,8.692H573.642a8.7,8.7,0,0,1-8.692-8.692Z" fill="#00a3de"/>
      <path id="Path_83" data-name="Path 83" d="M574.064,317.639h76.872a4.891,4.891,0,0,0,4.885-4.886v-54.6a4.891,4.891,0,0,0-4.885-4.886H574.064a4.891,4.891,0,0,0-4.885,4.886v54.6A4.891,4.891,0,0,0,574.064,317.639ZM571.9,258.152a2.169,2.169,0,0,1,2.166-2.167h76.872a2.169,2.169,0,0,1,2.166,2.167v54.6a2.168,2.168,0,0,1-2.166,2.166H574.064a2.168,2.168,0,0,1-2.166-2.166Z" fill="#00a3de"/>
      <path id="Path_84" data-name="Path 84" d="M588.759,303.621h47.482a3.148,3.148,0,0,0,3.144-3.145V266.238a3.148,3.148,0,0,0-3.144-3.145H588.759a3.149,3.149,0,0,0-3.145,3.145v34.238A3.149,3.149,0,0,0,588.759,303.621Zm47.482-2.719H588.759a.426.426,0,0,1-.426-.426V270.788h48.333v29.688A.426.426,0,0,1,636.241,300.9Zm-47.482-35.09h47.482a.425.425,0,0,1,.425.426v1.831H588.333v-1.831A.426.426,0,0,1,588.759,265.812Z" fill="#00a3de"/>
      <path id="Path_85" data-name="Path 85" d="M669.178,326.445H626.9a1.833,1.833,0,0,0-1.71,1.285l-.173.512a1.8,1.8,0,0,1-.545.839l-.252.2a1.664,1.664,0,0,1-1.027.389H601.782a1.274,1.274,0,0,1-.7-.227,2.176,2.176,0,0,1-.8-1.182l-.148-.479a1.831,1.831,0,0,0-1.726-1.336H555.822A1.9,1.9,0,0,0,554,328.412v2.017a5.86,5.86,0,0,0,.92,3.565c.016.022.034.043.052.064l.665.773a4.02,4.02,0,0,0,3.316,1.487H665.414a4.577,4.577,0,0,0,3.611-1.914l.258-.339a8.941,8.941,0,0,0,1.717-5.4v-.257A1.9,1.9,0,0,0,669.178,326.445Zm-2.06,5.975-.258.338a1.867,1.867,0,0,1-1.446.841H558.953c-.837,0-1.094-.338-1.178-.449-.017-.022-.035-.043-.053-.065l-.655-.761a3.8,3.8,0,0,1-.348-1.9v-1.265h41a4.826,4.826,0,0,0,1.869,2.55,4,4,0,0,0,2.2.674H623.2a4.358,4.358,0,0,0,2.712-.974l.252-.2a4.462,4.462,0,0,0,1.418-2.051h40.686A6.153,6.153,0,0,1,667.118,332.42Z" fill="#00a3de"/>
      <path id="Path_86" data-name="Path 86" d="M622.56,284.131a1.359,1.359,0,0,0-1.359,1.36,8.7,8.7,0,1,1-2.929-6.511,1.36,1.36,0,0,0,1.805-2.034,11.42,11.42,0,1,0,3.843,8.545A1.36,1.36,0,0,0,622.56,284.131Z" fill="#00a3de"/>
    </g>
    <g id="Group_15587" data-name="Group 15587" transform="translate(-335.386 111.092)">
      <path id="Path_51329" data-name="Path 51329" d="M1011.652,274.927v24.355a11.139,11.139,0,0,1-4.181,8.7l-14.388,11.511L978.7,307.981a11.137,11.137,0,0,1-4.178-8.686V274.927l18.569-3.7Z" fill="none" stroke="#ff2e8b" stroke-miterlimit="10" stroke-width="3"/>
      <path id="Path_51330" data-name="Path 51330" d="M1004.228,287.935l-11.141,11.141-7.428-7.441" fill="none" stroke="#ff2e8b" stroke-miterlimit="10" stroke-width="3"/>
      <path id="Path_51331" data-name="Path 51331" d="M950.379,293.523a42.721,42.721,0,0,1,82.012-16.712" fill="none" stroke="#ff2e8b" stroke-miterlimit="10" stroke-width="3"/>
      <path id="Path_51332" data-name="Path 51332" d="M953.78,310.218a42.721,42.721,0,0,0,82.011-16.712" fill="none" stroke="#ff2e8b" stroke-miterlimit="10" stroke-width="3"/>
      <path id="Path_51333" data-name="Path 51333" d="M1036,265.962l-3.606,10.832-11.131-2.691" fill="none" stroke="#ff2e8b" stroke-miterlimit="10" stroke-width="3"/>
      <path id="Path_51334" data-name="Path 51334" d="M950.17,321.049l3.61-10.831,11.131,2.691" fill="none" stroke="#ff2e8b" stroke-miterlimit="10" stroke-width="3"/>
    </g>
    <g id="Group_49" data-name="Group 49" transform="translate(-335.386 111.092)">
      <path id="Path_87" data-name="Path 87" d="M1345.832,268.206a1.405,1.405,0,1,0-1.988,1.987l16.614,16.614a1.4,1.4,0,0,0,1.987,0l26.692-26.692a1.4,1.4,0,0,0-1.987-1.987l-25.7,25.7Z" fill="#a421b0"/>
      <path id="Path_88" data-name="Path 88" d="M1412.987,323.745a6.416,6.416,0,0,0-2.563-4.732l-28.072-20.993a29.19,29.19,0,0,0,2.156-25.216,1.405,1.405,0,1,0-2.642.959c3.658,10.078,1.353,20.924-5.872,27.633a24.3,24.3,0,0,1-40.727-16.089,24.968,24.968,0,0,1,12.036-22.925c8.345-4.9,19.762-4.313,26.557,1.359a1.406,1.406,0,0,0,1.8-2.159c-7.661-6.393-20.464-7.091-29.781-1.624a27.231,27.231,0,0,0,3.67,48.814,26.569,26.569,0,0,0,9.77,1.832,27.576,27.576,0,0,0,17.705-6.371l20.8,26.783a6.844,6.844,0,0,0,4.922,2.628c.159.011.319.017.478.017a6.848,6.848,0,0,0,4.762-1.929l3.06-2.966A6.415,6.415,0,0,0,1412.987,323.745Zm-3.9,3-3.06,2.966a4.03,4.03,0,0,1-5.987-.422l-20.969-27c.593-.627,1.154-1.279,1.677-1.956l27.988,20.929a3.612,3.612,0,0,1,.351,5.484Z" fill="#a421b0"/>
    </g>
    <g id="Group_50" data-name="Group 50" transform="translate(-335.386 111.092)">
      <path id="Path_90" data-name="Path 90" d="M1720.508,309.861h61.452a1.735,1.735,0,0,0,1.733-1.732V264.48a1.735,1.735,0,0,0-1.733-1.732h-61.452a1.735,1.735,0,0,0-1.733,1.732v43.649A1.735,1.735,0,0,0,1720.508,309.861Zm5.755-38.917a2.517,2.517,0,0,1,2.514-2.514h42.965a2.517,2.517,0,0,1,2.514,2.514v28.137a2.517,2.517,0,0,1-2.514,2.514h-42.965a2.517,2.517,0,0,1-2.514-2.514Z" fill="#fff"/>
      <path id="Path_92" data-name="Path 92" d="M1762.153,322.888l-.2.159a3.48,3.48,0,0,1-2.168.779h-17.118a3.2,3.2,0,0,1-1.758-.539,3.86,3.86,0,0,1-1.493-2.039h-32.773v1.011a3.043,3.043,0,0,0,.278,1.516l.523.609c.015.017.028.034.042.051.067.089.273.359.943.359h85.107a1.5,1.5,0,0,0,1.156-.672l.206-.271a4.918,4.918,0,0,0,.915-2.6h-32.525A3.563,3.563,0,0,1,1762.153,322.888Z" fill="#fff"/>
      <path id="Path_93" data-name="Path 93" d="M1720.17,317.243H1782.3a9.132,9.132,0,0,0,9.122-9.122V264.733a9.132,9.132,0,0,0-9.122-9.122H1720.17a9.132,9.132,0,0,0-9.122,9.122v43.388A9.132,9.132,0,0,0,1720.17,317.243Zm-6.949-52.51a6.956,6.956,0,0,1,6.949-6.948H1782.3a6.956,6.956,0,0,1,6.948,6.948v43.388a6.956,6.956,0,0,1-6.948,6.948H1720.17a6.956,6.956,0,0,1-6.949-6.948Z" fill="#2f609a"/>
      <path id="Path_96" data-name="Path 96" d="M1796.544,319.075h-33.8a1.469,1.469,0,0,0-1.368,1.028l-.137.408a1.445,1.445,0,0,1-.435.671l-.2.16a1.335,1.335,0,0,1-.821.31h-17.118a1.017,1.017,0,0,1-.563-.181,1.746,1.746,0,0,1-.637-.946l-.118-.381a1.464,1.464,0,0,0-1.381-1.069h-34.043a1.519,1.519,0,0,0-1.456,1.572v1.612a4.677,4.677,0,0,0,.735,2.85c.013.018.027.035.041.051l.532.619a3.215,3.215,0,0,0,2.652,1.189h85.107a3.655,3.655,0,0,0,2.886-1.531l.206-.27a7.147,7.147,0,0,0,1.373-4.314v-.206A1.519,1.519,0,0,0,1796.544,319.075Zm-1.647,4.776-.206.271a1.5,1.5,0,0,1-1.156.672h-85.107c-.67,0-.876-.27-.943-.359-.014-.017-.027-.034-.042-.051l-.523-.609a3.043,3.043,0,0,1-.278-1.516v-1.011h32.773a3.86,3.86,0,0,0,1.493,2.039,3.2,3.2,0,0,0,1.758.539h17.118a3.48,3.48,0,0,0,2.168-.779l.2-.159a3.563,3.563,0,0,0,1.134-1.64h32.525A4.918,4.918,0,0,1,1794.9,323.851Z" fill="#2f609a"/>
      <path id="Path_97" data-name="Path 97" d="M1734.074,301.59l10.4-8.669,9.405,6.84a1.6,1.6,0,0,0,2.316-.476l9.271-15.575,1.485,18.2a1.6,1.6,0,0,0,1.321,1.446,1.583,1.583,0,0,0,.275.024,1.6,1.6,0,0,0,1.456-.938l10.553-23.216,1.755,3.008a1.6,1.6,0,1,0,2.763-1.614l-3.314-5.679a1.6,1.6,0,0,0-2.839.144l-9.283,20.422-1.391-17.05a1.6,1.6,0,0,0-2.971-.688l-10.935,18.371-9-6.541a1.6,1.6,0,0,0-1.966.065l-11.36,9.467a1.6,1.6,0,0,0,2.05,2.459Z" transform="translate(-9.273 -2.337)" fill="#2f609a"/>
    </g>
    <text id="_06" data-name="06" transform="translate(1765 277)" fill="#414042" font-size="36" font-family="HelveticaNeue-Bold, Helvetica Neue" font-weight="700"><tspan x="0" y="0">06</tspan></text>
    <g id="Icon_feather-check-circle" data-name="Icon feather-check-circle" transform="translate(1755.561 377.486)">
      <path id="Path_49741" data-name="Path 49741" d="M63.574,30.508v2.786a30.287,30.287,0,1,1-17.96-27.68" transform="translate(-3 -2.991)" fill="none" stroke="#414042" stroke-linecap="round" stroke-linejoin="round" stroke-width="4"/>
      <path id="Path_49742" data-name="Path 49742" d="M53.354,6,22.7,36.688l-9.2-9.2" transform="translate(7.22 0.151)" fill="none" stroke="#414042" stroke-linecap="round" stroke-linejoin="round" stroke-width="6"/>
    </g>
  </g>
</svg>
