<svg xmlns="http://www.w3.org/2000/svg" width="13.419" height="15.221" viewBox="0 0 13.419 15.221"><rect width="7.482" height="0.818" transform="translate(2.969 8.394)"/><rect width="7.482" height="0.818" transform="translate(2.969 6.009)"/><rect width="4.364" height="0.818" transform="translate(2.969 3.624)"/><rect width="7.482" height="0.818" transform="translate(2.969 10.78)"/><path d="M25.2,8.583,21.726,5.262A1.018,1.018,0,0,0,21.066,5H13.287a1.21,1.21,0,0,0-1.235,1.181V19.04a1.21,1.21,0,0,0,1.235,1.181h10.95a1.21,1.21,0,0,0,1.234-1.181V9.214A.93.93,0,0,0,25.2,8.583ZM24.522,19.04a.282.282,0,0,1-.285.273H13.287A.282.282,0,0,1,13,19.041V6.181a.283.283,0,0,1,.285-.272h7.589v2.4a1.117,1.117,0,0,0,1.14,1.09h2.506Z" transform="translate(-12.052 -5)"/></svg>