<svg xmlns="http://www.w3.org/2000/svg" width="18.17" height="15.9" viewBox="0 0 18.17 15.9">
  <g id="Group_24504" data-name="Group 24504" transform="translate(-729 -207.065)">
    <g id="Group_11486" data-name="Group 11486" transform="translate(-3)">
      <path id="Path" d="M5.191,1.3H.649a.649.649,0,1,1,0-1.3H5.191a.649.649,0,0,0,0,1.3Z" transform="translate(732 208.798)" fill="#0043db"/>
      <path id="Path-2" data-name="Path" d="M12.979.649a.649.649,0,0,1-.649.649H0A.649.649,0,0,0,.649.649.649.649,0,0,0,0,0H12.33A.649.649,0,0,1,12.979.649Z" transform="translate(737.191 208.798)" fill="#0043db"/>
      <path id="Path-3" data-name="Path" d="M12.979,1.3H.649a.649.649,0,1,1,0-1.3h12.33a.649.649,0,0,0,0,1.3Z" transform="translate(732 214.366)" fill="#0043db"/>
      <path id="Path-4" data-name="Path" d="M5.191.649a.649.649,0,0,1-.649.649H0A.649.649,0,0,0,.649.649.649.649,0,0,0,0,0H4.542A.649.649,0,0,1,5.191.649Z" transform="translate(744.979 214.366)" fill="#0043db"/>
      <path id="Path-5" data-name="Path" d="M5.191,1.3H.649a.649.649,0,1,1,0-1.3H5.191a.649.649,0,0,0,0,1.3Z" transform="translate(732 219.935)" fill="#0043db"/>
      <path id="Path-6" data-name="Path" d="M12.979.649a.649.649,0,0,1-.649.649H0A.649.649,0,0,0,.649.649.649.649,0,0,0,0,0H12.33A.649.649,0,0,1,12.979.649Z" transform="translate(737.191 219.935)" fill="#0043db"/>
      <path id="Shape" d="M.045,1.636A1.3,1.3,0,1,1,1.3,2.6,1.3,1.3,0,0,1,.045,1.636Z" transform="translate(735.894 219.288)" fill="#a100ff"/>
      <path id="Shape-2" data-name="Shape" d="M.117,2.58a1.864,1.864,0,0,1,0-1.3,1.947,1.947,0,0,1,3.66,0,1.864,1.864,0,0,1,0,1.3,1.947,1.947,0,0,1-3.66,0Z" transform="translate(735.245 218.652)" fill="#fff" stroke="#0043db" stroke-width="0.9"/>
      <path id="Shape-3" data-name="Shape" d="M.045,1.636A1.3,1.3,0,1,1,1.3,2.6,1.3,1.3,0,0,1,.045,1.636Z" transform="translate(743.681 213.719)" fill="#a100ff"/>
      <path id="Shape-4" data-name="Shape" d="M.117,2.58a1.864,1.864,0,0,1,0-1.3,1.947,1.947,0,0,1,3.66,0,1.864,1.864,0,0,1,0,1.3,1.947,1.947,0,0,1-3.66,0Z" transform="translate(743.032 213.084)" fill="#fff" stroke="#0043db" stroke-width="0.9"/>
      <path id="Shape-5" data-name="Shape" d="M.045,1.636A1.3,1.3,0,1,1,1.3,2.6,1.3,1.3,0,0,1,.045,1.636Z" transform="translate(735.894 208.151)" fill="#a100ff"/>
      <path id="Shape-6" data-name="Shape" d="M.117,2.58a1.864,1.864,0,0,1,0-1.3,1.947,1.947,0,0,1,3.66,0,1.864,1.864,0,0,1,0,1.3,1.947,1.947,0,0,1-3.66,0Z" transform="translate(735.245 207.515)" fill="#fff" stroke="#0043db" stroke-width="0.9"/>
    </g>
  </g>
</svg>
