<svg xmlns="http://www.w3.org/2000/svg" width="12.734" height="12.734" viewBox="0 0 12.734 12.734"><defs><style>.a{fill:#080808;}</style></defs><g transform="translate(-54 -332)"><path class="a" d="M13.461,2H3.273A1.272,1.272,0,0,0,2.006,3.273L2,14.734l2.547-2.547h8.914a1.277,1.277,0,0,0,1.273-1.273V3.273A1.277,1.277,0,0,0,13.461,2Zm0,8.914H4.018l-.376.376-.369.369V3.273H13.461Z" transform="translate(52 330)"/><path class="a" d="M10.5,13.273h4.775V12h-3.5Z" transform="translate(48.912 326.367)"/><path class="a" d="M11.794,7.062a.266.266,0,0,0,0-.422L10.567,5.589a.384.384,0,0,0-.492,0L6,9.082v1.467H7.712Z" transform="translate(50.547 328.649)"/></g></svg>