<svg xmlns="http://www.w3.org/2000/svg" width="15.5" height="15.5" viewBox="0 0 15.5 15.5">
  <g id="noun_card_view_1861887" data-name="noun_card view_1861887" transform="translate(-3.75 -3.75)">
    <path id="Path_51363" data-name="Path 51363" d="M16.188,4H6.813A2.813,2.813,0,0,0,4,6.813v9.375A2.813,2.813,0,0,0,6.813,19h9.375A2.813,2.813,0,0,0,19,16.188V6.813A2.812,2.812,0,0,0,16.188,4Zm-2.812.938v6.094H9.625V4.938ZM4.938,6.813A1.877,1.877,0,0,1,6.813,4.938H8.688v6.094H4.938Zm1.875,11.25a1.877,1.877,0,0,1-1.875-1.875V11.969h3.75v6.094Zm2.813,0V11.969h3.75v6.094Zm8.438-1.875a1.877,1.877,0,0,1-1.875,1.875H14.313V11.969h3.75Zm0-5.156h-3.75V4.938h1.875a1.877,1.877,0,0,1,1.875,1.875Z" fill="#000d88" stroke="#000d88" stroke-width="0.5"/>
  </g>
</svg>
