<svg xmlns="http://www.w3.org/2000/svg" width="24.201" height="24.202" viewBox="0 0 24.201 24.202"><defs><style>.a{fill:none;stroke:#222;stroke-miterlimit:10;}</style></defs><g transform="translate(-238.5 -437.509)"><g transform="translate(239 438.009)"><g transform="translate(0 0)"><path class="a" d="M3309.888,904.17l2.613-1.076v-2.822l-2.613-1.076-.643-1.552,1.086-2.609-2-2-2.608,1.087-1.552-.643-1.076-2.613h-2.822l-1.076,2.613-1.552.643-2.608-1.087-2,2,1.086,2.609-.643,1.552-2.613,1.076v2.822l2.613,1.076.643,1.552-1.086,2.609,2,2,2.608-1.086,1.552.643,1.076,2.613h2.822l1.076-2.613" transform="translate(-3290.875 -890.869)"/><path class="a" d="M3376.826,978.566a4.392,4.392,0,0,1,2.882-2.725" transform="translate(-3370.14 -969.231)"/></g><path class="a" d="M3389.853,986.457l-6.03-5.607a5.144,5.144,0,0,0-4.987-6.977.66.66,0,0,0-.575.416,1.083,1.083,0,0,0,.229,1.227l1.648,1.648a.758.758,0,0,1,0,1.073l-1.9,1.9a.758.758,0,0,1-1.073,0l-1.649-1.649a1.088,1.088,0,0,0-1.223-.234.652.652,0,0,0-.417.566,5.149,5.149,0,0,0,6.98,5.007l5.6,6.025a2.4,2.4,0,0,0,3.455.063h0A2.4,2.4,0,0,0,3389.853,986.457Z" transform="translate(-3367.418 -967.413)"/><line class="a" x2="0.722" transform="translate(20.222 20.58)"/></g></g></svg>