<svg xmlns="http://www.w3.org/2000/svg" width="10" height="10" viewBox="0 0 10 10"><defs><style>.a{fill:none;}.b,.d{fill:#dd5e56;}.b{stroke:#dd5e56;stroke-width:0.25px;}.c,.d{stroke:none;}</style></defs><g transform="translate(-960 -39)"><g class="a" transform="translate(960 39)"><path class="c" d="M5,0A5,5,0,1,1,0,5,5,5,0,0,1,5,0Z"/><path class="d" d="M 5.000015258789062 1 C 2.794395446777344 1 0.999995231628418 2.794390201568604 0.999995231628418 5 C 0.999995231628418 7.205610275268555 2.794395446777344 9 5.000015258789062 9 C 7.205635070800781 9 9.000035285949707 7.205610275268555 9.000035285949707 5 C 9.000035285949707 2.794390201568604 7.205635070800781 1 5.000015258789062 1 M 5.000015258789062 0 C 7.761445045471191 0 10.00003528594971 2.238580226898193 10.00003528594971 5 C 10.00003528594971 7.761429786682129 7.761445045471191 10 5.000015258789062 10 C 2.238585472106934 10 -4.76837158203125e-06 7.761429786682129 -4.76837158203125e-06 5 C -4.76837158203125e-06 2.238580226898193 2.238585472106934 0 5.000015258789062 0 Z"/></g><g transform="translate(964.668 41.726)"><path class="b" d="M24.94,973.977a.235.235,0,0,0-.236.234v3.27a.236.236,0,0,0,.472,0v-3.27A.235.235,0,0,0,24.94,973.977Zm0,4.2a.35.35,0,1,0,.354.35A.352.352,0,0,0,24.94,978.182Z" transform="translate(-24.586 -973.977)"/></g></g></svg>