<svg xmlns="http://www.w3.org/2000/svg" width="11.97" height="13.226" viewBox="0 0 11.97 13.226"><g transform="translate(-180 -48)"><g transform="translate(180 48)"><path d="M8.541,1.2a.6.6,0,0,0,.6-.6.582.582,0,0,0-.6-.6H3.685a.582.582,0,0,0-.6.6.6.6,0,0,0,.6.6Z" transform="translate(-0.127 0)"/><path d="M11.446,2.119H.524a.515.515,0,0,0-.376.143A.482.482,0,0,0,0,2.626a.515.515,0,0,0,.523.507h.785v8.043A1.546,1.546,0,0,0,2.879,12.7H9.091a1.6,1.6,0,0,0,1.11-.445,1.5,1.5,0,0,0,.46-1.075V3.133h.785a.515.515,0,0,0,.523-.507.482.482,0,0,0-.148-.364A.515.515,0,0,0,11.446,2.119ZM9.614,11.176a.482.482,0,0,1-.148.364.515.515,0,0,1-.376.143H2.879a.515.515,0,0,1-.376-.143.482.482,0,0,1-.148-.364V3.133H9.614Z" transform="translate(0 0.53)"/><path d="M4.5,10.463a.622.622,0,0,0,.6-.6V5.547a.6.6,0,0,0-.6-.6.582.582,0,0,0-.6.6V9.861A.6.6,0,0,0,4.5,10.463Z" transform="translate(0.277 -0.029)"/><path d="M6.751,10.463a.6.6,0,0,0,.6-.6V5.547a.582.582,0,0,0-.6-.6.6.6,0,0,0-.6.6V9.861A.622.622,0,0,0,6.751,10.463Z" transform="translate(0.438 -0.029)"/></g></g></svg>