<svg xmlns="http://www.w3.org/2000/svg" width="15.497" height="15.51" viewBox="0 0 15.497 15.51"><defs><style>.a{fill:none;stroke:#080808;stroke-linecap:round;stroke-linejoin:round;}.a,.b{stroke-width:0.5px;}.b{fill:#080808;stroke:#fff;}</style></defs><g transform="translate(0.25 0.25)"><g transform="translate(3.5 4.5)"><path class="a" d="M1.5,8.259S2.63,6,4.607,6,7.714,8.259,7.714,8.259s-1.13,2.259-3.107,2.259S1.5,8.259,1.5,8.259Z" transform="translate(-1.5 -6)"/><path class="a" d="M15.195,14.347a.847.847,0,1,1-.847-.847A.847.847,0,0,1,15.195,14.347Z" transform="translate(-11.24 -12.088)"/></g><path class="b" d="M11.906,10.528a6.353,6.353,0,0,0,1.313-3.913A6.581,6.581,0,0,0,6.656,0,6.661,6.661,0,0,0,0,6.615,6.661,6.661,0,0,0,6.656,13.23a6.25,6.25,0,0,0,3.938-1.3l2.813,2.8a.91.91,0,0,0,1.313,0,.9.9,0,0,0,0-1.3Zm-5.25.745A4.708,4.708,0,0,1,1.875,6.615,4.781,4.781,0,0,1,6.656,1.834a5.9,5.9,0,0,1,.874.08,4.715,4.715,0,0,1-.874,9.36Z"/></g></svg>