<svg id="Group_16423" data-name="Group 16423" xmlns="http://www.w3.org/2000/svg" width="30" height="29.364" viewBox="0 0 30 29.364">
  <g id="Group_14559" data-name="Group 14559">
    <path id="Path_49958" data-name="Path 49958" d="M197.89,206.41l10.179,4.9a2.3,2.3,0,0,1,1.246,1.562l2.514,11.015a2.3,2.3,0,0,1-.445,1.948l-7.044,8.833a2.3,2.3,0,0,1-1.8.867h-11.3a2.3,2.3,0,0,1-1.8-.867l-7.044-8.833a2.3,2.3,0,0,1-.445-1.948l2.514-11.015a2.3,2.3,0,0,1,1.246-1.562l10.179-4.9A2.3,2.3,0,0,1,197.89,206.41Z" transform="translate(-181.891 -206.177)" fill="#2053bc"/>
    <path id="Path_49959" data-name="Path 49959" d="M190.791,235.045a2.307,2.307,0,0,1-1.8-.869l-7.044-8.833a2.306,2.306,0,0,1-.445-1.952l2.514-11.015a2.306,2.306,0,0,1,1.248-1.565l10.179-4.9a2.307,2.307,0,0,1,2,0l10.179,4.9a2.307,2.307,0,0,1,1.248,1.565l2.514,11.015a2.306,2.306,0,0,1-.445,1.952l-7.044,8.833a2.307,2.307,0,0,1-1.8.869Zm5.649-29.357a2.3,2.3,0,0,0-1,.229l-10.179,4.9a2.287,2.287,0,0,0-1.244,1.56l-2.514,11.015a2.287,2.287,0,0,0,.444,1.945l7.044,8.833a2.287,2.287,0,0,0,1.8.865h11.3a2.287,2.287,0,0,0,1.8-.865l7.044-8.833a2.287,2.287,0,0,0,.444-1.945l-2.514-11.015a2.287,2.287,0,0,0-1.244-1.56l-10.179-4.9A2.3,2.3,0,0,0,196.44,205.688Z" transform="translate(-181.44 -205.681)" fill="#fff"/>
  </g>
  <g id="Group_14560" data-name="Group 14560" transform="translate(3.834 4.194)">
    <path id="Path_49960" data-name="Path 49960" d="M639.335,695.714a.548.548,0,0,0-.308-.326,1.528,1.528,0,0,0-.421-.112l-1.727-.262a.421.421,0,0,1-.19-.181l-.322-.09a8.326,8.326,0,0,0,.077-1.131,8.2,8.2,0,0,0-1.378-4.562l.252-.222a.42.42,0,0,1,.092-.245l1.442-.985a1.527,1.527,0,0,0,.331-.284.549.549,0,0,0,.136-.427.944.944,0,0,0-.182-.4.768.768,0,0,0-.348-.268.549.549,0,0,0-.447.038,1.522,1.522,0,0,0-.35.259l-1.282,1.186a.422.422,0,0,1-.26.035l-.273.2a8.216,8.216,0,0,0-5.26-2.532l-.016-.337a.42.42,0,0,1-.135-.225l.128-1.741a1.521,1.521,0,0,0-.016-.435.548.548,0,0,0-.249-.373.942.942,0,0,0-.424-.1.768.768,0,0,0-.426.1.547.547,0,0,0-.249.373,1.528,1.528,0,0,0-.016.435l.128,1.741a.421.421,0,0,1-.134.225l-.017.337a8.217,8.217,0,0,0-5.259,2.533l-.274-.2a.422.422,0,0,1-.26-.035l-1.282-1.186a1.525,1.525,0,0,0-.35-.259.548.548,0,0,0-.447-.038.94.94,0,0,0-.346.266.768.768,0,0,0-.184.4.549.549,0,0,0,.136.427,1.533,1.533,0,0,0,.331.284l1.442.986a.42.42,0,0,1,.092.245l.253.223a8.2,8.2,0,0,0-1.377,4.561,8.321,8.321,0,0,0,.077,1.13l-.324.091a.422.422,0,0,1-.19.181l-1.727.262a1.527,1.527,0,0,0-.421.112.548.548,0,0,0-.308.326.943.943,0,0,0-.008.437.771.771,0,0,0,.2.392.548.548,0,0,0,.419.16,1.53,1.53,0,0,0,.428-.081l1.669-.513a.421.421,0,0,1,.249.081l.329-.059A8.26,8.26,0,0,0,624,700.7l-.13.307a.422.422,0,0,1,.023.261l-.871,1.513a1.529,1.529,0,0,0-.175.4.547.547,0,0,0,.063.444.94.94,0,0,0,.336.279.767.767,0,0,0,.429.09.549.549,0,0,0,.386-.228,1.523,1.523,0,0,0,.2-.386l.64-1.625a.421.421,0,0,1,.219-.144l.159-.292a8.273,8.273,0,0,0,5.842,0l.158.292a.421.421,0,0,1,.219.144l.64,1.625a1.524,1.524,0,0,0,.2.386.548.548,0,0,0,.386.228.94.94,0,0,0,.428-.089.765.765,0,0,0,.338-.279.547.547,0,0,0,.063-.444,1.528,1.528,0,0,0-.175-.4l-.871-1.513a.423.423,0,0,1,.023-.261l-.13-.306a8.26,8.26,0,0,0,3.643-4.566l.327.058a.42.42,0,0,1,.249-.081l1.669.512a1.529,1.529,0,0,0,.428.082.547.547,0,0,0,.419-.16.943.943,0,0,0,.2-.39A.769.769,0,0,0,639.335,695.714Zm-5.583-5.5a6.452,6.452,0,0,1,.958,3.4q0,.331-.032.656l-3.32-.952a.47.47,0,0,1-.184-.8Zm-1.911-1.995a6.571,6.571,0,0,1,.912.744l-2.814,2a.471.471,0,0,1-.743-.358l-.189-3.449a6.432,6.432,0,0,1,1.731.462A6.516,6.516,0,0,1,631.841,688.219Zm-6.166-.6a6.425,6.425,0,0,1,1.73-.462l-.19,3.449a.471.471,0,0,1-.743.358l-2.814-2a6.58,6.58,0,0,1,.912-.744A6.51,6.51,0,0,1,625.675,687.62Zm-3.972,5.992a6.457,6.457,0,0,1,.958-3.4l2.579,2.3a.47.47,0,0,1-.184.8l-3.32.952Q621.7,693.943,621.7,693.612Zm1.11,3.634a6.493,6.493,0,0,1-.6-1.1q-.066-.156-.123-.314l3.416-.585a.471.471,0,0,1,.514.646l-1.335,3.19-.113-.075a6.549,6.549,0,0,1-1.759-1.759Zm3.314,2.529,1.668-3.027a.471.471,0,0,1,.824,0l1.668,3.027a6.551,6.551,0,0,1-4.16,0Zm7.474-2.529a6.543,6.543,0,0,1-1.759,1.759l-.113.074L630.4,695.89a.471.471,0,0,1,.514-.645l3.406.583q-.057.158-.123.314A6.493,6.493,0,0,1,633.6,697.246Z" transform="translate(-617.04 -682.184)" fill="#fff"/>
    <path id="Path_49961" data-name="Path 49961" d="M623.134,703.5a.822.822,0,0,1-.359-.1.956.956,0,0,1-.338-.28.552.552,0,0,1-.063-.447,1.54,1.54,0,0,1,.175-.4l.871-1.513a.42.42,0,0,0-.024-.258v0l.129-.3a8.265,8.265,0,0,1-3.639-4.563l-.328.058h0a.419.419,0,0,0-.247-.08l-1.669.512a1.541,1.541,0,0,1-.429.082.553.553,0,0,1-.422-.161.773.773,0,0,1-.2-.394.951.951,0,0,1,.008-.439.553.553,0,0,1,.31-.328,1.533,1.533,0,0,1,.422-.113l1.727-.262a.42.42,0,0,0,.187-.179h0l.322-.09a8.347,8.347,0,0,1-.077-1.127,8.2,8.2,0,0,1,1.376-4.56l-.252-.221v0a.422.422,0,0,0-.091-.243l-1.441-.985a1.546,1.546,0,0,1-.332-.285.554.554,0,0,1-.137-.43.774.774,0,0,1,.184-.4.953.953,0,0,1,.348-.267.553.553,0,0,1,.45.038,1.527,1.527,0,0,1,.352.26l1.282,1.186a.416.416,0,0,0,.256.034h0l.271.2a8.228,8.228,0,0,1,5.256-2.531l.016-.335h0a.42.42,0,0,0,.133-.222l-.128-1.741a1.54,1.54,0,0,1,.016-.437.553.553,0,0,1,.251-.375.775.775,0,0,1,.428-.106.953.953,0,0,1,.426.106.553.553,0,0,1,.251.375,1.533,1.533,0,0,1,.016.437l-.128,1.741a.421.421,0,0,0,.133.222h0v0l.016.333a8.227,8.227,0,0,1,5.257,2.53l.272-.2h0a.417.417,0,0,0,.257-.034l1.281-1.186a1.534,1.534,0,0,1,.351-.26.553.553,0,0,1,.45-.038.776.776,0,0,1,.35.269.956.956,0,0,1,.183.4.554.554,0,0,1-.137.43,1.547,1.547,0,0,1-.332.285l-1.442.985a.419.419,0,0,0-.09.242v0l-.25.22a8.2,8.2,0,0,1,1.377,4.561,8.328,8.328,0,0,1-.077,1.128l.32.09h0a.419.419,0,0,0,.187.179l1.726.262a1.54,1.54,0,0,1,.422.113.552.552,0,0,1,.31.328.773.773,0,0,1,.008.441.955.955,0,0,1-.2.392.553.553,0,0,1-.422.161,1.539,1.539,0,0,1-.43-.082l-1.669-.513a.42.42,0,0,0-.246.081h0l-.326-.058a8.266,8.266,0,0,1-3.64,4.564l.129.3v0a.421.421,0,0,0-.024.258l.871,1.513a1.535,1.535,0,0,1,.175.4.552.552,0,0,1-.063.447.773.773,0,0,1-.34.281.952.952,0,0,1-.43.09.553.553,0,0,1-.389-.229,1.533,1.533,0,0,1-.2-.387l-.64-1.625a.42.42,0,0,0-.216-.142h0l-.157-.29a8.277,8.277,0,0,1-5.839,0l-.158.291h0a.419.419,0,0,0-.216.143l-.64,1.624a1.545,1.545,0,0,1-.2.386.552.552,0,0,1-.389.229A.583.583,0,0,1,623.134,703.5Zm.271-2.995a.423.423,0,0,1,.023.263l-.871,1.514a1.524,1.524,0,0,0-.174.4.545.545,0,0,0,.062.441.943.943,0,0,0,.335.277.763.763,0,0,0,.427.09.546.546,0,0,0,.384-.227,1.536,1.536,0,0,0,.2-.384l.64-1.625a.423.423,0,0,1,.22-.146l.16-.294h0a8.267,8.267,0,0,0,5.84,0h0l.159.293a.423.423,0,0,1,.22.146l.64,1.625a1.532,1.532,0,0,0,.2.384.546.546,0,0,0,.384.227.944.944,0,0,0,.425-.089.765.765,0,0,0,.337-.278.546.546,0,0,0,.062-.441,1.532,1.532,0,0,0-.174-.4l-.871-1.513a.422.422,0,0,1,.023-.263l-.13-.308,0,0a8.237,8.237,0,0,0,3.641-4.565v0l.329.059a.423.423,0,0,1,.251-.081l1.67.513a1.534,1.534,0,0,0,.427.081.546.546,0,0,0,.417-.159.944.944,0,0,0,.2-.388.765.765,0,0,0-.007-.436.547.547,0,0,0-.306-.324,1.538,1.538,0,0,0-.42-.112l-1.726-.262a.422.422,0,0,1-.192-.182l-.323-.091v0a8.352,8.352,0,0,0,.077-1.13,8.194,8.194,0,0,0-1.378-4.56l0,0,.253-.223a.422.422,0,0,1,.093-.247l1.442-.986a1.52,1.52,0,0,0,.33-.283.546.546,0,0,0,.136-.424.944.944,0,0,0-.182-.395.766.766,0,0,0-.346-.266.547.547,0,0,0-.444.038,1.534,1.534,0,0,0-.349.258l-1.282,1.186a.423.423,0,0,1-.262.037l-.275.2,0,0a8.218,8.218,0,0,0-5.258-2.531h0l-.016-.339a.427.427,0,0,1-.135-.227l.128-1.742a1.525,1.525,0,0,0-.016-.434.547.547,0,0,0-.247-.371.944.944,0,0,0-.422-.1.767.767,0,0,0-.424.1.547.547,0,0,0-.247.371,1.532,1.532,0,0,0-.016.434l.128,1.742a.428.428,0,0,1-.135.227l-.016.339h0a8.219,8.219,0,0,0-5.256,2.531l0,0-.276-.2a.425.425,0,0,1-.261-.036l-1.282-1.186a1.535,1.535,0,0,0-.349-.259.546.546,0,0,0-.444-.038.94.94,0,0,0-.344.265.765.765,0,0,0-.183.4.546.546,0,0,0,.136.424,1.518,1.518,0,0,0,.33.283l1.442.986a.422.422,0,0,1,.094.247l.255.224,0,0a8.194,8.194,0,0,0-1.377,4.559,8.291,8.291,0,0,0,.077,1.129v0l-.325.091a.423.423,0,0,1-.191.181l-1.727.263a1.541,1.541,0,0,0-.42.112.547.547,0,0,0-.306.324.943.943,0,0,0-.008.434.767.767,0,0,0,.2.39.546.546,0,0,0,.416.159,1.532,1.532,0,0,0,.427-.081l1.67-.513a.422.422,0,0,1,.252.081l.331-.059v0a8.238,8.238,0,0,0,3.639,4.564l0,0Zm4.331-.886a6.5,6.5,0,0,1-2.082-.339l0,0,0,0,1.668-3.027a.475.475,0,0,1,.832,0l1.67,3.031,0,0A6.5,6.5,0,0,1,627.736,699.623Zm-2.074-.345a6.545,6.545,0,0,0,4.149,0l-1.666-3.022a.467.467,0,0,0-.817,0Zm-1.445-.687,0,0-.114-.075a6.53,6.53,0,0,1-2.36-2.864c-.044-.1-.085-.208-.123-.314l0,0h0l3.416-.585a.475.475,0,0,1,.518.651Zm-2.591-3.254c.038.1.079.208.121.309a6.53,6.53,0,0,0,2.357,2.86l.109.072,1.333-3.186a.467.467,0,0,0-.509-.64Zm9.631,3.254,0,0-1.326-3.189a.475.475,0,0,1,.519-.65l3.411.584v0c-.038.106-.08.211-.123.314a6.543,6.543,0,0,1-2.36,2.864l-.113.075Zm-.892-3.843a.467.467,0,0,0-.428.646l1.324,3.185.109-.072a6.537,6.537,0,0,0,1.758-1.757l0,0,0,0a6.5,6.5,0,0,0,.6-1.1c.043-.1.084-.205.122-.309l-3.4-.582A.481.481,0,0,0,630.364,694.747Zm-9.1-.969v0c-.021-.216-.032-.437-.032-.656a6.461,6.461,0,0,1,.958-3.4l0,0,2.582,2.3a.474.474,0,0,1-.185.81Zm.93-4.053a6.448,6.448,0,0,0-.954,3.392c0,.217.011.436.032.651l3.316-.951a.467.467,0,0,0,.182-.8Zm12.02,4.053h0l-3.321-.952a.475.475,0,0,1-.185-.81l2.582-2.3,0,0a6.467,6.467,0,0,1,.958,3.4c0,.219-.011.44-.032.656Zm-.93-4.053-2.575,2.3a.467.467,0,0,0,.182.8l3.316.951c.021-.214.032-.433.032-.651a6.455,6.455,0,0,0-.955-3.392Zm-7.006.837a.468.468,0,0,1-.274-.089l-2.818-2,0,0a6.6,6.6,0,0,1,.913-.744,6.515,6.515,0,0,1,1.1-.6l0,0,0,0a6.457,6.457,0,0,1,1.732-.462h0v0l-.189,3.449a.469.469,0,0,1-.268.4A.476.476,0,0,1,626.275,690.561Zm-3.08-2.094,2.81,2a.467.467,0,0,0,.737-.355l.189-3.444a6.454,6.454,0,0,0-2.828,1.06A6.579,6.579,0,0,0,623.2,688.467Zm6,2.094a.477.477,0,0,1-.207-.048.469.469,0,0,1-.268-.4l-.19-3.454h0a6.455,6.455,0,0,1,1.731.462,6.521,6.521,0,0,1,1.1.6,6.594,6.594,0,0,1,.912.744l0,0-2.818,2A.469.469,0,0,1,629.2,690.561Zm-.656-3.894.189,3.444a.467.467,0,0,0,.736.355l2.81-2a6.579,6.579,0,0,0-.908-.74,6.454,6.454,0,0,0-2.828-1.06Z" transform="translate(-616.57 -681.689)"/>
  </g>
  <path id="Path_49962" data-name="Path 49962" d="M1859.365,1980.512l-1.01.486-1.01-.486-.25-1.093.7-.876h1.121l.7.876Z" transform="translate(-1843.354 -1964.004)" fill="#326de6"/>
</svg>
