<svg id="Group_25488" data-name="Group 25488" xmlns="http://www.w3.org/2000/svg" xmlns:xlink="http://www.w3.org/1999/xlink" width="109.419" height="148.034" viewBox="0 0 109.419 148.034">
  <defs>
    <clipPath id="clip-path">
      <rect id="Rectangle_149817" data-name="Rectangle 149817" width="109.419" height="148.034" fill="none"/>
    </clipPath>
  </defs>
  <g id="Group_25487" data-name="Group 25487" clip-path="url(#clip-path)">
    <path id="Path_75746" data-name="Path 75746" d="M54.71,140.075a11.252,11.252,0,0,1,6.728,20.269V178.57A6.747,6.747,0,0,1,54.71,185.3h0a6.747,6.747,0,0,1-6.729-6.728V160.345a11.252,11.252,0,0,1,6.729-20.269m0-23.151c20.8,0,39.868,3.96,54.709,10.545V197.9C94.578,204.489,75.51,208.45,54.71,208.45S14.84,204.489,0,197.9V127.469c14.84-6.585,33.908-10.545,54.71-10.545" transform="translate(0 -60.415)" fill="#018acb" fill-rule="evenodd"/>
    <path id="Path_75747" data-name="Path 75747" d="M113.2,116.924c20.8,0,39.868,3.96,54.709,10.545V197.9C153.07,204.489,134,208.45,113.2,208.45V185.3h0a6.747,6.747,0,0,0,6.728-6.728V160.345a11.252,11.252,0,0,0-6.728-20.269Z" transform="translate(-58.491 -60.415)" fill="#0074bd" fill-rule="evenodd"/>
    <path id="Path_75748" data-name="Path 75748" d="M64.4,0a45.75,45.75,0,0,1,45.641,45.64v17.9A128.321,128.321,0,0,0,92.4,59.008V45.64a27.994,27.994,0,0,0-55.987,0V59.008a128.339,128.339,0,0,0-17.647,4.53V45.64A45.747,45.747,0,0,1,64.4,0" transform="translate(-9.695)" fill="#143761"/>
  </g>
</svg>
