<svg id="Layer_1" data-name="Layer 1" xmlns="http://www.w3.org/2000/svg" width="213.986" height="153.528" viewBox="0 0 213.986 153.528">
  <path id="Path_75734" data-name="Path 75734" d="M108.1,55.8a64.793,64.793,0,0,0-31.024,7.322c-6.022,3.517-9.635,7.852-9.635,11.61s3.565,7.949,9.635,11.417A63.782,63.782,0,0,0,108.1,93.425h0a64.649,64.649,0,0,0,31.168-7.274c6.07-3.517,9.635-7.852,9.635-11.61s-3.517-8-9.635-11.417A63.781,63.781,0,0,0,108.1,55.8Zm-26.206,79-6.744-13.874L51.642,128.64a5.058,5.058,0,0,1-4.095-.482L14.934,109.033a4.817,4.817,0,0,1-1.108-7.8l7.419-7.66L4.191,90.727A4.817,4.817,0,0,1,0,85.91V56.091a4.817,4.817,0,0,1,4.191-4.817l17.246-2.842L9.635,35.858l40.273-23.22,25.484,8.238L83.725,4.16h47.114l8.141,16.668,25.532-8.189L204.64,35.954,192.693,48.239l16.861,2.746a5.4,5.4,0,0,1,4.432,5.3V85.573a5.251,5.251,0,0,1-4.432,5.2L192.693,93.57l7.13,7.467a5.3,5.3,0,0,1-1.3,8.334L166.15,128.062a5.347,5.347,0,0,1-4.287.482l-23.268-7.611-6.889,13.922a5.106,5.106,0,0,1-4.528,2.794H86.327A5.058,5.058,0,0,1,81.895,134.806Z" transform="translate(0 15.88)" fill="#fff" opacity="0"/>
  <path id="Path_75735" data-name="Path 75735" d="M76.7,62.8c-6.118,3.517-9.635,7.9-9.635,11.706S70.632,82.6,76.7,86.065a63.637,63.637,0,0,0,31.12,7.322h0a64.456,64.456,0,0,0,31.216-7.322c6.118-3.517,9.635-7.9,9.635-11.754s-3.565-8.045-9.635-11.562a64.119,64.119,0,0,0-31.072-7.274A64.5,64.5,0,0,0,76.7,62.8Zm5.155,71.73L75.112,120.6l-23.557,7.563a5.4,5.4,0,0,1-4.047-.434L14.992,108.851a4.817,4.817,0,0,1-1.06-7.8L21.4,93.339,4.2,90.448A5.058,5.058,0,0,1,.01,85.631V56.1A5.058,5.058,0,0,1,4.2,51.284l17.342-2.842L9.886,35.724,49.918,12.649l25.532,8.238L83.832,4.17h46.921s8.141,16.716,8.189,16.716l25.532-8.238L204.361,35.82,192.655,48.2l16.957,2.794a5.251,5.251,0,0,1,4.239,5.347v28.9a5.3,5.3,0,0,1-4.432,5.2l-17.1,2.842,7.13,7.515a5.347,5.347,0,0,1-1.3,8.527l-32.18,18.306a5.347,5.347,0,0,1-4.287.482L138.364,120.6l-6.937,13.922a4.817,4.817,0,0,1-4.48,2.794H86.24A4.817,4.817,0,0,1,81.857,134.527Z" transform="translate(0.038 15.918)" fill="#fefefe" opacity="0.01"/>
  <path id="Path_75736" data-name="Path 75736" d="M76.548,62.47c-6.166,3.565-9.876,8-9.876,11.851s3.613,8.189,9.635,11.706a64.7,64.7,0,0,0,31.216,7.322h0a64.7,64.7,0,0,0,31.313-7.371c6.166-3.565,9.635-8,9.635-11.851s-3.565-8.189-9.635-11.706A63.974,63.974,0,0,0,107.668,55.1a64.167,64.167,0,0,0-31.12,7.371Zm5.347,71.73-6.744-13.874s-23.412,7.467-23.6,7.515a5.155,5.155,0,0,1-4.047-.434L15.175,108.668a4.817,4.817,0,0,1-1.06-7.8l7.515-7.756L4.288,90.025A4.817,4.817,0,0,1,0,85.208V55.918A4.817,4.817,0,0,1,4.191,51.1L21.63,48.21,10.068,35.637,49.86,12.659,75.391,20.9,83.822,4.18H130.55L138.788,20.9l25.628-8.238,39.6,23.027-11.9,12.477,17.053,2.794a5.347,5.347,0,0,1,4.48,5.3v28.9a5.3,5.3,0,0,1-4.625,4.866l-17.2,2.842L199,100.479a5.347,5.347,0,0,1-1.2,8.238l-31.939,18.45a5.54,5.54,0,0,1-4.287.434l-23.364-7.515-6.937,13.97a4.817,4.817,0,0,1-4.48,2.746H86.279A4.817,4.817,0,0,1,81.895,134.2Z" transform="translate(0 15.956)" fill="#fdfefe" opacity="0.03"/>
  <path id="Path_75737" data-name="Path 75737" d="M76.355,62.094c-6.263,3.613-9.924,8.093-9.972,12S70,82.375,76.018,85.94a64.36,64.36,0,0,0,31.265,7.371h0a65.082,65.082,0,0,0,31.409-7.371c6.214-3.613,9.924-8.093,9.924-12S145,65.659,138.98,62.094a64.215,64.215,0,0,0-31.264-7.371,64.889,64.889,0,0,0-31.361,7.371Zm5.54,71.778L75.151,120l-23.7,7.515a5.155,5.155,0,0,1-4.047-.434L15.319,108.485a4.817,4.817,0,0,1-.867-7.8l7.322-7.8s-16.957-2.89-17.487-2.89A4.817,4.817,0,0,1,0,85.169v-28.9a4.817,4.817,0,0,1,4.191-4.817l17.535-2.89L9.924,35.984,49.763,12.909,75.3,21.2,83.822,4.19h46.535s8.238,16.716,8.286,16.716l25.628-8L203.677,35.84,191.73,48.365l17.2,2.842a5.347,5.347,0,0,1,4.432,5.058V84.784a5.3,5.3,0,0,1-4.625,5.2l-17.294,2.842s7.033,7.467,7.178,7.708a5.347,5.347,0,0,1-1.108,8.189l-31.746,18.306a5.444,5.444,0,0,1-4.239.434c-.289,0-23.46-7.515-23.509-7.467l-6.985,13.922a4.817,4.817,0,0,1-4.48,2.794H86.279A4.817,4.817,0,0,1,81.895,133.873Z" transform="translate(0 15.995)" fill="#fcfdfd" opacity="0.04"/>
  <path id="Path_75738" data-name="Path 75738" d="M76,61.767c-6.311,3.661-9.972,8.189-9.972,12.14s3.613,8.382,9.635,11.947a64.745,64.745,0,0,0,31.361,7.419h0a65.034,65.034,0,0,0,31.457-7.419c6.263-3.613,9.972-8.141,9.972-12.14s-3.613-8.382-9.635-11.947A64.167,64.167,0,0,0,107.5,54.4,65.082,65.082,0,0,0,76,61.767Zm5.781,71.826-6.792-13.922-23.749,7.515a5.155,5.155,0,0,1-4.047-.434L15.349,108.3a4.817,4.817,0,0,1-1.012-7.8l7.611-7.852L4.221,89.611A5.106,5.106,0,0,1,.03,84.794V55.89a4.817,4.817,0,0,1,4.191-4.817l17.824-3.035L10.195,35.416,49.552,12.871l25.58,8.238L83.659,4.2h46.295s8.286,16.716,8.382,16.764l25.676-8.093,39.165,22.786s-12,12.573-11.947,12.621l17.294,2.842a5.347,5.347,0,0,1,4.432,5.106V84.5a5.347,5.347,0,0,1-4.432,5.2L191.086,92.55l7.226,7.8a5.3,5.3,0,0,1-1.2,8.189l-31.457,18.21a5.54,5.54,0,0,1-4.287.434l-23.7-7.515-6.937,13.97a4.817,4.817,0,0,1-4.48,2.746H86.116A4.817,4.817,0,0,1,81.78,133.594Z" transform="translate(0.115 16.033)" fill="#fbfcfd" opacity="0.06"/>
  <path id="Path_75739" data-name="Path 75739" d="M75.769,61.478C69.41,65.139,65.7,69.716,65.7,73.762s3.613,8.479,9.635,12.092a64.745,64.745,0,0,0,31.457,7.371h0a65.275,65.275,0,0,0,31.554-7.371c6.311-3.709,10.068-8.238,10.068-12.284s-3.661-8.479-9.876-12.092a64.408,64.408,0,0,0-31.409-7.419,65.275,65.275,0,0,0-31.361,7.419ZM81.742,133.3,75,119.431S51.634,126.8,50.911,126.9a4.817,4.817,0,0,1-4.047-.434L15.407,108.158a4.817,4.817,0,0,1-1.108-7.8l7.708-7.9L4.231,89.37A5.106,5.106,0,0,1,.04,84.553V56.035a4.817,4.817,0,0,1,4.239-4.817l17.776-2.939-11.9-12.718,39.261-22.69L75,21.012,83.621,4.2h46.295s8.334,16.764,8.43,16.812l25.291-8.141,38.924,22.593s-12,12.67-11.947,12.718L208,51.073a5.2,5.2,0,0,1,4.625,5.155V84.216a5.3,5.3,0,0,1-4.432,5.2l-17.535,2.89s6.7,7.274,7.13,7.852a5.347,5.347,0,0,1-1.2,8.189l-31.265,18.065a5.54,5.54,0,0,1-4.287.482l-23.653-7.515L130.445,133.3a4.817,4.817,0,0,1-4.48,2.794H86.078a5.058,5.058,0,0,1-4.336-2.794Z" transform="translate(0.153 16.033)" fill="#fafbfc" opacity="0.07"/>
  <path id="Path_75740" data-name="Path 75740" d="M75.538,60.968c-6.455,3.709-10.165,8.286-10.165,12.381s3.661,8.575,9.924,12.236A64.793,64.793,0,0,0,106.8,93h0a64.793,64.793,0,0,0,31.6-7.419c6.455-3.709,10.213-8.334,10.213-12.429s-3.709-8.575-9.972-12.236A64.793,64.793,0,0,0,107.139,53.5,64.938,64.938,0,0,0,75.538,60.968Zm6.166,72.26-6.792-13.922s-23.364,7.322-24.087,7.515a5.2,5.2,0,0,1-4.047-.482l-31.264-18.4a4.817,4.817,0,0,1-1.253-7.8l7.708-7.949L4.241,89.053A5.106,5.106,0,0,1,.05,84.236V56.006a4.817,4.817,0,0,1,4.191-4.817L22.162,48.2,10.407,35.2l38.876-22.4,25.58,8.286L83.583,4.22h45.909s8.382,16.764,8.527,16.764l25.58-8.189,38.539,22.5s-12.043,12.67-12,12.766l17.535,2.89a5.347,5.347,0,0,1,4.673,5.2V83.9a5.3,5.3,0,0,1-4.432,5.2l-17.631,2.89s6.744,7.515,7.033,7.9a5.4,5.4,0,0,1-1.2,8.238l-31.024,17.92a5.54,5.54,0,0,1-4.287.482l-23.7-7.515-6.889,14.211a4.817,4.817,0,0,1-4.48,2.794H85.991A4.817,4.817,0,0,1,81.7,133.228Z" transform="translate(0.191 16.109)" fill="#f9fbfb" opacity="0.08"/>
  <path id="Path_75741" data-name="Path 75741" d="M75.259,60.968C68.8,64.726,65.046,69.4,65.046,73.541s3.661,8.671,10.02,12.381a65.131,65.131,0,0,0,31.554,7.419h0a65.179,65.179,0,0,0,31.7-7.467c6.5-3.709,10.261-8.382,10.261-12.525s-3.661-8.719-10.02-12.381A64.6,64.6,0,0,0,107,53.55a65.66,65.66,0,0,0-31.746,7.419Zm6.407,71.73-6.985-13.922-24.087,7.515a5.2,5.2,0,0,1-4.047-.482L15.62,107.793a4.817,4.817,0,0,1-1.06-7.8l7.708-8L4.2,88.812A4.817,4.817,0,0,1,.06,84V56.006a4.817,4.817,0,0,1,4.191-4.817l18.161-3.228L10.514,35.1l38.539-22.3,25.628,8.286L83.4,4.22h45.765s8.43,16.812,8.527,16.861l25.869-8.286L202.1,35.147s-12.043,12.766-12,12.862l17.631,2.89a5.4,5.4,0,0,1,4.432,5.3V83.658a5.4,5.4,0,0,1-4.432,5.2l-17.776,2.89s6.889,7.515,7.322,8a5.4,5.4,0,0,1-1.2,8.238l-30.831,17.776a5.251,5.251,0,0,1-4.239.482c-.674,0-23.7-7.515-23.8-7.467l-7.371,13.97a4.817,4.817,0,0,1-4.48,2.746h-39.5A4.817,4.817,0,0,1,81.666,132.7Z" transform="translate(0.229 16.109)" fill="#f8fafb" opacity="0.1"/>
  <path id="Path_75742" data-name="Path 75742" d="M75.028,60.143c-6.552,3.806-10.309,8.479-10.309,12.718s3.709,8.768,10.068,12.477a65.178,65.178,0,0,0,31.7,7.467h0a65.516,65.516,0,0,0,31.746-7.467c6.552-3.758,10.357-8.479,10.357-12.718s-3.709-8.768-10.116-12.477a64.986,64.986,0,0,0-31.65-7.467A65.708,65.708,0,0,0,75.028,60.143Zm6.6,71.923-6.792-13.922-24.087,7.515a5.4,5.4,0,0,1-4.047-.434L15.727,107.3a4.817,4.817,0,0,1-1.108-7.8l7.8-8.045S5.128,88.421,4.213,88.228A4.817,4.817,0,0,1,.07,83.411l.145-27.6A5.058,5.058,0,0,1,4.406,50.99L22.519,48,10.62,35.045l38.539-22.16,25.628,8.286L83.6,4.31h45.524s8.479,16.812,8.623,16.861l25.773-8.719,38.2,22.256s-12.043,12.814-12,12.91l17.728,2.939a5.251,5.251,0,0,1,4.239,5.251V83.025a5.3,5.3,0,0,1-4.432,5.2l-17.872,2.939s6.889,7.515,7.322,8.045a5.4,5.4,0,0,1-1.2,8.238l-30.59,17.631a5.251,5.251,0,0,1-4.239.482c-.771,0-23.749-7.515-24.087-7.467L129.8,132.114a4.817,4.817,0,0,1-4.48,2.794H85.915A4.817,4.817,0,0,1,81.628,132.066Z" transform="translate(0.267 16.453)" fill="#f7f9fa" opacity="0.11"/>
  <path id="Path_75743" data-name="Path 75743" d="M74.8,60.236C68.2,64.041,64.392,68.81,64.392,73.05S68.1,81.962,74.556,85.671A64.841,64.841,0,0,0,106.3,93.186h0a65.371,65.371,0,0,0,31.843-7.515c6.6-3.806,10.405-8.575,10.405-12.814s-3.709-8.912-10.165-12.621a64.841,64.841,0,0,0-31.746-7.515A65.371,65.371,0,0,0,74.8,60.236Zm6.792,71.971L74.8,118.284s-23.316,7.226-24.087,7.467a5.4,5.4,0,0,1-4.047-.434L15.833,107.542a4.817,4.817,0,0,1-1.108-8l7.852-8.093S5.283,88.369,4.223,88.176A4.817,4.817,0,0,1,.08,83.359V55.9a4.817,4.817,0,0,1,4.191-4.817l18.21-3.035L10.534,35.041,48.88,12.833l25.628,8.286L83.372,4.21h45.379s8.479,16.812,8.671,16.861l25.725-8.238,38.009,22.112s-12.14,12.91-12.043,13.007l17.824,2.939a5.347,5.347,0,0,1,4.721,5.3V83.07a5.251,5.251,0,0,1-4.817,5.3l-17.969,2.987s6.841,7.515,7.371,8.141a5.4,5.4,0,0,1-1.2,8.238l-30.4,17.535a5.4,5.4,0,0,1-4.239.434l-24.087-7.467-6.985,14.018a4.817,4.817,0,0,1-4.48,2.746H85.829A4.817,4.817,0,0,1,81.589,132.207Z" transform="translate(0.305 16.071)" fill="#f6f8fa" opacity="0.13"/>
  <path id="Path_75744" data-name="Path 75744" d="M74.441,59.947c-6.648,3.806-10.454,8.623-10.454,12.959s3.758,8.96,10.261,12.766a65.034,65.034,0,0,0,31.794,7.515h0a65.757,65.757,0,0,0,31.939-7.515c6.648-3.854,10.5-8.671,10.5-12.959S144.726,63.7,138.223,59.9a65.708,65.708,0,0,0-31.794-7.467,66.094,66.094,0,0,0-31.987,7.515Zm6.744,71.971L74.393,118s-23.268,7.226-24.087,7.467a5.155,5.155,0,0,1-4.047-.434L15.863,107.4a4.817,4.817,0,0,1-1.108-7.852L22.607,91.4S5.313,88.321,4.4,88.128A5.106,5.106,0,0,1,.206,83.311L.11,56.189a5.155,5.155,0,0,1,4.239-4.817l18.306-3.035-11.947-13.1,37.961-22.4L74.3,21.119c.241,0,8.96-16.909,8.96-16.909H128.4s8.575,16.861,8.768,16.909l25.725-8.286,37.768,21.919s-12.14,13.007-12.043,13.1l17.969,2.987a5.347,5.347,0,0,1,4.432,5.347v26.64a5.347,5.347,0,0,1-4.48,5.2l-18.065,2.987s6.792,7.563,7.419,8.238a5.4,5.4,0,0,1-1.253,8.189l-30.3,17.535a5.4,5.4,0,0,1-4.239.434c-.915-.241-23.846-7.467-24.087-7.419l-6.937,13.97a5.106,5.106,0,0,1-4.48,2.794H85.714A5.058,5.058,0,0,1,81.186,131.918Z" transform="translate(0.42 16.071)" fill="#f5f8f9" opacity="0.14"/>
  <path id="Path_75745" data-name="Path 75745" d="M74.325,59.467c-6.7,3.854-10.55,8.719-10.55,13.055s3.758,9.1,10.309,12.91a65.757,65.757,0,0,0,31.939,7.515h0a65.95,65.95,0,0,0,31.987-7.515c6.7-3.854,10.55-8.719,10.55-13.1s-3.758-9.1-10.309-12.91A65.419,65.419,0,0,0,106.36,51.9a65.757,65.757,0,0,0-32.035,7.563Zm6.937,72.26-6.792-13.97s-23.268,7.178-24.087,7.467a5.106,5.106,0,0,1-4.047-.434l-30.3-17.728a4.817,4.817,0,0,1-1.06-7.708l7.9-8.189S5.534,88.033,4.233,87.793A5.155,5.155,0,0,1,.09,82.975L.235,56a4.817,4.817,0,0,1,4.191-4.817l18.5-3.083-12-13.151L48.6,13.172l25.725,8L83.334,4.26h44.946s8.575,16.861,8.816,16.909l25.725-8.286,37.527,21.823S188.207,47.712,188.3,47.857l18.065,2.987A5.347,5.347,0,0,1,210.8,56V82.4a5.251,5.251,0,0,1-4.432,5.2l-18.21,3.035s6.792,7.515,7.419,8.286a5.347,5.347,0,0,1-1.2,8.189L164.457,124.4a5.781,5.781,0,0,1-4.287.482c-1.012-.337-24.087-7.515-24.087-7.467l-6.937,13.97a4.817,4.817,0,0,1-4.528,2.794H86.079a4.817,4.817,0,0,1-4.817-2.7Z" transform="translate(0.344 16.262)" fill="#f4f7f8" opacity="0.15"/>
  <path id="Path_75746" data-name="Path 75746" d="M74.094,58.862c-6.792,3.9-10.646,8.816-10.646,13.248s3.806,9.2,10.405,13.055A65.949,65.949,0,0,0,105.84,92.68h0a65.949,65.949,0,0,0,32.083-7.563c6.792-3.9,10.646-8.768,10.646-13.2s-3.806-9.2-10.405-13.055A65.8,65.8,0,0,0,106.178,51.3a66.479,66.479,0,0,0-32.083,7.563Zm7.081,72.26L74.431,117.2s-23.316,7.13-24.424,7.467a4.817,4.817,0,0,1-4-.482L16.142,106.843a4.817,4.817,0,0,1-1.06-7.852L23.031,90.8S5.64,87.622,4.243,87.381A5.106,5.106,0,0,1,.1,82.563L.245,55.731a4.817,4.817,0,0,1,4.191-4.817l18.595-3.035-12-13.3,37.431-21.63,25.725,8.334L83.247,4.33h44.8s8.623,16.861,8.816,16.909l25.773-8.286,37.334,21.678s-12.188,13.1-12.14,13.248l18.21,3.035a5.2,5.2,0,0,1,4.432,4.817v26.11a5.3,5.3,0,0,1-4.432,5.2l-18.306,3.035s6.744,7.563,7.467,8.382a5.4,5.4,0,0,1-1.253,8.189L164.275,123.8a5.684,5.684,0,0,1-4.239.482c-1.156-.337-24.087-7.515-24.087-7.467l-7.226,14.163a4.817,4.817,0,0,1-4.48,2.794H85.7a5.058,5.058,0,0,1-4.528-2.842Z" transform="translate(0.382 16.529)" fill="#f3f6f8" opacity="0.17"/>
  <path id="Path_75747" data-name="Path 75747" d="M73.7,58.764c-6.792,3.95-10.694,8.912-10.694,13.392s3.9,9.3,10.5,13.151a65.468,65.468,0,0,0,31.939,7.563h0a66.335,66.335,0,0,0,32.276-7.563c6.841-3.95,10.743-8.912,10.743-13.392s-3.854-9.3-10.5-13.151a65.757,65.757,0,0,0-32.035-7.66A66.672,66.672,0,0,0,73.7,58.764Zm7.322,72.26L74.231,117.1s-23.268,7.13-24.472,7.467a4.817,4.817,0,0,1-4-.482L16.134,106.7a5.106,5.106,0,0,1-1.108-7.852l8-8.238S5.632,87.427,4.283,87.138A5.106,5.106,0,0,1,.14,82.321v-26.4A4.817,4.817,0,0,1,4.283,51.1l18.691-3.083L10.931,34.629,48.169,13.144l25.773,8.093c.289,0,9.153-16.957,9.153-16.957h44.56s8.671,16.861,8.912,16.957L162.388,12.9l37.045,21.582s-12.092,13.151-12.092,13.3L205.7,50.815a5.347,5.347,0,0,1,4.384,5.106V81.791a5.347,5.347,0,0,1-4.48,5.2l-18.4,3.035s6.744,7.563,7.467,8.479a5.347,5.347,0,0,1-1.2,8.189l-29.627,17.15a5.444,5.444,0,0,1-4.239.482c-1.2-.337-24.087-7.467-24.087-7.419l-6.937,13.97a4.817,4.817,0,0,1-4.48,2.794H85.551a4.817,4.817,0,0,1-4.528-2.842Z" transform="translate(0.534 16.338)" fill="#f2f5f7" opacity="0.18"/>
  <path id="Path_75748" data-name="Path 75748" d="M73.508,58.437c-6.889,3.95-10.791,8.96-10.791,13.489s3.854,9.635,10.6,13.3a65.323,65.323,0,0,0,32.132,7.611h0a66.142,66.142,0,0,0,32.228-7.611c6.889-3.95,10.791-8.96,10.791-13.489s-3.854-9.394-10.55-13.344a66,66,0,0,0-32.132-7.322,66.335,66.335,0,0,0-32.276,7.371Zm7.515,72.26-6.792-13.97s-23.268,7.081-24.568,7.467a4.817,4.817,0,0,1-4-.482L16.278,106.658a4.817,4.817,0,0,1-1.108-7.852l8.045-8.286L4.283,86.859A4.817,4.817,0,0,1,.14,82.042L.188,55.884a4.817,4.817,0,0,1,4.095-4.817l18.788-3.083L11.027,34.543,48.121,12.961l25.773,8.286c.241,0,9.153-16.957,9.153-16.957h44.416s8.671,16.909,8.96,16.957l25.821-8.286,36.8,21.389S186.812,47.6,186.908,47.742l18.45,3.035a5.4,5.4,0,0,1,4.432,5.3v25.58a5.3,5.3,0,0,1-4.432,5.2l-18.547,3.035s6.7,7.611,7.515,8.575a5.4,5.4,0,0,1-1.252,8.189l-29.386,16.668a5.251,5.251,0,0,1-4.239.482c-1.3-.385-24.087-7.467-24.328-7.419l-6.985,14.018a4.817,4.817,0,0,1-4.48,2.746H85.5a4.817,4.817,0,0,1-4.48-2.6Z" transform="translate(0.534 16.376)" fill="#f1f5f7" opacity="0.19"/>
  <path id="Path_75749" data-name="Path 75749" d="M73.277,58.11c-6.937,4-10.887,9.057-10.887,13.633s3.854,9.635,10.646,13.44a66.383,66.383,0,0,0,32.373,7.611h0a66.913,66.913,0,0,0,32.324-7.611c6.937-4,10.887-9.057,10.887-13.681s-3.854-9.635-10.646-13.44a66.383,66.383,0,0,0-32.565-7.611,66.527,66.527,0,0,0-32.132,7.66Zm7.66,72.26L74.145,116.4s-23.22,6.889-24.617,7.322a5.251,5.251,0,0,1-4-.434L16.385,106.331a4.817,4.817,0,0,1-1.108-7.852l8.238-8.334S6.076,86.917,4.245,86.532A4.817,4.817,0,0,1,.15,81.715L.2,55.845a4.817,4.817,0,0,1,4.047-4.817L23.514,47.7,11.471,34.167l36.756-21.2L74,21.305c.289,0,9.249-17.005,9.249-17.005h44.175s8.768,16.909,9.057,16.957l25.58-8.286,36.612,21.244S186.388,47.56,186.485,47.7l18.547,3.083a5.251,5.251,0,0,1,4.432,5.058V81.185a5.3,5.3,0,0,1-4.432,5.2L186.2,89.567s6.744,7.563,7.611,8.623a5.444,5.444,0,0,1-1.253,8.189l-28.9,16.716a5.2,5.2,0,0,1-4.239.482c-1.4-.385-24.087-7.467-24.424-7.419l-6.937,14.018a5.106,5.106,0,0,1-4.48,2.794H85.465a5.058,5.058,0,0,1-4.528-2.746Z" transform="translate(0.573 16.415)" fill="#f0f4f6" opacity="0.21"/>
  <path id="Path_75750" data-name="Path 75750" d="M73.074,57.582c-6.985,4.047-10.935,9.153-10.935,13.826s3.9,9.635,10.743,13.537a66.046,66.046,0,0,0,32.276,7.66h0a66.913,66.913,0,0,0,32.421-7.66c6.985-4.047,10.935-9.153,10.935-13.778s-3.854-9.635-10.743-13.585a65.853,65.853,0,0,0-32.324-7.611,66.961,66.961,0,0,0-32.372,7.611Zm7.9,72.26-6.792-13.97c-.289,0-23.22,6.985-24.713,7.419a5.251,5.251,0,0,1-4-.434l-28.9-16.812a4.817,4.817,0,0,1-1.06-7.852l8.045-8.43S6.065,86.486,4.283,86.1A5.058,5.058,0,0,1,.14,81.283l.1-25.628a4.817,4.817,0,0,1,4.047-4.817l19.269-3.131L11.509,34.121l36.515-21.1L73.8,21.355c.337,0,9.3-17.005,9.3-17.005h44.03s8.768,16.909,9.1,17.005l25.821-8.334,36.371,21.148s-12.284,13.344-12.188,13.537l18.643,3.083a5.347,5.347,0,0,1,4.48,5.3v25.05a5.4,5.4,0,0,1-4.48,5.2l-18.788,3.083s6.7,7.611,7.611,8.719a5.3,5.3,0,0,1-1.542,7.949l-28.9,16.668a5.3,5.3,0,0,1-4.191.434c-1.542-.434-24.087-7.467-24.52-7.419l-6.985,14.018a4.817,4.817,0,0,1-4.48,2.794H85.455a4.817,4.817,0,0,1-4.48-2.794Z" transform="translate(0.535 16.605)" fill="#eff3f5" opacity="0.22"/>
  <path id="Path_75751" data-name="Path 75751" d="M72.882,57.407C65.849,61.5,61.85,66.656,61.85,71.329s3.9,9.635,10.839,13.729a66.768,66.768,0,0,0,32.324,7.66h0a67.443,67.443,0,0,0,32.517-7.66c7.033-4.095,11.032-9.249,11.032-13.97s-3.9-9.635-10.839-13.681a66.238,66.238,0,0,0-32.276-7.66A67.443,67.443,0,0,0,72.882,57.407Zm8.045,72.26L74.134,115.7c-.289,0-23.171,6.985-24.761,7.419a5.251,5.251,0,0,1-4-.434l-28.9-16.716a4.817,4.817,0,0,1-1.06-7.8l8.141-8.671S6.066,86.166,4.283,85.781A4.817,4.817,0,0,1,.14,80.964L.285,55.769a4.817,4.817,0,0,1,4-4.817l19.269-3.131L11.461,34.139,47.639,12.991l26.014,8.334C73.942,21.325,83,4.32,83,4.32h43.79s8.864,16.909,9.153,17.005l25.869-8.334,36.13,21s-12.332,13.44-12.188,13.633l18.788,3.131a5.347,5.347,0,0,1,4.432,5.251V80.819a5.3,5.3,0,0,1-4.432,5.2l-18.932,3.083s6.552,7.66,7.515,8.816a5.347,5.347,0,0,1-1.253,8.141l-28.615,16.523a5.54,5.54,0,0,1-4.191.482c-1.59-.482-24.328-7.515-24.568-7.419l-6.985,14.018a5.106,5.106,0,0,1-4.48,2.794H85.455a5.058,5.058,0,0,1-4.528-2.842Z" transform="translate(0.534 16.491)" fill="#eef2f5" opacity="0.24"/>
  <path id="Path_75752" data-name="Path 75752" d="M72.689,57.118c-7.13,4.095-11.128,9.3-11.128,14.067s3.95,9.635,10.887,13.826a66.431,66.431,0,0,0,32.469,7.66h0a66.961,66.961,0,0,0,32.565-7.66c7.13-4.095,11.128-9.3,11.08-14.067s-3.9-9.635-10.887-13.826a66.094,66.094,0,0,0-32.228-7.708,66.961,66.961,0,0,0-32.758,7.708Zm8.238,72.26-6.792-13.97c-.289,0-23.22,6.985-24.857,7.467a4.817,4.817,0,0,1-4-.482l-28.47-16.62a4.817,4.817,0,0,1-1.108-7.8l8.238-8.479S6.4,86.166,4.283,85.733A4.817,4.817,0,0,1,.14,80.916V55.865a4.817,4.817,0,0,1,4.191-4.817L23.6,47.869,11.461,34.139,47.639,13.088,73.46,21.422c.337,0,9.635-17.1,9.635-17.1h43.6s8.864,16.909,9.2,17.005l25.869-8.334L197.7,33.9S185.318,47.387,185.463,47.58l18.884,3.131a5.347,5.347,0,0,1,4.432,5.251V80.53a5.3,5.3,0,0,1-4.432,5.2l-19.028,3.131s6.648,7.611,7.66,8.864a5.3,5.3,0,0,1-1.253,8.141L163.255,122.3a5.636,5.636,0,0,1-4.239.482c-1.686-.482-24.376-7.467-24.665-7.419l-6.985,14.018a4.817,4.817,0,0,1-4.48,2.794H85.455a4.817,4.817,0,0,1-4.528-2.842Z" transform="translate(0.534 16.491)" fill="#edf2f4" opacity="0.25"/>
  <path id="Path_75753" data-name="Path 75753" d="M72.42,56.791C65.242,60.934,61.2,66.425,61.2,70.954s3.95,9.924,10.984,14.018a67.154,67.154,0,0,0,32.517,7.66h0a66.816,66.816,0,0,0,32.662-7.708c7.178-4.143,11.369-9.346,11.369-14.163s-3.95-9.924-10.984-14.018a66.431,66.431,0,0,0-32.469-7.66A66.672,66.672,0,0,0,72.42,56.791Zm8.43,72.26-6.841-13.97c-.289,0-23.171,6.889-24.906,7.419a4.817,4.817,0,0,1-4-.482L16.876,105.59a4.817,4.817,0,0,1-1.108-7.8l8.286-8.334S6.471,86.08,4.3,85.647A4.817,4.817,0,0,1,.16,80.829L.3,55.731A4.817,4.817,0,0,1,4.5,50.914l19.269-3.179c0-.241-12.14-13.826-12.14-13.826L47.563,13.1l25.821,8.334c.385,0,9.635-17.1,9.635-17.1h43.356s8.912,17.005,9.3,17.1L161.589,13.1l35.648,20.715S184.857,47.4,185,47.59l18.98,3.179a5.2,5.2,0,0,1,4.432,5.251V80.107a5.347,5.347,0,0,1-4.48,5.2l-19.269,3.179s6.6,7.66,7.708,8.96a5.347,5.347,0,0,1-1.253,8.141l-27.941,16.379a5.636,5.636,0,0,1-4.239.482c-1.782-.53-24.424-7.467-24.713-7.419L127.241,129.1a4.817,4.817,0,0,1-4.48,2.746H85.331a4.817,4.817,0,0,1-4.48-2.794Z" transform="translate(0.611 16.529)" fill="#ecf1f4" opacity="0.26"/>
  <path id="Path_75754" data-name="Path 75754" d="M72.141,56.415c-7.226,4.191-11.273,9.635-11.273,14.452s4,10.02,11.08,14.115a66.672,66.672,0,0,0,32.565,7.708h0a67.876,67.876,0,0,0,32.758-7.708c7.226-4.191,11.273-9.635,11.273-14.452s-4-10.02-11.08-14.115A66.672,66.672,0,0,0,104.9,48.708a67.876,67.876,0,0,0-32.758,7.708Zm8.623,72.26-6.792-13.97c-.337,0-23.171,6.889-25,7.419a4.817,4.817,0,0,1-4-.482L16.983,105.408a4.817,4.817,0,0,1-1.108-7.8l8.286-8.575s-17.583-3.372-19.9-3.854A4.817,4.817,0,0,1,.17,80.358L.315,55.693a4.817,4.817,0,0,1,4.191-4.817l19.269-3.228c0-.241-12.14-13.922-12.14-13.922L47.525,13.108l25.869,8.334c.385,0,9.635-17.1,9.635-17.1h43.356s8.96,17.005,9.346,17.1l25.917-8.334,35.215,20.57s-12.381,13.681-12.236,13.874L203.9,50.731a5.347,5.347,0,0,1,4.432,5.251V80.068a5.251,5.251,0,0,1-4.432,5.2l-19.269,3.179s6.6,7.66,7.756,9.057a5.347,5.347,0,0,1-1.3,8.141l-27.892,16.09a5.54,5.54,0,0,1-4.191.482c-1.879-.53-24.52-7.467-24.857-7.371l-6.985,14.018a4.817,4.817,0,0,1-4.48,2.794H85.293a5.058,5.058,0,0,1-4.528-2.939Z" transform="translate(0.649 16.567)" fill="#ebf0f3" opacity="0.28"/>
  <path id="Path_75755" data-name="Path 75755" d="M72.025,56.088c-7.274,4.239-11.369,9.635-11.369,14.452s4,10.068,11.128,14.211a66.865,66.865,0,0,0,32.71,7.756h0A67.443,67.443,0,0,0,137.3,84.751c7.274-4.191,11.321-9.635,11.321-14.452s-4-10.116-11.128-14.452a66.575,66.575,0,0,0-32.662-7.756,67.443,67.443,0,0,0-32.806,8Zm8.816,72.26L74,114.426c-.337,0-23.123,6.889-25.05,7.419a4.817,4.817,0,0,1-4-.482l-27.8-16.138a4.817,4.817,0,0,1-1.06-7.8L24.43,88.8S6.8,85.378,4.245,84.9A4.817,4.817,0,0,1,.15,80.078V55.992a4.817,4.817,0,0,1,4.191-4.817l19.607-3.228c0-.241-12.14-13.97-12.14-13.97L47.6,13.118,73.47,21.5c.385,0,9.635-17.15,9.635-17.15h43.019s9.008,17.005,9.635,17.1l25.917-8.334L196.89,33.591s-12.429,13.681-12.284,13.922l19.269,3.179a5.4,5.4,0,0,1,4.432,5.3v23.7a5.251,5.251,0,0,1-4.432,5.2l-19.269,3.179s6.552,7.66,7.756,9.153a5.347,5.347,0,0,1-1.253,8.141l-27.7,15.945a5.106,5.106,0,0,1-4.191.482c-1.975-.578-24.568-7.467-24.906-7.371l-7.708,14.018a4.817,4.817,0,0,1-4.48,2.794h-36.8a4.817,4.817,0,0,1-4.48-2.794Z" transform="translate(0.573 16.605)" fill="#eaf0f2" opacity="0.29"/>
  <path id="Path_75756" data-name="Path 75756" d="M71.726,55.616c-7.371,4.239-11.465,9.635-11.417,14.452s4,10.213,11.176,14.452a67.058,67.058,0,0,0,32.758,7.756h0a67.924,67.924,0,0,0,32.9-7.756c7.322-4.239,11.417-9.635,11.417-14.452s-4-10.213-11.224-14.452a67.009,67.009,0,0,0-32.71-7.756,67.78,67.78,0,0,0-32.9,7.756Zm8.96,72.26-6.792-14.018c-.385,0-23.123,6.841-25.146,7.419a5.251,5.251,0,0,1-4-.434l-27.411-15.8a4.817,4.817,0,0,1-1.06-7.8l8.382-8.671S7.029,85.147,4.283,84.52A4.817,4.817,0,0,1,.14,79.7V55.616A4.817,4.817,0,0,1,4.331,50.8l19.7-3.276c0-.241-12.14-14.067-12.14-14.067L47.35,13.128,73.219,21.51c.434,0,9.635-17.15,9.635-17.15H125.68s9.008,17.005,9.635,17.15l25.965-8.382,34.974,20.329S183.777,47.234,183.97,47.475L203.239,50.7a5.251,5.251,0,0,1,4.432,5.251v23.46A5.347,5.347,0,0,1,203,84.52l-19.269,3.228s6.5,7.66,7.8,9.2a5.3,5.3,0,0,1-1.3,8.093l-27.459,15.849a5.106,5.106,0,0,1-4.191.482c-2.071-.578-24.617-7.419-24.954-7.371l-6.985,14.067a5.106,5.106,0,0,1-4.528,2.794H85.359a5.058,5.058,0,0,1-4.528-2.746Z" transform="translate(0.534 16.644)" fill="#e9eff2" opacity="0.31"/>
  <path id="Path_75757" data-name="Path 75757" d="M71.535,55.578c-7.419,4.287-11.513,9.635-11.465,14.741s4,10.309,11.273,14.452a67.443,67.443,0,0,0,32.806,7.8h0a67.78,67.78,0,0,0,32.9-8.093c7.371-4.095,11.562-9.635,11.562-14.452s-4-10.309-11.273-14.452a67.443,67.443,0,0,0-32.806-7.756,67.924,67.924,0,0,0-33,7.756Zm9.2,72.26L73.944,113.82c-.385,0-23.171,6.792-25.291,7.371a5.155,5.155,0,0,1-3.95-.434l-27.314-15.9a4.817,4.817,0,0,1-1.108-7.8l8.382-8.719S6.983,84.868,4.333,84.482A4.817,4.817,0,0,1,.19,79.665L.335,55.578a4.817,4.817,0,0,1,4.191-4.817l19.847-3.276c0-.241-12.236-14.115-12.236-14.115L47.063,13.186,72.932,21.52c.482,0,9.635-17.15,9.635-17.15H125.2s9.1,17.053,9.635,17.15L160.8,13.138,195.533,33.37S183.056,47.2,183.249,47.437l19.269,3.228a5.347,5.347,0,0,1,4.48,5.3V79.135a5.3,5.3,0,0,1-4.432,5.347L182.96,87.71s6.5,7.66,7.852,9.3a5.347,5.347,0,0,1-1.3,8.093l-27.266,15.753a5.492,5.492,0,0,1-4.191.482c-2.168-.626-24.665-7.467-25.05-7.419l-6.985,13.922a4.817,4.817,0,0,1-4.48,2.794H85.168a4.817,4.817,0,0,1-4.528-2.794Z" transform="translate(0.725 16.682)" fill="#e8eef1" opacity="0.32"/>
  <path id="Path_75758" data-name="Path 75758" d="M71.207,54.916C63.741,59.2,59.6,64.55,59.646,69.8s4.047,10.357,11.321,14.452a67.78,67.78,0,0,0,32.9,7.756h0a67.442,67.442,0,0,0,33.047-7.756c7.515-4.287,11.61-9.635,11.61-14.886s-4.047-10.405-11.369-14.452a67.443,67.443,0,0,0-32.854-7.8A67.443,67.443,0,0,0,71.207,54.916Zm9.635,72.26-7.081-14.018c-.385,0-23.123,6.744-25.339,7.419a5.4,5.4,0,0,1-3.95-.482L17.4,104.486a4.817,4.817,0,0,1-1.108-7.8l8.479-8.768c0-.241-17.68-3.517-20.474-4.047A5.058,5.058,0,0,1,.2,79.051l.145-23.7a4.817,4.817,0,0,1,4.191-4.817l19.944-3.276c0-.289-12.236-14.452-12.236-14.452L46.928,13l25.917,8.623c.434,0,9.635-17.2,9.635-17.2h42.441s9.1,17.053,9.635,17.15l26.014-8.334,34.492,20.04s-12.525,13.922-12.332,14.163l19.558,3.276a5.347,5.347,0,0,1,4.432,5.251V78.906a5.3,5.3,0,0,1-4.432,5.2l-19.7,3.228s6.455,7.708,7.852,9.394a5.3,5.3,0,0,1-1.3,8.093l-27.073,15.367a5.492,5.492,0,0,1-4.191.482c-2.216-.674-24.713-7.515-25.1-7.515l-6.985,14.452a5.058,5.058,0,0,1-4.528,2.746H85.081a4.817,4.817,0,0,1-4.48-3.035Z" transform="translate(0.764 16.911)" fill="#e7edf1" opacity="0.33"/>
  <path id="Path_75759" data-name="Path 75759" d="M70.977,54.578c-7.563,4.336-11.706,9.876-11.658,15.03S63.365,80.11,70.736,84.4a67.443,67.443,0,0,0,33,7.8h0a68.166,68.166,0,0,0,33.1-7.949c7.563-4.191,11.706-9.635,11.706-14.886s-4.047-10.5-11.417-14.789a67.443,67.443,0,0,0-32.951-7.8A68.214,68.214,0,0,0,70.977,54.578Zm9.635,72.26-6.889-13.681c-.434,0-23.123,6.744-25.436,7.419a4.817,4.817,0,0,1-3.95-.482L17.5,104.341a4.817,4.817,0,0,1-1.108-7.8l8.527-8.816S7.2,84.253,4.3,83.627A5.058,5.058,0,0,1,.21,78.81l.145-23.46a4.817,4.817,0,0,1,4.191-4.817l20.04-3.324c0-.289-12.236-14.452-12.236-14.452l34.444-19.7,25.917,8.575c.482,0,9.635-17.2,9.635-17.2h42.2s9.538,16.861,9.924,17.2l26.014-8.382,34.251,19.9S182.209,47.16,182.353,47.593l19.7,3.228a5.347,5.347,0,0,1,4.287,4.914v22.69a5.3,5.3,0,0,1-4.432,5.2L182.257,86.9s6.455,7.66,7.9,9.635a5.347,5.347,0,0,1-1.3,8.093L161.928,119.9a5.54,5.54,0,0,1-4.191.482c-2.361-.674-24.809-7.467-25.243-7.371l-6.985,14.067a4.817,4.817,0,0,1-4.48,2.794H85.043a5.058,5.058,0,0,1-4.528-2.842Z" transform="translate(0.802 16.911)" fill="#e6edf0" opacity="0.35"/>
  <path id="Path_75760" data-name="Path 75760" d="M70.7,54.289c-7.563,4.384-11.706,9.972-11.706,15.175s4.095,10.6,11.513,14.886A67.443,67.443,0,0,0,103.552,92.2h0a68.021,68.021,0,0,0,33.191-7.949c7.611-4.287,11.754-9.635,11.754-15.078s-4.095-10.6-11.513-14.886a67.443,67.443,0,0,0-33.047-7.852A68.358,68.358,0,0,0,70.7,54.289Zm9.635,72.5-6.841-14.018c-.434,0-23.075,6.7-25.484,7.371a4.817,4.817,0,0,1-3.95-.482L17.563,104.2a4.817,4.817,0,0,1-1.06-7.8l8.575-8.864c0-.241-17.776-3.565-20.763-4.143A4.817,4.817,0,0,1,.22,78.569l.1-23.22a5.106,5.106,0,0,1,4.191-4.817l20.185-3.324c0-.289-12.236-14.452-12.236-14.452L46.659,13l25.917,8.623c.53,0,9.924-17.2,9.924-17.2h41.911s9.2,17.053,9.635,17.2l26.014-8.382,34.01,19.8S181.5,47.063,181.689,47.5l19.8,3.276a5.2,5.2,0,0,1,4.817,5.01v22.4a5.347,5.347,0,0,1-4.817,5.2l-19.944,3.276s6.407,7.708,7.9,9.635a5.4,5.4,0,0,1-1.3,8.141L161.6,119.757a5.54,5.54,0,0,1-4.191.482c-2.457-.674-24.857-7.467-25.291-7.371l-6.985,14.067a4.817,4.817,0,0,1-4.48,2.794h-35.7a4.817,4.817,0,0,1-4.48-2.939Z" transform="translate(0.84 16.911)" fill="#e5ecef" opacity="0.36"/>
  <path id="Path_75761" data-name="Path 75761" d="M70.467,54.039c-7.66,4.384-11.8,10.02-11.8,15.271s4.095,10.743,11.562,15.078a67.684,67.684,0,0,0,33.143,7.852h0a68.262,68.262,0,0,0,33.288-7.949c7.66-4.336,11.8-9.972,11.8-15.223s-4.143-10.694-11.61-15.03a67.443,67.443,0,0,0-33.1-7.9,68.6,68.6,0,0,0-33.288,7.9Zm9.924,72.5L73.6,112.521c-.482,0-23.075,6.648-25.58,7.371a4.817,4.817,0,0,1-3.95-.482l-26.4-15.319a4.817,4.817,0,0,1-1.06-7.8l8.575-8.912c0-.241-17.776-3.565-20.859-4.191A4.817,4.817,0,0,1,.23,78.366l.1-22.979A4.817,4.817,0,0,1,4.518,50.57L24.8,47.2c0-.289-12.284-14.452-12.284-14.452L46.477,13.188,72.49,21.666c.53,0,9.972-17.246,9.972-17.246h41.911s9.153,17.246,9.635,17.246l26.062-8.382,33.721,19.655s-12.621,14.115-12.429,14.452L201.45,50.57a5.347,5.347,0,0,1,4.432,5.251v22.16a5.3,5.3,0,0,1-4.432,5.2l-20.04,3.276s6.407,7.708,7.949,9.635a5.347,5.347,0,0,1-1.3,8.093L161.707,119.41a5.3,5.3,0,0,1-4.191.482c-2.505-.723-24.906-7.419-25.339-7.322l-7.033,14.067a4.817,4.817,0,0,1-4.48,2.794H84.919A5.058,5.058,0,0,1,80.391,126.539Z" transform="translate(0.878 16.873)" fill="#e4ebef" opacity="0.38"/>
  <path id="Path_75762" data-name="Path 75762" d="M70.274,53.749c-7.708,4.432-11.9,10.116-11.9,15.415S62.518,79.956,70.033,84.34a68.117,68.117,0,0,0,33.24,7.9h0a68.213,68.213,0,0,0,33.336-7.949c7.708-4.432,11.9-10.116,11.9-15.415s-4.143-10.839-11.658-15.223a68.021,68.021,0,0,0-33.191-7.9,68.262,68.262,0,0,0-33.384,8ZM80.39,126.3,73.55,112.232c-.434,0-23.027,6.648-25.628,7.371a4.817,4.817,0,0,1-3.95-.482L17.813,103.946a4.817,4.817,0,0,1-1.108-7.8l8.671-8.96c0-.241-17.776-3.613-21.052-4.239A5.106,5.106,0,0,1,.23,78.125L.375,55.387A4.817,4.817,0,0,1,4.566,50.57L24.943,47.2c0-.289-12.284-14.452-12.284-14.452L46.38,13.477l26.014,8.189c.53,0,10.02-17.246,10.02-17.246h41.67s9.3,17.246,9.924,17.246l26.062-8.382,33.721,19.51s-12.621,14.163-12.429,14.452l20.04,3.276a5.4,5.4,0,0,1,4.432,5.3V77.692a5.3,5.3,0,0,1-4.432,5.2L181.265,86.17c0,.241,6.359,7.756,8,9.635a5.347,5.347,0,0,1-1.349,8.093L161.8,118.976a5.106,5.106,0,0,1-4.191.482c-2.6-.723-24.954-7.419-25.436-7.322L125.192,126.2a4.817,4.817,0,0,1-4.48,2.794H84.919A4.817,4.817,0,0,1,80.39,126.3Z" transform="translate(0.878 16.873)" fill="#e3eaee" opacity="0.39"/>
  <path id="Path_75763" data-name="Path 75763" d="M70,53.412c-7.756,4.48-11.947,10.213-11.947,15.608S62.191,79.908,69.8,84.34a68.31,68.31,0,0,0,33.288,7.9h0a69.129,69.129,0,0,0,33.432-7.949c7.756-4.48,12-10.213,12-15.608S144.327,57.8,136.763,53.364a68.31,68.31,0,0,0-33.288-7.611A68.936,68.936,0,0,0,70,53.412Zm10.357,72.6-6.841-14.067c-.482,0-23.075,6.648-25.725,7.371a5.106,5.106,0,0,1-3.95-.434L17.92,103.8a4.817,4.817,0,0,1-1.108-7.852l8.719-8.96S7.707,83.376,4.335,82.7A5.106,5.106,0,0,1,.24,77.884V55.725a4.817,4.817,0,0,1,4.191-4.817L24.9,47.487c.241-.337-12.284-14.452-12.284-14.452L46.342,13.766l25.917,7.9c.578,0,10.116-17.246,10.116-17.246H123.8s9.346,17.246,10.165,17.246l26.062-8.382,33.336,19.269s-12.621,14.452-12.429,14.452l20.136,3.324a5.251,5.251,0,0,1,4.432,5.251V77.162a5.347,5.347,0,0,1-4.432,5.2l-20.281,3.372s6.311,7.708,8,9.635a5.347,5.347,0,0,1-1.831,8.479l-25.917,14.934a5.2,5.2,0,0,1-4.143.53c-2.746-.771-25.05-7.467-25.532-7.371l-7.033,14.115a4.817,4.817,0,0,1-4.48,2.746H84.833a4.817,4.817,0,0,1-4.48-2.794Z" transform="translate(0.916 16.873)" fill="#e2eaee" opacity="0.4"/>
  <path id="Path_75764" data-name="Path 75764" d="M69.764,53.161c-7.8,4.528-12.043,10.309-12.043,15.7S61.912,79.9,69.523,84.33a68.84,68.84,0,0,0,33.384,7.949h0a68.84,68.84,0,0,0,33.721-7.949c7.8-4.528,12.092-10.309,12.043-15.7s-4.143-11.032-11.8-15.464a68.117,68.117,0,0,0-33.336-7.949,69.177,69.177,0,0,0-33.77,7.949Zm10.5,72.6L73.425,111.74c-.482,0-23.027,6.552-25.773,7.371a5.347,5.347,0,0,1-3.95-.482L18.026,103.6a4.817,4.817,0,0,1-1.108-7.852l8.719-9.008c0-.289-17.824-3.661-21.293-4.336A5.106,5.106,0,0,1,.25,77.585l.145-22.16a4.817,4.817,0,0,1,4.191-4.817L25.2,47.188c0-.337-12.332-14.452-12.332-14.452l33.24-19.269L72.173,21.7c.578,0,10.165-17.294,10.165-17.294h41.236S132.968,21.7,133.546,21.7l26.11-8.382,33.1,19.269s-12.718,14.452-12.477,14.693l20.281,3.324a5.347,5.347,0,0,1,4.432,5.3V77.2a5.251,5.251,0,0,1-4.432,5.2l-20.377,3.372c0,.241,6.311,7.756,8.045,9.635a5.347,5.347,0,0,1-1.3,8.189l-25.676,14.837a5.4,5.4,0,0,1-4.143.482c-2.842-.819-25.1-7.467-25.628-7.371L124.3,125.807a5.106,5.106,0,0,1-4.48,2.794H84.794a5.058,5.058,0,0,1-4.528-2.842Z" transform="translate(0.955 16.834)" fill="#e1e9ed" opacity="0.42"/>
  <path id="Path_75765" data-name="Path 75765" d="M69.381,52.872c-7.9,4.528-12.14,10.357-12.14,15.849S61.48,79.849,69.14,84.33a68.117,68.117,0,0,0,33.721,7.949h0a68.117,68.117,0,0,0,33.721-7.949c7.515-4.576,11.61-10.405,11.61-15.9S144,57.3,136.294,52.872a68.069,68.069,0,0,0-33.432-7.949,68.84,68.84,0,0,0-33.48,7.949Zm10.694,72.645-6.841-14.067c-.53,0-23.027,6.552-25.869,7.371a5.347,5.347,0,0,1-3.95-.482L18.124,103.6a4.817,4.817,0,0,1-1.06-7.852l8.768-9.057c0-.289-17.872-3.661-21.437-4.384A4.817,4.817,0,0,1,.3,77.489V55.859A5.106,5.106,0,0,1,4.54,51.042l20.715-3.42c0-.337-12.332-14.741-12.332-14.741l33-19.269L71.886,21.7C72.464,21.7,82.1,4.41,82.1,4.41H123.19S132.584,21.7,133.162,21.7l26.158-8.43,32.854,19.269S179.457,47,179.7,47.284l20.377,3.372a5.347,5.347,0,0,1,4.432,5.251V76.959a5.3,5.3,0,0,1-4.432,5.2L179.6,85.534s6.263,7.756,8.045,9.924A5.347,5.347,0,0,1,186.2,103.6l-25.484,14.693a5.4,5.4,0,0,1-4.143.482c-2.89-.819-25.146-7.419-25.676-7.322l-6.792,14.115a4.817,4.817,0,0,1-4.48,2.746H84.555A4.817,4.817,0,0,1,80.075,125.518Z" transform="translate(1.145 16.834)" fill="#e0e8ec" opacity="0.43"/>
  <path id="Path_75766" data-name="Path 75766" d="M69.255,52.431c-7.9,4.576-12.188,10.454-12.188,15.994s4.239,11.176,12,15.7a68.84,68.84,0,0,0,33.721,7.949h0A69.177,69.177,0,0,0,136.5,84.129c7.708-4.769,11.8-10.454,11.8-15.994s-4.191-11.224-11.947-15.753a68.84,68.84,0,0,0-33.721-7.949,69.37,69.37,0,0,0-33.384,8Zm10.887,72.645L73.3,111.009c-.53,0-22.979,6.552-25.917,7.371a5.155,5.155,0,0,1-3.95-.482L18.239,103.446a4.817,4.817,0,0,1-1.06-7.852l8.768-9.3c0-.289-17.92-3.709-21.63-4.432A4.817,4.817,0,0,1,.27,77.047V55.658a4.817,4.817,0,0,1,4.191-4.817L25.32,47.372c0-.337-12.381-14.837-12.381-14.837l32.9-19.173L71.9,21.792c.626,0,10.309-17.342,10.309-17.342h40.851s9.635,17.2,10.068,17.342l26.158-8.43L191.9,32.342S179.186,46.794,179.427,47.18L199.9,50.552a5.347,5.347,0,0,1,4.432,5.251V76.614a5.347,5.347,0,0,1-4.432,5.2l-20.618,3.42c0,.241,6.263,7.756,8.093,9.972a5.347,5.347,0,0,1-1.445,8.238L160.736,117.9a5.54,5.54,0,0,1-4.191.482c-2.987-.867-25.195-7.419-25.725-7.322l-7.033,14.067a5.106,5.106,0,0,1-4.48,2.794H84.67A5.058,5.058,0,0,1,80.142,125.076Z" transform="translate(1.031 16.987)" fill="#dfe7ec" opacity="0.44"/>
  <path id="Path_75767" data-name="Path 75767" d="M69.1,51.864C61.1,56.682,56.816,62.414,56.816,68S61.055,79.13,68.859,83.948a68.84,68.84,0,0,0,33.721,8h0a69.418,69.418,0,0,0,33.721-8c7.949-4.817,12.043-10.6,12.043-16.234S144.106,56.393,136.3,51.864a68.647,68.647,0,0,0-33.721-8,69.755,69.755,0,0,0-33.48,8Zm11.08,72.742L73.339,110.54c-.53,0-22.979,6.455-26.014,7.322a4.817,4.817,0,0,1-3.95-.482l-25.1-14.5a5.058,5.058,0,0,1-1.108-7.852l8.912-9.153c0-.289-17.969-3.709-21.774-4.48A4.817,4.817,0,0,1,.26,76.577V55.429a4.817,4.817,0,0,1,4.191-4.817l20.955-3.42c.241-.385-12.381-14.934-12.381-14.934L45.591,13.47,71.653,21.9C72.328,21.9,82.01,4.51,82.01,4.51h40.706s9.635,17.2,10.116,17.342l26.158-8.382L191.7,32.065s-12.766,14.452-12.525,14.886l20.57,3.42a5.2,5.2,0,0,1,4.432,5.251V76.144a5.3,5.3,0,0,1-4.432,5.2l-20.715,3.42s6.214,7.756,8.141,10.068a5.3,5.3,0,0,1-1.349,8.045l-25,14.452a5.492,5.492,0,0,1-4.191.482c-3.083-.867-25.243-7.419-25.821-7.322l-6.985,14.115A4.817,4.817,0,0,1,119.3,127.4H84.708a4.817,4.817,0,0,1-4.528-2.794Z" transform="translate(0.992 17.216)" fill="#dee7eb" opacity="0.46"/>
  <path id="Path_75768" data-name="Path 75768" d="M68.831,51.728c-8.045,4.817-12.381,10.6-12.381,16.283S60.738,79.283,68.59,84.1a68.936,68.936,0,0,0,33.721,8h0a69.8,69.8,0,0,0,33.721-8c8.045-4.817,12.381-10.646,12.381-16.283s-4.287-11.417-12.14-15.994a69.032,69.032,0,0,0-33.721-8,69.8,69.8,0,0,0-33.721,7.9ZM80.1,124.47,73.263,110.4c-.578,0-22.979,6.455-26.158,7.322a4.817,4.817,0,0,1-3.9-.482L18.441,102.792a4.817,4.817,0,0,1-1.108-7.8l8.912-9.2c0-.289-17.92-3.758-21.871-4.528A5.106,5.106,0,0,1,.28,76.441V55.582a4.817,4.817,0,0,1,4.191-4.817L25.523,47.3c.434-.578-12.14-15.223-12.14-15.223L45.611,13.43l26.11,8.43c.626,0,10.405-17.391,10.405-17.391h40.466s9.635,17.2,10.213,17.391l26.158-8.43,32.18,18.691S178.329,46.573,178.618,47.1l20.715,3.42a5.347,5.347,0,0,1,4.432,5.251V76.056a5.3,5.3,0,0,1-4.432,5.2l-20.811,3.42c0,.241,6.214,7.8,8.141,10.165a5.3,5.3,0,0,1-1.349,8.045L160.553,117.34a5.2,5.2,0,0,1-4.143.482c-3.228-.867-25.387-7.419-25.917-7.274l-7.033,14.115a4.817,4.817,0,0,1-4.48,2.746h-34.4A4.817,4.817,0,0,1,80.1,124.47Z" transform="translate(1.069 17.063)" fill="#dde6eb" opacity="0.47"/>
  <path id="Path_75769" data-name="Path 75769" d="M68.552,51.4C60.459,56.218,56.123,62.1,56.123,67.78s4.287,11.465,12.236,16.283a68.791,68.791,0,0,0,33.721,8.045h0A69.611,69.611,0,0,0,135.8,84.062c8.093-4.817,12.477-10.694,12.429-16.427s-4.287-11.513-12.188-16.09A68.936,68.936,0,0,0,102.321,43.5a69.8,69.8,0,0,0-33.77,7.9Zm11.465,72.742-6.841-14.067c-.578,0-22.979,6.455-26.206,7.322a4.817,4.817,0,0,1-3.9-.482l-24.52-14.452a4.817,4.817,0,0,1-1.108-7.8l8.96-9.249c0-.289-17.969-3.806-22.015-4.817A4.817,4.817,0,0,1,.29,75.777V55.158a4.817,4.817,0,0,1,4.191-4.817l21.148-3.468c.434-.241-12.284-14.886-12.284-14.886L45.477,13.44l26.11,8.43c.674,0,10.454-17.391,10.454-17.391h40.321s9.635,17.2,10.261,17.391l26.158-8.43,31.939,18.547S177.905,46.68,178.194,47.065l20.811,3.42a5.4,5.4,0,0,1,4.432,5.3V75.777a5.4,5.4,0,0,1-4.48,5.2L178.05,84.4c0,.289,6.166,7.8,8.189,10.261a5.347,5.347,0,0,1-1.349,8.045l-24.568,14.163a5.4,5.4,0,0,1-4.143.53c-3.276-.963-25.436-7.467-26.014-7.322l-6.985,14.115a4.817,4.817,0,0,1-4.528,2.794H84.545a5.058,5.058,0,0,1-4.528-2.842Z" transform="translate(1.107 17.102)" fill="#dce5ea" opacity="0.49"/>
  <path id="Path_75770" data-name="Path 75770" d="M68.321,51.074C60.18,55.891,55.8,61.816,55.8,67.6s4.336,11.61,12.284,16.427A69.322,69.322,0,0,0,101.8,92.117h0a69.466,69.466,0,0,0,34.155-8.093c8.141-4.817,12.525-10.743,12.525-16.523s-4.336-11.61-12.284-16.283a69.755,69.755,0,0,0-33.721-8.045,69.659,69.659,0,0,0-34.155,7.9Zm11.658,72.79-6.841-14.115c-.626,0-22.979,6.407-26.3,7.322a4.817,4.817,0,0,1-3.9-.434L18.606,102.475a4.817,4.817,0,0,1-1.06-7.8l9.008-9.3c0-.337-18.017-3.806-22.208-4.817A4.817,4.817,0,0,1,.3,75.738V55.409A5.058,5.058,0,0,1,4.54,50.592l21.293-3.517C25.832,46.642,13.4,31.9,13.4,31.9L45.342,13.45l26.11,8.479C72.175,21.929,82,4.49,82,4.49h40.08s9.635,17.246,10.309,17.391l26.254-8.43,31.7,18.45s-12.862,14.693-12.573,15.126L198.678,50.5a5.251,5.251,0,0,1,4.432,5.251V75.5a5.3,5.3,0,0,1-4.432,5.2L177.53,84.024s6.166,7.8,8.189,10.309a5.3,5.3,0,0,1-1.349,8.045L160.284,116.4a5.2,5.2,0,0,1-4.143.53c-3.372-.963-25.484-7.419-26.062-7.322l-7.033,14.163a4.817,4.817,0,0,1-4.48,2.746H84.845A4.817,4.817,0,0,1,79.979,123.864Z" transform="translate(1.145 17.14)" fill="#dce5ea" opacity="0.5"/>
  <path id="Path_75771" data-name="Path 75771" d="M68.09,50.746c-8.238,4.817-12.621,10.839-12.621,16.668S59.8,79.121,67.849,83.793a70.044,70.044,0,0,0,33.721,8.093h0a70.429,70.429,0,0,0,34.3-7.9c8.238-4.817,12.621-10.887,12.573-16.668s-4.336-11.754-12.332-16.427a69.61,69.61,0,0,0-33.721-8.045,69.851,69.851,0,0,0-34.3,7.9Zm11.8,72.79L73.052,109.47c-.626,0-22.931,6.359-26.351,7.322a5.251,5.251,0,0,1-3.9-.482L18.713,102.292a4.817,4.817,0,0,1-1.06-7.8l9.008-9.346c0-.337-18.017-3.854-22.3-4.817A4.817,4.817,0,0,1,.31,75.507V55.419A4.817,4.817,0,0,1,4.5,50.6l21.437-3.517c0-.434-12.477-15.271-12.477-15.271L45.208,13.508l26.158,8.43c.723,0,10.6-17.439,10.6-17.439h39.888s9.635,17.246,10.357,17.439l26.254-8.479,31.457,18.306s-12.862,14.789-12.573,15.223L198.4,50.457a5.347,5.347,0,0,1,4.432,5.3V75.026a5.3,5.3,0,0,1-4.432,5.2l-21.341,3.758c0,.289,6.118,7.8,8.238,10.405a5.347,5.347,0,0,1-1.349,8.045L159.86,116.358a5.4,5.4,0,0,1-4.143.482c-3.468-.963-25.532-7.419-26.11-7.274l-7.033,14.115a5.106,5.106,0,0,1-4.48,2.794H84.373A5.058,5.058,0,0,1,79.893,123.536Z" transform="translate(1.183 17.178)" fill="#dbe4e9" opacity="0.51"/>
  <path id="Path_75772" data-name="Path 75772" d="M67.859,50.226c-8.286,4.817-12.718,10.935-12.718,16.812S59.525,79.13,67.618,83.948a69.37,69.37,0,0,0,34.01,8.093h0a69.659,69.659,0,0,0,34.155-8.093c8.286-4.817,12.67-10.935,12.67-16.812s-4.336-12.092-12.477-16.909a69.032,69.032,0,0,0-33.721-8.093,70.044,70.044,0,0,0-34.4,8.093Zm12,72.886L73.014,109c-.626,0-22.931,6.311-26.447,7.322a5.251,5.251,0,0,1-3.9-.482L18.819,102.109a4.817,4.817,0,0,1-1.108-7.8l9.1-9.394c-.241-.337-18.065-3.854-22.449-4.817A4.817,4.817,0,0,1,.32,75.277v-19.8A4.817,4.817,0,0,1,4.511,50.66L26.045,47.1c.289-.434-12.477-15.319-12.477-15.319L45.073,13.518l25.965,8.43c.723,0,10.646-17.439,10.646-17.439H121.38s9.635,17.246,10.454,17.439l26.254-8.43L189.3,31.68s-12.67,14.837-12.284,15.271l21.2,3.517a5.347,5.347,0,0,1,4.432,5.251V74.988a5.4,5.4,0,0,1-4.48,5.2l-21.244,3.468c0,.289,6.118,7.852,8.286,10.5a5.347,5.347,0,0,1-1.4,8.045l-24.087,13.778a5.444,5.444,0,0,1-4.143.482c-3.613-1.012-25.628-7.419-26.254-7.274L122.3,123.305a4.817,4.817,0,0,1-4.48,2.794H84.383a5.106,5.106,0,0,1-4.528-2.842Z" transform="translate(1.221 17.216)" fill="#dae3e8" opacity="0.53"/>
  <path id="Path_75773" data-name="Path 75773" d="M67.428,50.188C59.094,55.006,54.662,61.22,54.71,67.145S59.045,79.092,67.187,83.91A69.851,69.851,0,0,0,101.293,92h0a70.43,70.43,0,0,0,34.251-8.093c8.334-4.817,12.766-11.032,12.766-16.957s-4.384-11.947-12.573-16.764a69.369,69.369,0,0,0-34.01-8.141,70.767,70.767,0,0,0-34.3,8.141ZM79.664,122.93l-6.889-14.115c-.626,0-22.882,6.311-26.5,7.322a4.817,4.817,0,0,1-3.9-.482l-23.6-13.729a4.817,4.817,0,0,1-.915-7.8l9.153-9.635c-.289-.337-18.113-3.9-22.593-4.817A4.817,4.817,0,0,1,.37,74.853V55.295a4.817,4.817,0,0,1,4.191-4.817l21.63-3.565C26.48,46.479,13.714,31.5,13.714,31.5L44.786,13.528l26.062,8.479C71.619,21.766,81.591,4.52,81.591,4.52h39.5s9.635,17.246,10.5,17.439l26.254-8.43,31.024,18.017S175.914,46.479,176.2,46.913L197.5,50.429a5.3,5.3,0,0,1,4.432,5.251V74.612a5.251,5.251,0,0,1-4.432,5.2L176.107,83.38c0,.289,6.07,7.8,8.286,10.55a5.3,5.3,0,0,1-1.349,8l-23.653,13.681a5.4,5.4,0,0,1-4.143.482c-3.661-1.012-25.676-7.419-26.3-7.274l-7.033,14.163a5.106,5.106,0,0,1-4.48,2.794H84.144A4.817,4.817,0,0,1,79.664,122.93Z" transform="translate(1.412 17.254)" fill="#d9e2e8" opacity="0.54"/>
  <path id="Path_75774" data-name="Path 75774" d="M67.349,49.717c-8.382,4.817-12.862,11.08-12.814,17.1s4.384,12.236,12.573,16.764a70.092,70.092,0,0,0,34.155,8.141h0a70.429,70.429,0,0,0,34.348-8.141c8.382-4.817,12.862-11.08,12.814-17.1s-4.384-12-12.621-16.764A69.37,69.37,0,0,0,101.7,41.575,70.429,70.429,0,0,0,67.349,49.717ZM79.73,122.41l-6.841-13.874c-.674,0-22.882,6.263-26.592,7.274a4.817,4.817,0,0,1-3.9-.482L19.032,101.744a4.817,4.817,0,0,1-1.06-7.8l9.2-9.635c-.289-.337-18.161-3.9-22.738-4.817A4.817,4.817,0,0,1,.34,74.67V55.4a4.817,4.817,0,0,1,4.191-4.817l21.726-3.565c.289-.482-12.477-15.464-12.477-15.464L44.8,13.538l26.158,8.479c.771,0,10.743-17.487,10.743-17.487h39.358s9.635,17.294,10.6,17.487l26.254-8.479L188.7,31.411s-12.959,15.03-12.67,15.464l21.389,3.565a5.2,5.2,0,0,1,4.432,5.251V74.333a5.251,5.251,0,0,1-4.432,5.2L175.884,83.1c0,.289,6.07,7.852,8.382,10.646a5.3,5.3,0,0,1-1.4,8L159.457,115.28a5.4,5.4,0,0,1-4.143.482c-3.758-1.012-25.725-7.371-26.4-7.274l-7.033,14.163a4.817,4.817,0,0,1-4.48,2.794H84.258a5.058,5.058,0,0,1-4.528-3.035Z" transform="translate(1.298 17.293)" fill="#d8e2e7" opacity="0.56"/>
  <path id="Path_75775" data-name="Path 75775" d="M67.233,49.389c-8.479,4.817-12.959,11.176-12.91,17.2s4.384,12.14,12.67,16.957a70.14,70.14,0,0,0,34.2,8.141h0A70.285,70.285,0,0,0,135.639,83.5c8.43-4.817,12.91-11.176,12.91-17.2s-4.432-12.14-12.718-16.957a70.14,70.14,0,0,0-34.2-8.141,70.092,70.092,0,0,0-34.4,8.189Zm12.573,72.983-6.889-14.115c-.674,0-22.882,6.214-26.64,7.274a4.817,4.817,0,0,1-3.9-.482L19.2,101.561a4.817,4.817,0,0,1-1.156-7.8l9.2-9.635c0-.385-18.113-3.95-22.882-4.817A4.817,4.817,0,0,1,.32,74.488V55.459a4.817,4.817,0,0,1,4.191-4.817l21.823-3.613c.337-.482-12.525-15.56-12.525-15.56l30.975-17.92,26.254,8.479c.771,0,10.839-17.487,10.839-17.487h39.117s9.635,17.294,10.6,17.487l26.158-8.479,30.494,17.776s-12.959,15.03-12.67,15.512L197.108,50.4a5.347,5.347,0,0,1,4.432,5.251v18.4a5.347,5.347,0,0,1-4.48,5.2l-21.63,3.565c0,.337,6.07,7.852,8.382,10.743a5.3,5.3,0,0,1-1.349,8l-23.22,13.392a5.4,5.4,0,0,1-4.143.53c-3.854-1.108-25.773-7.419-26.447-7.274l-6.985,14.163a4.817,4.817,0,0,1-4.48,2.746h-32.9A4.817,4.817,0,0,1,79.806,122.372Z" transform="translate(1.221 17.331)" fill="#d7e1e7" opacity="0.57"/>
  <path id="Path_75776" data-name="Path 75776" d="M66.763,49.014C58.236,53.831,53.756,60.287,53.8,66.4S58.236,78.641,66.57,83.458a70,70,0,0,0,34.3,8.189h0a71.007,71.007,0,0,0,34.492-8.189c8.479-4.817,13.007-11.273,12.959-17.391s-4.432-12.236-12.766-17.053A69.948,69.948,0,0,0,101.3,40.825a71.345,71.345,0,0,0-34.54,8.189ZM79.529,122l-6.841-14.115c-.723,0-22.882,6.214-26.736,7.274a4.817,4.817,0,0,1-3.9-.482l-22.931-13.3a4.817,4.817,0,0,1-1.06-7.949L27.454,83.8c-.289-.385-18.161-3.95-23.027-4.817A4.817,4.817,0,0,1,.38,74.16V55.373a5.106,5.106,0,0,1,4.191-4.817l22.015-3.613c.289-.482-12.573-15.608-12.573-15.608L44.459,13.607,70.81,22.085c.819,0,10.935-17.535,10.935-17.535h38.876s9.876,17.294,10.694,17.487l26.206-8.43,30.3,17.583S174.816,46.316,175.105,46.8l21.63,3.565a5.4,5.4,0,0,1,4.432,5.3V73.775a5.3,5.3,0,0,1-4.528,5.2l-21.774,3.565c0,.337,6.022,7.852,8.43,10.839a5.3,5.3,0,0,1-1.4,8l-22.979,13.248a5.3,5.3,0,0,1-4.095.53c-3.95-1.108-25.869-7.419-26.543-7.274L121.2,122.045a4.817,4.817,0,0,1-4.48,2.794H84.057A5.058,5.058,0,0,1,79.529,122Z" transform="translate(1.45 17.369)" fill="#d6e0e6" opacity="0.58"/>
  <path id="Path_75777" data-name="Path 75777" d="M66.685,48.687C58.11,53.5,53.582,60.056,53.63,66.174s4.432,12.332,12.814,17.2a70.526,70.526,0,0,0,34.4,8.238h0a70.574,70.574,0,0,0,34.54-8.238c8.623-4.817,13.1-11.321,13.1-17.487s-4.48-12.332-12.862-17.2A69.8,69.8,0,0,0,101.273,40.4a70.333,70.333,0,0,0-34.588,8.286Zm12.959,73.031-6.889-13.874c-.674,0-22.834,6.166-26.784,7.274a5.2,5.2,0,0,1-3.9-.482L19.379,101.2a4.817,4.817,0,0,1-1.108-7.8l9.3-9.635c-.289-.385-18.21-4-23.171-4.817A4.817,4.817,0,0,1,.35,74.122V55.672a4.817,4.817,0,0,1,4.191-4.817l22.112-3.661c.289-.482-12.573-15.7-12.573-15.7L44.429,13.617l26.5,8.479c.867,0,10.984-17.535,10.984-17.535h38.539s9.876,17.294,10.694,17.535l26.5-8.479L187.7,31.055s-13.055,15.223-12.718,15.7L196.7,50.373a5.251,5.251,0,0,1,4.287,5.251V73.5a5.3,5.3,0,0,1-4.528,5.444l-21.871,3.613c0,.289,6.022,7.852,8.479,10.887a5.347,5.347,0,0,1-1.349,7.756l-22.786,13.1a5.3,5.3,0,0,1-4.095.53c-4.047-1.108-25.917-7.419-26.64-7.274l-7.033,14.163a4.817,4.817,0,0,1-4.48,2.794H84.172a5.106,5.106,0,0,1-4.528-2.794Z" transform="translate(1.336 17.407)" fill="#d5dfe5" opacity="0.6"/>
  <path id="Path_75778" data-name="Path 75778" d="M66.569,48.36c-8.671,4.817-13.2,11.417-13.151,17.631S57.9,78.42,66.328,83.333a70.189,70.189,0,0,0,34.444,8.189h0a70.526,70.526,0,0,0,34.637-8.189c8.671-4.817,13.2-11.465,13.151-17.68s-4.48-12.429-12.91-17.294a70.188,70.188,0,0,0-34.444-8,71.1,71.1,0,0,0-34.637,8ZM79.72,121.39l-6.889-14.115c-.723,0-22.834,6.118-26.929,7.274a5.106,5.106,0,0,1-3.854-.482L19.6,101.013a4.817,4.817,0,0,1-1.108-7.66l9.153-9.635c-.289-.385-18.21-4-23.268-5.058A4.817,4.817,0,0,1,.33,73.843V55.634a4.817,4.817,0,0,1,4.191-4.817l22.208-3.661c.626-.915-12.284-16.427-12.284-16.427l29.964-17.1,26.3,8.479c.819,0,11.032-17.535,11.032-17.535h38.539s9.972,17.342,10.839,17.535l26.351-8.479,29.819,17.342S174.236,46.24,174.573,46.722l21.871,3.613a5.347,5.347,0,0,1,4.432,5.3V73.217a5.347,5.347,0,0,1-4.625,5.2l-21.967,3.613c0,.337,5.973,7.852,8.478,10.984a5.347,5.347,0,0,1-1.4,8L158.821,114.02a5.3,5.3,0,0,1-4.095.482c-4.143-1.156-25.965-7.419-26.688-7.226L121,121.439a5.106,5.106,0,0,1-4.528,2.794H84.2a4.817,4.817,0,0,1-4.48-2.842Z" transform="translate(1.26 17.445)" fill="#d4dfe5" opacity="0.61"/>
  <path id="Path_75779" data-name="Path 75779" d="M65.8,48.032C57.13,52.85,52.554,59.546,52.6,65.808s4.48,12.525,13.007,17.439a70.574,70.574,0,0,0,34.54,8.238h0a70.863,70.863,0,0,0,34.685-8.238c8.719-4.817,13.3-11.513,13.248-17.776s-4.528-12.525-13.007-17.487a70.526,70.526,0,0,0-34.492-8.238A71.152,71.152,0,0,0,65.8,48.032ZM79.29,121.063,72.4,106.948c-.723,0-22.786,6.118-26.977,7.274a4.817,4.817,0,0,1-3.854-.482L19.363,100.83a4.817,4.817,0,0,1-1.108-7.8l9.635-9.635c-.289-.385-18.258-4.047-23.46-5.106a4.817,4.817,0,0,1-4-4.817V55.547A4.817,4.817,0,0,1,4.621,50.73l22.3-3.709c.337-.867-12.718-16.331-12.718-16.331L43.931,13.637l26.3,8.527C71.1,21.922,81.313,4.58,81.313,4.58h38.539s10.02,17.342,10.887,17.535l26.351-8.479L186.524,30.69s-13.1,15.367-12.766,15.849L195.725,50.2a5.347,5.347,0,0,1,4.432,5.251V72.793a5.3,5.3,0,0,1-4.287,5.347l-22.112,3.613a133.685,133.685,0,0,0,8.527,11.032,5.347,5.347,0,0,1-1.4,8l-22.3,12.91a5.4,5.4,0,0,1-4.143.482c-4.239-1.156-26.014-7.371-26.784-7.226l-7.033,14.163a4.817,4.817,0,0,1-4.48,2.794H83.818A5.058,5.058,0,0,1,79.29,121.063Z" transform="translate(1.641 17.483)" fill="#d3dee4" opacity="0.62"/>
  <path id="Path_75780" data-name="Path 75780" d="M65.8,47.7c-8.768,5.058-13.344,11.61-13.3,17.92s4.528,12.621,13.055,17.631A71.1,71.1,0,0,0,100.2,91.485h0a71.682,71.682,0,0,0,34.781-8.238c8.768-5.058,13.344-11.61,13.344-17.92s-4.528-12.67-13.1-17.631a70.911,70.911,0,0,0-34.588-8.238A70.911,70.911,0,0,0,65.8,47.7ZM79.29,120.822,72.4,106.659c-.771,0-22.786,6.118-27.073,7.274a4.817,4.817,0,0,1-3.854-.482L19.459,100.686a4.817,4.817,0,0,1-1.06-7.852L28.034,83.2c-.337-.385-18.306-4.047-23.6-5.155a4.817,4.817,0,0,1-4-4.817V55.547A4.817,4.817,0,0,1,4.621,50.73l22.4-3.709C27.263,46.154,14.3,30.69,14.3,30.69l29.53-17.005,26.3,8.527C71.053,21.971,81.313,4.58,81.313,4.58h38.105s10.068,17.391,10.935,17.631l26.4-8.527L186.235,30.69s-13.1,15.367-12.766,15.9l22.063,3.661a5.3,5.3,0,0,1,4.432,5.251V72.6a5.3,5.3,0,0,1-4.432,5.2l-22.208,3.661a137.773,137.773,0,0,0,8.527,11.08,5.347,5.347,0,0,1-1.4,8l-22.063,12.766a5.4,5.4,0,0,1-4.143.482c-4.287-1.156-26.062-7.371-26.833-7.226l-7.033,14.211a5.058,5.058,0,0,1-4.528,2.746H83.77A4.817,4.817,0,0,1,79.29,120.822Z" transform="translate(1.641 17.483)" fill="#d2dde4" opacity="0.64"/>
  <path id="Path_75781" data-name="Path 75781" d="M65.84,47.368C57.024,52.474,52.4,59.074,52.448,65.433S56.976,78.151,65.6,83.161a70.767,70.767,0,0,0,34.685,8.286h0a71.537,71.537,0,0,0,34.878-8.286C143.977,78.054,148.6,71.5,148.553,65.1S144.025,52.378,135.4,47.368a70.622,70.622,0,0,0-34.685-8.286A71.634,71.634,0,0,0,65.84,47.368ZM79.521,120.5,72.68,106.38c-.819,0-22.834,6.022-27.17,7.226a4.817,4.817,0,0,1-3.854-.482L19.641,100.5a4.817,4.817,0,0,1-1.06-7.852l9.635-9.635c-.337-.434-18.354-4.095-23.749-5.2A4.817,4.817,0,0,1,.42,73V55.557A5.106,5.106,0,0,1,4.611,50.74L27.3,46.645c0-.53-12.814-15.994-12.814-15.994L43.776,13.743l26.351,8.479C71.042,21.981,81.3,4.59,81.3,4.59h37.961s10.068,17.391,10.984,17.631l26.447-8.479,28.9,16.909s-13.151,15.464-12.766,15.994l22.16,3.709a5.3,5.3,0,0,1,4.48,5.251V72.418a5.4,5.4,0,0,1-4.48,5.2l-22.3,3.661a135.316,135.316,0,0,0,8.768,11.176,5.347,5.347,0,0,1-1.4,8l-21.871,12.621a5.54,5.54,0,0,1-4.095.53c-4.432-1.253-26.158-7.419-26.929-7.274l-7.081,14.211a4.817,4.817,0,0,1-4.48,2.794H83.808A5.058,5.058,0,0,1,79.28,120.5Z" transform="translate(1.603 17.522)" fill="#d1dce3" opacity="0.65"/>
  <path id="Path_75782" data-name="Path 75782" d="M65.358,46.964c-8.864,5.106-13.489,11.754-13.44,18.161S56.735,77.988,65.165,83a70.478,70.478,0,0,0,34.781,8.334h0A71.441,71.441,0,0,0,134.872,83c8.864-5.106,13.489-11.754,13.489-18.161s-4.576-12.862-13.248-17.872A70.959,70.959,0,0,0,100.38,38.63a71.73,71.73,0,0,0-35.022,8.334ZM79.28,120.14l-6.889-14.163c-.771,0-22.786,6.022-27.218,7.226a4.817,4.817,0,0,1-3.854-.482L19.786,100.244a5.058,5.058,0,0,1-1.108-7.852l9.635-9.635c-.337-.434-18.306-4.095-23.846-5.251A4.817,4.817,0,0,1,.42,72.689V55.539a4.817,4.817,0,0,1,4.191-4.817L27.3,46.531c.337-.53-12.67-15.994-12.67-15.994l28.9-16.764,26.351,8.479c.915,0,11.273-17.631,11.273-17.631H118.83s10.165,17.391,11.08,17.68l26.64-8.623,28.9,16.764S172.255,46,172.64,46.531l22.3,3.709a5.347,5.347,0,0,1,4.432,5.251V72.063a5.3,5.3,0,0,1-4.432,5.2L172.5,80.927A114.645,114.645,0,0,0,181.118,92.2a5.4,5.4,0,0,1-1.445,8l-21.63,12.477a5.3,5.3,0,0,1-4.095.53c-4.528-1.253-26.206-7.419-27.025-7.226l-7.13,14.163a4.817,4.817,0,0,1-4.48,2.794H83.808a5.106,5.106,0,0,1-4.528-2.794Z" transform="translate(1.603 17.636)" fill="#d0dce2" opacity="0.67"/>
  <path id="Path_75783" data-name="Path 75783" d="M65.2,46.561c-8.96,5.155-13.778,11.8-13.537,18.306s4.576,12.959,13.3,18.017A71.537,71.537,0,0,0,99.84,91.217h0a71.73,71.73,0,0,0,35.022-8.334c8.96-5.155,13.585-11.851,13.537-18.354s-4.576-12.91-13.3-18.017a71.345,71.345,0,0,0-34.829-8.286A71.489,71.489,0,0,0,65.2,46.561Zm14.115,73.175-6.889-14.163c-.819,0-22.786,6.022-27.314,7.274a4.817,4.817,0,0,1-3.854-.53L19.969,99.985a4.817,4.817,0,0,1-1.108-7.852L28.5,82.5c-.337-.434-18.354-4.143-24.087-5.3a5.058,5.058,0,0,1-4-4.817V55.473A4.817,4.817,0,0,1,4.6,50.656l22.738-4.239c.482-.53-12.525-15.994-12.525-15.994l28.9-16.62L70.069,22.33c.963,0,11.369-17.68,11.369-17.68h37.431S129.033,22.089,130,22.33l26.447-8.719,28.9,16.668s-13.489,15.608-13.055,16.138l22.4,3.709a5.4,5.4,0,0,1,4.432,5.3V71.659a5.251,5.251,0,0,1-4.432,5.2l-22.834,3.709a118.357,118.357,0,0,0,8.623,11.369,5.347,5.347,0,0,1-1.4,8l-21.244,12.381a5.3,5.3,0,0,1-4.095.53c-4.817-1.253-26.254-7.371-27.073-7.226l-7.081,14.211a4.817,4.817,0,0,1-4.48,2.794H83.8a4.817,4.817,0,0,1-4.48-2.89Z" transform="translate(1.565 17.751)" fill="#cfdbe2" opacity="0.68"/>
  <path id="Path_75784" data-name="Path 75784" d="M64.9,46.386c-8.768,5.155-13.585,11.9-13.585,18.45S56.129,77.843,64.7,82.95a71.73,71.73,0,0,0,34.781,8.382h0A71.586,71.586,0,0,0,134.6,82.95c9.008-5.2,13.633-11.9,13.633-18.45s-4.817-13.055-13.392-18.161A71.2,71.2,0,0,0,99.918,38,71.73,71.73,0,0,0,64.9,46.386ZM79.348,119.61,72.46,105.447c-.819,0-22.738,5.925-27.362,7.226a5.106,5.106,0,0,1-3.854-.482L20,99.955A4.817,4.817,0,0,1,18.891,92.1l9.635-9.924c-.337-.434-18.4-4.143-24.087-5.347a4.817,4.817,0,0,1-4-4.817V55.395a4.817,4.817,0,0,1,4.191-4.817l22.882-3.806C27.9,46,14.8,30.537,14.8,30.537L43.411,13.773,69.81,22.3c.963,0,11.369-17.68,11.369-17.68h37.575s10.261,17.439,11.224,17.68l26.447-8.527,28.181,16.764S171.408,46,171.745,46.531l22.5,3.758a5.251,5.251,0,0,1,4.432,5.251V71.533a5.251,5.251,0,0,1-4.432,5.2L171.6,80.493a115.615,115.615,0,0,0,8.671,11.417,5.347,5.347,0,0,1-1.445,8l-21.2,12.188a5.251,5.251,0,0,1-4.095.53c-4.817-1.3-26.3-7.371-27.17-7.226l-7.033,14.211a4.817,4.817,0,0,1-4.48,2.794H83.684a5.106,5.106,0,0,1-4.528-2.794Z" transform="translate(1.679 17.636)" fill="#cedae1" opacity="0.69"/>
  <path id="Path_75785" data-name="Path 75785" d="M64.541,46.011c-9.008,5.251-13.681,12-13.681,18.595s4.817,13.151,13.489,18.306A71.393,71.393,0,0,0,99.37,91.246h0a71.923,71.923,0,0,0,35.215-8.334c9.057-5.251,13.729-12.043,13.681-18.643s-4.817-13.1-13.44-18.258a71.537,71.537,0,0,0-34.974-8.382,72.26,72.26,0,0,0-35.311,8.382Zm14.452,73.272L72.1,105.12c-.867,0-22.738,5.925-27.459,7.226a5.106,5.106,0,0,1-3.854-.482L19.981,99.724a4.817,4.817,0,0,1-1.06-7.8l9.635-9.972c-.337-.434-18.4-4.191-24.087-5.4a4.817,4.817,0,0,1-4-4.817V55.357a4.817,4.817,0,0,1,4.191-4.817L27.64,46.733C28.026,46.155,14.922,30.4,14.922,30.4L43.2,13.831,69.6,22.31c.963-.241,11.465-17.68,11.465-17.68h37.142s10.068,17.439,11.224,17.728l26.5-8.575,28.23,16.427s-13.248,15.7-12.91,16.283l22.69,3.758a5.347,5.347,0,0,1,4.432,5.3v15.7a5.3,5.3,0,0,1-4.432,5.2l-22.786,3.758a114.311,114.311,0,0,0,8.719,11.513,5.3,5.3,0,0,1-1.445,7.949l-21.244,12.14a5.4,5.4,0,0,1-4.047.482c-4.817-1.3-26.4-7.371-27.266-7.178l-7.081,14.452a4.817,4.817,0,0,1-4.48,2.746H83.521a4.817,4.817,0,0,1-4.48-3.035Z" transform="translate(1.794 17.674)" fill="#cdd9e1" opacity="0.71"/>
  <path id="Path_75786" data-name="Path 75786" d="M64.5,45.684c-9.1,5.251-13.778,12.092-13.778,18.739s4.817,13.248,13.537,18.4a71.586,71.586,0,0,0,35.263,8.382h0a72.26,72.26,0,0,0,35.263-8.382c9.1-5.251,13.826-12.091,13.778-18.739s-4.817-13.248-13.537-18.4A71.248,71.248,0,0,0,99.957,37.3,71.923,71.923,0,0,0,64.5,45.684Zm14.693,73.272-6.937-14.163c-.867,0-22.69,5.925-27.507,7.226a4.817,4.817,0,0,1-3.854-.482l-20.618-12a4.817,4.817,0,0,1-1.06-7.8l9.635-10.02c-.337-.482-18.45-4.191-24.424-5.444a4.817,4.817,0,0,1-4-4.817V55.222A4.817,4.817,0,0,1,4.621,50.4l23.123-3.854c.385-.578-12.718-16.379-12.718-16.379l28.23-16.331,26.4,8.527C70.667,22.079,81.169,4.64,81.169,4.64h37s10.261,17.439,11.273,17.728l26.544-8.527,27.941,16.234s-13.3,15.8-12.91,16.427L193.8,50.26a5.347,5.347,0,0,1,4.432,5.251V70.975a5.3,5.3,0,0,1-4.432,5.2l-22.882,3.758a115.623,115.623,0,0,0,8.719,11.61,5.3,5.3,0,0,1-1.445,7.949l-20.859,12a5.3,5.3,0,0,1-4.095.482c-4.817-1.3-26.5-7.371-27.314-7.178L118.792,119a5.106,5.106,0,0,1-4.48,2.794H83.674A4.817,4.817,0,0,1,79.194,118.955Z" transform="translate(1.641 17.712)" fill="#ccd9e0" opacity="0.72"/>
  <path id="Path_75787" data-name="Path 75787" d="M64.384,45.356C55.231,50.656,50.51,57.5,50.51,64.24s4.817,13.3,13.633,18.5a71.778,71.778,0,0,0,35.167,8.43h0a72.26,72.26,0,0,0,35.359-8.43c9.153-5.251,13.874-12.14,13.874-18.884s-4.817-13.3-13.633-18.5A71.634,71.634,0,0,0,99.6,36.926a72.26,72.26,0,0,0-35.215,8.43Zm14.837,73.32-6.889-14.211c-.867,0-22.738,5.877-27.6,7.226a4.817,4.817,0,0,1-3.854-.482L20.5,99.359a4.817,4.817,0,0,1-1.108-7.8l9.635-10.068c-.385-.482-18.5-4.239-24.617-5.492a5.106,5.106,0,0,1-4-4.817V55.328A4.817,4.817,0,0,1,4.6,50.511l23.22-3.854A207.436,207.436,0,0,0,15.344,29.941l27.892-16.09,26.447,8.527A208.594,208.594,0,0,0,81.245,4.65H118A204.883,204.883,0,0,0,129.37,22.378l26.543-8.527,27.7,16.09s-13.3,15.9-12.91,16.523l22.882,3.758a5.3,5.3,0,0,1,4.432,5.251V70.7a5.3,5.3,0,0,1-4.432,5.2L170.607,79.7a121.158,121.158,0,0,0,8.768,11.658,5.347,5.347,0,0,1-1.445,7.949l-20.522,11.851a5.492,5.492,0,0,1-4.095.53c-4.817-1.4-26.544-7.419-27.411-7.226l-7.081,14.452a4.817,4.817,0,0,1-4.48,2.746H83.75A4.817,4.817,0,0,1,79.222,118.676Z" transform="translate(1.565 17.751)" fill="#cbd8df" opacity="0.74"/>
  <path id="Path_75788" data-name="Path 75788" d="M64.154,44.837c-9.249,5.3-13.97,12.236-13.97,18.98S55,77.257,63.913,82.508a71.826,71.826,0,0,0,35.215,8.43h0a72.549,72.549,0,0,0,35.456-8.43c9.2-5.347,13.97-12.236,13.922-19.028s-4.817-13.44-13.681-18.691a72.26,72.26,0,0,0-35.263-8.238,72.26,72.26,0,0,0-35.407,8.286Zm15.03,73.32-6.937-14.163c-.867,0-22.69,5.829-27.651,7.178a4.817,4.817,0,0,1-3.854-.482L20.605,99.176a4.817,4.817,0,0,1-1.108-7.8l9.635-10.116c-.337-.482-18.45-4.239-24.713-5.588a4.817,4.817,0,0,1-4-4.817V55.29a5.058,5.058,0,0,1,4.191-4.817l23.364-3.854C28.361,46.041,15.21,30.1,15.21,30.1L43.1,13.861l26.447,8.527A199.252,199.252,0,0,0,81.207,4.66h36.564a202.325,202.325,0,0,0,11.417,17.776l26.543-8.575,27.507,15.994S169.894,45.8,170.28,46.426l22.979,3.806a5.3,5.3,0,0,1,4.48,5.251V70.417a5.3,5.3,0,0,1-4.432,5.2l-23.123,3.806a116.387,116.387,0,0,0,8.768,11.754,5.3,5.3,0,0,1-1.445,7.949l-20.136,11.706a5.3,5.3,0,0,1-4.095.53c-5.058-1.4-26.592-7.371-27.459-7.178L118.734,118.4a5.106,5.106,0,0,1-4.48,2.794H83.664a4.817,4.817,0,0,1-4.48-2.842Z" transform="translate(1.603 17.789)" fill="#cad7df" opacity="0.75"/>
  <path id="Path_75789" data-name="Path 75789" d="M63.913,44.531c-9.249,5.4-14.018,12.332-14.018,19.269s4.817,13.537,13.778,18.788a72.26,72.26,0,0,0,35.359,8.479h0a72.886,72.886,0,0,0,35.5-8.479c9.249-5.347,14.018-12.332,14.018-19.269s-4.817-13.585-13.778-18.836a71.826,71.826,0,0,0-35.215-8.527,72.5,72.5,0,0,0-35.648,8.575Zm15.223,73.416-6.889-14.211c-.915,0-22.69,5.829-27.8,7.226a4.817,4.817,0,0,1-3.806-.53L20.75,98.871a4.817,4.817,0,0,1-1.108-7.8L29.276,80.9c-.385-.482-18.5-4.287-24.857-5.636a4.817,4.817,0,0,1-4-4.817V55.129a4.817,4.817,0,0,1,4.191-4.817l23.46-3.854c.385-.626-12.814-16.668-12.814-16.668L42.717,13.941l26.447,8.575A207.917,207.917,0,0,0,80.87,4.74h36.371a204.1,204.1,0,0,0,11.513,17.776L155.3,13.941,182.564,29.79S169.22,45.832,169.605,46.458l23.123,3.806a5.347,5.347,0,0,1,4.432,5.251V70.208a5.3,5.3,0,0,1-4.432,5.2l-23.22,3.806a107.813,107.813,0,0,0,8.816,11.851,5.347,5.347,0,0,1-1.445,7.949l-20.088,11.562a5.3,5.3,0,0,1-4.095.53c-5.155-1.4-26.64-7.371-27.555-7.178l-7.033,14.211a4.817,4.817,0,0,1-4.528,2.794H83.664a5.106,5.106,0,0,1-4.528-3.131Z" transform="translate(1.603 18.094)" fill="#c9d7de" opacity="0.76"/>
  <path id="Path_75790" data-name="Path 75790" d="M63.529,44.327c-9.346,5.4-14.115,12.429-14.115,19.269s4.817,13.681,13.874,18.98A72.26,72.26,0,0,0,98.7,91.055h0a73.272,73.272,0,0,0,35.6-8.478c9.346-5.4,14.115-12.429,14.067-19.269s-4.817-13.633-13.826-18.932A72.26,72.26,0,0,0,99.37,35.848a72.742,72.742,0,0,0-35.841,8.479Zm15.415,73.416-6.937-14.211c-.915,0-22.641,5.829-27.844,7.226a4.817,4.817,0,0,1-3.806-.53l-19.7-11.417a4.817,4.817,0,0,1-1.06-7.8l9.876-10.213c-.385-.482-18.547-4.287-25-5.684a4.817,4.817,0,0,1-4-4.817V55.214A4.817,4.817,0,0,1,4.661,50.4l23.557-3.854A196.937,196.937,0,0,0,15.5,29.586L42.718,13.929l26.447,8.527A198.817,198.817,0,0,0,80.968,4.68h36.178A204.1,204.1,0,0,0,128.66,22.456l26.592-8.527,27.025,15.7A197.512,197.512,0,0,0,169.318,46.35l23.22,3.806a5.4,5.4,0,0,1,4.432,5.3V69.907a5.3,5.3,0,0,1-4.432,5.2l-23.316,3.806a100.537,100.537,0,0,0,8.864,11.947,5.251,5.251,0,0,1-1.638,7.852L156.6,110.18a5.154,5.154,0,0,1-4.047.53c-5.3-1.445-26.736-7.371-27.652-7.178l-7.081,14.452a4.817,4.817,0,0,1-4.48,2.746H83.425A4.817,4.817,0,0,1,78.945,117.743Z" transform="translate(1.794 17.865)" fill="#c8d6de" opacity="0.78"/>
  <path id="Path_75791" data-name="Path 75791" d="M63.146,44c-9.394,5.4-14.211,12.477-14.163,19.269S53.8,77,62.9,82.538a72.26,72.26,0,0,0,35.456,8.527h0a73.127,73.127,0,0,0,35.7-8.527c9.635-5.444,14.452-12.477,14.163-19.269S143.4,49.491,134.3,44a72.26,72.26,0,0,0-35.456-8.527A72.983,72.983,0,0,0,63.146,44Zm15.608,73.416-6.937-14.163c-.963,0-22.641,5.733-27.941,7.178a4.817,4.817,0,0,1-3.806-.482L20.8,98.628a4.817,4.817,0,0,1-1.06-7.8l9.924-10.261c-.385-.482-18.595-4.336-25.195-5.733a4.817,4.817,0,0,1-3.95-4.817V55.127A4.817,4.817,0,0,1,4.76,50.31l23.653-3.9A197.749,197.749,0,0,0,15.454,29.5l26.977-15.56,26.5,8.527A198.816,198.816,0,0,0,80.729,4.69h35.985a195.682,195.682,0,0,0,11.61,17.824l26.592-8.575L181.749,29.5a199.445,199.445,0,0,0-13.007,16.812l23.316,3.854a5.251,5.251,0,0,1,4.432,5.251V69.579a5.4,5.4,0,0,1-4.432,5.2l-23.509,3.661a108.388,108.388,0,0,0,8.864,12,5.3,5.3,0,0,1-1.445,7.9L156.313,109.66a5.155,5.155,0,0,1-4.047.53c-5.347-1.445-26.784-7.371-27.7-7.178l-7.081,14.452a4.817,4.817,0,0,1-4.528,2.794H83.234A4.817,4.817,0,0,1,78.754,117.416Z" transform="translate(1.985 17.903)" fill="#c7d5dd" opacity="0.79"/>
  <path id="Path_75792" data-name="Path 75792" d="M63.02,43.672c-9.635,5.444-14.452,12.573-14.452,19.558S53.385,77.056,62.538,82.5a72.26,72.26,0,0,0,35.793,8.43h0a72.838,72.838,0,0,0,35.793-8.479c9.635-5.492,14.452-12.621,14.211-19.607s-4.817-13.826-13.97-19.269a72.935,72.935,0,0,0-35.552-8.527A72.26,72.26,0,0,0,63.02,43.672Zm15.8,73.272-6.889-14.211c-.963-.241-22.641,5.733-28.037,7.178a4.817,4.817,0,0,1-3.806-.482L20.82,98.253a4.817,4.817,0,0,1-1.108-7.8l10.02-10.116C29.346,79.8,11.137,76,4.441,74.551a4.817,4.817,0,0,1-3.95-4.817V55.282a4.817,4.817,0,0,1,4.191-4.817l23.8-3.9a199.394,199.394,0,0,0-12.766-17.2L42.449,13.949l26.5,8.575A201.122,201.122,0,0,0,80.844,4.7h35.793A196.6,196.6,0,0,0,128.2,22.524l26.64-8.575,26.544,15.415a201.081,201.081,0,0,0-13.007,16.909l23.46,3.854a5.347,5.347,0,0,1,4.432,5.3V69.252a5.251,5.251,0,0,1-4.432,5.2l-23.557,3.95A101.161,101.161,0,0,0,177.19,90.5a5.3,5.3,0,0,1-1.493,7.9l-19.269,11.224a5.347,5.347,0,0,1-4.047.482c-5.444-1.445-26.833-7.322-27.8-7.13L117.5,117.426a4.817,4.817,0,0,1-4.48,2.746H83.349a4.817,4.817,0,0,1-4.528-3.228Z" transform="translate(1.87 17.941)" fill="#c6d4dc" opacity="0.81"/>
  <path id="Path_75793" data-name="Path 75793" d="M62.827,43.3C53.192,48.789,48.375,55.966,48.375,63s4.817,13.97,14.067,19.269A72.79,72.79,0,0,0,98.09,90.8h0a73.8,73.8,0,0,0,35.841-8.527c9.635-5.492,14.452-12.67,14.452-19.7S143.565,48.6,134.268,43.3a72.26,72.26,0,0,0-35.6-8.286A73.8,73.8,0,0,0,62.827,43.3ZM78.82,116.906l-6.937-14.452c-.963,0-22.641,5.733-28.085,7.178a4.817,4.817,0,0,1-3.854-.482L21.012,98.263a4.817,4.817,0,0,1-1.108-7.8L29.924,80.1c-.385-.53-18.643-4.384-25.436-5.829a4.817,4.817,0,0,1-4-4.817V55a4.817,4.817,0,0,1,4.191-4.817l24.087-3.95a200.213,200.213,0,0,0-12.91-16.957L42.3,13.959l26.544,8.575A191.924,191.924,0,0,0,80.8,4.71h35.6a188.506,188.506,0,0,0,11.8,17.824l26.64-8.575,26.351,15.319a201.879,201.879,0,0,0-13.007,16.957l23.557,3.9a5.347,5.347,0,0,1,4.432,5.251V68.973a5.251,5.251,0,0,1-4.432,5.2l-23.653,3.9A103.482,103.482,0,0,0,177,90.266a5.3,5.3,0,0,1-1.445,7.9l-19.269,11.08a5.492,5.492,0,0,1-4.095.53c-5.636-1.542-26.977-7.322-27.941-7.322l-7.081,14.452a5.106,5.106,0,0,1-4.48,2.794H83.3A4.817,4.817,0,0,1,78.82,116.906Z" transform="translate(1.87 17.98)" fill="#c5d4dc" opacity="0.82"/>
  <path id="Path_75794" data-name="Path 75794" d="M62.6,43.008c-9.635,5.54-14.452,12.766-14.452,19.847s4.817,14.067,14.163,19.269A72.26,72.26,0,0,0,98,90.7h0a73.705,73.705,0,0,0,35.937-8.575c9.635-5.492,14.452-12.718,14.452-19.847s-4.817-14.018-14.211-19.269a72.26,72.26,0,0,0-35.648-8.575A73.416,73.416,0,0,0,62.6,43.008Zm16.138,73.561-6.889-14.452c-1.012,0-22.641,5.684-28.181,7.178a4.817,4.817,0,0,1-3.854-.482L21.07,98.118a4.817,4.817,0,0,1-1.06-7.8L30.079,79.909c-.434-.53-18.691-4.384-25.58-5.877a4.817,4.817,0,0,1-4-4.817V55.2a4.817,4.817,0,0,1,4.191-4.817l24.087-3.95A202.713,202.713,0,0,0,15.916,29.182L42.17,14.007l26.592,8.575a193.275,193.275,0,0,0,12-17.872h35.407a196.7,196.7,0,0,0,12,17.92l26.64-8.623,26.11,15.175a194.143,194.143,0,0,0-13.055,17.053l23.653,3.9a5.251,5.251,0,0,1,4.095,5.251V68.732a5.347,5.347,0,0,1-4.48,5.2l-23.749,3.95a105.694,105.694,0,0,0,8.96,12.236,5.3,5.3,0,0,1-1.493,7.9l-18.932,10.935a5.444,5.444,0,0,1-4.047.53c-5.684-1.542-26.977-7.371-27.989-7.178l-7.081,14.452a4.817,4.817,0,0,1-4.48,2.794H83.262A5.106,5.106,0,0,1,78.734,116.568Z" transform="translate(1.908 17.98)" fill="#c4d3db" opacity="0.83"/>
  <path id="Path_75795" data-name="Path 75795" d="M62.317,42.681c-9.635,5.54-14.452,12.814-14.452,19.992s4.817,14.115,14.211,19.607a72.838,72.838,0,0,0,35.793,8.575h0a73.609,73.609,0,0,0,35.986-8.575c9.635-5.588,14.452-12.814,14.452-19.992s-4.817-14.163-14.452-19.607A72.549,72.549,0,0,0,98.11,34.106,73.416,73.416,0,0,0,62.317,42.681ZM78.7,116.241,71.759,102.03c-1.012-.241-22.593,5.636-28.23,7.178a5.154,5.154,0,0,1-3.854-.53l-18.5-10.743a4.817,4.817,0,0,1-1.06-7.8L30.185,79.678c-.385-.53-18.643-4.432-25.676-5.925a4.817,4.817,0,0,1-4-4.817V55.206A5.058,5.058,0,0,1,4.7,50.388l24.087-3.95A196.791,196.791,0,0,0,16.022,29.048L42.036,14.066,68.628,22.64A202.334,202.334,0,0,0,80.719,4.72h35.167a197.516,197.516,0,0,0,11.851,17.921l26.688-8.575L180.293,29.1a187.881,187.881,0,0,0-13.055,17.1l23.749,3.95a5.3,5.3,0,0,1,4.576,5.251v13.3a5.3,5.3,0,0,1-4.817,4.817l-24.087,3.95a104.535,104.535,0,0,0,9.635,12.477,5.347,5.347,0,0,1-1.493,7.9L156.062,108.63a5.2,5.2,0,0,1-4.047.53c-5.733-1.542-27.025-7.371-28.037-7.13L116.9,116.482a5.106,5.106,0,0,1-4.48,2.794h-28.9A4.817,4.817,0,0,1,78.7,116.241Z" transform="translate(1.947 18.018)" fill="#c3d2db" opacity="0.85"/>
  <path id="Path_75796" data-name="Path 75796" d="M62.086,42.353c-9.635,5.588-14.452,12.862-14.452,20.088s4.817,14.452,14.452,19.751a73.272,73.272,0,0,0,35.648,8.623h0a73.416,73.416,0,0,0,36.034-8.623C143.4,76.6,148.22,69.282,148.22,62.056s-4.817-14.211-14.452-19.7A72.26,72.26,0,0,0,97.927,33.73a73.753,73.753,0,0,0-35.841,8.623Zm16.572,73.561L71.721,101.7c-1.06-.241-22.593,5.636-28.326,7.178a5.155,5.155,0,0,1-3.854-.53L21.283,97.56a4.817,4.817,0,0,1-1.06-7.8l10.116-10.5c-.434-.53-18.691-4.432-25.869-5.973a4.817,4.817,0,0,1-3.95-4.817V54.975A5.058,5.058,0,0,1,4.76,50.157l24.087-4a197.512,197.512,0,0,0-12.718-17.2L41.9,14.076,68.493,22.65A187.008,187.008,0,0,0,80.633,4.73h35.022a183.06,183.06,0,0,0,11.9,17.92l26.688-8.575L179.87,28.961a189.508,189.508,0,0,0-13.248,17.2l24.087,3.95a5.347,5.347,0,0,1,4.432,5.251V68.174a5.3,5.3,0,0,1-4.432,5.3l-24.087,3.95a101.165,101.165,0,0,0,9.008,12.429,5.251,5.251,0,0,1-1.493,7.708l-18.5,10.694a5.155,5.155,0,0,1-4.047.53c-5.829-1.59-27.073-7.371-28.085-7.13l-7.13,14.452a4.817,4.817,0,0,1-4.48,2.794h-28.9a4.817,4.817,0,0,1-4.336-2.987Z" transform="translate(1.985 18.056)" fill="#c2d1da" opacity="0.86"/>
  <path id="Path_75797" data-name="Path 75797" d="M61.855,41.978C52.221,47.614,47.4,54.985,47.4,62.259s4.817,14.452,14.452,19.847a73.464,73.464,0,0,0,35.937,8.671h0a73.946,73.946,0,0,0,36.13-8.623c9.635-5.636,14.452-13.007,14.452-20.281s-4.817-14.452-14.452-19.9a73.368,73.368,0,0,0-35.889-8.623,73.994,73.994,0,0,0-36.178,8.623Zm16.716,73.657-6.937-14.452c-1.012,0-22.545,5.588-28.374,7.178a5.154,5.154,0,0,1-3.854-.53L21.39,97.522a4.817,4.817,0,0,1-1.108-7.852L30.494,79.216c-.434-.53-18.739-4.48-26.014-6.022a4.817,4.817,0,0,1-3.95-4.817V55.033a5.106,5.106,0,0,1,4.191-4.817l24.376-4A189.852,189.852,0,0,0,16.235,28.827L41.767,14.086l26.64,8.575A187.872,187.872,0,0,0,80.595,4.74h34.781a190.959,190.959,0,0,0,12,17.969l26.736-8.623,25.387,14.741a191.44,191.44,0,0,0-12.91,17.294l24.087,3.95a5.4,5.4,0,0,1,4.432,5.3V67.9a5.347,5.347,0,0,1-4.48,5.2l-24.087,3.95a95,95,0,0,0,9.057,12.525,5.3,5.3,0,0,1-1.831,7.949l-18.306,10.55a5.155,5.155,0,0,1-4.047.53c-5.925-1.445-27.122-7.419-28.181-7.226l-7.081,14.452a4.817,4.817,0,0,1-4.48,2.746H83.1a4.817,4.817,0,0,1-4.528-2.939Z" transform="translate(2.023 18.094)" fill="#c1d1d9" opacity="0.87"/>
  <path id="Path_75798" data-name="Path 75798" d="M61.576,41.651c-9.635,5.684-14.741,13.055-14.693,20.377S51.7,76.48,61.335,82.068a73.416,73.416,0,0,0,36.034,8.623h0A73.657,73.657,0,0,0,133.6,82.068c9.635-5.684,14.789-13.055,14.741-20.377s-4.817-14.452-14.452-20.04A73.127,73.127,0,0,0,97.9,33.028a73.994,73.994,0,0,0-36.323,8.623Zm16.957,73.657L71.6,101.1c-1.06-.241-22.545,5.54-28.47,7.13a5.106,5.106,0,0,1-3.854-.482L21.5,97.484a4.817,4.817,0,0,1-1.108-7.852l10.261-10.55c-.434-.578-18.788-4.48-26.158-6.07a4.817,4.817,0,0,1-3.95-4.817V55.043a4.817,4.817,0,0,1,4.191-4.817L29.2,46.179A191.013,191.013,0,0,0,16.245,28.837L41.584,14.385l26.688,8.334A186.288,186.288,0,0,0,80.508,4.75h34.637a183.061,183.061,0,0,0,12.043,17.969L153.924,14.1l25.146,14.452A202.033,202.033,0,0,0,165.92,45.89l24.087,4a5.251,5.251,0,0,1,4.432,5.251V67.616a5.3,5.3,0,0,1-4.432,5.2l-24.087,4a96.35,96.35,0,0,0,9.057,12.573,5.251,5.251,0,0,1-1.638,8.093l-18.065,10.405a5.155,5.155,0,0,1-4.047.53c-6.022-1.59-27.17-7.322-28.23-7.13l-7.13,14.452a4.817,4.817,0,0,1-4.48,2.794H83.013A4.817,4.817,0,0,1,78.533,115.308Z" transform="translate(2.061 18.132)" fill="#c0d0d9" opacity="0.89"/>
  <path id="Path_75799" data-name="Path 75799" d="M61.383,41.285C51.508,46.97,46.546,54.437,46.594,61.807s4.817,14.452,14.452,20.136a73.32,73.32,0,0,0,36.13,8.671h0a73.464,73.464,0,0,0,36.275-8.671c9.876-5.684,14.837-13.151,14.789-20.522s-4.817-14.452-14.452-20.136a73.512,73.512,0,0,0-36.082-8.671,74.331,74.331,0,0,0-36.323,8.671Zm17.1,73.705-6.937-14.452c-1.06-.241-22.5,5.54-28.519,7.13a5.106,5.106,0,0,1-3.854-.482L21.592,97.407a4.817,4.817,0,0,1-1.06-7.852l10.261-10.6c-.434-.578-18.788-4.528-26.254-6.118a4.817,4.817,0,0,1-4-4.817V55.3a4.817,4.817,0,0,1,4.191-4.817L29.3,46.44A192.693,192.693,0,0,0,16.438,28.568l25.1-14.452,26.64,8.623A187.877,187.877,0,0,0,80.508,4.77h34.4a184.554,184.554,0,0,0,12.14,17.921l26.736-8.623,24.906,14.452a194.141,194.141,0,0,0-13.151,17.439l24.087,4a5.347,5.347,0,0,1,4.432,5.3v12a5.3,5.3,0,0,1-4.432,5.2l-24.376,4A99.673,99.673,0,0,0,174.4,89.073a5.347,5.347,0,0,1-1.493,7.9l-17.872,10.309a5.492,5.492,0,0,1-4,.53c-6.118-1.686-27.266-7.371-28.374-7.13l-7.081,14.452a4.817,4.817,0,0,1-4.48,2.794H83.013a5.106,5.106,0,0,1-4.528-2.939Z" transform="translate(2.061 18.209)" fill="#bfcfd8" opacity="0.9"/>
  <path id="Path_75800" data-name="Path 75800" d="M61.153,41c-9.924,5.733-15.078,13.055-15.078,20.666s4.817,14.452,14.452,20.281A73.994,73.994,0,0,0,96.7,90.615h0a74.38,74.38,0,0,0,36.371-8.671C143,76.211,148.009,68.7,147.961,61.277S143.144,46.584,133.509,41a73.32,73.32,0,0,0-36.13-8.719A74.572,74.572,0,0,0,61.153,41ZM78.447,114.7,71.51,100.25c-1.108-.241-22.545,5.492-28.663,7.13a4.817,4.817,0,0,1-3.806-.482L21.7,96.829a4.817,4.817,0,0,1-1.06-7.852L30.948,78.331C30.514,78.138,12.353,74,4.5,72.357A4.817,4.817,0,0,1,.551,67.54V55.111a4.817,4.817,0,0,1,4.191-4.817L29.455,46.2a187.155,187.155,0,0,0-12.91-17.68L41.257,14.164l26.784,8.575A180.365,180.365,0,0,0,80.422,4.77h34.251a184.987,184.987,0,0,0,12.14,18.017L153.6,14.164,178.31,28.616a188.645,188.645,0,0,0-13.2,17.487l24.376,4.047a5.347,5.347,0,0,1,4.432,5.251V67.058a5.4,5.4,0,0,1-4.48,5.2l-24.472,4a93.939,93.939,0,0,0,9.2,12.718,5.347,5.347,0,0,1-1.542,7.9l-17.631,10.165a5.636,5.636,0,0,1-4.047.53c-6.214-1.686-27.314-7.371-28.422-7.13l-7.13,14.452a4.817,4.817,0,0,1-4.48,2.794H82.927A4.817,4.817,0,0,1,78.447,114.7Z" transform="translate(2.099 18.209)" fill="#beced8" opacity="0.92"/>
  <path id="Path_75801" data-name="Path 75801" d="M60.874,40.669C50.853,46.4,46.036,54.013,46.036,61.432s4.817,14.789,14.741,20.425A73.705,73.705,0,0,0,97,90.577h0a74.235,74.235,0,0,0,36.467-8.719c9.972-5.733,14.982-13.3,14.982-20.811s-4.817-14.741-14.741-20.425A73.657,73.657,0,0,0,97.485,31.95a74.042,74.042,0,0,0-36.612,8.719Zm17.535,73.705L71.423,99.922c-1.108-.241-22.5,5.492-28.9,7.178a4.817,4.817,0,0,1-3.613-.1L21.949,96.839a4.817,4.817,0,0,1-1.06-7.852L31.1,78.1c-.482-.578-18.884-4.576-26.592-6.214a4.817,4.817,0,0,1-3.95-4.817V54.88a4.817,4.817,0,0,1,4.191-4.817l24.809-4.095A188.7,188.7,0,0,0,16.65,28.385L41.219,14.174,67.907,22.8A181.565,181.565,0,0,0,80.336,4.78h34.01A178.237,178.237,0,0,0,126.582,22.8l26.784-8.623,24.472,14.211a190.15,190.15,0,0,0-13.2,17.583l24.472,4.047a5.251,5.251,0,0,1,4.432,5.251V66.779a5.3,5.3,0,0,1-4.432,5.2l-24.617,4.047a103.574,103.574,0,0,0,9.2,12.766,5.3,5.3,0,0,1-1.493,7.9l-17.391,10.02a5.2,5.2,0,0,1-4.047.53c-6.311-1.686-27.362-7.322-28.47-7.13l-7.13,14.452a4.817,4.817,0,0,1-4.48,2.794h-27.8a4.817,4.817,0,0,1-4.48-2.987Z" transform="translate(2.137 18.247)" fill="#bdced7" opacity="0.93"/>
  <path id="Path_75802" data-name="Path 75802" d="M60.45,40.294c-9.635,5.829-14.886,13.392-14.837,20.955S50.43,76.087,60.4,81.819a74.09,74.09,0,0,0,36.323,8.719h0a75.15,75.15,0,0,0,36.564-8.719c10.068-5.829,15.078-13.392,15.03-20.955s-4.817-14.886-14.789-20.57a74.09,74.09,0,0,0-36.323-8.719A74.861,74.861,0,0,0,60.45,40.294Zm17.68,73.8L71.193,99.643c-1.156-.241-22.5,5.444-28.9,7.13a4.817,4.817,0,0,1-3.806-.53L21.622,96.608a4.817,4.817,0,0,1-1.108-7.8L31.209,78.062c-.434-.578-18.884-4.576-26.688-6.263a4.817,4.817,0,0,1-3.95-4.817v-12a4.817,4.817,0,0,1,4.191-4.817l24.954-4.143a190.24,190.24,0,0,0-13.007-17.68L41.181,14.184l26.688,8.623A183.061,183.061,0,0,0,80.394,4.79h33.721a179.108,179.108,0,0,0,12.332,18.017l26.784-8.623L177.318,28.25a191.68,191.68,0,0,0-13.2,17.68l24.568,4.095a5.3,5.3,0,0,1,4.48,5.251V66.452a5.251,5.251,0,0,1-4.432,5.2l-24.713,4.095a94.178,94.178,0,0,0,9.249,12.862,5.3,5.3,0,0,1-1.542,7.852l-17.15,9.924a5.155,5.155,0,0,1-4.047.53c-6.407-1.686-27.411-7.322-28.567-7.081l-7.081,14.452a5.058,5.058,0,0,1-4.528,2.746H82.851a4.817,4.817,0,0,1-4.528-2.939Z" transform="translate(2.176 18.285)" fill="#bccdd6" opacity="0.94"/>
  <path id="Path_75803" data-name="Path 75803" d="M60.3,39.967C50.181,45.8,45.123,53.455,45.171,61.066S49.988,76,60.056,81.733A73.946,73.946,0,0,0,96.475,90.5h0a74.957,74.957,0,0,0,36.612-8.768c10.116-5.829,15.175-13.489,15.126-21.1S143.4,45.7,133.328,39.967A73.9,73.9,0,0,0,96.957,31.2,75.006,75.006,0,0,0,60.3,39.967Zm17.872,73.8L71.233,99.316c-1.156-.241-22.5,5.444-28.9,7.13a4.817,4.817,0,0,1-3.806-.53l-16.764-9.49a4.817,4.817,0,0,1-.963-7.8l10.6-10.6c-.482-.626-18.884-4.817-26.833-6.311A4.817,4.817,0,0,1,.611,66.9V54.948A4.817,4.817,0,0,1,4.8,50.131l25.05-4.143a183.052,183.052,0,0,0-12.91-17.824l24.087-13.97,26.688,8.623A176.169,176.169,0,0,0,80.145,4.8h33.721a178.584,178.584,0,0,0,12.381,18.065l26.833-8.671,24.087,13.97a184.454,184.454,0,0,0-13.248,17.728l24.713,4.095a5.347,5.347,0,0,1,4.432,5.251V66.173a5.347,5.347,0,0,1-4.48,5.2L163.774,75.47a99.237,99.237,0,0,0,9.249,12.959,5.251,5.251,0,0,1-1.927,7.852l-16.957,9.635a5.058,5.058,0,0,1-4,.53c-6.5-1.734-27.507-7.322-28.9-7.081l-7.13,14.452a4.817,4.817,0,0,1-4.48,2.794H82.65a4.817,4.817,0,0,1-4.48-2.842Z" transform="translate(2.328 18.323)" fill="#bbccd6" opacity="0.96"/>
  <path id="Path_75804" data-name="Path 75804" d="M60.412,39.447C50.3,45.324,45.189,52.983,45.237,60.643s4.817,15.078,14.982,20.811A74.669,74.669,0,0,0,96.686,90.27h0a74.717,74.717,0,0,0,36.708-8.816c10.165-5.829,15.223-13.537,15.175-21.2s-4.817-15.078-14.934-20.811a74.139,74.139,0,0,0-36.467-8.768,74.476,74.476,0,0,0-36.756,8.768Zm17.824,74.042L71.3,99.037c-1.156,0-22.449,5.4-28.9,7.13a4.817,4.817,0,0,1-3.806-.53L22.162,96a4.817,4.817,0,0,1-1.06-7.8L31.508,77.6c-.482-.626-18.932-4.817-27.025-6.359a4.817,4.817,0,0,1-3.9-4.817V54.91a4.817,4.817,0,0,1,4.191-4.817L29.918,45.95A184.409,184.409,0,0,0,17.056,28.03L41.143,14.252l26.5,8.623A183.057,183.057,0,0,0,80.259,4.81h33.432A174.148,174.148,0,0,0,126.12,22.875l26.833-8.623L176.7,28.03a185.9,185.9,0,0,0-13.248,17.824l24.809,4.095a5.4,5.4,0,0,1,4.432,5.3V65.894a5.251,5.251,0,0,1-4.432,5.2L163.31,75.239a100.88,100.88,0,0,0,9.3,13.007,5.3,5.3,0,0,1-1.4,7.852l-16.716,9.635a5.058,5.058,0,0,1-4,.53c-6.6-1.734-27.555-7.322-28.9-7.081l-7.081,14.452a4.817,4.817,0,0,1-4.48,2.794H82.764A5.106,5.106,0,0,1,78.236,113.489Z" transform="translate(2.214 18.361)" fill="#bacbd5" opacity="0.97"/>
  <path id="Path_75805" data-name="Path 75805" d="M60.092,39.408C49.88,45.286,44.773,53.042,44.821,60.749S49.639,75.876,59.852,81.7a74.621,74.621,0,0,0,36.564,8.768h0a74.669,74.669,0,0,0,36.8-8.768c10.213-5.925,15.319-13.633,15.271-21.341s-5.058-15.271-15.03-20.955A74.524,74.524,0,0,0,96.9,30.641a75.343,75.343,0,0,0-36.8,8.768ZM78.35,113.162,71.413,98.71c-1.2-.289-22.449,5.347-28.9,7.081a5.2,5.2,0,0,1-3.806-.482L22.517,95.675a4.817,4.817,0,0,1-1.06-7.8l10.165-10.5c-.434-.626-18.932-4.817-27.122-6.407A5.058,5.058,0,0,1,.55,66.145V55.065a4.817,4.817,0,0,1,4.191-4.817l25.243-4.191A185.177,185.177,0,0,0,17.17,27.943L40.919,14.262l26.736,8.623A170.775,170.775,0,0,0,80.325,4.82h33.191a174.145,174.145,0,0,0,12.525,18.065l26.881-8.623,23.509,13.681a180.745,180.745,0,0,0-13.248,17.872l24.906,4.143a5.251,5.251,0,0,1,4.432,5.251V65.615a5.3,5.3,0,0,1-4.432,5.2l-25.05,4.143a92.156,92.156,0,0,0,9.346,13.1,5.347,5.347,0,0,1-1.542,7.852l-16.523,9.635a5.3,5.3,0,0,1-4,.578c-6.7-1.782-27.651-7.371-28.9-7.13l-7.13,14.452a4.817,4.817,0,0,1-4.48,2.794H82.83A4.817,4.817,0,0,1,78.35,113.162Z" transform="translate(2.1 18.4)" fill="#b9cbd5" opacity="0.99"/>
  <path id="Path_75806" data-name="Path 75806" d="M132.98,81.522c20.377-11.754,20.474-30.831.241-42.585a81.028,81.028,0,0,0-73.513,0c-20.377,11.754-20.474,30.831,0,42.585a81.028,81.028,0,0,0,73.512,0Zm42.971-53.713a182.529,182.529,0,0,0-13.3,17.969l25.05,4.143a5.347,5.347,0,0,1,4.432,5.3V65.336a5.347,5.347,0,0,1-4.48,5.2l-25.146,4.143a96.779,96.779,0,0,0,9.346,13.2,5.3,5.3,0,0,1-1.542,7.852l-16.234,9.394a5.636,5.636,0,0,1-4.047.53c-6.792-1.831-27.7-7.322-28.9-7.081L114,113.027a4.817,4.817,0,0,1-4.48,2.794H82.639a4.817,4.817,0,0,1-4.48-2.794L71.174,98.575c-1.2-.289-22.449,5.347-28.9,7.081a4.817,4.817,0,0,1-3.806-.482l-16.138-9.3a4.817,4.817,0,0,1-1.06-7.8l10.55-10.935c-.482-.626-18.98-4.817-27.266-6.455A5.058,5.058,0,0,1,.6,65.866V55.027a4.817,4.817,0,0,1,4.191-4.817l25.387-4.191a181.178,181.178,0,0,0-13.2-18.209L40.632,14.272,67.368,22.9A172.32,172.32,0,0,0,80.134,4.83h33.191a173.761,173.761,0,0,0,12.525,18.113l26.881-8.671Z" transform="translate(2.29 18.438)" fill="#b8cad4"/>
  <path id="Path_75807" data-name="Path 75807" d="M18.743,20.787l.048,25L3.616,29.892l-.1-25Z" transform="translate(13.437 18.667)" fill="#dfe6f0"/>
  <path id="Path_75808" data-name="Path 75808" d="M49.437,4.89l.048,25L34.118,45.837l-.048-25.05Z" transform="translate(130.057 18.667)" fill="#dfe6f0"/>
  <path id="Path_75809" data-name="Path 75809" d="M115.687,36.086v25.05c0-7.852-5.2-15.7-15.512-21.678-20.715-12.043-54.388-12.043-75.247,0C14.523,45.527,9.272,53.476,9.32,61.377V36.326c0-7.9,5.251-15.849,15.7-21.919,20.907-12.043,54.58-12.043,75.295,0C110.532,20.429,115.687,28.233,115.687,36.086Z" transform="translate(35.577 20.518)" fill="#dfe6f0"/>
  <path id="Path_75810" data-name="Path 75810" d="M30.2,18.782l.048,25.05-30.2-5.01L0,13.82Z" transform="translate(0 52.756)" fill="#dfe6f0"/>
  <path id="Path_75811" data-name="Path 75811" d="M64.653,13.82l.1,25-30.3,5.01L34.4,18.782Z" transform="translate(131.316 52.756)" fill="#dfe6f0"/>
  <path id="Path_75812" data-name="Path 75812" d="M8.052,17.355v25.05c-.626-.819-1.2-1.686-1.782-2.505V14.85a29.626,29.626,0,0,0,1.782,2.505Z" transform="translate(23.935 56.687)" fill="#dfe6f0"/>
  <path id="Path_75813" data-name="Path 75813" d="M35.812,14.85V39.9a26.785,26.785,0,0,1-1.782,2.505V17.355A29.633,29.633,0,0,0,35.812,14.85Z" transform="translate(129.904 56.687)" fill="#dfe6f0"/>
  <path id="Path_75814" data-name="Path 75814" d="M18.4,20.732v25c-1.445-.289-2.89-.626-4.287-1.012v-25Z" transform="translate(53.863 75.278)" fill="#dfe6f0"/>
  <path id="Path_75815" data-name="Path 75815" d="M29.946,19.72v25L25.61,45.734v-25C27.055,20.443,28.5,20.057,29.946,19.72Z" transform="translate(97.762 75.278)" fill="#dfe6f0"/>
  <path id="Path_75816" data-name="Path 75816" d="M35.945,19.71l.1,25.05L8.486,53.624l-.1-25.05Z" transform="translate(32.028 75.24)" fill="#dfe6f0"/>
  <path id="Path_75817" data-name="Path 75817" d="M27.286,32.506l.1,25.05L3.536,43.682l-.1-25Z" transform="translate(13.132 71.308)" fill="#e9edf4"/>
  <path id="Path_75818" data-name="Path 75818" d="M53.921,28.574l.048,25.05L26.558,44.76,26.51,19.71Z" transform="translate(101.198 75.24)" fill="#dfe6f0"/>
  <path id="Path_75819" data-name="Path 75819" d="M56.19,18.67l.1,25.05L32.248,57.594,32.2,32.544Z" transform="translate(122.918 71.27)" fill="#e9edf4"/>
  <path id="Path_75820" data-name="Path 75820" d="M23.527,37.465l.1,25L15.1,44.932l-.1-25Z" transform="translate(57.26 76.079)" fill="#dfe6f0"/>
  <path id="Path_75821" data-name="Path 75821" d="M32.519,19.93l.048,25L23.848,62.467l-.048-25Z" transform="translate(90.853 76.079)" fill="#dfe6f0"/>
  <path id="Path_75822" data-name="Path 75822" d="M50.636,23.57l.048,25H16.866l-.1-25Z" transform="translate(64.017 89.975)" fill="#e9edf4"/>
  <path id="Path_75823" data-name="Path 75823" d="M179.494,23.557l-15.367,15.9c.626.819,1.2,1.686,1.782,2.505l30.2,4.817V66.383L165.861,71.2a29.63,29.63,0,0,1-1.782,2.505l15.175,15.9-24.087,13.874-27.411-8.816c-1.445.337-2.89.723-4.336,1.012l-8.768,17.872H80.931L72.26,96.009,67.973,95l-27.555,8.816L16.331,89.988,31.746,74.042a29.625,29.625,0,0,1-1.782-2.505L0,66.576V46.969l30.3-4.817a26.785,26.785,0,0,1,1.782-2.505L16.957,23.557,41,9.635l27.411,8.912c1.4-.385,2.89-.723,4.336-1.012L81.461,0h33.721l8.623,17.487,4.336,1.06,27.507-8.912ZM135.56,78.571c20.859-12.043,20.955-31.554.241-43.356s-54.388-12.043-75.295,0S39.55,66.768,60.265,78.571,114.7,90.614,135.56,78.571Z" transform="translate(0)" fill="#f6f8fc"/>
</svg>
