<svg xmlns="http://www.w3.org/2000/svg" width="25" height="16.113" viewBox="0 0 25 16.113">
  <g id="Group_24998" data-name="Group 24998" transform="translate(-750.118 -173.896)">
    <path id="Path_75460" data-name="Path 75460" d="M762.618,174.723c7.084,0,12,7.229,12,7.229s-4.916,7.229-12,7.229-12-7.229-12-7.229S755.534,174.723,762.618,174.723Z" fill="none" stroke="#5b5b5b" stroke-linecap="round" stroke-linejoin="round" stroke-width="1"/>
    <circle id="Ellipse_3875" data-name="Ellipse 3875" cx="5.153" cy="5.153" r="5.153" transform="translate(757.609 176.799)" fill="none" stroke="#ffffff" stroke-linecap="round" stroke-linejoin="round" stroke-width="1"/>
    <path id="Path_75461" data-name="Path 75461" d="M760.587,181.718l1.767,1.767,2.889-2.889" fill="none" stroke="#ffffff" stroke-linecap="round" stroke-linejoin="round" stroke-width="1"/>
    <path id="Path_75462" data-name="Path 75462" d="M751.708,176.191v-1.1a.69.69,0,0,1,.69-.69H753.5" fill="none" stroke="#ffffff" stroke-linecap="round" stroke-linejoin="round" stroke-width="1"/>
    <path id="Path_75463" data-name="Path 75463" d="M753.5,189.509H752.4a.69.69,0,0,1-.69-.69v-1.106" fill="none" stroke="#ffffff" stroke-linecap="round" stroke-linejoin="round" stroke-width="1"/>
    <path id="Path_75464" data-name="Path 75464" d="M773.528,187.713v1.106a.69.69,0,0,1-.69.69h-1.106" fill="none" stroke="#ffffff" stroke-linecap="round" stroke-linejoin="round" stroke-width="1"/>
    <path id="Path_75465" data-name="Path 75465" d="M771.732,174.4h1.106a.69.69,0,0,1,.69.69v1.1" fill="none" stroke="#ffffff" stroke-linecap="round" stroke-linejoin="round" stroke-width="1"/>
  </g>
</svg>
