<svg xmlns="http://www.w3.org/2000/svg" width="23.55" height="22.212" viewBox="0 0 23.55 22.212"><defs><style>.a{fill:none;stroke:#ffffff;stroke-miterlimit:10;stroke-width:1.2px;}</style></defs><g transform="translate(2016.432 -1192.116)"><path class="a" d="M48,226.938h3.876l1.454.484L54.783,225l1.454,3.392,1.454-2.423,1.454,1.938.485-1.454.969.485.485-.485.969.485h.485" transform="translate(-2064.432 974.014)"/><path class="a" d="M57.115,221.361a5.815,5.815,0,1,1,0,2.909" transform="translate(-2069.131 978.138)"/><path class="a" d="M52,218.785a8.237,8.237,0,1,1,0,2.9" transform="translate(-2066.494 980.716)"/><line class="a" x2="2.895" transform="translate(-1997.179 1200.679)"/><path class="a" d="M79,240.938l5.614,5.614a.969.969,0,0,0,1.37,0l.568-.568a.969.969,0,0,0,0-1.37L80.938,239" transform="translate(-2080.412 966.798)"/></g></svg>