<svg xmlns="http://www.w3.org/2000/svg" width="152" height="132" viewBox="0 0 152 132">
  <g id="Group_24311" data-name="Group 24311" transform="translate(-397.218 -413)">
    <circle id="Ellipse_3854" data-name="Ellipse 3854" cx="57" cy="57" r="57" transform="translate(430.218 413)" fill="#e9eaeb"/>
    <rect id="Rectangle_149705" data-name="Rectangle 149705" width="21" height="67" transform="translate(421.218 477)" fill="#fff"/>
    <rect id="Rectangle_149706" data-name="Rectangle 149706" width="22" height="79" transform="translate(463.218 465)" fill="#fff"/>
    <rect id="Rectangle_149707" data-name="Rectangle 149707" width="22" height="105" transform="translate(506.218 439)" fill="#fff"/>
    <rect id="Rectangle_149708" data-name="Rectangle 149708" width="21" height="57" transform="translate(442.218 487)" fill="#a3d4ff"/>
    <rect id="Rectangle_149709" data-name="Rectangle 149709" width="21" height="69" transform="translate(485.218 475)" fill="#a3d4ff"/>
    <path id="Path_69843" data-name="Path 69843" d="M401,480.345h19.055l9.527-11.909h14.291l7.145,9.527h19.055l19.055-19.055h19.055L515.327,447H532" transform="translate(5.527 46.982)" fill="none" stroke="#2a5082" stroke-miterlimit="10" stroke-width="2"/>
    <line id="Line_1479" data-name="Line 1479" y2="14" transform="translate(449.218 437)" fill="none" stroke="#bcc0c4" stroke-miterlimit="10" stroke-width="2"/>
    <line id="Line_1480" data-name="Line 1480" x1="14" transform="translate(442.218 444)" fill="none" stroke="#bcc0c4" stroke-miterlimit="10" stroke-width="2"/>
    <line id="Line_1481" data-name="Line 1481" y2="14" transform="translate(416.218 442)" fill="none" stroke="#bcc0c4" stroke-miterlimit="10" stroke-width="2"/>
    <line id="Line_1482" data-name="Line 1482" x1="14" transform="translate(409.218 449)" fill="none" stroke="#bcc0c4" stroke-miterlimit="10" stroke-width="2"/>
    <line id="Line_1483" data-name="Line 1483" y2="15" transform="translate(435.218 415)" fill="none" stroke="#bcc0c4" stroke-miterlimit="10" stroke-width="2"/>
    <line id="Line_1484" data-name="Line 1484" x1="14" transform="translate(428.218 423)" fill="none" stroke="#bcc0c4" stroke-miterlimit="10" stroke-width="2"/>
    <line id="Line_1485" data-name="Line 1485" x1="12" transform="translate(406.218 544)" fill="none" stroke="#2a5082" stroke-miterlimit="10" stroke-width="2"/>
    <line id="Line_1486" data-name="Line 1486" x1="5" transform="translate(397.218 544)" fill="none" stroke="#2a5082" stroke-miterlimit="10" stroke-width="2"/>
    <line id="Line_1487" data-name="Line 1487" x1="5" transform="translate(544.218 544)" fill="none" stroke="#2a5082" stroke-miterlimit="10" stroke-width="2"/>
    <line id="Line_1488" data-name="Line 1488" x1="10" transform="translate(530.218 544)" fill="none" stroke="#2a5082" stroke-miterlimit="10" stroke-width="2"/>
    <path id="Path_69844" data-name="Path 69844" d="M446.436,475.491V435H425v21.436" transform="translate(38.691 30.4)" fill="none" stroke="#2a5082" stroke-miterlimit="10" stroke-width="2"/>
    <path id="Path_69845" data-name="Path 69845" d="M425,479.055h21.436V460" transform="translate(38.691 64.945)" fill="none" stroke="#2a5082" stroke-miterlimit="10" stroke-width="2"/>
    <path id="Path_69846" data-name="Path 69846" d="M455.436,455v30.964H434" transform="translate(51.127 58.036)" fill="none" stroke="#2a5082" stroke-miterlimit="10" stroke-width="2"/>
    <path id="Path_69847" data-name="Path 69847" d="M434,439h21.436v23.818" transform="translate(51.127 35.927)" fill="none" stroke="#2a5082" stroke-miterlimit="10" stroke-width="2"/>
    <path id="Path_69848" data-name="Path 69848" d="M437.436,463v11.909H416" transform="translate(26.254 69.091)" fill="none" stroke="#2a5082" stroke-miterlimit="10" stroke-width="2"/>
    <path id="Path_69849" data-name="Path 69849" d="M416,444h21.436v30.964" transform="translate(26.254 42.836)" fill="none" stroke="#2a5082" stroke-miterlimit="10" stroke-width="2"/>
    <path id="Path_69850" data-name="Path 69850" d="M428.436,459v21.436H407v-9.527" transform="translate(13.818 63.564)" fill="none" stroke="#2a5082" stroke-miterlimit="10" stroke-width="2"/>
    <path id="Path_69851" data-name="Path 69851" d="M407,482.873V440h21.436v30.964" transform="translate(13.818 37.309)" fill="none" stroke="#2a5082" stroke-miterlimit="10" stroke-width="2"/>
    <path id="Path_69852" data-name="Path 69852" d="M464.436,450v42.873H443" transform="translate(63.564 51.127)" fill="none" stroke="#2a5082" stroke-miterlimit="10" stroke-width="2"/>
    <path id="Path_69853" data-name="Path 69853" d="M464.436,471.636V424H443v35.727" transform="translate(63.564 15.2)" fill="none" stroke="#2a5082" stroke-miterlimit="10" stroke-width="2"/>
  </g>
</svg>
