<svg xmlns="http://www.w3.org/2000/svg" width="24.74" height="24" viewBox="0 0 24.74 24">
  <g id="Group_24995" data-name="Group 24995" transform="translate(-1754.874 -446.129)">
    <path id="Path_75449" data-name="Path 75449" d="M1771.654,467.1h-13.747V453.349h13.747V467.1Zm.422-14.59h-14.59a.418.418,0,0,0-.421.421v14.59a.418.418,0,0,0,.421.421h14.59a.42.42,0,0,0,.421-.421v-14.59a.42.42,0,0,0-.421-.421Z" fill="#5b5b5b"/>
    <path id="Path_75450" data-name="Path 75450" d="M1773.845,468.475a.816.816,0,0,1-.814.812h-16.5a.812.812,0,0,1-.812-.812v-16.5a.812.812,0,0,1,.812-.813h16.5a.816.816,0,0,1,.814.813v16.5Zm4.137-22.346h-7.623a.421.421,0,1,0,0,.842h7.623a.789.789,0,0,1,.789.791v16.547a.789.789,0,0,1-.789.789h0l-3.292.02V451.972a1.654,1.654,0,0,0-1.655-1.655h-12.359l-.028-2.556a.789.789,0,0,1,.789-.79h5.558a.421.421,0,1,0,0-.842h-5.558a1.634,1.634,0,0,0-1.632,1.633v0l.029,2.551h-3.3a1.656,1.656,0,0,0-1.655,1.655v16.5a1.656,1.656,0,0,0,1.655,1.654h16.5a1.654,1.654,0,0,0,1.655-1.654V465.96l3.3-.02h0a1.632,1.632,0,0,0,1.632-1.631V447.762a1.634,1.634,0,0,0-1.632-1.633Z" fill="#5b5b5b"/>
    <path id="Path_75451" data-name="Path 75451" d="M1760.928,460.74h3.452v3.452a.422.422,0,0,0,.843,0V460.74h3.452a.421.421,0,1,0,0-.843h-3.452v-3.452a.422.422,0,0,0-.843,0V459.9h-3.452a.421.421,0,0,0,0,.843Z" fill="#5b5b5b"/>
  </g>
</svg>
