<svg xmlns="http://www.w3.org/2000/svg" width="25.07" height="25.07" viewBox="0 0 25.07 25.07"><defs><style>.a,.b{fill:none;stroke:#ffffff;stroke-linecap:round;stroke-linejoin:round;stroke-miterlimit:10;}.b{stroke-width:0.5px;}</style></defs><g transform="translate(-6.5 -6.5)"><g transform="translate(7 7)"><path class="a" d="M31.07,15.88V34.406A1.091,1.091,0,0,1,29.979,35.5H8.091A1.091,1.091,0,0,1,7,34.406V15.88Z" transform="translate(-7 -11.427)"/><path class="a" d="M31.07,8.091v3.362H7V8.091A1.091,1.091,0,0,1,8.091,7H29.979A1.091,1.091,0,0,1,31.07,8.091Z" transform="translate(-7 -7)"/><g transform="translate(2.089 2.226)"><line class="b" x2="13.773" transform="translate(6.118)"/><line class="b"/><line class="b" transform="translate(2.507)"/></g><g transform="translate(4.671 10.202)"><path class="a" d="M31.043,31.432s-3.295,4.092-7.361,4.092-7.366-4.092-7.366-4.092,3.3-4.087,7.366-4.087S31.043,31.432,31.043,31.432Z" transform="translate(-16.315 -27.345)"/><circle class="a" cx="1.833" cy="1.833" r="1.833" transform="translate(5.53 2.256)"/></g></g></g></svg>