<svg xmlns="http://www.w3.org/2000/svg" width="82.5" height="82.5" viewBox="0 0 82.5 82.5"><defs><style>.a{fill:#fff;}.b,.d{fill:#707070;}.c,.d{stroke:none;}</style></defs><g transform="translate(-641.903 -434)"><g class="a" transform="translate(641.903 434)"><path class="c" d="M 41.25 80.5 C 35.95040130615234 80.5 30.81038665771484 79.46250915527344 25.97273826599121 77.41635894775391 C 21.29911231994629 75.43959045410156 17.10135078430176 72.60923767089844 13.49606227874756 69.00393676757813 C 9.890762329101563 65.39865112304688 7.060412406921387 61.20088577270508 5.083637714385986 56.52726364135742 C 3.037487506866455 51.68961334228516 2 46.54959869384766 2 41.25 C 2 35.95040130615234 3.037487506866455 30.81038665771484 5.083637714385986 25.97273826599121 C 7.060412406921387 21.29911231994629 9.890762329101563 17.10135078430176 13.49606227874756 13.49606227874756 C 17.10135078430176 9.890762329101563 21.29911231994629 7.060412406921387 25.97273826599121 5.083637714385986 C 30.81038665771484 3.037487506866455 35.95040130615234 2 41.25 2 C 46.54959869384766 2 51.68961334228516 3.037487506866455 56.52726364135742 5.083637714385986 C 61.20088577270508 7.060412406921387 65.39865112304688 9.890762329101563 69.00393676757813 13.49606227874756 C 72.60923767089844 17.10135078430176 75.43959045410156 21.29911231994629 77.41635894775391 25.97273826599121 C 79.46250915527344 30.81038665771484 80.5 35.95040130615234 80.5 41.25 C 80.5 46.54959869384766 79.46250915527344 51.68961334228516 77.41635894775391 56.52726364135742 C 75.43959045410156 61.20088577270508 72.60923767089844 65.39865112304688 69.00393676757813 69.00393676757813 C 65.39865112304688 72.60923767089844 61.20088577270508 75.43959045410156 56.52726364135742 77.41635894775391 C 51.68961334228516 79.46250915527344 46.54959869384766 80.5 41.25 80.5 Z"/><path class="d" d="M 41.25 4 C 36.21951293945313 4 31.34164428710938 4.984329223632813 26.7518424987793 6.925643920898438 C 22.31662750244141 8.801582336425781 18.33254241943359 11.48799896240234 14.91027069091797 14.91027069091797 C 11.48799896240234 18.33254241943359 8.801582336425781 22.31662750244141 6.925643920898438 26.7518424987793 C 4.984329223632813 31.34164428710938 4 36.21951293945313 4 41.25 C 4 46.28048706054688 4.984329223632813 51.15835571289063 6.925643920898438 55.7481575012207 C 8.801582336425781 60.18337249755859 11.48799896240234 64.16745758056641 14.91027069091797 67.58972930908203 C 18.33254241943359 71.01200103759766 22.31662750244141 73.69841003417969 26.7518424987793 75.57435607910156 C 31.34164428710938 77.51567077636719 36.21951293945313 78.5 41.25 78.5 C 46.28048706054688 78.5 51.15835571289063 77.51567077636719 55.7481575012207 75.57435607910156 C 60.18337249755859 73.69841003417969 64.16745758056641 71.01200103759766 67.58972930908203 67.58972930908203 C 71.01200103759766 64.16745758056641 73.69841003417969 60.18337249755859 75.57435607910156 55.7481575012207 C 77.51567077636719 51.15835571289063 78.5 46.28048706054688 78.5 41.25 C 78.5 36.21951293945313 77.51567077636719 31.34164428710938 75.57435607910156 26.7518424987793 C 73.69841003417969 22.31662750244141 71.01200103759766 18.33254241943359 67.58972930908203 14.91027069091797 C 64.16745758056641 11.48799896240234 60.18337249755859 8.801582336425781 55.7481575012207 6.925643920898438 C 51.15835571289063 4.984329223632813 46.28048706054688 4 41.25 4 M 41.25 0 C 64.03173828125 0 82.5 18.46825408935547 82.5 41.25 C 82.5 64.03173828125 64.03173828125 82.5 41.25 82.5 C 18.46825408935547 82.5 0 64.03173828125 0 41.25 C 0 18.46825408935547 18.46825408935547 0 41.25 0 Z"/></g><g transform="translate(668.56 458.545)"><g transform="translate(0)"><g transform="translate(0 0)"><path class="b" d="M15.316,2.7A1.349,1.349,0,0,0,16.665,1.35,1.3,1.3,0,0,0,15.316,0H4.432A1.3,1.3,0,0,0,3.083,1.35,1.349,1.349,0,0,0,4.432,2.7Z" transform="translate(5.555 0)"/><path class="b" d="M29.5,2.12H1.35A1.3,1.3,0,0,0,0,3.469,1.349,1.349,0,0,0,1.35,4.818H3.374V26.226a4.048,4.048,0,0,0,4.048,4.048H23.432a4.048,4.048,0,0,0,4.048-4.048V4.818H29.5a1.349,1.349,0,0,0,1.349-1.349A1.3,1.3,0,0,0,29.5,2.12ZM24.782,26.226a1.3,1.3,0,0,1-1.349,1.349H7.422a1.3,1.3,0,0,1-1.349-1.349V4.818H24.782Z" transform="translate(0 3.818)"/><path class="b" d="M5.251,17.313A1.394,1.394,0,0,0,6.6,15.964V6.294A1.349,1.349,0,0,0,5.251,4.945,1.3,1.3,0,0,0,3.9,6.294v9.669A1.349,1.349,0,0,0,5.251,17.313Z" transform="translate(7.026 8.908)"/><path class="b" d="M7.5,17.313a1.349,1.349,0,0,0,1.349-1.349V6.294A1.3,1.3,0,0,0,7.5,4.945,1.349,1.349,0,0,0,6.149,6.294v9.669A1.394,1.394,0,0,0,7.5,17.313Z" transform="translate(11.077 8.908)"/></g></g></g></g></svg>