<svg xmlns="http://www.w3.org/2000/svg" width="24.628" height="24.624" viewBox="0 0 24.628 24.624">
  <g id="Group_46930" data-name="Group 46930" transform="translate(-1609.622 -1606.138)">
    <path id="Path_197159" data-name="Path 197159" d="M1631.232,1611.053h-4.319v-2.443a.279.279,0,0,0-.082-.2,6.931,6.931,0,0,0-9.79,0,.279.279,0,0,0-.082.2v2.443h-4.319a2.771,2.771,0,0,0-2.768,2.768v13.924a2.771,2.771,0,0,0,2.768,2.768h18.592a2.771,2.771,0,0,0,2.768-2.768v-13.924A2.771,2.771,0,0,0,1631.232,1611.053Zm-13.714-2.326a6.372,6.372,0,0,1,8.837,0v2.326h-8.837Zm-4.877,2.884h18.592a2.212,2.212,0,0,1,2.21,2.21v3.376l-8.824,2.811v-.9a.279.279,0,0,0-.279-.279h-4.805a.279.279,0,0,0-.279.279v.9l-8.824-2.811v-3.376A2.212,2.212,0,0,1,1612.64,1611.611Zm11.419,7.773v2.06l-.764,1.562h-2.72l-.763-1.562v-2.06Zm7.172,10.57H1612.64a2.212,2.212,0,0,1-2.21-2.21v-.528h5.437a.279.279,0,1,0,0-.558h-5.437v-1.923h2.328a.279.279,0,0,0,0-.558h-2.328v-6.4l8.824,2.811v.915a.28.28,0,0,0,.028.123l.868,1.776a.279.279,0,0,0,.251.156h3.068a.279.279,0,0,0,.251-.156l.868-1.776a.279.279,0,0,0,.028-.123v-.916l8.824-2.811v6.4h-2.328a.279.279,0,1,0,0,.558h2.328v1.923H1628a.279.279,0,0,0,0,.558h5.437v.528A2.212,2.212,0,0,1,1631.232,1629.954Z" transform="translate(0)" fill="#5b5b5b" stroke="#5b5b5b" stroke-width="0.5"/>
    <path id="Path_197160" data-name="Path 197160" d="M1674.472,1664.573h2.1a.279.279,0,0,0,0-.558h-2.1a.279.279,0,1,0,0,.558Z" transform="translate(-53.585 -48.008)" fill="#5b5b5b" stroke="#5b5b5b" stroke-width="0.5"/>
  </g>
</svg>
