<svg xmlns="http://www.w3.org/2000/svg" width="35.233" height="34.461" viewBox="0 0 35.233 34.461">
  <g id="Group_19725" data-name="Group 19725" transform="translate(-1058.767 -890)">
    <g id="Group_17054" data-name="Group 17054" transform="translate(1058.767 899.385)">
      <g id="Path_51435" data-name="Path 51435" fill="none">
        <path d="M12.538,0A12.538,12.538,0,1,1,0,12.538,12.538,12.538,0,0,1,12.538,0Z" stroke="none"/>
        <path d="M 12.5381031036377 0.7000026702880859 C 9.376032829284668 0.7000026702880859 6.403223037719727 1.93138313293457 4.167303085327148 4.167303085327148 C 1.93138313293457 6.403223037719727 0.7000026702880859 9.376032829284668 0.7000026702880859 12.5381031036377 C 0.7000026702880859 15.70017337799072 1.93138313293457 18.67298316955566 4.167303085327148 20.90890312194824 C 6.403223037719727 23.14482307434082 9.376032829284668 24.3762035369873 12.5381031036377 24.3762035369873 C 15.70017337799072 24.3762035369873 18.67298316955566 23.14482307434082 20.90890312194824 20.90890312194824 C 23.14482307434082 18.67298316955566 24.3762035369873 15.70017337799072 24.3762035369873 12.5381031036377 C 24.3762035369873 9.376032829284668 23.14482307434082 6.403223037719727 20.90890312194824 4.167303085327148 C 18.67298316955566 1.93138313293457 15.70017337799072 0.7000026702880859 12.5381031036377 0.7000026702880859 M 12.5381031036377 3.814697265625e-06 C 19.46270370483398 3.814697265625e-06 25.07620239257813 5.613502502441406 25.07620239257813 12.5381031036377 C 25.07620239257813 19.46270370483398 19.46270370483398 25.07620239257813 12.5381031036377 25.07620239257813 C 5.613502502441406 25.07620239257813 3.814697265625e-06 19.46270370483398 3.814697265625e-06 12.5381031036377 C 3.814697265625e-06 5.613502502441406 5.613502502441406 3.814697265625e-06 12.5381031036377 3.814697265625e-06 Z" stroke="none" fill="#5a5a5a"/>
      </g>
      <g id="Group_15834" data-name="Group 15834" transform="translate(6.269 5.485)">
        <g id="Group_15833" data-name="Group 15833" transform="translate(8.345 0.733)">
          <path id="Path_51420" data-name="Path 51420" d="M633.374,810.672a2.555,2.555,0,0,0,0-5.11" transform="translate(-633.374 -803.49)" fill="none" stroke="#5a5a5a" stroke-miterlimit="10" stroke-width="0.7"/>
          <path id="Path_51421" data-name="Path 51421" d="M633.374,783.844h.537V784.9a3.534,3.534,0,0,1,.771.209l.523-.912.931.541-.523.913a3.618,3.618,0,0,1,.564.568l.906-.527.537.938-.906.527a3.616,3.616,0,0,1,.207.777h1.045v1.082h-1.045a3.615,3.615,0,0,1-.207.777l.906.527-.537.937-.906-.527a3.616,3.616,0,0,1-.564.568l.523.913-.931.541-.523-.912a3.555,3.555,0,0,1-.771.209V793.1h-.537" transform="translate(-633.374 -783.844)" fill="none" stroke="#5a5a5a" stroke-miterlimit="10" stroke-width="0.7"/>
        </g>
        <path id="Path_51422" data-name="Path 51422" d="M597.789,859.854a1.062,1.062,0,0,0-.1.443,1.089,1.089,0,0,0,1.1,1.081,1.107,1.107,0,0,0,.427-.085" transform="translate(-592.752 -851.87)" fill="none" stroke="#5a5a5a" stroke-miterlimit="10" stroke-width="0.7"/>
        <path id="Path_51423" data-name="Path 51423" d="M586.764,828.322a1.5,1.5,0,1,0,0,3.008,1.558,1.558,0,0,0,.308-.03" transform="translate(-581.485 -823.346)" fill="none" stroke="#5a5a5a" stroke-miterlimit="10" stroke-width="0.7"/>
        <path id="Path_51424" data-name="Path 51424" d="M586.576,802.4a1.512,1.512,0,0,0-1.338,1.492,1.5,1.5,0,0,0,.666,1.242" transform="translate(-581.485 -799.894)" fill="none" stroke="#5a5a5a" stroke-miterlimit="10" stroke-width="0.7"/>
        <path id="Path_51425" data-name="Path 51425" d="M600.916,789.107a1.1,1.1,0,0,0-.8-.337,1.089,1.089,0,0,0-1.1,1.081,1.069,1.069,0,0,0,.3.742" transform="translate(-593.955 -787.566)" fill="none" stroke="#5a5a5a" stroke-miterlimit="10" stroke-width="0.7"/>
        <path id="Path_51426" data-name="Path 51426" d="M613.871,791.961a.676.676,0,0,0-.151.57.718.718,0,0,0,.712.567c.4,0,.352-.312.352-.7V784.54c0-.384.025-.7-.375-.7a.721.721,0,0,0-.7.512" transform="translate(-607.24 -783.111)" fill="none" stroke="#5a5a5a" stroke-miterlimit="10" stroke-width="0.7"/>
        <path id="Path_51427" data-name="Path 51427" d="M603.873,800.469a.892.892,0,0,1-.43,1.729" transform="translate(-597.954 -798.15)" fill="none" stroke="#5a5a5a" stroke-miterlimit="10" stroke-width="0.7"/>
        <path id="Path_51428" data-name="Path 51428" d="M596.93,835.119a.661.661,0,0,1-1.017.634" transform="translate(-591.142 -829.495)" fill="none" stroke="#5a5a5a" stroke-miterlimit="10" stroke-width="0.7"/>
        <path id="Path_51429" data-name="Path 51429" d="M606.782,852.4a.625.625,0,0,0-.649-.913" transform="translate(-600.387 -844.295)" fill="none" stroke="#5a5a5a" stroke-miterlimit="10" stroke-width="0.7"/>
        <path id="Path_51430" data-name="Path 51430" d="M612.22,827.09a.555.555,0,0,0,.048-.739.529.529,0,0,0-.52-.141" transform="translate(-605.466 -821.42)" fill="none" stroke="#5a5a5a" stroke-miterlimit="10" stroke-width="0.7"/>
        <path id="Path_51431" data-name="Path 51431" d="M614.265,801.9a.561.561,0,0,1,.264-.437.455.455,0,0,1,.222-.048" transform="translate(-607.743 -799.004)" fill="none" stroke="#5a5a5a" stroke-miterlimit="10" stroke-width="0.7"/>
        <path id="Path_51432" data-name="Path 51432" d="M604.463,841.055a.688.688,0,0,1,.626.345" transform="translate(-598.876 -834.864)" fill="none" stroke="#5a5a5a" stroke-miterlimit="10" stroke-width="0.7"/>
        <path id="Path_51433" data-name="Path 51433" d="M596.016,821.086a.511.511,0,0,0-.1-.811" transform="translate(-591.142 -816.067)" fill="none" stroke="#5a5a5a" stroke-miterlimit="10" stroke-width="0.7"/>
        <path id="Path_51434" data-name="Path 51434" d="M553.524,776.174a5.813,5.813,0,0,0-6.183,5.8c0,.1-1.338,2.1-1.338,2.1a.506.506,0,0,0,.4.81h.663v2.336a.816.816,0,0,0,.779.83l2.291.135v2.282h6.286l-.574-2.322a1.947,1.947,0,0,1,.48-1.811" transform="translate(-545.9 -776.162)" fill="none" stroke="#5a5a5a" stroke-miterlimit="10" stroke-width="0.7"/>
      </g>
    </g>
    <g id="Group_17059" data-name="Group 17059" transform="translate(1079.806 889.822)">
      <circle id="Ellipse_1128" data-name="Ellipse 1128" cx="7" cy="7" r="7" transform="translate(0.194 0.178)" fill="#008eff"/>
    </g>
  </g>
</svg>
