<svg xmlns="http://www.w3.org/2000/svg" width="25" height="22.644" viewBox="0 0 25 22.644">
  <g id="Group_29715" data-name="Group 29715" transform="translate(-300 -1238.642)">
    <path id="Path_75753" data-name="Path 75753" d="M324.518,1567.378H300.482a.482.482,0,0,1,0-.965h24.035a.482.482,0,0,1,0,.965Z" transform="translate(0 -313.555)" fill="#fff"/>
    <path id="Path_75754" data-name="Path 75754" d="M323.07,1257.143H301.9a1.927,1.927,0,0,1-1.9-1.9v-14.671a1.941,1.941,0,0,1,1.9-1.929H323.07a1.932,1.932,0,0,1,1.93,1.929v14.671A1.941,1.941,0,0,1,323.07,1257.143ZM301.9,1239.607a.963.963,0,0,0-.937.964v14.671a.961.961,0,0,0,.937.937H323.07a.964.964,0,0,0,.965-.937v-14.671a.966.966,0,0,0-.965-.964Z" transform="translate(0)" fill="#fff"/>
    <path id="Path_75755" data-name="Path 75755" d="M492.414,1739.445h-8.088a.482.482,0,0,1,0-.965h8.088a.482.482,0,0,1,0,.965Z" transform="translate(-175.87 -478.159)" fill="#fff"/>
    <path id="Path_75756" data-name="Path 75756" d="M515.078,1648.088a.506.506,0,0,1-.107-.012.483.483,0,0,1-.364-.577l.936-4.143a.483.483,0,0,1,.941.213l-.937,4.143A.483.483,0,0,1,515.078,1648.088Z" transform="translate(-205.287 -386.802)" fill="#fff"/>
    <path id="Path_75757" data-name="Path 75757" d="M619.38,1648.095a.483.483,0,0,1-.47-.376l-.937-4.143a.483.483,0,0,1,.941-.213l.936,4.142a.483.483,0,0,1-.364.577A.507.507,0,0,1,619.38,1648.095Z" transform="translate(-304.17 -386.809)" fill="#fff"/>
    <path id="Path_75758" data-name="Path 75758" d="M577.576,1605.323a.5.5,0,0,1-.5-.483.471.471,0,0,1,.468-.482h.028a.482.482,0,1,1,0,.965Z" transform="translate(-265.061 -349.854)" fill="#fff"/>
    <path id="Path_75759" data-name="Path 75759" d="M415.164,1297.426a.484.484,0,0,1-.281-.09l-4.767-3.405a.482.482,0,0,1,0-.785l4.767-3.405a.482.482,0,0,1,.763.393v1.277h4.484a.482.482,0,0,1,.482.482v.85l3.455-2.468-3.455-2.468v.822a.482.482,0,0,1-.482.482h-3.178a.482.482,0,1,1,0-.965h2.7v-1.277a.482.482,0,0,1,.763-.393l4.767,3.406a.483.483,0,0,1,0,.785l-4.767,3.405a.482.482,0,0,1-.763-.393v-1.305h-4.484a.482.482,0,0,1-.482-.482v-.822l-3.455,2.468,3.455,2.467v-.822a.482.482,0,0,1,.482-.482h3.15a.482.482,0,1,1,0,.965h-2.667v1.277a.482.482,0,0,1-.482.483Z" transform="translate(-105.147 -45.675)" fill="#fff"/>
  </g>
</svg>
