<svg xmlns="http://www.w3.org/2000/svg" width="24" height="26.667" viewBox="0 0 24 26.667"><defs><style>.a{fill:#ffffff;}</style></defs><path class="a" d="M648,205.706H636.4l-.781-1.858a1.825,1.825,0,0,0-1.691-1.114H627.66a1.82,1.82,0,0,0-1.83,1.806v15.728a1.82,1.82,0,0,0,1.83,1.806h9.706v1a3.2,3.2,0,0,0-2.722,2.686h-5.59a.458.458,0,1,0,0,.916h5.59a3.226,3.226,0,0,0,6.372,0h5.59a.458.458,0,1,0,0-.916h-5.59a3.2,3.2,0,0,0-2.722-2.686v-1H648a1.82,1.82,0,0,0,1.831-1.806V207.512A1.82,1.82,0,0,0,648,205.706Zm-7.874,20.514a2.3,2.3,0,1,1-2.3-2.265A2.283,2.283,0,0,1,640.125,226.22Zm8.777-5.953a.9.9,0,0,1-.9.89H627.66a.9.9,0,0,1-.9-.89V204.54a.9.9,0,0,1,.9-.89h6.271a.9.9,0,0,1,.833.549l.9,2.14a.464.464,0,0,0,.429.282H648a.9.9,0,0,1,.9.89Z" transform="translate(-625.83 -202.734)"/></svg>