<svg xmlns="http://www.w3.org/2000/svg" width="16.4" height="16.4" viewBox="0 0 16.4 16.4">
  <g id="Group_24333" data-name="Group 24333" transform="translate(-200 216.4) rotate(-90)">
    <path id="Path_69771" data-name="Path 69771" d="M642.769,208.884l-1.688,1.688V200.512a.512.512,0,1,0-1.025,0v10.059l-1.688-1.688a.512.512,0,0,0-.725.725l2.562,2.562a.512.512,0,0,0,.725,0l2.562-2.562a.513.513,0,0,0-.725-.725Z" transform="translate(-432.369)" fill="#0043db"/>
    <path id="Path_69772" data-name="Path 69772" d="M214.862,593.739h-3.587a.513.513,0,0,0,0,1.025h3.587a.513.513,0,0,1,.512.512v8.712a.513.513,0,0,1-.512.512H201.537a.513.513,0,0,1-.512-.512v-8.712a.513.513,0,0,1,.512-.512h3.587a.513.513,0,0,0,0-1.025h-3.587A1.539,1.539,0,0,0,200,595.276v8.712a1.539,1.539,0,0,0,1.537,1.537h13.325a1.539,1.539,0,0,0,1.537-1.537v-8.712A1.539,1.539,0,0,0,214.862,593.739Z" transform="translate(0 -389.127)" fill="#0043db"/>
  </g>
</svg>
