<svg xmlns="http://www.w3.org/2000/svg" width="24.903" height="24.98" viewBox="0 0 24.903 24.98">
  <g id="Group_24997" data-name="Group 24997" transform="translate(-367.549 126.621)">
    <path id="Path_75454" data-name="Path 75454" d="M373.562-116.153a2.584,2.584,0,0,1,1.876-.8h13.968A2.594,2.594,0,0,1,392-114.362v9.675a2.594,2.594,0,0,1-2.594,2.594H376.04" fill="none" stroke="#ffffff" stroke-linecap="round" stroke-linejoin="round" stroke-width="0.903"/>
    <g id="Group_24538" data-name="Group 24538">
      <path id="Path_75455" data-name="Path 75455" d="M386.022-116.956v-3.236a3.6,3.6,0,0,0-3.6-3.6,3.6,3.6,0,0,0-3.6,3.6v3.236" fill="none" stroke="#ffffff" stroke-linecap="round" stroke-linejoin="round" stroke-width="0.903"/>
      <path id="Path_75456" data-name="Path 75456" d="M376.444-116.956v-3.236a5.984,5.984,0,0,1,5.978-5.978,5.984,5.984,0,0,1,5.978,5.978v3.236" fill="none" stroke="#ffffff" stroke-linecap="round" stroke-linejoin="round" stroke-width="0.903"/>
    </g>
    <path id="Path_75457" data-name="Path 75457" d="M382.273-106.032a.891.891,0,0,1-.891-.891v-2.1a.2.2,0,0,0-.094-.167,2.082,2.082,0,0,1-.761-2.606,2.057,2.057,0,0,1,1.443-1.169,2.085,2.085,0,0,1,2.533,2.033,2.087,2.087,0,0,1-.947,1.742.2.2,0,0,0-.094.168v2.1a.891.891,0,0,1-.891.891Z" fill="none" stroke="#ffffff" stroke-linecap="round" stroke-linejoin="round" stroke-width="0.903"/>
    <path id="Path_75458" data-name="Path 75458" d="M372.844-114.408s-2.641,2.049-4.844,2.049v5.192a3.2,3.2,0,0,0,1.182,2.6c.772.572,3.08,2.093,3.178,2.158l.484.319.484-.319c.1-.065,2.4-1.586,3.178-2.158a3.2,3.2,0,0,0,1.182-2.6v-5.192C375.485-112.359,372.844-114.408,372.844-114.408Z" fill="none" stroke="#ffffff" stroke-linecap="round" stroke-linejoin="round" stroke-width="0.903"/>
    <path id="Path_75459" data-name="Path 75459" d="M370.866-108.535l1.613,1.613,2.637-2.637" fill="none" stroke="#ffffff" stroke-linecap="round" stroke-linejoin="round" stroke-width="0.903"/>
  </g>
</svg>
