<svg xmlns="http://www.w3.org/2000/svg" width="26.014" height="25.951" viewBox="0 0 26.014 25.951">
  <g id="Group_11256" data-name="Group 11256" transform="translate(-1186 -25)">
    <path id="Path_40422" data-name="Path 40422" d="M24.172,10.846l.26,2.774a8.977,8.977,0,0,1,3.034,1.248l2.136-1.8,2.343,2.343-1.8,2.136A8.86,8.86,0,0,1,31.416,20.6l2.756.251v3.3L31.4,24.4a2.137,2.137,0,0,1-.072.395,8.976,8.976,0,0,1-1.167,2.693l1.8,2.118-2.334,2.334-2.127-1.8a8.878,8.878,0,0,1-3.061,1.266l-.26,2.774h-3.3l-.251-2.747a8.977,8.977,0,0,1-3.061-1.266l-2.118,1.8L13.1,29.634l1.8-2.118a9.192,9.192,0,0,1-1.257-3.061l-2.792-.287v-3.3l2.765-.251a8.842,8.842,0,0,1,1.257-3.043l-1.8-2.145,2.334-2.334,2.136,1.8a8.977,8.977,0,0,1,3.043-1.248l.278-2.792h3.3m0-1.346h-3.3a1.346,1.346,0,0,0-1.338,1.221l-.171,1.8a11.032,11.032,0,0,0-1.652.682L16.3,12.022a1.338,1.338,0,0,0-1.8.081l-2.352,2.334a1.338,1.338,0,0,0-.081,1.8l1.167,1.418a9.416,9.416,0,0,0-.682,1.652l-1.8.162A1.346,1.346,0,0,0,9.54,20.81v3.3a1.346,1.346,0,0,0,1.221,1.338l1.8.171a9.937,9.937,0,0,0,.682,1.661l-1.158,1.4a1.338,1.338,0,0,0,.081,1.8L14.5,32.812a1.355,1.355,0,0,0,.952.395,1.311,1.311,0,0,0,.9-.314l1.391-1.158a10.431,10.431,0,0,0,1.67.7l.171,1.8a1.346,1.346,0,0,0,1.338,1.221h3.3a1.355,1.355,0,0,0,1.346-1.221l.162-1.8a10.1,10.1,0,0,0,1.67-.7l1.4,1.158a1.311,1.311,0,0,0,.9.314,1.373,1.373,0,0,0,.907-.323l2.334-2.334a1.355,1.355,0,0,0,.081-1.8l-1.167-1.4a9.757,9.757,0,0,0,.691-1.67l1.8-.162a1.346,1.346,0,0,0,1.221-1.338V20.864a1.346,1.346,0,0,0-1.221-1.346l-1.8-.162a10.161,10.161,0,0,0-.682-1.652l1.167-1.418a1.364,1.364,0,0,0-.081-1.8L30.6,12.139a1.373,1.373,0,0,0-1-.395,1.32,1.32,0,0,0-.853.314l-1.418,1.176a10.924,10.924,0,0,0-1.643-.682l-.171-1.8a1.355,1.355,0,0,0-1.346-1.221Z" transform="translate(1176.46 15.5)" fill="#5a5a5a"/>
    <path id="Path_40423" data-name="Path 40423" d="M23.412,28.573a5.162,5.162,0,1,1,5.162-5.162A5.162,5.162,0,0,1,23.412,28.573Zm0-8.977a3.815,3.815,0,1,0,3.815,3.815,3.77,3.77,0,0,0-.969-2.54A3.833,3.833,0,0,0,23.412,19.6Z" transform="translate(1175.569 14.604)" fill="#5a5a5a"/>
  </g>
</svg>
