<svg xmlns="http://www.w3.org/2000/svg" width="16" height="14.166" viewBox="0 0 16 14.166"><defs><style>.a{fill:#000000;}</style></defs><g transform="translate(-22.013 -25)"><path class="a" d="M34.605,31.52H27.492a.741.741,0,0,1,0-1.482h7.113a.741.741,0,0,1,0,1.482Zm3.408-4.594a.734.734,0,0,0-.741-.741h-9.78a.741.741,0,1,0,0,1.482h9.78A.734.734,0,0,0,38.013,26.926Zm-5.335,7.706a.734.734,0,0,0-.741-.741H27.492a.741.741,0,1,0,0,1.482h4.446A.734.734,0,0,0,32.679,34.632ZM26.9,36.647a.749.749,0,0,0-1.037-.148l-.593.445v-11.2a.741.741,0,1,0-1.482,0v11.2l-.593-.445a.741.741,0,1,0-.889,1.185l1.778,1.334a.741.741,0,0,0,.889,0l1.778-1.334A.753.753,0,0,0,26.9,36.647Z"/></g></svg>