<svg xmlns="http://www.w3.org/2000/svg" width="16" height="14.174" viewBox="0 0 16 14.174"><g transform="translate(-23.013 -26.075)"><path d="M35.605,35.566H28.492a.741.741,0,0,1,0-1.482h7.113a.741.741,0,0,1,0,1.482Zm3.408-4.594a.734.734,0,0,0-.741-.741h-9.78a.741.741,0,0,0,0,1.482h9.78A.734.734,0,0,0,39.013,30.973Zm-5.335,7.706a.734.734,0,0,0-.741-.741H28.492a.741.741,0,0,0,0,1.482h4.446A.734.734,0,0,0,33.679,38.678ZM27.751,27.564l-1.778-1.334a.713.713,0,0,0-.889,0l-1.778,1.334a.741.741,0,0,0,.889,1.185l.593-.445v11.2a.741.741,0,1,0,1.482,0v-11.2l.593.445a.8.8,0,0,0,.445.148.692.692,0,0,0,.593-.3A.753.753,0,0,0,27.751,27.564Z"/></g></svg>