<svg xmlns="http://www.w3.org/2000/svg" xmlns:xlink="http://www.w3.org/1999/xlink" width="25.673" height="25.673" viewBox="0 0 25.673 25.673">
  <defs>
    <clipPath id="clip-path">
      <path id="Path_40791" data-name="Path 40791" d="M870.565,197.108l1.63-1.651a.478.478,0,0,0,0-.668l-1.63-1.651a.461.461,0,0,0-.658,0,.477.477,0,0,0,0,.668l.834.845h-9.118a.472.472,0,0,0,0,.944h9.118l-.834.845a.476.476,0,0,0,0,.668A.461.461,0,0,0,870.565,197.108Z" transform="translate(-861.158 -193)" fill="none"/>
    </clipPath>
    <clipPath id="clip-path-2">
      <rect id="Rectangle_4385" data-name="Rectangle 4385" width="1359" height="881" transform="translate(-0.265)" fill="none"/>
    </clipPath>
    <clipPath id="clip-path-3">
      <path id="Path_40792" data-name="Path 40792" d="M863.582,201.608a.477.477,0,0,0,0-.668l-.835-.845h9.119a.472.472,0,0,0,0-.944h-9.119l.835-.845a.477.477,0,0,0,0-.668.462.462,0,0,0-.659,0l-1.629,1.651a.478.478,0,0,0,0,.668l1.629,1.651A.462.462,0,0,0,863.582,201.608Z" transform="translate(-861.158 -197.5)" fill="none"/>
    </clipPath>
  </defs>
  <g id="Group_13584" data-name="Group 13584" transform="translate(0.617 0.617)">
    <circle id="Ellipse_376" data-name="Ellipse 376" cx="9.907" cy="9.907" r="9.907" transform="translate(0 19.073) rotate(-74.286)" fill="none" stroke="#414041" stroke-miterlimit="10" stroke-width="1"/>
    <g id="Group_13481" data-name="Group 13481" transform="translate(7.236 7.974)">
      <g id="Group_13480" data-name="Group 13480" clip-path="url(#clip-path)">
        <g id="Group_13479" data-name="Group 13479" transform="translate(-813.332 -182.099)">
          <g id="Group_13478" data-name="Group 13478" clip-path="url(#clip-path-2)">
            <rect id="Rectangle_4384" data-name="Rectangle 4384" width="20.608" height="13.681" transform="translate(808.614 177.382)"/>
          </g>
        </g>
      </g>
    </g>
    <g id="Group_13485" data-name="Group 13485" transform="translate(7.236 12.22)">
      <g id="Group_13484" data-name="Group 13484" clip-path="url(#clip-path-3)">
        <g id="Group_13483" data-name="Group 13483" transform="translate(-813.332 -186.345)">
          <g id="Group_13482" data-name="Group 13482" clip-path="url(#clip-path-2)">
            <rect id="Rectangle_4386" data-name="Rectangle 4386" width="20.608" height="13.681" transform="translate(808.614 181.628)"/>
          </g>
        </g>
      </g>
    </g>
  </g>
</svg>
