<svg id="Group_45524" data-name="Group 45524" xmlns="http://www.w3.org/2000/svg" width="28.307" height="17.721" viewBox="0 0 28.307 17.721">
  <path id="Icon_awesome-chevron-right" data-name="Icon awesome-chevron-right" d="M12.4,12.2,4.516,20.083a.974.974,0,0,1-1.377,0l-.92-.92a.974.974,0,0,1,0-1.376l6.25-6.28-6.25-6.28a.974.974,0,0,1,0-1.376l.92-.92a.974.974,0,0,1,1.377,0L12.4,10.819A.974.974,0,0,1,12.4,12.2Z" transform="translate(-1.933 -2.648)" fill="#a122ff"/>
  <path id="Icon_awesome-chevron-right-2" data-name="Icon awesome-chevron-right" d="M12.4,12.2,4.516,20.083a.974.974,0,0,1-1.377,0l-.92-.92a.974.974,0,0,1,0-1.376l6.25-6.28-6.25-6.28a.974.974,0,0,1,0-1.376l.92-.92a.974.974,0,0,1,1.377,0L12.4,10.819A.974.974,0,0,1,12.4,12.2Z" transform="translate(6.843 -2.648)" fill="#a122ff"/>
  <path id="Icon_awesome-chevron-right-3" data-name="Icon awesome-chevron-right" d="M12.4,12.2,4.516,20.083a.974.974,0,0,1-1.377,0l-.92-.92a.974.974,0,0,1,0-1.376l6.25-6.28-6.25-6.28a.974.974,0,0,1,0-1.376l.92-.92a.974.974,0,0,1,1.377,0L12.4,10.819A.974.974,0,0,1,12.4,12.2Z" transform="translate(15.619 -2.648)" fill="#a122ff"/>
</svg>
