<svg xmlns="http://www.w3.org/2000/svg" width="19.988" height="19.991" viewBox="0 0 19.988 19.991">
  <path id="Path_51419" data-name="Path 51419" d="M-846.3-434.359c-.02.08-.042.16-.059.24a3.146,3.146,0,0,1-1.609,2.163.357.357,0,0,0-.212.36c.008,1.573,0,3.146.008,4.719a1.767,1.767,0,0,1-.55,1.324q-3.824,3.815-7.638,7.64a2.167,2.167,0,0,1-.948.652h-.468a2.467,2.467,0,0,1-.993-.719q-3.529-3.537-7.065-7.067a1.224,1.224,0,0,1-.371-1.377,1.506,1.506,0,0,1,.335-.516q3.953-3.969,7.917-7.926a1.674,1.674,0,0,1,1.242-.51c1.776,0,3.552,0,5.328,0a.214.214,0,0,0,.249-.167,2.49,2.49,0,0,1,2.575-1.705,2.5,2.5,0,0,1,2.224,2.075.26.26,0,0,0,.034.067Zm-4.072,2.512a5.371,5.371,0,0,0,1.465-.314.184.184,0,0,0,.146-.209c-.006-.54,0-1.08,0-1.62s-.243-.8-.8-.8q-3.541,0-7.082,0a1.248,1.248,0,0,0-.939.388q-3.9,3.917-7.82,7.825a.68.68,0,0,0,0,1.121l7.312,7.313a.675.675,0,0,0,1.107.007q3.918-3.919,7.837-7.836a1.226,1.226,0,0,0,.383-.921c-.005-1.483,0-2.966,0-4.449v-.223c-.284.074-.537.151-.8.2s-.527.074-.788.124c-.046.008-.094.078-.115.13a1.536,1.536,0,0,1-1.726.992,1.55,1.55,0,0,1-1.264-1.437,1.552,1.552,0,0,1,1.719-1.617A1.576,1.576,0,0,1-850.376-431.847Zm2.2-.682a2.476,2.476,0,0,0,1.271-2,1.834,1.834,0,0,0-.8-1.775,1.789,1.789,0,0,0-1.9-.157,1.822,1.822,0,0,0-.966,1.091h1.036a1.249,1.249,0,0,1,1.358,1.358C-848.179-433.528-848.179-433.042-848.179-432.529Zm-2.9,1.314c-.288-.04-.565-.07-.839-.119a.3.3,0,0,1-.28-.369c.036-.168.186-.244.4-.213.266.039.533.07.81.105a.944.944,0,0,0-.949-.776.957.957,0,0,0-.923.823.955.955,0,0,0,.671,1.038A.924.924,0,0,0-851.079-431.216Z" transform="translate(866.292 437.251)" fill="#5a5a5a"/>
</svg>
