<svg xmlns="http://www.w3.org/2000/svg" width="16.567" height="15.273" viewBox="0 0 16.567 15.273"><defs><style>.a{fill:#0d0d0d;}</style></defs><g transform="translate(-617.001 -1689.001)"><g transform="translate(617 1689)"><path class="a" d="M14.142,22.426A8.284,8.284,0,0,0,1.419,32.919l1.072-.726a6.99,6.99,0,1,1,11.586,0l1.072.726a8.282,8.282,0,0,0-1.007-10.493Z" transform="translate(0 -20)"/></g><g transform="translate(625 1691)"><circle class="a" cx="0.6" cy="0.6" r="0.6" transform="translate(0 0)"/></g><g transform="translate(619 1697.001)"><g transform="translate(0 -0.001)"><circle class="a" cx="0.6" cy="0.6" r="0.6" transform="translate(0 0)"/></g></g><g transform="translate(622 1694)"><circle class="a"/></g><g transform="translate(630 1697.001)"><g transform="translate(0 -0.001)"><circle class="a" cx="0.6" cy="0.6" r="0.6" transform="translate(0 0)"/></g></g><g transform="translate(624 1692.928)"><path class="a" d="M229.393,142.273l-.915-.915-3.328,3.328a1.036,1.036,0,1,0,.922,1.029,1.057,1.057,0,0,0-.006-.114Z" transform="translate(-224 -141.358)"/></g><g transform="translate(622 1700.391)"><path class="a" d="M146,372v3.883h7.119V372Zm5.825,2.589h-4.531v-1.294h4.531Z" transform="translate(-146 -372)"/></g></g></svg>