<svg xmlns="http://www.w3.org/2000/svg" width="14.265" height="14.286" viewBox="0 0 14.265 14.286"><defs><style>.a{fill-rule:evenodd;}.b{fill:none;stroke:#080808;stroke-linecap:round;stroke-linejoin:round;stroke-width:1.5px;}</style></defs><g transform="translate(-1331.903 -1125)"><g transform="translate(0.51 1025)"><g transform="translate(1329 98)"><path class="a" d="M12.857,7V3.429h.714a.716.716,0,0,0,.714-.714h0A.716.716,0,0,0,13.571,2H6.429a.716.716,0,0,0-.714.714h0a.716.716,0,0,0,.714.714h.714V7A2.14,2.14,0,0,1,5,9.143H5v1.429H9.264v5l.714.714.714-.714v-5H15V9.143h0A2.14,2.14,0,0,1,12.857,7Z"/></g><path class="b" d="M1.5,1.5,13.178,12.96" transform="translate(1330.939 100.173) rotate(-2)"/></g></g></svg>