<svg xmlns="http://www.w3.org/2000/svg" width="14.3" height="14.3" viewBox="0 0 14.3 14.3"><defs><style>.a{stroke:#fff;stroke-miterlimit:10;stroke-width:0.3px;}</style></defs><g transform="translate(0.15 0.15)"><path class="a" d="M9,13.75c-2.34,0-7,1.17-7,3.5V19H16V17.25C16,14.92,11.34,13.75,9,13.75ZM4.34,17A9.642,9.642,0,0,1,9,15.75,9.642,9.642,0,0,1,13.66,17Z" transform="translate(-2 -5)"/><path class="a" d="M9,12A3.5,3.5,0,1,0,5.5,8.5,3.5,3.5,0,0,0,9,12ZM9,7A1.5,1.5,0,1,1,7.5,8.5,1.5,1.5,0,0,1,9,7Z" transform="translate(-2 -5)"/></g></svg>