<svg xmlns="http://www.w3.org/2000/svg" width="25.946" height="27.887" viewBox="0 0 25.946 27.887">
  <g id="Group_11243" data-name="Group 11243" transform="translate(-1127.3 -22.357)">
    <path id="Stroke-3" d="M35.832,339.7a17.709,17.709,0,0,1,9.572-2.862l.024-3.265" transform="translate(1092.168 -290.285)" fill="none" stroke="#008" stroke-linecap="round" stroke-linejoin="round" stroke-width="1"/>
    <path id="Stroke-5" d="M269.289,330.944l-.037,3.442a17.226,17.226,0,0,1,8.857,2.992" transform="translate(874.442 -287.828)" fill="none" stroke="#008" stroke-linecap="round" stroke-linejoin="round" stroke-width="1"/>
    <path id="Stroke-7" d="M106.969,50.245a13.263,13.263,0,0,1-3.482-5.543c-1.257.1-1.664-1.637-1.834-2.722-.262-1.673.838-1.778.839-1.778-.174.017-.413-1.723-.426-1.827-.312-2.439.016-4.657,1.822-6.436a8.882,8.882,0,0,1,6.327-2.305c6.463,0,7.985,5,7.985,7.248a5.867,5.867,0,0,1-.878,3.424s.947-.264.576,2.145c-.211,1.361-1.415,2.931-1.885,2.251a10.853,10.853,0,0,1-3.667,5.7,4.07,4.07,0,0,1-5.376-.154Z" transform="translate(1030.81 -6.776)" fill="none" stroke="#008" stroke-linecap="round" stroke-linejoin="round" stroke-width="1"/>
    <path id="Stroke-9" d="M193.344,121.572a2.334,2.334,0,0,0-.906,3.175" transform="translate(946.366 -92.533)" fill="none" stroke="#00f3ff" stroke-linecap="round" stroke-linejoin="round" stroke-width="1"/>
    <path id="Stroke-11" d="M208.559,171a2.34,2.34,0,0,0,3.219-.75" transform="translate(931.054 -137.935)" fill="none" stroke="#00f3ff" stroke-linecap="round" stroke-linejoin="round" stroke-width="1"/>
    <path id="Stroke-13" d="M229.264,119.538a2.334,2.334,0,0,0-2.336-2.333" transform="translate(913.92 -88.46)" fill="none" stroke="#00f3ff" stroke-linecap="round" stroke-linejoin="round" stroke-width="1"/>
    <path id="Stroke-15" d="M195.225,74.506a5.38,5.38,0,0,0-7.311-2.081" transform="translate(950.311 -46.058)" fill="none" stroke="#00baff" stroke-linecap="round" stroke-linejoin="round" stroke-width="1"/>
    <path id="Stroke-17" d="M147.611,109.45a5.364,5.364,0,0,0,1.729,7.394" transform="translate(988.661 -81.226)" fill="none" stroke="#00baff" stroke-linecap="round" stroke-linejoin="round" stroke-width="1"/>
    <path id="Stroke-19" d="M226.78,156.972a5.373,5.373,0,0,0,5.379-5.369" transform="translate(914.058 -120.545)" fill="none" stroke="#00baff" stroke-linecap="round" stroke-linejoin="round" stroke-width="1"/>
  </g>
</svg>
