<svg id="Group_15829" data-name="Group 15829" xmlns="http://www.w3.org/2000/svg" width="16.437" height="19.592" viewBox="0 0 16.437 19.592">
  <path id="Path_51412" data-name="Path 51412" d="M-696.663,297.381c-.22,0-.431.009-.64,0a1.572,1.572,0,0,1-.429-.071,1.118,1.118,0,0,1-.721-1.037q0-1.336,0-2.673,0-3.825,0-7.651c0-.782,0-1.564,0-2.346q0-1.466,0-2.932a1.1,1.1,0,0,1,1.119-1.119h8.865c.237,0,.333.1.334.333,0,.428,0,.857,0,1.285v.133c.046,0,.085.006.124.006.439,0,.877,0,1.316,0a.427.427,0,0,1,.327.134q2.107,2.112,4.219,4.219a.427.427,0,0,1,.132.326q0,5.2,0,10.406,0,.81,0,1.621a1.1,1.1,0,0,1-1.128,1.129h-12.374A1.106,1.106,0,0,1-696.663,298C-696.664,297.8-696.663,297.6-696.663,297.381Zm9.771-15.519h-3.359q-2.627,0-5.254,0a.715.715,0,0,0-.211.027.561.561,0,0,0-.4.6q0,1.75,0,3.5,0,4.779,0,9.557,0,1.209,0,2.418a.562.562,0,0,0,.622.627h12.324a.555.555,0,0,0,.595-.6q0-1.571,0-3.142,0-4.259,0-8.519v-.143h-4.005a.278.278,0,0,1-.318-.318v-4Zm-9.77,14.987v-.134q0-.748,0-1.5,0-3.234,0-6.468,0-3.1,0-6.193a1.254,1.254,0,0,1,.158-.694,1.18,1.18,0,0,1,.456-.432,1.338,1.338,0,0,1,.653-.124h6.7V280.1H-695c-.758,0-1.517,0-2.275,0a.567.567,0,0,0-.632.628q0,1.269,0,2.538,0,2.413,0,4.826,0,4.05,0,8.1c0,.065,0,.129.01.193a.5.5,0,0,0,.346.4C-697.259,296.82-696.968,296.828-696.662,296.848Zm13.67-11.219-3.342-3.339v3.339Z" transform="translate(698.454 -279.549)" fill="#5a5a5a"/>
  <path id="Path_51413" data-name="Path 51413" d="M-574.831,646.546h-4.263a.328.328,0,0,1-.275-.1.273.273,0,0,1,.146-.443.575.575,0,0,1,.122-.01h8.567a.286.286,0,0,1,.317.273c0,.167-.131.282-.33.282Z" transform="translate(583.956 -632.067)" fill="#5a5a5a"/>
  <path id="Path_51414" data-name="Path 51414" d="M-576.568,506.887h5.972c.195,0,.3.063.336.2a.274.274,0,0,1-.284.352c-.2,0-.394,0-.592,0q-1.244,0-2.489,0c-.256,0-.513-.013-.769-.012-.693,0-1.386.012-2.079.013-.891,0-1.781,0-2.672,0a.289.289,0,0,1-.293-.161.271.271,0,0,1,.2-.383.832.832,0,0,1,.142-.009Z" transform="translate(583.985 -498.249)" fill="#5a5a5a"/>
  <path id="Path_51415" data-name="Path 51415" d="M-574.849,553.3h4.284a.3.3,0,0,1,.263.1.274.274,0,0,1-.147.438.636.636,0,0,1-.152.012h-8.5c-.034,0-.068,0-.1,0a.278.278,0,0,1-.257-.289.272.272,0,0,1,.274-.26c.391,0,.782,0,1.173,0h3.16Z" transform="translate(583.978 -542.899)" fill="#5a5a5a"/>
  <path id="Path_51416" data-name="Path 51416" d="M-574.918,600.175q-2.137,0-4.274,0a.444.444,0,0,1-.234-.072.245.245,0,0,1-.078-.294.274.274,0,0,1,.268-.183c.323,0,.646,0,.969,0h7.65a.278.278,0,0,1,.277.411.268.268,0,0,1-.253.141h-4.325Z" transform="translate(584.041 -587.461)" fill="#5a5a5a"/>
  <path id="Path_51417" data-name="Path 51417" d="M-574.874,692.374q2.142,0,4.284,0a.292.292,0,0,1,.285.141.275.275,0,0,1-.246.411c-.231,0-.462,0-.694,0H-579.1c-.034,0-.068,0-.1,0a.281.281,0,0,1-.285-.273.277.277,0,0,1,.288-.278c.323,0,.646,0,.969,0Z" transform="translate(584.007 -676.687)" fill="#5a5a5a"/>
  <path id="Path_51418" data-name="Path 51418" d="M-574.877,739.229h-4.243a.636.636,0,0,1-.162-.013.272.272,0,0,1-.194-.279.278.278,0,0,1,.237-.256.657.657,0,0,1,.112,0q4.258,0,8.516,0a.5.5,0,0,1,.24.06.252.252,0,0,1,.1.3.262.262,0,0,1-.259.191c-.4,0-.8,0-1.2,0h-3.141Z" transform="translate(583.997 -721.231)" fill="#5a5a5a"/>
</svg>
